<svg width="30" height="31" viewBox="0 0 30 31" fill="none" xmlns="http://www.w3.org/2000/svg">
<path d="M0 15.2595C0 6.97525 6.71573 0.259521 15 0.259521V0.259521C23.2843 0.259521 30 6.97525 30 15.2595V15.2595C30 23.5438 23.2843 30.2595 15 30.2595V30.2595C6.71573 30.2595 0 23.5438 0 15.2595V15.2595Z" fill="url(#paint0_linear)"/>
<path d="M10.6362 21.9934L10.8506 21.3071L14.7108 19.3342L19.729 16.9323L19.8577 17.0181C19.9863 17.1039 20.115 17.1467 20.2866 17.1039C20.4153 17.061 20.5439 17.0181 20.6726 16.9323C20.7584 16.8465 20.8013 16.7607 20.7155 16.6749L20.5868 16.5034L20.6726 16.0745C20.6726 16.0316 20.6726 16.0316 20.6297 15.9887L20.501 15.7742C20.4153 15.6885 20.2866 15.6456 20.1579 15.6885C19.9863 15.7313 19.8148 15.7742 19.7719 15.8171C19.6861 15.86 19.4717 16.3318 19.4717 16.3318L16.3406 17.9188L10.5504 20.6638C10.5504 20.6638 9.69257 20.6209 9.43523 20.7925L9.39234 20.8353C9.22078 20.964 9.17789 21.2214 9.34945 21.35L9.5639 21.5645L9.77836 22.1221C9.82125 22.2507 9.94992 22.3365 10.0786 22.3365H10.293C10.4217 22.2936 10.5504 22.165 10.6362 21.9934Z" fill="black"/>
<path d="M13.6394 17.876L10.5083 16.2891C10.5083 16.2891 10.2939 15.8173 10.2081 15.7744C10.1652 15.7315 9.95075 15.6886 9.82208 15.6457C9.69341 15.6028 9.52184 15.6457 9.47895 15.7315L9.35028 15.946C9.35028 15.9889 9.30739 15.9889 9.30739 16.0317L9.39317 16.4607L9.2645 16.6322C9.22161 16.718 9.22161 16.8038 9.30739 16.8896C9.39317 16.9753 9.52184 17.0182 9.69341 17.0611C9.86497 17.104 10.0365 17.0611 10.1223 16.9753L10.251 16.8896L13.9396 18.691L14.6687 18.3478L13.6394 17.876Z" fill="black"/>
<path d="M19.0869 21.3071L19.3013 21.9933C19.3442 22.1649 19.5158 22.2935 19.7302 22.2935H19.9447C20.0734 22.2935 20.202 22.2078 20.2449 22.0791L20.4594 21.5215L20.6738 21.3071C20.8025 21.1355 20.8025 20.921 20.6309 20.7924L20.5881 20.7495C20.3307 20.5779 19.4729 20.6208 19.4729 20.6208L16.0416 18.991L15.3125 19.3341L19.0869 21.3071Z" fill="black"/>
<path d="M19.0005 11.0563C18.9576 10.9276 18.9576 10.8418 18.9148 10.7561C18.8719 10.6274 18.829 10.4987 18.7861 10.4129C18.7432 10.3272 18.7003 10.2414 18.6574 10.1985C18.6145 10.1556 18.5716 10.0698 18.5287 10.0269C18.4858 9.94114 18.443 9.89824 18.4001 9.81246C18.4001 9.76957 18.3572 9.76957 18.3572 9.72668C18.3143 9.68379 18.2714 9.6409 18.2285 9.55512C18.1856 9.51223 18.1427 9.46934 18.0998 9.38356L18.0569 9.34067C18.014 9.29778 17.9283 9.21199 17.8854 9.1691L17.8425 9.12621C17.7996 9.08332 17.7138 9.04043 17.6709 8.99754C17.628 8.95465 17.5851 8.95465 17.5422 8.91176L17.4994 8.86887C17.4565 8.82598 17.3707 8.78309 17.3278 8.78309C17.2849 8.78309 17.2849 8.7402 17.242 8.7402C17.1991 8.7402 17.1562 8.69731 17.1133 8.69731C17.0705 8.65442 16.9847 8.65441 16.9418 8.61152C16.9418 8.61152 16.8989 8.61152 16.8989 8.56863C16.856 8.52574 16.7702 8.52574 16.7273 8.48285H16.6844C16.6415 8.48285 16.5987 8.43996 16.5558 8.43996C16.5129 8.43996 16.5129 8.43996 16.47 8.39707C16.4271 8.39707 16.3842 8.35418 16.3413 8.35418C16.2984 8.35418 16.2555 8.35418 16.2555 8.31129C16.2126 8.31129 16.1697 8.31129 16.1269 8.2684C16.084 8.2684 16.0411 8.2684 15.9982 8.22551C15.9553 8.22551 15.9124 8.22551 15.8695 8.22551C15.8266 8.22551 15.8266 8.22551 15.7837 8.22551C15.7408 8.22551 15.6551 8.22551 15.6122 8.18262C15.5693 8.18262 15.5264 8.18262 15.4835 8.18262H15.4406C15.3119 8.18262 15.2262 8.18262 15.1833 8.18262C15.1404 8.18262 15.0975 8.18262 15.0546 8.18262H15.0117C14.9688 8.18262 14.883 8.18262 14.8401 8.18262H14.7972C14.7543 8.18262 14.7115 8.18262 14.6686 8.18262C14.6257 8.18262 14.5399 8.18262 14.497 8.22551C14.4541 8.22551 14.4112 8.22551 14.4112 8.22551C14.3683 8.22551 14.3683 8.22551 14.3254 8.22551C14.2826 8.22551 14.2397 8.22551 14.1968 8.2684C14.1539 8.2684 14.1539 8.2684 14.111 8.2684C14.0681 8.2684 14.0252 8.31129 13.9823 8.31129C13.9394 8.31129 13.9394 8.31129 13.8965 8.35418C13.8536 8.35418 13.8536 8.35418 13.8108 8.39707C13.7679 8.39707 13.6821 8.43996 13.6392 8.48285C13.5105 8.52574 13.4247 8.56863 13.2961 8.61152C13.2961 8.61152 13.2532 8.61153 13.2532 8.65442C13.2103 8.69731 13.1245 8.69731 13.0816 8.7402C13.0387 8.7402 13.0387 8.78309 12.9958 8.78309C12.9529 8.78309 12.9529 8.82598 12.9101 8.82598C12.8243 8.86887 12.7385 8.91176 12.6956 8.95465C12.6956 8.95465 12.6527 8.95465 12.6527 8.99754C12.6098 9.04043 12.5669 9.08332 12.524 9.12621C12.4811 9.1691 12.4383 9.1691 12.3954 9.21199C12.3525 9.25489 12.3525 9.25489 12.3096 9.29778C12.2667 9.34067 12.2238 9.38356 12.1809 9.42645C12.138 9.46934 12.0951 9.51223 12.0522 9.55512C12.0093 9.59801 11.9665 9.68379 11.9236 9.72668C11.8807 9.76957 11.8807 9.81246 11.8378 9.85536C11.7949 9.94114 11.752 10.0269 11.7091 10.1127C11.6662 10.1556 11.6662 10.1985 11.6233 10.2843C11.5804 10.37 11.5375 10.4129 11.5375 10.4987C11.4518 10.7132 11.4089 10.9705 11.366 11.2279C11.2802 11.6139 11.2802 12.0857 11.3231 12.5575C11.3231 12.5575 11.3231 12.729 11.366 12.9435C11.4089 13.3295 11.4518 13.8871 11.5375 14.316C11.5804 14.4447 11.5804 14.5304 11.6233 14.6162V14.6591C11.6233 14.702 11.6233 14.7449 11.6233 14.7878C11.6233 14.7878 11.6233 14.7878 11.5804 14.8307C11.5804 14.8307 11.5375 14.8736 11.4947 14.8736C11.4089 14.9593 11.3231 15.0451 11.4089 15.2167C11.4518 15.2596 11.4518 15.3454 11.4947 15.3883C11.5375 15.4311 11.5375 15.474 11.5804 15.5169C11.6233 15.5598 11.6233 15.5598 11.6662 15.6027C11.7091 15.6456 11.752 15.6885 11.7949 15.7314C11.8378 15.7743 11.8378 15.7743 11.8807 15.8172C11.9236 15.8601 11.9665 15.9029 12.0093 15.9029C12.0522 15.9458 12.0951 15.9458 12.138 15.9887C12.1809 16.0316 12.2238 16.0316 12.2667 16.0316C12.3096 16.0316 12.3096 16.0316 12.3525 16.0316C12.3954 16.0316 12.4383 16.0316 12.4811 16.0316C12.524 16.0316 12.5669 16.0316 12.6098 15.9887H12.6527C12.7385 15.9887 12.8243 15.9887 12.8672 15.9887C12.91 15.9887 12.9101 15.9887 12.9529 15.9887C12.9958 15.9887 12.9958 15.9887 13.0387 15.9887C13.0816 15.9887 13.1674 16.0316 13.2103 16.0316C13.2103 16.0316 13.2532 16.0316 13.2532 16.0745C13.2532 16.0745 13.2961 16.1174 13.2961 16.2032C13.4247 16.675 13.8536 16.9752 14.3254 16.9752H15.9553C16.4271 16.9752 16.856 16.675 16.9847 16.2461C16.9847 16.2461 16.9847 16.2461 16.9847 16.2032C17.0276 16.1603 17.0704 16.1174 17.1562 16.0745C17.1991 16.0745 17.242 16.0316 17.2849 16.0316C17.3278 16.0316 17.3278 16.0316 17.3707 16.0316C17.4136 16.0316 17.4994 16.0316 17.5422 16.0316H17.5851C17.628 16.0316 17.6709 16.0316 17.7138 16.0316C17.7567 16.0316 17.8425 16.0316 17.8854 16.0745H17.9283C17.9712 16.0745 18.014 16.0745 18.0569 16.0745H18.0998H18.1427C18.1856 16.0745 18.2285 16.0316 18.2714 15.9887C18.3143 15.9458 18.3572 15.9458 18.4001 15.9029L18.443 15.8601C18.4858 15.8172 18.5287 15.7743 18.5716 15.7314C18.6145 15.6885 18.6574 15.6456 18.7003 15.6456C18.7432 15.6027 18.7861 15.5598 18.829 15.5169C18.8719 15.4311 18.9148 15.3883 18.9576 15.3454C18.9576 15.3025 19.0005 15.3025 19.0005 15.3025C19.0434 15.1738 19.0005 15.088 18.9576 15.0451C18.9148 15.0022 18.8719 14.9593 18.829 14.9165C18.7861 14.8736 18.7432 14.8307 18.7861 14.7878C18.7861 14.7449 18.829 14.702 18.829 14.6591C18.8719 14.4876 18.9148 14.2731 18.9576 14.0586C19.0005 13.8442 19.0005 13.6297 19.0434 13.4582C19.0863 13.0293 19.0863 12.6861 19.0863 12.6861C19.1292 11.9999 19.0863 11.4852 19.0005 11.0563ZM14.2826 14.0158C14.2826 14.0586 14.2826 14.0586 14.2826 14.1015C14.2826 14.1873 14.2397 14.2731 14.1968 14.3589C14.1539 14.4447 14.111 14.4876 14.0681 14.5733C14.0252 14.6162 14.0252 14.6162 13.9823 14.6591C13.9394 14.702 13.8965 14.7449 13.8536 14.7449C13.8108 14.7449 13.8108 14.7878 13.7679 14.7878C13.725 14.7878 13.725 14.8307 13.6821 14.8307C13.6392 14.8307 13.5534 14.8736 13.5105 14.8736C13.4676 14.8736 13.4247 14.8736 13.3819 14.8736C13.2961 14.8736 13.2103 14.8736 13.1674 14.8736H13.1245C13.0816 14.8736 12.9958 14.8736 12.9529 14.8736C12.9101 14.8736 12.91 14.8736 12.8672 14.8736C12.8243 14.8736 12.8243 14.8736 12.7814 14.8736C12.6956 14.8736 12.6098 14.8307 12.5669 14.8307H12.524C12.4811 14.7878 12.4383 14.7878 12.3954 14.7449C12.3525 14.702 12.3096 14.702 12.2667 14.6591C12.2238 14.6162 12.2238 14.6162 12.1809 14.5733C12.138 14.4876 12.0951 14.4018 12.0522 14.316C11.9665 14.0586 12.0093 13.7584 12.0522 13.6297C12.0951 13.544 12.138 13.5011 12.1809 13.4153C12.2238 13.3724 12.2238 13.3724 12.2667 13.3295C12.3096 13.2866 12.3525 13.2437 12.3954 13.2437C12.4383 13.2008 12.4811 13.2008 12.524 13.1579H12.5669C12.6527 13.115 12.6956 13.115 12.7814 13.0722C12.8243 13.0722 12.8243 13.0722 12.8672 13.0722C12.91 13.0722 12.9101 13.0722 12.9529 13.0722C12.9958 13.0722 13.0816 13.0722 13.1245 13.0293H13.1674C13.2532 13.0293 13.2961 13.0293 13.3819 13.0293C13.3819 13.0293 13.3818 13.0293 13.4247 13.0293C13.4676 13.0293 13.5105 13.0293 13.5534 13.0293C13.6392 13.0293 13.6821 13.0722 13.725 13.0722C13.7679 13.0722 13.8108 13.115 13.8108 13.115C13.8536 13.115 13.8536 13.1579 13.8965 13.1579C13.9394 13.2008 13.9823 13.2437 14.0252 13.2866C14.0681 13.3295 14.0681 13.3295 14.111 13.3724C14.1539 13.4582 14.2397 13.5011 14.2397 13.5868C14.2826 13.6726 14.2826 13.7155 14.3254 13.8013C14.2826 13.8013 14.2826 13.8871 14.2826 14.0158ZM15.5264 15.4311C15.4835 15.474 15.4406 15.5169 15.3977 15.5169H15.3548C15.3119 15.5169 15.3119 15.5169 15.3119 15.474C15.3119 15.2596 15.0975 14.6591 15.0975 14.6591C15.0975 14.6591 15.0117 14.9165 14.9688 15.1309C14.9688 15.2167 14.9259 15.3025 14.9259 15.3454C14.9259 15.3883 14.9259 15.4311 14.9259 15.474C14.9259 15.5598 14.8401 15.5169 14.7544 15.474L14.7115 15.4311C14.6686 15.3883 14.6257 15.3454 14.5828 15.2596C14.5399 15.1738 14.497 15.0451 14.5399 14.9593C14.5399 14.9165 14.5828 14.9165 14.5828 14.8736C14.6257 14.7878 14.6686 14.7449 14.7115 14.702C14.7115 14.6591 14.7544 14.6591 14.7544 14.6162C14.7972 14.5733 14.7972 14.5304 14.8401 14.4876C14.883 14.4447 14.883 14.4018 14.9259 14.4018H14.9688C15.0546 14.4018 15.0975 14.4018 15.0975 14.4018C15.0975 14.4018 15.269 14.3589 15.3548 14.4876C15.3548 14.4876 15.3548 14.4876 15.3548 14.5304C15.3548 14.5733 15.3977 14.5733 15.3977 14.6162C15.4406 14.6591 15.4835 14.7449 15.5264 14.7878C15.5693 14.8307 15.6122 14.9165 15.6551 15.0451C15.7408 15.1309 15.6551 15.3454 15.5264 15.4311ZM18.2285 14.1444C18.1856 14.2731 18.1427 14.4018 18.0998 14.5304C18.0998 14.5733 18.0569 14.5733 18.0569 14.6162C18.014 14.6591 17.9283 14.7449 17.8854 14.7878C17.8854 14.7878 17.8425 14.7878 17.8425 14.8307C17.7996 14.8736 17.7567 14.8736 17.6709 14.9165C17.628 14.9165 17.5851 14.9593 17.5422 14.9593H17.4994C17.4565 14.9593 17.3707 14.9593 17.3278 14.9593C17.2849 14.9593 17.2849 14.9593 17.242 14.9593C17.1991 14.9593 17.1562 14.9593 17.1133 14.9593C17.0705 14.9593 17.0276 14.9593 16.9418 14.9593H16.8989C16.8989 14.9593 16.8989 14.9593 16.856 14.9593C16.8131 14.9593 16.7273 14.9593 16.6844 14.9165H16.6415C16.5987 14.9165 16.5558 14.8736 16.5129 14.8736C16.47 14.8736 16.47 14.8307 16.4271 14.8307C16.3842 14.7878 16.3413 14.7878 16.2984 14.7449C16.2555 14.702 16.2126 14.702 16.2126 14.6591C16.1697 14.6162 16.1269 14.5733 16.084 14.4876C16.0411 14.4018 15.9982 14.2731 15.9553 14.1873C15.9553 14.1444 15.9553 14.1444 15.9553 14.1015C15.9553 13.9729 15.9553 13.8442 15.9553 13.7584C15.9982 13.6726 15.9982 13.544 16.084 13.4582C16.1269 13.4153 16.1697 13.3295 16.2126 13.2866C16.2555 13.2437 16.2984 13.2008 16.2984 13.2008C16.3413 13.1579 16.3842 13.115 16.4271 13.115C16.47 13.115 16.47 13.0722 16.5129 13.0722C16.5558 13.0293 16.5987 13.0293 16.6415 13.0293H16.6844C16.7273 13.0293 16.7702 13.0293 16.856 13.0293C16.856 13.0293 16.856 13.0293 16.8989 13.0293H16.9418C16.9847 13.0293 17.0705 13.0293 17.1133 13.0293C17.1562 13.0293 17.1991 13.0293 17.242 13.0293C17.2849 13.0293 17.2849 13.0293 17.3278 13.0293C17.3707 13.0293 17.4565 13.0722 17.4994 13.0722H17.5422C17.5851 13.0722 17.628 13.115 17.6709 13.115C17.7138 13.1579 17.7996 13.1579 17.8425 13.2008L17.8854 13.2437C17.9712 13.2866 18.014 13.3295 18.0569 13.4153C18.0998 13.4582 18.0998 13.4582 18.0998 13.5011C18.1427 13.544 18.1856 13.6297 18.1856 13.6726C18.1856 13.7155 18.2285 13.7584 18.2285 13.8442C18.2285 13.8013 18.2285 13.9729 18.2285 14.1444Z" fill="black"/>
<path d="M15 28.2595C7.8203 28.2595 2 22.4392 2 15.2595H-2C-2 24.6484 5.61116 32.2595 15 32.2595V28.2595ZM28 15.2595C28 22.4392 22.1797 28.2595 15 28.2595V32.2595C24.3888 32.2595 32 24.6484 32 15.2595H28ZM15 2.25952C22.1797 2.25952 28 8.07982 28 15.2595H32C32 5.87068 24.3888 -1.74048 15 -1.74048V2.25952ZM15 -1.74048C5.61116 -1.74048 -2 5.87068 -2 15.2595H2C2 8.07982 7.8203 2.25952 15 2.25952V-1.74048Z" fill="#95ECEB"/>
<defs>
<linearGradient id="paint0_linear" x1="2.63158" y1="30.2597" x2="28.0117" y2="30.2597" gradientUnits="userSpaceOnUse">
<stop stop-color="#43A8B1"/>
<stop offset="0.431827" stop-color="#3FCACB"/>
<stop offset="0.520833" stop-color="#3ED1D1"/>
<stop offset="1" stop-color="#00C2C2"/>
</linearGradient>
</defs>
</svg>
