<svg width="30" height="31" viewBox="0 0 30 31" fill="none" xmlns="http://www.w3.org/2000/svg">
<path d="M0 15.2595C0 6.97525 6.71573 0.259521 15 0.259521V0.259521C23.2843 0.259521 30 6.97525 30 15.2595V15.2595C30 23.5438 23.2843 30.2595 15 30.2595V30.2595C6.71573 30.2595 0 23.5438 0 15.2595V15.2595Z" fill="url(#paint0_linear)"/>
<rect x="6.44141" y="8.45264" width="17.1163" height="7.87341" rx="1" fill="black"/>
<rect x="8.12109" y="9.63135" width="1.42296" height="1.28528" fill="#1CC9C9"/>
<rect x="8.12109" y="11.7468" width="1.42296" height="1.28528" fill="#1CC9C9"/>
<rect x="8.12109" y="13.8621" width="1.42296" height="1.28528" fill="#1CC9C9"/>
<rect x="11.2051" y="9.63135" width="1.42296" height="1.28528" fill="#1CC9C9"/>
<rect x="11.2051" y="11.7468" width="1.42296" height="1.28528" fill="#1CC9C9"/>
<rect x="14.2871" y="9.63135" width="1.42296" height="1.28528" fill="#1CC9C9"/>
<rect x="17.3711" y="9.63135" width="1.42296" height="1.28528" fill="#1CC9C9"/>
<rect x="17.3711" y="11.7468" width="1.42296" height="1.28528" fill="#1CC9C9"/>
<rect x="20.4531" y="9.63135" width="1.42296" height="1.28528" fill="#1CC9C9"/>
<rect x="20.4531" y="11.7468" width="1.42296" height="1.28528" fill="#1CC9C9"/>
<rect x="20.4531" y="13.8621" width="1.42296" height="1.28528" fill="#1CC9C9"/>
<path d="M14.9988 22.3986C17.4478 22.3986 19.4331 20.4133 19.4331 17.9643C19.4331 15.5153 17.4478 13.53 14.9988 13.53C12.5498 13.53 10.5645 15.5153 10.5645 17.9643C10.5645 20.4133 12.5498 22.3986 14.9988 22.3986Z" fill="black" stroke="#1CC9C9" stroke-width="0.664061" stroke-linecap="round" stroke-linejoin="round"/>
<path fill-rule="evenodd" clip-rule="evenodd" d="M12.1785 17.5017C11.9275 17.76 11.9275 18.1711 12.1785 18.4294C12.7441 18.9964 13.7552 19.8818 14.9983 19.8818C16.2414 19.8818 17.2526 18.9968 17.8185 18.4297C18.0693 18.1714 18.0693 17.7604 17.8185 17.5021C17.2529 16.935 16.2403 16.0493 14.9983 16.0493C13.7563 16.0493 12.7444 16.9343 12.1785 17.5017Z" fill="#1CC9C9"/>
<path fill-rule="evenodd" clip-rule="evenodd" d="M14.9982 18.7847C15.4513 18.7847 15.8186 18.4174 15.8186 17.9643C15.8186 17.5111 15.4513 17.1438 14.9982 17.1438C14.5451 17.1438 14.1777 17.5111 14.1777 17.9643C14.1777 18.4174 14.5451 18.7847 14.9982 18.7847Z" stroke="black" stroke-width="0.498046" stroke-linecap="round" stroke-linejoin="round"/>
<path d="M15 28.2595C7.8203 28.2595 2 22.4392 2 15.2595H-2C-2 24.6484 5.61116 32.2595 15 32.2595V28.2595ZM28 15.2595C28 22.4392 22.1797 28.2595 15 28.2595V32.2595C24.3888 32.2595 32 24.6484 32 15.2595H28ZM15 2.25952C22.1797 2.25952 28 8.07982 28 15.2595H32C32 5.87068 24.3888 -1.74048 15 -1.74048V2.25952ZM15 -1.74048C5.61116 -1.74048 -2 5.87068 -2 15.2595H2C2 8.07982 7.8203 2.25952 15 2.25952V-1.74048Z" fill="#95ECEB"/>
<defs>
<linearGradient id="paint0_linear" x1="2.63158" y1="30.2597" x2="28.0117" y2="30.2597" gradientUnits="userSpaceOnUse">
<stop stop-color="#43A8B1"/>
<stop offset="0.431827" stop-color="#3FCACB"/>
<stop offset="0.520833" stop-color="#3ED1D1"/>
<stop offset="1" stop-color="#00C2C2"/>
</linearGradient>
</defs>
</svg>
