<svg width="30" height="31" viewBox="0 0 30 31" fill="none" xmlns="http://www.w3.org/2000/svg">
<path d="M0 15.7598C0 7.47549 6.71573 0.759766 15 0.759766V0.759766C23.2843 0.759766 30 7.47549 30 15.7598V15.7598C30 24.044 23.2843 30.7598 15 30.7598V30.7598C6.71573 30.7598 0 24.044 0 15.7598V15.7598Z" fill="url(#paint0_linear)"/>
<path fill-rule="evenodd" clip-rule="evenodd" d="M15.2493 21.259C18.705 21.259 21.5065 18.4575 21.5065 15.0018C21.5065 11.5461 18.705 8.74463 15.2493 8.74463C11.7935 8.74463 8.9921 11.5461 8.9921 15.0018C8.9921 16.3974 9.44897 17.6862 10.2213 18.7269L10.2078 18.7192L8.49414 22.2572L12.3233 20.5341C13.1964 20.9969 14.1923 21.259 15.2493 21.259Z" fill="black"/>
<path d="M11.5312 12.8091H19.0823" stroke="#3FCCCD" stroke-width="0.930501" stroke-linecap="round"/>
<path d="M11.5312 14.8608L15.1244 14.8608" stroke="#3FCCCD" stroke-width="0.930501" stroke-linecap="round"/>
<path d="M17.3301 16.7711C17.3301 16.0696 17.9728 15.501 18.7657 15.501C19.5586 15.501 20.2013 16.0696 20.2013 16.7711" stroke="#2DCDCD" stroke-width="0.635071" stroke-linecap="round" stroke-linejoin="round"/>
<path d="M16.8085 17.1008C16.0358 17.1008 15.4094 17.7272 15.4094 18.4999V21.318C15.4094 22.0907 16.0358 22.717 16.8085 22.717H20.5659C21.3386 22.717 21.965 22.0907 21.965 21.318V18.4999C21.965 17.7272 21.3386 17.1008 20.5659 17.1008H16.8085Z" fill="#2DCDCD" stroke="black" stroke-width="0.919428" stroke-linecap="round" stroke-linejoin="round"/>
<path d="M18.688 19.6924C18.8177 19.6924 18.9228 19.7975 18.9228 19.9272C18.9228 20.0569 18.8177 20.1621 18.688 20.1621C18.5583 20.1621 18.4531 20.0569 18.4531 19.9272C18.4531 19.7975 18.5583 19.6924 18.688 19.6924" stroke="black" stroke-width="0.939356" stroke-linecap="round" stroke-linejoin="round"/>
<path d="M15 28.7598C7.8203 28.7598 2 22.9395 2 15.7598H-2C-2 25.1486 5.61116 32.7598 15 32.7598V28.7598ZM28 15.7598C28 22.9395 22.1797 28.7598 15 28.7598V32.7598C24.3888 32.7598 32 25.1486 32 15.7598H28ZM15 2.75977C22.1797 2.75977 28 8.58006 28 15.7598H32C32 6.37092 24.3888 -1.24023 15 -1.24023V2.75977ZM15 -1.24023C5.61116 -1.24023 -2 6.37092 -2 15.7598H2C2 8.58006 7.8203 2.75977 15 2.75977V-1.24023Z" fill="#95ECEB"/>
<defs>
<linearGradient id="paint0_linear" x1="2.63158" y1="30.7599" x2="28.0117" y2="30.7599" gradientUnits="userSpaceOnUse">
<stop stop-color="#43A8B1"/>
<stop offset="0.431827" stop-color="#3FCACB"/>
<stop offset="0.520833" stop-color="#3ED1D1"/>
<stop offset="1" stop-color="#00C2C2"/>
</linearGradient>
</defs>
</svg>
