<svg width="30" height="31" viewBox="0 0 30 31" fill="none" xmlns="http://www.w3.org/2000/svg">
<path d="M0 15.7595C0 7.47525 6.71573 0.759521 15 0.759521V0.759521C23.2843 0.759521 30 7.47525 30 15.7595V15.7595C30 24.0438 23.2843 30.7595 15 30.7595V30.7595C6.71573 30.7595 0 24.0438 0 15.7595V15.7595Z" fill="url(#paint0_linear)"/>
<rect x="7.10742" y="10.1792" width="14.9899" height="10.1614" rx="1.35574" fill="black"/>
<circle cx="11.6567" cy="13.3446" r="1.58634" fill="#3FC8CA"/>
<path d="M15.0455 18.2806C15.0455 17.8853 14.9579 17.4938 14.7875 17.1285C14.6172 16.7632 14.3676 16.4314 14.0529 16.1518C13.7382 15.8722 13.3646 15.6505 12.9534 15.4992C12.5423 15.3479 12.1016 15.27 11.6565 15.27C11.2115 15.27 10.7708 15.3479 10.3596 15.4992C9.94847 15.6505 9.57488 15.8722 9.26018 16.1518C8.94549 16.4314 8.69586 16.7632 8.52555 17.1285C8.35524 17.4938 8.26758 17.8853 8.26758 18.2806L11.6565 18.2806H15.0455Z" fill="#3FC8CA"/>
<circle cx="15.975" cy="12.2132" r="0.51011" fill="#2ECECD"/>
<circle cx="17.8988" cy="12.2132" r="0.51011" fill="#2ECECD"/>
<circle cx="19.8226" cy="12.2132" r="0.51011" fill="#2ECECD"/>
<circle cx="19.6888" cy="18.1353" r="3.20438" fill="#15C8C8" stroke="black" stroke-width="0.687259" stroke-linecap="round" stroke-linejoin="round"/>
<path fill-rule="evenodd" clip-rule="evenodd" d="M20.2052 15.8149L18.1733 18.1807C18.1407 18.2189 18.1334 18.2727 18.1545 18.3183C18.1756 18.364 18.2213 18.3931 18.2716 18.3931H19.174V20.4556L21.2056 18.0899C21.2381 18.0517 21.2455 17.998 21.2244 17.9524C21.2034 17.9068 21.1578 17.8775 21.1076 17.8775H20.2052V15.8149Z" fill="black"/>
<path d="M15 28.7595C7.8203 28.7595 2 22.9392 2 15.7595H-2C-2 25.1484 5.61116 32.7595 15 32.7595V28.7595ZM28 15.7595C28 22.9392 22.1797 28.7595 15 28.7595V32.7595C24.3888 32.7595 32 25.1484 32 15.7595H28ZM15 2.75952C22.1797 2.75952 28 8.57982 28 15.7595H32C32 6.37068 24.3888 -1.24048 15 -1.24048V2.75952ZM15 -1.24048C5.61116 -1.24048 -2 6.37068 -2 15.7595H2C2 8.57982 7.8203 2.75952 15 2.75952V-1.24048Z" fill="#95ECEB"/>
<defs>
<linearGradient id="paint0_linear" x1="2.63158" y1="30.7597" x2="28.0117" y2="30.7597" gradientUnits="userSpaceOnUse">
<stop stop-color="#43A8B1"/>
<stop offset="0.431827" stop-color="#3FCACB"/>
<stop offset="0.520833" stop-color="#3ED1D1"/>
<stop offset="1" stop-color="#00C2C2"/>
</linearGradient>
</defs>
</svg>
