<svg width="30" height="31" viewBox="0 0 30 31" fill="none" xmlns="http://www.w3.org/2000/svg">
<path d="M0 15.7595C0 7.47525 6.71573 0.759521 15 0.759521V0.759521C23.2843 0.759521 30 7.47525 30 15.7595V15.7595C30 24.0438 23.2843 30.7595 15 30.7595V30.7595C6.71573 30.7595 0 24.0438 0 15.7595V15.7595Z" fill="url(#paint0_linear)"/>
<path d="M12.0911 14.2354C11.7078 14.3759 11.3629 14.522 11.007 14.6232C10.0051 14.9154 8.57617 15.5954 8.40645 16.6464C8.27505 17.4557 8.80626 23.1522 8.80626 23.1522H10.3597C10.3597 23.1522 10.1106 18.9958 10.0887 18.3551C10.0722 17.8268 10.3515 17.5233 10.8606 17.5177C13.5597 17.5121 16.436 17.5121 19.1406 17.5177C19.6497 17.5177 19.929 17.8268 19.9071 18.3607C19.8687 19.3442 19.6583 23.1522 19.6583 23.1522L21.1331 23.169C21.1331 23.169 21.7323 17.3039 21.5462 16.4103C21.371 15.5449 20.0077 14.9548 19.1701 14.6794C18.754 14.5445 18.3488 14.3871 17.9163 14.2298C18.0039 14.0612 18.0751 13.9263 18.1463 13.7858C18.5678 12.9259 18.6992 12.0323 18.4529 11.0882C18.1408 9.88547 17.5933 8.82328 16.7064 7.96341C15.6278 6.91246 14.3358 6.92371 13.2736 7.99151C12.2991 8.96378 11.7078 10.1552 11.4724 11.5153C11.3246 12.3527 11.5271 13.1339 11.9049 13.8757C11.9542 13.9825 12.0144 14.0893 12.0911 14.2354ZM17.1991 12.2684C17.1936 12.2459 17.2046 12.2628 17.2046 12.2852C17.2046 12.3414 17.2046 12.3976 17.1991 12.4538C17.0458 13.6621 16.3615 14.477 15.3595 15.0447C15.1077 15.1908 14.823 15.1627 14.5712 15.011C14.0127 14.6738 13.5309 14.2522 13.2025 13.6678C12.9506 13.2182 12.7973 12.7405 12.7918 12.2009C12.8521 12.2066 12.8794 12.2066 12.9013 12.2122C13.5693 12.4876 14.1825 12.4201 14.7245 11.9031C14.9161 11.7232 15.1077 11.7794 15.3158 11.9255C15.5621 12.0941 15.8304 12.2796 16.1041 12.3246C16.449 12.3808 16.8159 12.2965 17.1991 12.2684ZM16.7064 11.549C16.3286 11.9705 15.9673 11.9649 15.6223 11.549C15.9344 11.1163 16.3724 11.1106 16.7064 11.549ZM14.4069 11.549C14.0401 11.9817 13.624 11.9761 13.3229 11.5434C13.6678 11.1275 14.0401 11.1219 14.4069 11.549Z" fill="black"/>
<path d="M15.0024 18.092C13.6884 18.092 12.3744 18.092 11.0604 18.092C10.6444 18.092 10.5896 18.1539 10.606 18.5866C10.6662 20.0085 10.7265 21.4304 10.7922 22.8522C10.8086 23.2119 10.8798 23.285 11.2137 23.285C13.7322 23.285 16.2506 23.285 18.7636 23.285C19.1085 23.285 19.1797 23.2119 19.1961 22.8635C19.2618 21.4304 19.322 20.0029 19.3822 18.5697C19.3987 18.1539 19.3439 18.092 18.9388 18.092C17.6303 18.092 16.3163 18.092 15.0024 18.092Z" fill="black"/>
<path d="M15.0298 24.3301C16.3328 24.3301 17.6358 24.3301 18.9388 24.3301C19.2619 24.3301 19.3304 24.1502 19.2838 23.9311C19.2371 23.7119 18.9224 23.7175 18.9224 23.7175C18.9224 23.7175 18.9717 23.7119 18.9224 23.7119C16.2945 23.7119 13.672 23.7119 11.0441 23.7119C10.8634 23.7119 10.6882 23.695 10.6827 23.9648C10.6772 24.257 10.7265 24.3245 11.0276 24.3245C12.369 24.3301 13.6994 24.3301 15.0298 24.3301Z" fill="black"/>
<path fill-rule="evenodd" clip-rule="evenodd" d="M14.9922 22.2842C15.8735 22.2842 16.5879 21.5698 16.5879 20.6885C16.5879 19.8072 15.8735 19.0928 14.9922 19.0928C14.1109 19.0928 13.3965 19.8072 13.3965 20.6885C13.3965 21.5698 14.1109 22.2842 14.9922 22.2842Z" fill="#2BCDCC"/>
<path d="M15.5913 20.0896L14.3945 21.2864" stroke="black" stroke-width="0.423571" stroke-linecap="round" stroke-linejoin="round"/>
<path d="M14.3945 20.0896L15.5913 21.2864" stroke="black" stroke-width="0.423571" stroke-linecap="round" stroke-linejoin="round"/>
<path d="M11.2793 13.9502L15.0452 16.8583L18.596 13.9503" stroke="#2FCECD" stroke-width="0.6" stroke-linecap="round"/>
<path d="M15 28.7595C7.8203 28.7595 2 22.9392 2 15.7595H-2C-2 25.1484 5.61116 32.7595 15 32.7595V28.7595ZM28 15.7595C28 22.9392 22.1797 28.7595 15 28.7595V32.7595C24.3888 32.7595 32 25.1484 32 15.7595H28ZM15 2.75952C22.1797 2.75952 28 8.57982 28 15.7595H32C32 6.37068 24.3888 -1.24048 15 -1.24048V2.75952ZM15 -1.24048C5.61116 -1.24048 -2 6.37068 -2 15.7595H2C2 8.57982 7.8203 2.75952 15 2.75952V-1.24048Z" fill="#95ECEB"/>
<defs>
<linearGradient id="paint0_linear" x1="2.63158" y1="30.7597" x2="28.0117" y2="30.7597" gradientUnits="userSpaceOnUse">
<stop stop-color="#43A8B1"/>
<stop offset="0.431827" stop-color="#3FCACB"/>
<stop offset="0.520833" stop-color="#3ED1D1"/>
<stop offset="1" stop-color="#00C2C2"/>
</linearGradient>
</defs>
</svg>
