<svg width="30" height="31" viewBox="0 0 30 31" fill="none" xmlns="http://www.w3.org/2000/svg">
<path d="M0 15.7598C0 7.47549 6.71573 0.759766 15 0.759766V0.759766C23.2843 0.759766 30 7.47549 30 15.7598V15.7598C30 24.044 23.2843 30.7598 15 30.7598V30.7598C6.71573 30.7598 0 24.044 0 15.7598V15.7598Z" fill="url(#paint0_linear)"/>
<rect x="8.71289" y="8.6499" width="11.676" height="12.4319" rx="0.840749" fill="black"/>
<path fill-rule="evenodd" clip-rule="evenodd" d="M17.6726 22.8696C19.6686 22.8696 21.2866 21.2516 21.2866 19.2556C21.2866 17.2597 19.6686 15.6416 17.6726 15.6416C15.6766 15.6416 14.0586 17.2597 14.0586 19.2556C14.0586 21.2516 15.6766 22.8696 17.6726 22.8696Z" fill="black" stroke="#1CC9C9" stroke-width="0.71778" stroke-linecap="round" stroke-linejoin="round"/>
<path d="M16.1387 19.4035L17.3344 20.6515L19.1516 18.2764" stroke="#1CC9C9" stroke-width="0.775642" stroke-linecap="round"/>
<path d="M9.8125 13.4238V11.1818H10.2652V12.0642H11.1522V11.1818H11.6049V13.4238H11.1522V12.4435H10.2652V13.4238H9.8125Z" fill="#1CC9C9"/>
<path d="M12.5791 13.4238V11.5611H11.9138V11.1818H13.6955V11.5611H13.0318V13.4238H12.5791Z" fill="#1CC9C9"/>
<path d="M14.4938 13.4238V11.5611H13.8286V11.1818H15.6102V11.5611H14.9465V13.4238H14.4938Z" fill="#1CC9C9"/>
<path d="M15.9039 13.4238V11.1818H16.6303C16.9056 11.1818 17.085 11.193 17.1686 11.2154C17.2971 11.2491 17.4047 11.3225 17.4913 11.4357C17.578 11.5478 17.6213 11.6931 17.6213 11.8715C17.6213 12.0092 17.5963 12.1249 17.5464 12.2187C17.4964 12.3125 17.4327 12.3864 17.3552 12.4404C17.2787 12.4935 17.2007 12.5286 17.1212 12.546C17.0132 12.5674 16.8566 12.5781 16.6517 12.5781H16.3566V13.4238H15.9039ZM16.3566 11.5611V12.1973H16.6043C16.7827 12.1973 16.902 12.1855 16.9622 12.1621C17.0223 12.1386 17.0692 12.1019 17.1029 12.052C17.1375 12.002 17.1549 11.9439 17.1549 11.8776C17.1549 11.7961 17.1309 11.7288 17.083 11.6758C17.0351 11.6227 16.9744 11.5896 16.901 11.5764C16.847 11.5662 16.7384 11.5611 16.5752 11.5611H16.3566Z" fill="#1CC9C9"/>
<path d="M17.8782 12.6943L18.3187 12.6515C18.3452 12.7993 18.3987 12.9079 18.4793 12.9772C18.5608 13.0466 18.6704 13.0812 18.8081 13.0812C18.9539 13.0812 19.0635 13.0506 19.1369 12.9895C19.2113 12.9273 19.2485 12.8549 19.2485 12.7723C19.2485 12.7193 19.2327 12.6744 19.2011 12.6377C19.1705 12.6 19.1165 12.5674 19.039 12.5398C18.986 12.5215 18.8652 12.4889 18.6766 12.442C18.4339 12.3818 18.2636 12.3079 18.1658 12.2202C18.0281 12.0968 17.9593 11.9465 17.9593 11.7691C17.9593 11.6549 17.9914 11.5483 18.0557 11.4494C18.1209 11.3495 18.2142 11.2735 18.3355 11.2216C18.4579 11.1696 18.6052 11.1436 18.7775 11.1436C19.0589 11.1436 19.2705 11.2052 19.4122 11.3286C19.5549 11.452 19.6299 11.6166 19.637 11.8226L19.1843 11.8425C19.1649 11.7273 19.1231 11.6447 19.0589 11.5947C18.9957 11.5437 18.9004 11.5182 18.7729 11.5182C18.6414 11.5182 18.5384 11.5453 18.464 11.5993C18.4161 11.634 18.3921 11.6804 18.3921 11.7385C18.3921 11.7915 18.4145 11.8369 18.4594 11.8746C18.5165 11.9225 18.6552 11.9725 18.8754 12.0245C19.0956 12.0765 19.2582 12.1305 19.3632 12.1866C19.4693 12.2416 19.5519 12.3176 19.611 12.4144C19.6711 12.5103 19.7012 12.6291 19.7012 12.7708C19.7012 12.8992 19.6655 13.0195 19.5942 13.1317C19.5228 13.2439 19.4219 13.3275 19.2914 13.3825C19.1609 13.4365 18.9982 13.4636 18.8035 13.4636C18.5201 13.4636 18.3024 13.3983 18.1505 13.2678C17.9986 13.1363 17.9078 12.9451 17.8782 12.6943Z" fill="#1CC9C9"/>
<path d="M15 28.7598C7.8203 28.7598 2 22.9395 2 15.7598H-2C-2 25.1486 5.61116 32.7598 15 32.7598V28.7598ZM28 15.7598C28 22.9395 22.1797 28.7598 15 28.7598V32.7598C24.3888 32.7598 32 25.1486 32 15.7598H28ZM15 2.75977C22.1797 2.75977 28 8.58006 28 15.7598H32C32 6.37092 24.3888 -1.24023 15 -1.24023V2.75977ZM15 -1.24023C5.61116 -1.24023 -2 6.37092 -2 15.7598H2C2 8.58006 7.8203 2.75977 15 2.75977V-1.24023Z" fill="#95ECEB"/>
<defs>
<linearGradient id="paint0_linear" x1="2.63158" y1="30.7599" x2="28.0117" y2="30.7599" gradientUnits="userSpaceOnUse">
<stop stop-color="#43A8B1"/>
<stop offset="0.431827" stop-color="#3FCACB"/>
<stop offset="0.520833" stop-color="#3ED1D1"/>
<stop offset="1" stop-color="#00C2C2"/>
</linearGradient>
</defs>
</svg>
