<svg width="30" height="31" viewBox="0 0 30 31" fill="none" xmlns="http://www.w3.org/2000/svg">
<path d="M0 15.7598C0 7.47549 6.71573 0.759766 15 0.759766V0.759766C23.2843 0.759766 30 7.47549 30 15.7598V15.7598C30 24.044 23.2843 30.7598 15 30.7598V30.7598C6.71573 30.7598 0 24.044 0 15.7598V15.7598Z" fill="url(#paint0_linear)"/>
<circle cx="14.6419" cy="10.846" r="3.09303" fill="black"/>
<path d="M21.2487 20.4696C21.2487 19.6988 21.0778 18.9354 20.7457 18.2233C20.4137 17.5111 19.9269 16.864 19.3134 16.3189C18.6998 15.7738 17.9713 15.3414 17.1696 15.0464C16.368 14.7514 15.5087 14.5996 14.641 14.5996C13.7732 14.5996 12.914 14.7514 12.1123 15.0464C11.3106 15.3414 10.5822 15.7738 9.96857 16.3189C9.35498 16.864 8.86826 17.5111 8.53619 18.2233C8.20412 18.9354 8.0332 19.6988 8.0332 20.4696L14.641 20.4696H21.2487Z" fill="black"/>
<path d="M19.5503 14.5869C19.2738 14.108 18.5825 14.108 18.306 14.5869L14.5568 21.0808C14.2803 21.5597 14.6259 22.1583 15.1789 22.1583H22.6774C23.2304 22.1583 23.5761 21.5597 23.2996 21.0808L19.5503 14.5869Z" fill="black" stroke="#1CC9C9" stroke-width="0.769495"/>
<line x1="18.8858" y1="17.1578" x2="18.8858" y2="18.8587" stroke="#24CBCB" stroke-width="0.834086" stroke-linecap="round"/>
<line x1="18.8858" y1="20.1587" x2="18.8858" y2="20.1262" stroke="#24CBCB" stroke-width="0.834086" stroke-linecap="round"/>
<path d="M15 28.7598C7.8203 28.7598 2 22.9395 2 15.7598H-2C-2 25.1486 5.61116 32.7598 15 32.7598V28.7598ZM28 15.7598C28 22.9395 22.1797 28.7598 15 28.7598V32.7598C24.3888 32.7598 32 25.1486 32 15.7598H28ZM15 2.75977C22.1797 2.75977 28 8.58006 28 15.7598H32C32 6.37092 24.3888 -1.24023 15 -1.24023V2.75977ZM15 -1.24023C5.61116 -1.24023 -2 6.37092 -2 15.7598H2C2 8.58006 7.8203 2.75977 15 2.75977V-1.24023Z" fill="#95ECEB"/>
<defs>
<linearGradient id="paint0_linear" x1="2.63158" y1="30.7599" x2="28.0117" y2="30.7599" gradientUnits="userSpaceOnUse">
<stop stop-color="#43A8B1"/>
<stop offset="0.431827" stop-color="#3FCACB"/>
<stop offset="0.520833" stop-color="#3ED1D1"/>
<stop offset="1" stop-color="#00C2C2"/>
</linearGradient>
</defs>
</svg>
