<svg width="30" height="31" viewBox="0 0 30 31" fill="none" xmlns="http://www.w3.org/2000/svg">
<path d="M0 15.7595C0 7.47525 6.71573 0.759521 15 0.759521V0.759521C23.2843 0.759521 30 7.47525 30 15.7595V15.7595C30 24.0438 23.2843 30.7595 15 30.7595V30.7595C6.71573 30.7595 0 24.0438 0 15.7595V15.7595Z" fill="url(#paint0_linear)"/>
<rect x="10.0647" y="12.8423" width="9.70511" height="7.32145" rx="0.359637" stroke="black" stroke-width="0.719274"/>
<rect x="10.1875" y="19.1321" width="9.62639" height="0.828808" fill="black"/>
<path d="M13.4042 20.9919H16.2819L16.8345 21.9516H12.8516L13.4042 20.9919Z" fill="black"/>
<rect x="11.9609" y="21.8164" width="5.85079" height="0.482173" rx="0.241086" fill="black"/>
<circle r="0.812413" transform="matrix(-1 0 0 1 23.0431 16.5031)" fill="black"/>
<circle r="0.812413" transform="matrix(-1 0 0 1 23.0431 12.1689)" fill="black"/>
<circle cx="23.0431" cy="20.8375" r="0.812413" transform="rotate(-180 23.0431 20.8375)" fill="black"/>
<line y1="-0.26543" x2="3.20931" y2="-0.26543" transform="matrix(-1 0 0 1 23.0215 16.7651)" stroke="black" stroke-width="0.530859"/>
<path d="M19.8122 14.7344H23.0215V12.6914" stroke="black" stroke-width="0.530859"/>
<path d="M19.8122 18.2719H23.0215V20.3149" stroke="black" stroke-width="0.530859"/>
<circle cx="6.95499" cy="16.5031" r="0.812413" fill="black"/>
<circle cx="6.95499" cy="12.1689" r="0.812413" fill="black"/>
<circle r="0.812413" transform="matrix(1 0 0 -1 6.95499 20.8375)" fill="black"/>
<line x1="6.97656" y1="16.4997" x2="10.1859" y2="16.4997" stroke="black" stroke-width="0.530859"/>
<path d="M10.1859 14.7344H6.97656V12.6914" stroke="black" stroke-width="0.530859"/>
<path d="M10.1859 18.2719H6.97656V20.3149" stroke="black" stroke-width="0.530859"/>
<mask id="path-19-outside-1" maskUnits="userSpaceOnUse" x="10.918" y="8.22046" width="9" height="9" fill="black">
<rect fill="white" x="10.918" y="8.22046" width="9" height="9"/>
<path d="M18.0015 11.4892C17.9677 11.3876 17.9677 11.3199 17.9338 11.2522C17.9 11.1506 17.8661 11.049 17.8322 10.9813C17.7984 10.9136 17.7645 10.8458 17.7306 10.812C17.6968 10.7781 17.6629 10.7104 17.6291 10.6765C17.5952 10.6088 17.5613 10.5749 17.5275 10.5072C17.5275 10.4734 17.4936 10.4734 17.4936 10.4395C17.4598 10.4056 17.4259 10.3718 17.392 10.304C17.3582 10.2702 17.3243 10.2363 17.2904 10.1686L17.2566 10.1347C17.2227 10.1009 17.155 10.0332 17.1211 9.99929L17.0873 9.96543C17.0534 9.93157 16.9857 9.8977 16.9518 9.86384C16.918 9.82998 16.8841 9.82998 16.8502 9.79612L16.8164 9.76226C16.7825 9.72839 16.7148 9.69453 16.6809 9.69453C16.6471 9.69453 16.6471 9.66067 16.6132 9.66067C16.5793 9.66067 16.5455 9.62681 16.5116 9.62681C16.4777 9.59294 16.41 9.59294 16.3762 9.55908C16.3762 9.55908 16.3423 9.55908 16.3423 9.52522C16.3084 9.49136 16.2407 9.49136 16.2068 9.45749H16.173C16.1391 9.45749 16.1053 9.42363 16.0714 9.42363C16.0375 9.42363 16.0375 9.42363 16.0037 9.38977C15.9698 9.38977 15.936 9.35591 15.9021 9.35591C15.8682 9.35591 15.8344 9.35591 15.8344 9.32205C15.8005 9.32205 15.7666 9.32205 15.7328 9.28818C15.6989 9.28818 15.6651 9.28818 15.6312 9.25432C15.5973 9.25432 15.5635 9.25432 15.5296 9.25432C15.4957 9.25432 15.4957 9.25432 15.4619 9.25432C15.428 9.25432 15.3603 9.25432 15.3264 9.22046C15.2926 9.22046 15.2587 9.22046 15.2248 9.22046H15.191C15.0894 9.22046 15.0217 9.22046 14.9878 9.22046C14.9539 9.22046 14.9201 9.22046 14.8862 9.22046H14.8524C14.8185 9.22046 14.7508 9.22046 14.7169 9.22046H14.683C14.6492 9.22046 14.6153 9.22046 14.5815 9.22046C14.5476 9.22046 14.4799 9.22046 14.446 9.25432C14.4122 9.25432 14.3783 9.25432 14.3783 9.25432C14.3444 9.25432 14.3444 9.25432 14.3106 9.25432C14.2767 9.25432 14.2428 9.25432 14.209 9.28818C14.1751 9.28818 14.1751 9.28818 14.1413 9.28818C14.1074 9.28818 14.0735 9.32205 14.0397 9.32205C14.0058 9.32205 14.0058 9.32205 13.9719 9.35591C13.9381 9.35591 13.9381 9.35591 13.9042 9.38977C13.8704 9.38977 13.8026 9.42363 13.7688 9.45749C13.6672 9.49136 13.5995 9.52522 13.4979 9.55908C13.4979 9.55908 13.464 9.55908 13.464 9.59294C13.4301 9.62681 13.3624 9.62681 13.3286 9.66067C13.2947 9.66067 13.2947 9.69453 13.2608 9.69453C13.227 9.69453 13.227 9.72839 13.1931 9.72839C13.1254 9.76225 13.0577 9.79612 13.0238 9.82998C13.0238 9.82998 12.9899 9.82998 12.9899 9.86384C12.9561 9.8977 12.9222 9.93157 12.8884 9.96543C12.8545 9.99929 12.8206 9.99929 12.7868 10.0332C12.7529 10.067 12.7529 10.067 12.719 10.1009C12.6852 10.1347 12.6513 10.1686 12.6175 10.2025C12.5836 10.2363 12.5497 10.2702 12.5159 10.304C12.482 10.3379 12.4481 10.4056 12.4143 10.4395C12.3804 10.4734 12.3804 10.5072 12.3466 10.5411C12.3127 10.6088 12.2788 10.6765 12.245 10.7443C12.2111 10.7781 12.2111 10.812 12.1772 10.8797C12.1434 10.9474 12.1095 10.9813 12.1095 11.049C12.0418 11.2183 12.0079 11.4215 11.9741 11.6247C11.9063 11.9294 11.9064 12.3019 11.9402 12.6744C11.9402 12.6744 11.9402 12.8099 11.9741 12.9792C12.0079 13.2839 12.0418 13.7241 12.1095 14.0628C12.1434 14.1643 12.1434 14.2321 12.1772 14.2998V14.3337C12.1772 14.3675 12.1772 14.4014 12.1772 14.4352C12.1772 14.4352 12.1772 14.4352 12.1434 14.4691C12.1434 14.4691 12.1095 14.503 12.0757 14.503C12.0079 14.5707 11.9402 14.6384 12.0079 14.7739C12.0418 14.8077 12.0418 14.8754 12.0757 14.9093C12.1095 14.9432 12.1095 14.977 12.1434 15.0109C12.1772 15.0448 12.1772 15.0448 12.2111 15.0786C12.245 15.1125 12.2788 15.1463 12.3127 15.1802C12.3466 15.2141 12.3466 15.2141 12.3804 15.2479C12.4143 15.2818 12.4481 15.3157 12.482 15.3157C12.5159 15.3495 12.5497 15.3495 12.5836 15.3834C12.6175 15.4172 12.6513 15.4172 12.6852 15.4172C12.719 15.4172 12.719 15.4172 12.7529 15.4172C12.7868 15.4172 12.8206 15.4172 12.8545 15.4172C12.8884 15.4172 12.9222 15.4172 12.9561 15.3834H12.9899C13.0577 15.3834 13.1254 15.3834 13.1592 15.3834C13.1931 15.3834 13.1931 15.3834 13.227 15.3834C13.2608 15.3834 13.2608 15.3834 13.2947 15.3834C13.3286 15.3834 13.3963 15.4172 13.4301 15.4172C13.4301 15.4172 13.464 15.4172 13.464 15.4511C13.464 15.4511 13.4979 15.485 13.4979 15.5527C13.5995 15.9252 13.9381 16.1622 14.3106 16.1622H15.5973C15.9698 16.1622 16.3084 15.9252 16.41 15.5866C16.41 15.5866 16.41 15.5866 16.41 15.5527C16.4439 15.5188 16.4777 15.485 16.5455 15.4511C16.5793 15.4511 16.6132 15.4172 16.6471 15.4172C16.6809 15.4172 16.6809 15.4172 16.7148 15.4172C16.7486 15.4172 16.8164 15.4172 16.8502 15.4172H16.8841C16.918 15.4172 16.9518 15.4172 16.9857 15.4172C17.0195 15.4172 17.0873 15.4172 17.1211 15.4511H17.155C17.1889 15.4511 17.2227 15.4511 17.2566 15.4511H17.2904H17.3243C17.3582 15.4511 17.392 15.4172 17.4259 15.3834C17.4598 15.3495 17.4936 15.3495 17.5275 15.3157L17.5613 15.2818C17.5952 15.2479 17.6291 15.2141 17.6629 15.1802C17.6968 15.1463 17.7306 15.1125 17.7645 15.1125C17.7984 15.0786 17.8322 15.0448 17.8661 15.0109C17.9 14.9432 17.9338 14.9093 17.9677 14.8754C17.9677 14.8416 18.0015 14.8416 18.0015 14.8416C18.0354 14.74 18.0015 14.6723 17.9677 14.6384C17.9338 14.6045 17.9 14.5707 17.8661 14.5368C17.8322 14.503 17.7984 14.4691 17.8322 14.4352C17.8322 14.4014 17.8661 14.3675 17.8661 14.3337C17.9 14.1982 17.9338 14.0289 17.9677 13.8596C18.0015 13.6903 18.0015 13.521 18.0354 13.3855C18.0693 13.0469 18.0693 12.776 18.0693 12.776C18.1031 12.2342 18.0693 11.8278 18.0015 11.4892ZM14.2767 13.8257C14.2767 13.8596 14.2767 13.8596 14.2767 13.8934C14.2767 13.9612 14.2428 14.0289 14.209 14.0966C14.1751 14.1643 14.1413 14.1982 14.1074 14.2659C14.0735 14.2998 14.0735 14.2998 14.0397 14.3337C14.0058 14.3675 13.9719 14.4014 13.9381 14.4014C13.9042 14.4014 13.9042 14.4352 13.8704 14.4352C13.8365 14.4352 13.8365 14.4691 13.8026 14.4691C13.7688 14.4691 13.701 14.503 13.6672 14.503C13.6333 14.503 13.5995 14.503 13.5656 14.503C13.4979 14.503 13.4302 14.503 13.3963 14.503H13.3624C13.3286 14.503 13.2608 14.503 13.227 14.503C13.1931 14.503 13.1931 14.503 13.1592 14.503C13.1254 14.503 13.1254 14.503 13.0915 14.503C13.0238 14.503 12.9561 14.4691 12.9222 14.4691H12.8884C12.8545 14.4352 12.8206 14.4352 12.7868 14.4014C12.7529 14.3675 12.719 14.3675 12.6852 14.3337C12.6513 14.2998 12.6513 14.2998 12.6175 14.2659C12.5836 14.1982 12.5497 14.1305 12.5159 14.0628C12.4481 13.8596 12.482 13.6225 12.5159 13.521C12.5497 13.4532 12.5836 13.4194 12.6175 13.3516C12.6513 13.3178 12.6513 13.3178 12.6852 13.2839C12.719 13.2501 12.7529 13.2162 12.7868 13.2162C12.8206 13.1823 12.8545 13.1823 12.8884 13.1485H12.9222C12.9899 13.1146 13.0238 13.1146 13.0915 13.0808C13.1254 13.0808 13.1254 13.0808 13.1592 13.0808C13.1931 13.0808 13.1931 13.0808 13.227 13.0808C13.2608 13.0808 13.3286 13.0807 13.3624 13.0469H13.3963C13.464 13.0469 13.4979 13.0469 13.5656 13.0469C13.5656 13.0469 13.5656 13.0469 13.5995 13.0469C13.6333 13.0469 13.6672 13.0469 13.701 13.0469C13.7688 13.0469 13.8026 13.0808 13.8365 13.0808C13.8704 13.0808 13.9042 13.1146 13.9042 13.1146C13.9381 13.1146 13.9381 13.1485 13.9719 13.1485C14.0058 13.1823 14.0397 13.2162 14.0735 13.2501C14.1074 13.2839 14.1074 13.2839 14.1413 13.3178C14.1751 13.3855 14.2428 13.4194 14.2428 13.4871C14.2767 13.5548 14.2767 13.5887 14.3106 13.6564C14.2767 13.6564 14.2767 13.7241 14.2767 13.8257ZM15.2587 14.9432C15.2248 14.977 15.191 15.0109 15.1571 15.0109H15.1233C15.0894 15.0109 15.0894 15.0109 15.0894 14.977C15.0894 14.8077 14.9201 14.3337 14.9201 14.3337C14.9201 14.3337 14.8524 14.5368 14.8185 14.7061C14.8185 14.7739 14.7846 14.8416 14.7846 14.8754C14.7846 14.9093 14.7846 14.9432 14.7846 14.977C14.7846 15.0448 14.7169 15.0109 14.6492 14.977L14.6153 14.9432C14.5815 14.9093 14.5476 14.8754 14.5137 14.8077C14.4799 14.74 14.446 14.6384 14.4799 14.5707C14.4799 14.5368 14.5137 14.5368 14.5137 14.503C14.5476 14.4352 14.5815 14.4014 14.6153 14.3675C14.6153 14.3337 14.6492 14.3337 14.6492 14.2998C14.6831 14.2659 14.6831 14.2321 14.7169 14.1982C14.7508 14.1643 14.7508 14.1305 14.7846 14.1305H14.8185C14.8862 14.1305 14.9201 14.1305 14.9201 14.1305C14.9201 14.1305 15.0555 14.0966 15.1233 14.1982C15.1233 14.1982 15.1233 14.1982 15.1233 14.2321C15.1233 14.2659 15.1571 14.2659 15.1571 14.2998C15.191 14.3337 15.2248 14.4014 15.2587 14.4352C15.2926 14.4691 15.3264 14.5368 15.3603 14.6384C15.428 14.7061 15.3603 14.8754 15.2587 14.9432ZM17.392 13.9273C17.3582 14.0289 17.3243 14.1305 17.2904 14.2321C17.2904 14.2659 17.2566 14.2659 17.2566 14.2998C17.2227 14.3337 17.155 14.4014 17.1211 14.4352C17.1211 14.4352 17.0873 14.4352 17.0873 14.4691C17.0534 14.503 17.0195 14.503 16.9518 14.5368C16.918 14.5368 16.8841 14.5707 16.8502 14.5707H16.8164C16.7825 14.5707 16.7148 14.5707 16.6809 14.5707C16.6471 14.5707 16.6471 14.5707 16.6132 14.5707C16.5793 14.5707 16.5455 14.5707 16.5116 14.5707C16.4777 14.5707 16.4439 14.5707 16.3762 14.5707H16.3423C16.3423 14.5707 16.3423 14.5707 16.3084 14.5707C16.2746 14.5707 16.2069 14.5707 16.173 14.5368H16.1391C16.1053 14.5368 16.0714 14.503 16.0375 14.503C16.0037 14.503 16.0037 14.4691 15.9698 14.4691C15.936 14.4352 15.9021 14.4352 15.8682 14.4014C15.8344 14.3675 15.8005 14.3675 15.8005 14.3337C15.7666 14.2998 15.7328 14.2659 15.6989 14.1982C15.6651 14.1305 15.6312 14.0289 15.5973 13.9612C15.5973 13.9273 15.5973 13.9273 15.5973 13.8934C15.5973 13.7919 15.5973 13.6903 15.5973 13.6225C15.6312 13.5548 15.6312 13.4532 15.6989 13.3855C15.7328 13.3516 15.7666 13.2839 15.8005 13.2501C15.8344 13.2162 15.8682 13.1823 15.8682 13.1823C15.9021 13.1485 15.936 13.1146 15.9698 13.1146C16.0037 13.1146 16.0037 13.0808 16.0375 13.0808C16.0714 13.0469 16.1053 13.0469 16.1391 13.0469H16.173C16.2069 13.0469 16.2407 13.0469 16.3084 13.0469C16.3084 13.0469 16.3084 13.0469 16.3423 13.0469H16.3762C16.41 13.0469 16.4777 13.0469 16.5116 13.0469C16.5455 13.0469 16.5793 13.0469 16.6132 13.0469C16.6471 13.0469 16.6471 13.0469 16.6809 13.0469C16.7148 13.0469 16.7825 13.0808 16.8164 13.0808H16.8502C16.8841 13.0808 16.918 13.1146 16.9518 13.1146C16.9857 13.1485 17.0534 13.1485 17.0873 13.1823L17.1211 13.2162C17.1889 13.2501 17.2227 13.2839 17.2566 13.3516C17.2904 13.3855 17.2904 13.3855 17.2904 13.4194C17.3243 13.4532 17.3582 13.521 17.3582 13.5548C17.3582 13.5887 17.392 13.6225 17.392 13.6903C17.392 13.6564 17.392 13.7919 17.392 13.9273Z"/>
</mask>
<path d="M18.0015 11.4892C17.9677 11.3876 17.9677 11.3199 17.9338 11.2522C17.9 11.1506 17.8661 11.049 17.8322 10.9813C17.7984 10.9136 17.7645 10.8458 17.7306 10.812C17.6968 10.7781 17.6629 10.7104 17.6291 10.6765C17.5952 10.6088 17.5613 10.5749 17.5275 10.5072C17.5275 10.4734 17.4936 10.4734 17.4936 10.4395C17.4598 10.4056 17.4259 10.3718 17.392 10.304C17.3582 10.2702 17.3243 10.2363 17.2904 10.1686L17.2566 10.1347C17.2227 10.1009 17.155 10.0332 17.1211 9.99929L17.0873 9.96543C17.0534 9.93157 16.9857 9.8977 16.9518 9.86384C16.918 9.82998 16.8841 9.82998 16.8502 9.79612L16.8164 9.76226C16.7825 9.72839 16.7148 9.69453 16.6809 9.69453C16.6471 9.69453 16.6471 9.66067 16.6132 9.66067C16.5793 9.66067 16.5455 9.62681 16.5116 9.62681C16.4777 9.59294 16.41 9.59294 16.3762 9.55908C16.3762 9.55908 16.3423 9.55908 16.3423 9.52522C16.3084 9.49136 16.2407 9.49136 16.2068 9.45749H16.173C16.1391 9.45749 16.1053 9.42363 16.0714 9.42363C16.0375 9.42363 16.0375 9.42363 16.0037 9.38977C15.9698 9.38977 15.936 9.35591 15.9021 9.35591C15.8682 9.35591 15.8344 9.35591 15.8344 9.32205C15.8005 9.32205 15.7666 9.32205 15.7328 9.28818C15.6989 9.28818 15.6651 9.28818 15.6312 9.25432C15.5973 9.25432 15.5635 9.25432 15.5296 9.25432C15.4957 9.25432 15.4957 9.25432 15.4619 9.25432C15.428 9.25432 15.3603 9.25432 15.3264 9.22046C15.2926 9.22046 15.2587 9.22046 15.2248 9.22046H15.191C15.0894 9.22046 15.0217 9.22046 14.9878 9.22046C14.9539 9.22046 14.9201 9.22046 14.8862 9.22046H14.8524C14.8185 9.22046 14.7508 9.22046 14.7169 9.22046H14.683C14.6492 9.22046 14.6153 9.22046 14.5815 9.22046C14.5476 9.22046 14.4799 9.22046 14.446 9.25432C14.4122 9.25432 14.3783 9.25432 14.3783 9.25432C14.3444 9.25432 14.3444 9.25432 14.3106 9.25432C14.2767 9.25432 14.2428 9.25432 14.209 9.28818C14.1751 9.28818 14.1751 9.28818 14.1413 9.28818C14.1074 9.28818 14.0735 9.32205 14.0397 9.32205C14.0058 9.32205 14.0058 9.32205 13.9719 9.35591C13.9381 9.35591 13.9381 9.35591 13.9042 9.38977C13.8704 9.38977 13.8026 9.42363 13.7688 9.45749C13.6672 9.49136 13.5995 9.52522 13.4979 9.55908C13.4979 9.55908 13.464 9.55908 13.464 9.59294C13.4301 9.62681 13.3624 9.62681 13.3286 9.66067C13.2947 9.66067 13.2947 9.69453 13.2608 9.69453C13.227 9.69453 13.227 9.72839 13.1931 9.72839C13.1254 9.76225 13.0577 9.79612 13.0238 9.82998C13.0238 9.82998 12.9899 9.82998 12.9899 9.86384C12.9561 9.8977 12.9222 9.93157 12.8884 9.96543C12.8545 9.99929 12.8206 9.99929 12.7868 10.0332C12.7529 10.067 12.7529 10.067 12.719 10.1009C12.6852 10.1347 12.6513 10.1686 12.6175 10.2025C12.5836 10.2363 12.5497 10.2702 12.5159 10.304C12.482 10.3379 12.4481 10.4056 12.4143 10.4395C12.3804 10.4734 12.3804 10.5072 12.3466 10.5411C12.3127 10.6088 12.2788 10.6765 12.245 10.7443C12.2111 10.7781 12.2111 10.812 12.1772 10.8797C12.1434 10.9474 12.1095 10.9813 12.1095 11.049C12.0418 11.2183 12.0079 11.4215 11.9741 11.6247C11.9063 11.9294 11.9064 12.3019 11.9402 12.6744C11.9402 12.6744 11.9402 12.8099 11.9741 12.9792C12.0079 13.2839 12.0418 13.7241 12.1095 14.0628C12.1434 14.1643 12.1434 14.2321 12.1772 14.2998V14.3337C12.1772 14.3675 12.1772 14.4014 12.1772 14.4352C12.1772 14.4352 12.1772 14.4352 12.1434 14.4691C12.1434 14.4691 12.1095 14.503 12.0757 14.503C12.0079 14.5707 11.9402 14.6384 12.0079 14.7739C12.0418 14.8077 12.0418 14.8754 12.0757 14.9093C12.1095 14.9432 12.1095 14.977 12.1434 15.0109C12.1772 15.0448 12.1772 15.0448 12.2111 15.0786C12.245 15.1125 12.2788 15.1463 12.3127 15.1802C12.3466 15.2141 12.3466 15.2141 12.3804 15.2479C12.4143 15.2818 12.4481 15.3157 12.482 15.3157C12.5159 15.3495 12.5497 15.3495 12.5836 15.3834C12.6175 15.4172 12.6513 15.4172 12.6852 15.4172C12.719 15.4172 12.719 15.4172 12.7529 15.4172C12.7868 15.4172 12.8206 15.4172 12.8545 15.4172C12.8884 15.4172 12.9222 15.4172 12.9561 15.3834H12.9899C13.0577 15.3834 13.1254 15.3834 13.1592 15.3834C13.1931 15.3834 13.1931 15.3834 13.227 15.3834C13.2608 15.3834 13.2608 15.3834 13.2947 15.3834C13.3286 15.3834 13.3963 15.4172 13.4301 15.4172C13.4301 15.4172 13.464 15.4172 13.464 15.4511C13.464 15.4511 13.4979 15.485 13.4979 15.5527C13.5995 15.9252 13.9381 16.1622 14.3106 16.1622H15.5973C15.9698 16.1622 16.3084 15.9252 16.41 15.5866C16.41 15.5866 16.41 15.5866 16.41 15.5527C16.4439 15.5188 16.4777 15.485 16.5455 15.4511C16.5793 15.4511 16.6132 15.4172 16.6471 15.4172C16.6809 15.4172 16.6809 15.4172 16.7148 15.4172C16.7486 15.4172 16.8164 15.4172 16.8502 15.4172H16.8841C16.918 15.4172 16.9518 15.4172 16.9857 15.4172C17.0195 15.4172 17.0873 15.4172 17.1211 15.4511H17.155C17.1889 15.4511 17.2227 15.4511 17.2566 15.4511H17.2904H17.3243C17.3582 15.4511 17.392 15.4172 17.4259 15.3834C17.4598 15.3495 17.4936 15.3495 17.5275 15.3157L17.5613 15.2818C17.5952 15.2479 17.6291 15.2141 17.6629 15.1802C17.6968 15.1463 17.7306 15.1125 17.7645 15.1125C17.7984 15.0786 17.8322 15.0448 17.8661 15.0109C17.9 14.9432 17.9338 14.9093 17.9677 14.8754C17.9677 14.8416 18.0015 14.8416 18.0015 14.8416C18.0354 14.74 18.0015 14.6723 17.9677 14.6384C17.9338 14.6045 17.9 14.5707 17.8661 14.5368C17.8322 14.503 17.7984 14.4691 17.8322 14.4352C17.8322 14.4014 17.8661 14.3675 17.8661 14.3337C17.9 14.1982 17.9338 14.0289 17.9677 13.8596C18.0015 13.6903 18.0015 13.521 18.0354 13.3855C18.0693 13.0469 18.0693 12.776 18.0693 12.776C18.1031 12.2342 18.0693 11.8278 18.0015 11.4892ZM14.2767 13.8257C14.2767 13.8596 14.2767 13.8596 14.2767 13.8934C14.2767 13.9612 14.2428 14.0289 14.209 14.0966C14.1751 14.1643 14.1413 14.1982 14.1074 14.2659C14.0735 14.2998 14.0735 14.2998 14.0397 14.3337C14.0058 14.3675 13.9719 14.4014 13.9381 14.4014C13.9042 14.4014 13.9042 14.4352 13.8704 14.4352C13.8365 14.4352 13.8365 14.4691 13.8026 14.4691C13.7688 14.4691 13.701 14.503 13.6672 14.503C13.6333 14.503 13.5995 14.503 13.5656 14.503C13.4979 14.503 13.4302 14.503 13.3963 14.503H13.3624C13.3286 14.503 13.2608 14.503 13.227 14.503C13.1931 14.503 13.1931 14.503 13.1592 14.503C13.1254 14.503 13.1254 14.503 13.0915 14.503C13.0238 14.503 12.9561 14.4691 12.9222 14.4691H12.8884C12.8545 14.4352 12.8206 14.4352 12.7868 14.4014C12.7529 14.3675 12.719 14.3675 12.6852 14.3337C12.6513 14.2998 12.6513 14.2998 12.6175 14.2659C12.5836 14.1982 12.5497 14.1305 12.5159 14.0628C12.4481 13.8596 12.482 13.6225 12.5159 13.521C12.5497 13.4532 12.5836 13.4194 12.6175 13.3516C12.6513 13.3178 12.6513 13.3178 12.6852 13.2839C12.719 13.2501 12.7529 13.2162 12.7868 13.2162C12.8206 13.1823 12.8545 13.1823 12.8884 13.1485H12.9222C12.9899 13.1146 13.0238 13.1146 13.0915 13.0808C13.1254 13.0808 13.1254 13.0808 13.1592 13.0808C13.1931 13.0808 13.1931 13.0808 13.227 13.0808C13.2608 13.0808 13.3286 13.0807 13.3624 13.0469H13.3963C13.464 13.0469 13.4979 13.0469 13.5656 13.0469C13.5656 13.0469 13.5656 13.0469 13.5995 13.0469C13.6333 13.0469 13.6672 13.0469 13.701 13.0469C13.7688 13.0469 13.8026 13.0808 13.8365 13.0808C13.8704 13.0808 13.9042 13.1146 13.9042 13.1146C13.9381 13.1146 13.9381 13.1485 13.9719 13.1485C14.0058 13.1823 14.0397 13.2162 14.0735 13.2501C14.1074 13.2839 14.1074 13.2839 14.1413 13.3178C14.1751 13.3855 14.2428 13.4194 14.2428 13.4871C14.2767 13.5548 14.2767 13.5887 14.3106 13.6564C14.2767 13.6564 14.2767 13.7241 14.2767 13.8257ZM15.2587 14.9432C15.2248 14.977 15.191 15.0109 15.1571 15.0109H15.1233C15.0894 15.0109 15.0894 15.0109 15.0894 14.977C15.0894 14.8077 14.9201 14.3337 14.9201 14.3337C14.9201 14.3337 14.8524 14.5368 14.8185 14.7061C14.8185 14.7739 14.7846 14.8416 14.7846 14.8754C14.7846 14.9093 14.7846 14.9432 14.7846 14.977C14.7846 15.0448 14.7169 15.0109 14.6492 14.977L14.6153 14.9432C14.5815 14.9093 14.5476 14.8754 14.5137 14.8077C14.4799 14.74 14.446 14.6384 14.4799 14.5707C14.4799 14.5368 14.5137 14.5368 14.5137 14.503C14.5476 14.4352 14.5815 14.4014 14.6153 14.3675C14.6153 14.3337 14.6492 14.3337 14.6492 14.2998C14.6831 14.2659 14.6831 14.2321 14.7169 14.1982C14.7508 14.1643 14.7508 14.1305 14.7846 14.1305H14.8185C14.8862 14.1305 14.9201 14.1305 14.9201 14.1305C14.9201 14.1305 15.0555 14.0966 15.1233 14.1982C15.1233 14.1982 15.1233 14.1982 15.1233 14.2321C15.1233 14.2659 15.1571 14.2659 15.1571 14.2998C15.191 14.3337 15.2248 14.4014 15.2587 14.4352C15.2926 14.4691 15.3264 14.5368 15.3603 14.6384C15.428 14.7061 15.3603 14.8754 15.2587 14.9432ZM17.392 13.9273C17.3582 14.0289 17.3243 14.1305 17.2904 14.2321C17.2904 14.2659 17.2566 14.2659 17.2566 14.2998C17.2227 14.3337 17.155 14.4014 17.1211 14.4352C17.1211 14.4352 17.0873 14.4352 17.0873 14.4691C17.0534 14.503 17.0195 14.503 16.9518 14.5368C16.918 14.5368 16.8841 14.5707 16.8502 14.5707H16.8164C16.7825 14.5707 16.7148 14.5707 16.6809 14.5707C16.6471 14.5707 16.6471 14.5707 16.6132 14.5707C16.5793 14.5707 16.5455 14.5707 16.5116 14.5707C16.4777 14.5707 16.4439 14.5707 16.3762 14.5707H16.3423C16.3423 14.5707 16.3423 14.5707 16.3084 14.5707C16.2746 14.5707 16.2069 14.5707 16.173 14.5368H16.1391C16.1053 14.5368 16.0714 14.503 16.0375 14.503C16.0037 14.503 16.0037 14.4691 15.9698 14.4691C15.936 14.4352 15.9021 14.4352 15.8682 14.4014C15.8344 14.3675 15.8005 14.3675 15.8005 14.3337C15.7666 14.2998 15.7328 14.2659 15.6989 14.1982C15.6651 14.1305 15.6312 14.0289 15.5973 13.9612C15.5973 13.9273 15.5973 13.9273 15.5973 13.8934C15.5973 13.7919 15.5973 13.6903 15.5973 13.6225C15.6312 13.5548 15.6312 13.4532 15.6989 13.3855C15.7328 13.3516 15.7666 13.2839 15.8005 13.2501C15.8344 13.2162 15.8682 13.1823 15.8682 13.1823C15.9021 13.1485 15.936 13.1146 15.9698 13.1146C16.0037 13.1146 16.0037 13.0808 16.0375 13.0808C16.0714 13.0469 16.1053 13.0469 16.1391 13.0469H16.173C16.2069 13.0469 16.2407 13.0469 16.3084 13.0469C16.3084 13.0469 16.3084 13.0469 16.3423 13.0469H16.3762C16.41 13.0469 16.4777 13.0469 16.5116 13.0469C16.5455 13.0469 16.5793 13.0469 16.6132 13.0469C16.6471 13.0469 16.6471 13.0469 16.6809 13.0469C16.7148 13.0469 16.7825 13.0808 16.8164 13.0808H16.8502C16.8841 13.0808 16.918 13.1146 16.9518 13.1146C16.9857 13.1485 17.0534 13.1485 17.0873 13.1823L17.1211 13.2162C17.1889 13.2501 17.2227 13.2839 17.2566 13.3516C17.2904 13.3855 17.2904 13.3855 17.2904 13.4194C17.3243 13.4532 17.3582 13.521 17.3582 13.5548C17.3582 13.5887 17.392 13.6225 17.392 13.6903C17.392 13.6564 17.392 13.7919 17.392 13.9273Z" fill="black"/>
<path d="M18.0015 11.4892C17.9677 11.3876 17.9677 11.3199 17.9338 11.2522C17.9 11.1506 17.8661 11.049 17.8322 10.9813C17.7984 10.9136 17.7645 10.8458 17.7306 10.812C17.6968 10.7781 17.6629 10.7104 17.6291 10.6765C17.5952 10.6088 17.5613 10.5749 17.5275 10.5072C17.5275 10.4734 17.4936 10.4734 17.4936 10.4395C17.4598 10.4056 17.4259 10.3718 17.392 10.304C17.3582 10.2702 17.3243 10.2363 17.2904 10.1686L17.2566 10.1347C17.2227 10.1009 17.155 10.0332 17.1211 9.99929L17.0873 9.96543C17.0534 9.93157 16.9857 9.8977 16.9518 9.86384C16.918 9.82998 16.8841 9.82998 16.8502 9.79612L16.8164 9.76226C16.7825 9.72839 16.7148 9.69453 16.6809 9.69453C16.6471 9.69453 16.6471 9.66067 16.6132 9.66067C16.5793 9.66067 16.5455 9.62681 16.5116 9.62681C16.4777 9.59294 16.41 9.59294 16.3762 9.55908C16.3762 9.55908 16.3423 9.55908 16.3423 9.52522C16.3084 9.49136 16.2407 9.49136 16.2068 9.45749H16.173C16.1391 9.45749 16.1053 9.42363 16.0714 9.42363C16.0375 9.42363 16.0375 9.42363 16.0037 9.38977C15.9698 9.38977 15.936 9.35591 15.9021 9.35591C15.8682 9.35591 15.8344 9.35591 15.8344 9.32205C15.8005 9.32205 15.7666 9.32205 15.7328 9.28818C15.6989 9.28818 15.6651 9.28818 15.6312 9.25432C15.5973 9.25432 15.5635 9.25432 15.5296 9.25432C15.4957 9.25432 15.4957 9.25432 15.4619 9.25432C15.428 9.25432 15.3603 9.25432 15.3264 9.22046C15.2926 9.22046 15.2587 9.22046 15.2248 9.22046H15.191C15.0894 9.22046 15.0217 9.22046 14.9878 9.22046C14.9539 9.22046 14.9201 9.22046 14.8862 9.22046H14.8524C14.8185 9.22046 14.7508 9.22046 14.7169 9.22046H14.683C14.6492 9.22046 14.6153 9.22046 14.5815 9.22046C14.5476 9.22046 14.4799 9.22046 14.446 9.25432C14.4122 9.25432 14.3783 9.25432 14.3783 9.25432C14.3444 9.25432 14.3444 9.25432 14.3106 9.25432C14.2767 9.25432 14.2428 9.25432 14.209 9.28818C14.1751 9.28818 14.1751 9.28818 14.1413 9.28818C14.1074 9.28818 14.0735 9.32205 14.0397 9.32205C14.0058 9.32205 14.0058 9.32205 13.9719 9.35591C13.9381 9.35591 13.9381 9.35591 13.9042 9.38977C13.8704 9.38977 13.8026 9.42363 13.7688 9.45749C13.6672 9.49136 13.5995 9.52522 13.4979 9.55908C13.4979 9.55908 13.464 9.55908 13.464 9.59294C13.4301 9.62681 13.3624 9.62681 13.3286 9.66067C13.2947 9.66067 13.2947 9.69453 13.2608 9.69453C13.227 9.69453 13.227 9.72839 13.1931 9.72839C13.1254 9.76225 13.0577 9.79612 13.0238 9.82998C13.0238 9.82998 12.9899 9.82998 12.9899 9.86384C12.9561 9.8977 12.9222 9.93157 12.8884 9.96543C12.8545 9.99929 12.8206 9.99929 12.7868 10.0332C12.7529 10.067 12.7529 10.067 12.719 10.1009C12.6852 10.1347 12.6513 10.1686 12.6175 10.2025C12.5836 10.2363 12.5497 10.2702 12.5159 10.304C12.482 10.3379 12.4481 10.4056 12.4143 10.4395C12.3804 10.4734 12.3804 10.5072 12.3466 10.5411C12.3127 10.6088 12.2788 10.6765 12.245 10.7443C12.2111 10.7781 12.2111 10.812 12.1772 10.8797C12.1434 10.9474 12.1095 10.9813 12.1095 11.049C12.0418 11.2183 12.0079 11.4215 11.9741 11.6247C11.9063 11.9294 11.9064 12.3019 11.9402 12.6744C11.9402 12.6744 11.9402 12.8099 11.9741 12.9792C12.0079 13.2839 12.0418 13.7241 12.1095 14.0628C12.1434 14.1643 12.1434 14.2321 12.1772 14.2998V14.3337C12.1772 14.3675 12.1772 14.4014 12.1772 14.4352C12.1772 14.4352 12.1772 14.4352 12.1434 14.4691C12.1434 14.4691 12.1095 14.503 12.0757 14.503C12.0079 14.5707 11.9402 14.6384 12.0079 14.7739C12.0418 14.8077 12.0418 14.8754 12.0757 14.9093C12.1095 14.9432 12.1095 14.977 12.1434 15.0109C12.1772 15.0448 12.1772 15.0448 12.2111 15.0786C12.245 15.1125 12.2788 15.1463 12.3127 15.1802C12.3466 15.2141 12.3466 15.2141 12.3804 15.2479C12.4143 15.2818 12.4481 15.3157 12.482 15.3157C12.5159 15.3495 12.5497 15.3495 12.5836 15.3834C12.6175 15.4172 12.6513 15.4172 12.6852 15.4172C12.719 15.4172 12.719 15.4172 12.7529 15.4172C12.7868 15.4172 12.8206 15.4172 12.8545 15.4172C12.8884 15.4172 12.9222 15.4172 12.9561 15.3834H12.9899C13.0577 15.3834 13.1254 15.3834 13.1592 15.3834C13.1931 15.3834 13.1931 15.3834 13.227 15.3834C13.2608 15.3834 13.2608 15.3834 13.2947 15.3834C13.3286 15.3834 13.3963 15.4172 13.4301 15.4172C13.4301 15.4172 13.464 15.4172 13.464 15.4511C13.464 15.4511 13.4979 15.485 13.4979 15.5527C13.5995 15.9252 13.9381 16.1622 14.3106 16.1622H15.5973C15.9698 16.1622 16.3084 15.9252 16.41 15.5866C16.41 15.5866 16.41 15.5866 16.41 15.5527C16.4439 15.5188 16.4777 15.485 16.5455 15.4511C16.5793 15.4511 16.6132 15.4172 16.6471 15.4172C16.6809 15.4172 16.6809 15.4172 16.7148 15.4172C16.7486 15.4172 16.8164 15.4172 16.8502 15.4172H16.8841C16.918 15.4172 16.9518 15.4172 16.9857 15.4172C17.0195 15.4172 17.0873 15.4172 17.1211 15.4511H17.155C17.1889 15.4511 17.2227 15.4511 17.2566 15.4511H17.2904H17.3243C17.3582 15.4511 17.392 15.4172 17.4259 15.3834C17.4598 15.3495 17.4936 15.3495 17.5275 15.3157L17.5613 15.2818C17.5952 15.2479 17.6291 15.2141 17.6629 15.1802C17.6968 15.1463 17.7306 15.1125 17.7645 15.1125C17.7984 15.0786 17.8322 15.0448 17.8661 15.0109C17.9 14.9432 17.9338 14.9093 17.9677 14.8754C17.9677 14.8416 18.0015 14.8416 18.0015 14.8416C18.0354 14.74 18.0015 14.6723 17.9677 14.6384C17.9338 14.6045 17.9 14.5707 17.8661 14.5368C17.8322 14.503 17.7984 14.4691 17.8322 14.4352C17.8322 14.4014 17.8661 14.3675 17.8661 14.3337C17.9 14.1982 17.9338 14.0289 17.9677 13.8596C18.0015 13.6903 18.0015 13.521 18.0354 13.3855C18.0693 13.0469 18.0693 12.776 18.0693 12.776C18.1031 12.2342 18.0693 11.8278 18.0015 11.4892ZM14.2767 13.8257C14.2767 13.8596 14.2767 13.8596 14.2767 13.8934C14.2767 13.9612 14.2428 14.0289 14.209 14.0966C14.1751 14.1643 14.1413 14.1982 14.1074 14.2659C14.0735 14.2998 14.0735 14.2998 14.0397 14.3337C14.0058 14.3675 13.9719 14.4014 13.9381 14.4014C13.9042 14.4014 13.9042 14.4352 13.8704 14.4352C13.8365 14.4352 13.8365 14.4691 13.8026 14.4691C13.7688 14.4691 13.701 14.503 13.6672 14.503C13.6333 14.503 13.5995 14.503 13.5656 14.503C13.4979 14.503 13.4302 14.503 13.3963 14.503H13.3624C13.3286 14.503 13.2608 14.503 13.227 14.503C13.1931 14.503 13.1931 14.503 13.1592 14.503C13.1254 14.503 13.1254 14.503 13.0915 14.503C13.0238 14.503 12.9561 14.4691 12.9222 14.4691H12.8884C12.8545 14.4352 12.8206 14.4352 12.7868 14.4014C12.7529 14.3675 12.719 14.3675 12.6852 14.3337C12.6513 14.2998 12.6513 14.2998 12.6175 14.2659C12.5836 14.1982 12.5497 14.1305 12.5159 14.0628C12.4481 13.8596 12.482 13.6225 12.5159 13.521C12.5497 13.4532 12.5836 13.4194 12.6175 13.3516C12.6513 13.3178 12.6513 13.3178 12.6852 13.2839C12.719 13.2501 12.7529 13.2162 12.7868 13.2162C12.8206 13.1823 12.8545 13.1823 12.8884 13.1485H12.9222C12.9899 13.1146 13.0238 13.1146 13.0915 13.0808C13.1254 13.0808 13.1254 13.0808 13.1592 13.0808C13.1931 13.0808 13.1931 13.0808 13.227 13.0808C13.2608 13.0808 13.3286 13.0807 13.3624 13.0469H13.3963C13.464 13.0469 13.4979 13.0469 13.5656 13.0469C13.5656 13.0469 13.5656 13.0469 13.5995 13.0469C13.6333 13.0469 13.6672 13.0469 13.701 13.0469C13.7688 13.0469 13.8026 13.0808 13.8365 13.0808C13.8704 13.0808 13.9042 13.1146 13.9042 13.1146C13.9381 13.1146 13.9381 13.1485 13.9719 13.1485C14.0058 13.1823 14.0397 13.2162 14.0735 13.2501C14.1074 13.2839 14.1074 13.2839 14.1413 13.3178C14.1751 13.3855 14.2428 13.4194 14.2428 13.4871C14.2767 13.5548 14.2767 13.5887 14.3106 13.6564C14.2767 13.6564 14.2767 13.7241 14.2767 13.8257ZM15.2587 14.9432C15.2248 14.977 15.191 15.0109 15.1571 15.0109H15.1233C15.0894 15.0109 15.0894 15.0109 15.0894 14.977C15.0894 14.8077 14.9201 14.3337 14.9201 14.3337C14.9201 14.3337 14.8524 14.5368 14.8185 14.7061C14.8185 14.7739 14.7846 14.8416 14.7846 14.8754C14.7846 14.9093 14.7846 14.9432 14.7846 14.977C14.7846 15.0448 14.7169 15.0109 14.6492 14.977L14.6153 14.9432C14.5815 14.9093 14.5476 14.8754 14.5137 14.8077C14.4799 14.74 14.446 14.6384 14.4799 14.5707C14.4799 14.5368 14.5137 14.5368 14.5137 14.503C14.5476 14.4352 14.5815 14.4014 14.6153 14.3675C14.6153 14.3337 14.6492 14.3337 14.6492 14.2998C14.6831 14.2659 14.6831 14.2321 14.7169 14.1982C14.7508 14.1643 14.7508 14.1305 14.7846 14.1305H14.8185C14.8862 14.1305 14.9201 14.1305 14.9201 14.1305C14.9201 14.1305 15.0555 14.0966 15.1233 14.1982C15.1233 14.1982 15.1233 14.1982 15.1233 14.2321C15.1233 14.2659 15.1571 14.2659 15.1571 14.2998C15.191 14.3337 15.2248 14.4014 15.2587 14.4352C15.2926 14.4691 15.3264 14.5368 15.3603 14.6384C15.428 14.7061 15.3603 14.8754 15.2587 14.9432ZM17.392 13.9273C17.3582 14.0289 17.3243 14.1305 17.2904 14.2321C17.2904 14.2659 17.2566 14.2659 17.2566 14.2998C17.2227 14.3337 17.155 14.4014 17.1211 14.4352C17.1211 14.4352 17.0873 14.4352 17.0873 14.4691C17.0534 14.503 17.0195 14.503 16.9518 14.5368C16.918 14.5368 16.8841 14.5707 16.8502 14.5707H16.8164C16.7825 14.5707 16.7148 14.5707 16.6809 14.5707C16.6471 14.5707 16.6471 14.5707 16.6132 14.5707C16.5793 14.5707 16.5455 14.5707 16.5116 14.5707C16.4777 14.5707 16.4439 14.5707 16.3762 14.5707H16.3423C16.3423 14.5707 16.3423 14.5707 16.3084 14.5707C16.2746 14.5707 16.2069 14.5707 16.173 14.5368H16.1391C16.1053 14.5368 16.0714 14.503 16.0375 14.503C16.0037 14.503 16.0037 14.4691 15.9698 14.4691C15.936 14.4352 15.9021 14.4352 15.8682 14.4014C15.8344 14.3675 15.8005 14.3675 15.8005 14.3337C15.7666 14.2998 15.7328 14.2659 15.6989 14.1982C15.6651 14.1305 15.6312 14.0289 15.5973 13.9612C15.5973 13.9273 15.5973 13.9273 15.5973 13.8934C15.5973 13.7919 15.5973 13.6903 15.5973 13.6225C15.6312 13.5548 15.6312 13.4532 15.6989 13.3855C15.7328 13.3516 15.7666 13.2839 15.8005 13.2501C15.8344 13.2162 15.8682 13.1823 15.8682 13.1823C15.9021 13.1485 15.936 13.1146 15.9698 13.1146C16.0037 13.1146 16.0037 13.0808 16.0375 13.0808C16.0714 13.0469 16.1053 13.0469 16.1391 13.0469H16.173C16.2069 13.0469 16.2407 13.0469 16.3084 13.0469C16.3084 13.0469 16.3084 13.0469 16.3423 13.0469H16.3762C16.41 13.0469 16.4777 13.0469 16.5116 13.0469C16.5455 13.0469 16.5793 13.0469 16.6132 13.0469C16.6471 13.0469 16.6471 13.0469 16.6809 13.0469C16.7148 13.0469 16.7825 13.0808 16.8164 13.0808H16.8502C16.8841 13.0808 16.918 13.1146 16.9518 13.1146C16.9857 13.1485 17.0534 13.1485 17.0873 13.1823L17.1211 13.2162C17.1889 13.2501 17.2227 13.2839 17.2566 13.3516C17.2904 13.3855 17.2904 13.3855 17.2904 13.4194C17.3243 13.4532 17.3582 13.521 17.3582 13.5548C17.3582 13.5887 17.392 13.6225 17.392 13.6903C17.392 13.6564 17.392 13.7919 17.392 13.9273Z" stroke="#2ECECD" stroke-width="1.72634" mask="url(#path-19-outside-1)"/>
<path d="M15 28.7595C7.8203 28.7595 2 22.9392 2 15.7595H-2C-2 25.1484 5.61116 32.7595 15 32.7595V28.7595ZM28 15.7595C28 22.9392 22.1797 28.7595 15 28.7595V32.7595C24.3888 32.7595 32 25.1484 32 15.7595H28ZM15 2.75952C22.1797 2.75952 28 8.57982 28 15.7595H32C32 6.37068 24.3888 -1.24048 15 -1.24048V2.75952ZM15 -1.24048C5.61116 -1.24048 -2 6.37068 -2 15.7595H2C2 8.57982 7.8203 2.75952 15 2.75952V-1.24048Z" fill="#95ECEB"/>
<defs>
<linearGradient id="paint0_linear" x1="2.63158" y1="30.7597" x2="28.0117" y2="30.7597" gradientUnits="userSpaceOnUse">
<stop stop-color="#43A8B1"/>
<stop offset="0.431827" stop-color="#3FCACB"/>
<stop offset="0.520833" stop-color="#3ED1D1"/>
<stop offset="1" stop-color="#00C2C2"/>
</linearGradient>
</defs>
</svg>
