<svg width="30" height="31" viewBox="0 0 30 31" fill="none" xmlns="http://www.w3.org/2000/svg">
<path d="M0 15.2595C0 6.97525 6.71573 0.259521 15 0.259521V0.259521C23.2843 0.259521 30 6.97525 30 15.2595V15.2595C30 23.5438 23.2843 30.2595 15 30.2595V30.2595C6.71573 30.2595 0 23.5438 0 15.2595V15.2595Z" fill="url(#paint0_linear)"/>
<path fill-rule="evenodd" clip-rule="evenodd" d="M8.70119 10.0415V14.9607C8.70122 18.1435 10.6613 20.9977 13.632 22.1404L14.3045 22.3989C14.7524 22.5711 15.2483 22.5711 15.6962 22.3989L16.3687 22.1404C19.3393 20.9977 21.2995 18.1435 21.2995 14.9607V10.0415C21.302 9.66342 21.0825 9.31899 20.7387 9.1616C18.9296 8.37197 16.9742 7.97326 15.0003 7.99157C13.0265 7.97326 11.0711 8.37197 9.26198 9.1616C8.91817 9.31899 8.69866 9.66342 8.70119 10.0415Z" fill="black"/>
<path d="M13.3613 14.4339C14.0436 13.7534 15.8212 13.8062 16.2592 14.4339" stroke="#1CC9C9" stroke-width="1.05471" stroke-linecap="round" stroke-linejoin="round"/>
<path d="M12.0859 12.907C13.7262 11.3992 16.2464 11.3936 17.8934 12.8942" stroke="#1CC9C9" stroke-width="1.05471" stroke-linecap="round" stroke-linejoin="round"/>
<path d="M11.0625 11.1702C13.3629 9.32394 16.6376 9.32522 18.9366 11.1733" stroke="#1CC9C9" stroke-width="1.05471" stroke-linecap="round" stroke-linejoin="round"/>
<circle cx="14.8098" cy="16.1518" r="0.616437" fill="#1CC9C9"/>
<path d="M12.8057 19.3999L13.2937 17.7805H13.7876L13.0378 19.9338H12.575L11.8281 17.7805H12.3206L12.8057 19.3999Z" fill="#1CC9C9"/>
<path d="M14.4354 19.1751V19.9338H13.9917V17.7805H14.8317C14.9934 17.7805 15.1354 17.8101 15.2576 17.8693C15.3809 17.9284 15.4755 18.0127 15.5416 18.1221C15.6076 18.2306 15.6407 18.3543 15.6407 18.4933C15.6407 18.7043 15.5682 18.8709 15.4233 18.9932C15.2793 19.1145 15.0797 19.1751 14.8243 19.1751H14.4354ZM14.4354 18.8157H14.8317C14.949 18.8157 15.0383 18.7881 15.0994 18.7329C15.1615 18.6777 15.1926 18.5988 15.1926 18.4963C15.1926 18.3908 15.1615 18.3055 15.0994 18.2404C15.0373 18.1754 14.9515 18.1419 14.8421 18.1399H14.4354V18.8157Z" fill="#1CC9C9"/>
<path d="M17.6978 19.9338H17.2541L16.3905 18.517V19.9338H15.9468V17.7805H16.3905L17.2556 19.2002V17.7805H17.6978V19.9338Z" fill="#1CC9C9"/>
<path d="M15 28.2595C7.8203 28.2595 2 22.4392 2 15.2595H-2C-2 24.6484 5.61116 32.2595 15 32.2595V28.2595ZM28 15.2595C28 22.4392 22.1797 28.2595 15 28.2595V32.2595C24.3888 32.2595 32 24.6484 32 15.2595H28ZM15 2.25952C22.1797 2.25952 28 8.07982 28 15.2595H32C32 5.87068 24.3888 -1.74048 15 -1.74048V2.25952ZM15 -1.74048C5.61116 -1.74048 -2 5.87068 -2 15.2595H2C2 8.07982 7.8203 2.25952 15 2.25952V-1.74048Z" fill="#95ECEB"/>
<defs>
<linearGradient id="paint0_linear" x1="2.63158" y1="30.2597" x2="28.0117" y2="30.2597" gradientUnits="userSpaceOnUse">
<stop stop-color="#43A8B1"/>
<stop offset="0.431827" stop-color="#3FCACB"/>
<stop offset="0.520833" stop-color="#3ED1D1"/>
<stop offset="1" stop-color="#00C2C2"/>
</linearGradient>
</defs>
</svg>
