<svg width="30" height="31" viewBox="0 0 30 31" fill="none" xmlns="http://www.w3.org/2000/svg">
<path d="M0 15.7598C0 7.47549 6.71573 0.759766 15 0.759766V0.759766C23.2843 0.759766 30 7.47549 30 15.7598V15.7598C30 24.044 23.2843 30.7598 15 30.7598V30.7598C6.71573 30.7598 0 24.044 0 15.7598V15.7598Z" fill="url(#paint0_linear)"/>
<path fill-rule="evenodd" clip-rule="evenodd" d="M14.0302 9.38599C14.2779 9.66031 14.6302 9.81687 14.9998 9.81687C15.3694 9.81687 15.7217 9.66031 15.9694 9.38599L16.5962 8.69114C16.9666 8.28058 17.5553 8.14766 18.0661 8.35928C18.577 8.57089 18.8992 9.08119 18.8708 9.63339L18.8228 10.567C18.804 10.9363 18.9425 11.2962 19.2039 11.5577C19.4653 11.8193 19.8252 11.9579 20.1945 11.9393L21.128 11.8913C21.6799 11.8638 22.1894 12.1864 22.4004 12.697C22.6115 13.2076 22.4785 13.7958 22.0683 14.1659L21.3734 14.7927C21.0991 15.0404 20.9426 15.3927 20.9426 15.7623C20.9426 16.1319 21.0991 16.4842 21.3734 16.7319L22.0683 17.3587C22.4789 17.7291 22.6118 18.3178 22.4002 18.8287C22.1886 19.3395 21.6782 19.6618 21.126 19.6333L20.1925 19.5853C19.8232 19.5666 19.4633 19.705 19.2019 19.9665C18.9405 20.2279 18.802 20.5878 18.8208 20.957L18.8688 21.8906C18.8953 22.4415 18.573 22.9496 18.0634 23.1605C17.5538 23.3713 16.9666 23.2394 16.5962 22.8308L15.9694 22.136C15.7217 21.8617 15.3694 21.7051 14.9998 21.7051C14.6302 21.7051 14.2779 21.8617 14.0302 22.136L13.4034 22.8308C13.0328 23.2382 12.4465 23.3694 11.9377 23.1589C11.4288 22.9484 11.1066 22.4414 11.1321 21.8913L11.1801 20.9577C11.1996 20.5876 11.0609 20.2267 10.7986 19.9649C10.5363 19.7031 10.1751 19.5651 9.80508 19.5853L8.8715 19.6333C8.31968 19.6609 7.8102 19.3383 7.59913 18.8277C7.38807 18.3171 7.52105 17.7289 7.93126 17.3587L8.62611 16.7319C8.90043 16.4842 9.05699 16.1319 9.05699 15.7623C9.05699 15.3927 8.90043 15.0404 8.62611 14.7927L7.93126 14.1659C7.5239 13.7953 7.39268 13.2091 7.60319 12.7002C7.8137 12.1913 8.32073 11.8691 8.87084 11.8946L9.80442 11.9427C10.1744 11.9617 10.535 11.8229 10.7967 11.5607C11.0584 11.2985 11.1965 10.9376 11.1768 10.5676L11.1321 9.63339C11.1066 9.08328 11.4288 8.57626 11.9377 8.36574C12.4465 8.15523 13.0328 8.28645 13.4034 8.69381L14.0302 9.38599Z" fill="black"/>
<path d="M16.7635 13.5016C15.9006 12.8279 14.729 12.705 13.7451 13.1851C12.7611 13.6651 12.1369 14.6641 12.1367 15.7589V16.4199" stroke="#3FCDCE" stroke-width="0.81221" stroke-linecap="round" stroke-linejoin="round"/>
<path d="M12.8826 18.1334C13.7086 18.8519 14.872 19.0367 15.88 18.6095C16.888 18.1823 17.5643 17.2178 17.6225 16.1245L17.6576 15.4645" stroke="#3FCDCE" stroke-width="0.81221" stroke-linecap="round" stroke-linejoin="round"/>
<path d="M11.0938 15.5615L12.1357 16.6035L13.1776 15.5616" stroke="#3FCDCE" stroke-width="0.81221" stroke-linecap="round" stroke-linejoin="round"/>
<path d="M18.6523 16.377L17.6671 15.2812L16.5714 16.2664" stroke="#3FCDCE" stroke-width="0.81221" stroke-linecap="round" stroke-linejoin="round"/>
<path d="M15 28.7598C7.8203 28.7598 2 22.9395 2 15.7598H-2C-2 25.1486 5.61116 32.7598 15 32.7598V28.7598ZM28 15.7598C28 22.9395 22.1797 28.7598 15 28.7598V32.7598C24.3888 32.7598 32 25.1486 32 15.7598H28ZM15 2.75977C22.1797 2.75977 28 8.58006 28 15.7598H32C32 6.37092 24.3888 -1.24023 15 -1.24023V2.75977ZM15 -1.24023C5.61116 -1.24023 -2 6.37092 -2 15.7598H2C2 8.58006 7.8203 2.75977 15 2.75977V-1.24023Z" fill="#95ECEB"/>
<defs>
<linearGradient id="paint0_linear" x1="2.63158" y1="30.7599" x2="28.0117" y2="30.7599" gradientUnits="userSpaceOnUse">
<stop stop-color="#43A8B1"/>
<stop offset="0.431827" stop-color="#3FCACB"/>
<stop offset="0.520833" stop-color="#3ED1D1"/>
<stop offset="1" stop-color="#00C2C2"/>
</linearGradient>
</defs>
</svg>
