<svg width="30" height="31" viewBox="0 0 30 31" fill="none" xmlns="http://www.w3.org/2000/svg">
<path d="M0 15.7598C0 7.47549 6.71573 0.759766 15 0.759766V0.759766C23.2843 0.759766 30 7.47549 30 15.7598V15.7598C30 24.044 23.2843 30.7598 15 30.7598V30.7598C6.71573 30.7598 0 24.044 0 15.7598V15.7598Z" fill="url(#paint0_linear)"/>
<path d="M16.3245 18.332C16.0414 17.9445 16.1526 17.6196 16.248 17.1562C16.3356 16.7306 15.7427 16.8734 15.5522 16.9474C14.9871 17.1672 14.5642 17.3965 14.0772 17.7337C13.917 17.8446 13.4788 18.3037 13.0823 18.1581C12.5074 17.947 13.5027 17.1191 13.785 16.7561C13.8714 16.645 14.621 15.6533 14.0355 15.6533C13.8383 15.6533 13.5275 15.8899 13.5275 15.8899C13.5275 15.8899 11.8239 17.2711 11.1411 17.6745C10.8934 17.8209 10.4229 17.867 10.167 17.7476C9.98516 17.6627 9.54362 17.4013 9.62772 16.7178C9.71182 16.0344 10.5541 15.8031 10.6262 16.0917" stroke="#3ED0D0" stroke-width="0.872694" stroke-linecap="round"/>
<path fill-rule="evenodd" clip-rule="evenodd" d="M20.3045 14.6284C20.3045 14.9507 20.2638 15.2641 20.187 15.5644C20.4275 15.4947 20.6817 15.4574 20.9446 15.4574C22.4449 15.4574 23.6612 16.6736 23.6612 18.1739C23.6612 19.6025 22.5585 20.7735 21.1579 20.8822V20.8905H20.9556C20.952 20.8905 20.9483 20.8905 20.9446 20.8905C20.9409 20.8905 20.9373 20.8905 20.9336 20.8905H9.06549C9.06181 20.8905 9.05813 20.8905 9.05445 20.8905C9.05077 20.8905 9.0471 20.8905 9.04342 20.8905H8.89406V20.8858C7.4684 20.8028 6.33789 19.6204 6.33789 18.1739C6.33789 16.6736 7.55414 15.4574 9.05445 15.4574C9.15501 15.4574 9.25429 15.4628 9.35201 15.4735C9.28114 15.2796 9.24247 15.0702 9.24247 14.8518C9.24247 13.8516 10.0533 13.0407 11.0535 13.0407C11.4046 13.0407 11.7324 13.1407 12.01 13.3137C12.5899 11.7507 14.1749 10.6289 16.0393 10.6289C18.3949 10.6289 20.3045 12.4195 20.3045 14.6284Z" fill="black"/>
<path d="M13.9704 13.8149H12.3796V16.633H11.5781L13.1938 19.4386L14.797 16.633H13.9704V13.8149Z" fill="#40C6C8"/>
<path d="M16.0296 19.4385L17.6204 19.4385L17.6204 16.6204L18.4219 16.6204L16.8062 13.8149L15.203 16.6204L16.0296 16.6204L16.0296 19.4385Z" fill="#40C6C8"/>
<path d="M15 28.7598C7.8203 28.7598 2 22.9395 2 15.7598H-2C-2 25.1486 5.61116 32.7598 15 32.7598V28.7598ZM28 15.7598C28 22.9395 22.1797 28.7598 15 28.7598V32.7598C24.3888 32.7598 32 25.1486 32 15.7598H28ZM15 2.75977C22.1797 2.75977 28 8.58006 28 15.7598H32C32 6.37092 24.3888 -1.24023 15 -1.24023V2.75977ZM15 -1.24023C5.61116 -1.24023 -2 6.37092 -2 15.7598H2C2 8.58006 7.8203 2.75977 15 2.75977V-1.24023Z" fill="#95ECEB"/>
<defs>
<linearGradient id="paint0_linear" x1="2.63158" y1="30.7599" x2="28.0117" y2="30.7599" gradientUnits="userSpaceOnUse">
<stop stop-color="#43A8B1"/>
<stop offset="0.431827" stop-color="#3FCACB"/>
<stop offset="0.520833" stop-color="#3ED1D1"/>
<stop offset="1" stop-color="#00C2C2"/>
</linearGradient>
</defs>
</svg>
