<svg width="30" height="31" viewBox="0 0 30 31" fill="none" xmlns="http://www.w3.org/2000/svg">
<path d="M0 15.7598C0 7.47549 6.71573 0.759766 15 0.759766V0.759766C23.2843 0.759766 30 7.47549 30 15.7598V15.7598C30 24.044 23.2843 30.7598 15 30.7598V30.7598C6.71573 30.7598 0 24.044 0 15.7598V15.7598Z" fill="url(#paint0_linear)"/>
<rect x="7.46484" y="19.5088" width="15.0709" height="3.53381" rx="0.830758" fill="black"/>
<rect x="7.46484" y="14.9644" width="15.0709" height="3.53381" rx="0.830758" fill="black"/>
<circle cx="9.41392" cy="16.6395" r="0.587744" fill="#1CC9C9"/>
<circle cx="11.1483" cy="16.6395" r="0.587744" fill="#1CC9C9"/>
<circle cx="9.41392" cy="21.2757" r="0.587744" fill="#1CC9C9"/>
<circle cx="11.1483" cy="21.2757" r="0.587744" fill="#1CC9C9"/>
<path d="M18.8307 8.17725C18.9561 8.22371 19.0394 8.34332 19.0394 8.47705V11.9939H20.3982H20.3987C20.6166 11.9943 20.8146 12.1212 20.9058 12.3191C20.9971 12.517 20.9651 12.75 20.8239 12.916L20.8229 12.9171L17.0439 17.3177C16.9568 17.4191 16.8157 17.4556 16.6903 17.4092C16.5649 17.3627 16.4816 17.2431 16.4816 17.1094V13.5925L15.1232 13.5925L15.1228 13.5925M18.8307 8.17725L14.94 12.8776C14.8794 12.9488 14.8657 13.0488 14.905 13.1337C14.9443 13.2186 15.0293 13.2729 15.1228 13.2728V13.5925M18.8307 8.17725C18.7053 8.13079 18.5642 8.16729 18.4771 8.26874L14.6974 12.6693L14.6965 12.6704C14.555 12.8367 14.5232 13.0699 14.6148 13.268C14.7064 13.4659 14.9047 13.5926 15.1228 13.5925M18.8307 8.17725L15.1228 13.5925" fill="black" stroke="#1CC9C9" stroke-width="0.639431" stroke-linecap="round" stroke-linejoin="round"/>
<path d="M15 28.7598C7.8203 28.7598 2 22.9395 2 15.7598H-2C-2 25.1486 5.61116 32.7598 15 32.7598V28.7598ZM28 15.7598C28 22.9395 22.1797 28.7598 15 28.7598V32.7598C24.3888 32.7598 32 25.1486 32 15.7598H28ZM15 2.75977C22.1797 2.75977 28 8.58006 28 15.7598H32C32 6.37092 24.3888 -1.24023 15 -1.24023V2.75977ZM15 -1.24023C5.61116 -1.24023 -2 6.37092 -2 15.7598H2C2 8.58006 7.8203 2.75977 15 2.75977V-1.24023Z" fill="#95ECEB"/>
<defs>
<linearGradient id="paint0_linear" x1="2.63158" y1="30.7599" x2="28.0117" y2="30.7599" gradientUnits="userSpaceOnUse">
<stop stop-color="#43A8B1"/>
<stop offset="0.431827" stop-color="#3FCACB"/>
<stop offset="0.520833" stop-color="#3ED1D1"/>
<stop offset="1" stop-color="#00C2C2"/>
</linearGradient>
</defs>
</svg>
