<svg width="30" height="31" viewBox="0 0 30 31" fill="none" xmlns="http://www.w3.org/2000/svg">
<path d="M0 15.2595C0 6.97525 6.71573 0.259521 15 0.259521V0.259521C23.2843 0.259521 30 6.97525 30 15.2595V15.2595C30 23.5438 23.2843 30.2595 15 30.2595V30.2595C6.71573 30.2595 0 23.5438 0 15.2595V15.2595Z" fill="url(#paint0_linear)"/>
<rect x="8.89844" y="12.0417" width="12.2024" height="7.14637" rx="0.884803" fill="black"/>
<path d="M13.2039 19.9363L16.8027 19.9363L17.1746 21.1307H12.8242L13.2039 19.9363Z" fill="black"/>
<path d="M11.4082 22.4141H18.5902" stroke="black" stroke-width="0.966027" stroke-linecap="round" stroke-linejoin="round"/>
<path fill-rule="evenodd" clip-rule="evenodd" d="M11.4082 9.56645V12.3707C11.4082 14.1852 12.5257 15.8123 14.2191 16.4638L14.6026 16.6111C14.8579 16.7093 15.1406 16.7093 15.3959 16.6111L15.7793 16.4638C17.4728 15.8123 18.5902 14.1852 18.5902 12.3707V9.56645C18.5917 9.35089 18.4665 9.15454 18.2705 9.06481C17.2392 8.61466 16.1245 8.38737 14.9992 8.3978C13.874 8.38737 12.7592 8.61466 11.7279 9.06481C11.5319 9.15454 11.4068 9.35089 11.4082 9.56645Z" fill="black" stroke="#3ED0D0" stroke-width="0.973283" stroke-linecap="round" stroke-linejoin="round"/>
<path d="M16.4885 11.2295L14.9265 13.3121C14.8561 13.4055 14.7489 13.4639 14.6323 13.4722C14.5157 13.4806 14.4012 13.438 14.3183 13.3556L13.5117 12.549" stroke="#3ED1D1" stroke-width="0.740916" stroke-linecap="round" stroke-linejoin="round"/>
<path d="M15 28.2595C7.8203 28.2595 2 22.4392 2 15.2595H-2C-2 24.6484 5.61116 32.2595 15 32.2595V28.2595ZM28 15.2595C28 22.4392 22.1797 28.2595 15 28.2595V32.2595C24.3888 32.2595 32 24.6484 32 15.2595H28ZM15 2.25952C22.1797 2.25952 28 8.07982 28 15.2595H32C32 5.87068 24.3888 -1.74048 15 -1.74048V2.25952ZM15 -1.74048C5.61116 -1.74048 -2 5.87068 -2 15.2595H2C2 8.07982 7.8203 2.25952 15 2.25952V-1.74048Z" fill="#95ECEB"/>
<defs>
<linearGradient id="paint0_linear" x1="2.63158" y1="30.2597" x2="28.0117" y2="30.2597" gradientUnits="userSpaceOnUse">
<stop stop-color="#43A8B1"/>
<stop offset="0.431827" stop-color="#3FCACB"/>
<stop offset="0.520833" stop-color="#3ED1D1"/>
<stop offset="1" stop-color="#00C2C2"/>
</linearGradient>
</defs>
</svg>
