<svg width="30" height="31" viewBox="0 0 30 31" fill="none" xmlns="http://www.w3.org/2000/svg">
<path d="M0 15.7595C0 7.47525 6.71573 0.759521 15 0.759521V0.759521C23.2843 0.759521 30 7.47525 30 15.7595V15.7595C30 24.0438 23.2843 30.7595 15 30.7595V30.7595C6.71573 30.7595 0 24.0438 0 15.7595V15.7595Z" fill="url(#paint0_linear)"/>
<path fill-rule="evenodd" clip-rule="evenodd" d="M8.86135 10.6742V15.4683C8.86138 18.5702 10.7717 21.3518 13.6668 22.4655L14.3222 22.7173C14.7587 22.8852 15.242 22.8852 15.6784 22.7173L16.3339 22.4655C19.229 21.3518 21.1393 18.5702 21.1393 15.4683V10.6742C21.1418 10.3057 20.9278 9.97004 20.5928 9.81665C18.8297 9.04709 16.924 8.65853 15.0003 8.67637C13.0767 8.65853 11.171 9.04709 9.40788 9.81665C9.07281 9.97004 8.85888 10.3057 8.86135 10.6742Z" fill="black"/>
<path d="M13.8301 18.1104C13.8301 17.5052 14.3846 17.0146 15.0686 17.0146C15.7526 17.0146 16.307 17.5052 16.307 18.1104" stroke="#1CC9C9" stroke-width="0.547862" stroke-linecap="round" stroke-linejoin="round"/>
<path d="M13.3787 18.3947C12.7121 18.3947 12.1718 18.935 12.1718 19.6016V22.0327C12.1718 22.6993 12.7121 23.2397 13.3787 23.2397H16.6202C17.2867 23.2397 17.8271 22.6993 17.8271 22.0327V19.6016C17.8271 18.935 17.2867 18.3947 16.6202 18.3947H13.3787Z" fill="#1CC9C9" stroke="black" stroke-width="0.79317" stroke-linecap="round" stroke-linejoin="round"/>
<path d="M14.9995 20.6306C15.1114 20.6306 15.2021 20.7213 15.2021 20.8332C15.2021 20.9451 15.1114 21.0358 14.9995 21.0358C14.8876 21.0358 14.7969 20.9451 14.7969 20.8332C14.7969 20.7213 14.8876 20.6306 14.9995 20.6306" stroke="black" stroke-width="0.810362" stroke-linecap="round" stroke-linejoin="round"/>
<path d="M12.3046 13.258C12.3046 13.678 12.2177 13.9993 12.0439 14.2218C11.87 14.4443 11.6155 14.5555 11.2804 14.5555C10.9494 14.5555 10.6963 14.4464 10.5211 14.228C10.3458 14.0097 10.2561 13.6968 10.252 13.2893V12.7302C10.252 12.3061 10.3396 11.9841 10.5148 11.7644C10.6914 11.5447 10.9452 11.4348 11.2762 11.4348C11.6072 11.4348 11.8603 11.544 12.0355 11.7623C12.2107 11.9793 12.3004 12.2915 12.3046 12.699V13.258ZM11.7018 12.6447C11.7018 12.393 11.667 12.2101 11.5975 12.0961C11.5293 11.9807 11.4222 11.9229 11.2762 11.9229C11.1343 11.9229 11.0294 11.9779 10.9612 12.0877C10.8945 12.1962 10.859 12.3666 10.8548 12.5988V13.3373C10.8548 13.5848 10.8882 13.7691 10.9549 13.8901C11.0231 14.0097 11.1316 14.0695 11.2804 14.0695C11.4278 14.0695 11.5342 14.0118 11.5995 13.8963C11.6649 13.7809 11.699 13.6043 11.7018 13.3665V12.6447Z" fill="#1CC9C9"/>
<path d="M14.1779 14.5138H13.575V12.19L12.8553 12.4132V11.9229L14.1132 11.4724H14.1779V14.5138Z" fill="#1CC9C9"/>
<path d="M15.2564 13.0202L15.4316 11.4765H17.1338V11.9793H15.926L15.8509 12.6322C15.9941 12.5557 16.1464 12.5175 16.3077 12.5175C16.597 12.5175 16.8237 12.6072 16.9878 12.7866C17.1519 12.966 17.2339 13.217 17.2339 13.5396C17.2339 13.7357 17.1922 13.9116 17.1088 14.0674C17.0267 14.2218 16.9085 14.3421 16.7541 14.4283C16.5998 14.5131 16.4176 14.5555 16.2076 14.5555C16.024 14.5555 15.8537 14.5187 15.6965 14.445C15.5394 14.3699 15.4149 14.2649 15.3231 14.13C15.2327 13.9951 15.1847 13.8414 15.1792 13.669H15.7758C15.7883 13.7955 15.8321 13.8943 15.9072 13.9652C15.9837 14.0347 16.0831 14.0695 16.2055 14.0695C16.3418 14.0695 16.4468 14.0208 16.5205 13.9235C16.5942 13.8247 16.6311 13.6857 16.6311 13.5063C16.6311 13.3338 16.5887 13.2017 16.5038 13.1099C16.419 13.0181 16.2987 12.9722 16.1429 12.9722C15.9997 12.9722 15.8836 13.0098 15.7946 13.0849L15.7362 13.1391L15.2564 13.0202Z" fill="#1CC9C9"/>
<path d="M19.4034 13.3707H19.7476V13.8567H19.4034V14.5138H18.8006V13.8567H17.5552L17.5281 13.477L18.7943 11.4765H19.4034V13.3707ZM18.1288 13.3707H18.8006V12.2984L18.7609 12.3673L18.1288 13.3707Z" fill="#1CC9C9"/>
<path d="M15 28.7595C7.8203 28.7595 2 22.9392 2 15.7595H-2C-2 25.1484 5.61116 32.7595 15 32.7595V28.7595ZM28 15.7595C28 22.9392 22.1797 28.7595 15 28.7595V32.7595C24.3888 32.7595 32 25.1484 32 15.7595H28ZM15 2.75952C22.1797 2.75952 28 8.57982 28 15.7595H32C32 6.37068 24.3888 -1.24048 15 -1.24048V2.75952ZM15 -1.24048C5.61116 -1.24048 -2 6.37068 -2 15.7595H2C2 8.57982 7.8203 2.75952 15 2.75952V-1.24048Z" fill="#95ECEB"/>
<defs>
<linearGradient id="paint0_linear" x1="2.63158" y1="30.7597" x2="28.0117" y2="30.7597" gradientUnits="userSpaceOnUse">
<stop stop-color="#43A8B1"/>
<stop offset="0.431827" stop-color="#3FCACB"/>
<stop offset="0.520833" stop-color="#3ED1D1"/>
<stop offset="1" stop-color="#00C2C2"/>
</linearGradient>
</defs>
</svg>
