<svg width="30" height="31" viewBox="0 0 30 31" fill="none" xmlns="http://www.w3.org/2000/svg">
<path d="M0 15.7595C0 7.47525 6.71573 0.759521 15 0.759521V0.759521C23.2843 0.759521 30 7.47525 30 15.7595V15.7595C30 24.0438 23.2843 30.7595 15 30.7595V30.7595C6.71573 30.7595 0 24.0438 0 15.7595V15.7595Z" fill="url(#paint0_linear)"/>
<path fill-rule="evenodd" clip-rule="evenodd" d="M9.27523 21.1764C8.78883 21.1764 8.39453 20.8033 8.39453 20.3431V11.24C8.39614 10.7451 8.81973 10.3443 9.34275 10.3428H20.6615C21.1819 10.3443 21.6034 10.7431 21.605 11.2356V20.2792C21.6034 20.7741 21.1798 21.1749 20.6568 21.1764H9.27523Z" fill="black"/>
<path d="M21.605 13.3682H8.39453" stroke="#1CC9C9" stroke-width="0.880698" stroke-linecap="round" stroke-linejoin="round"/>
<path d="M17.9258 18.3403H19.5983" stroke="#1CC9C9" stroke-width="0.737988" stroke-linecap="round" stroke-linejoin="round"/>
<path d="M12.4911 16.2498L10.4004 18.3405" stroke="#1CC9C9" stroke-width="0.737988" stroke-linecap="round" stroke-linejoin="round"/>
<path d="M12.4911 18.3405L10.4004 16.2498" stroke="#1CC9C9" stroke-width="0.737988" stroke-linecap="round" stroke-linejoin="round"/>
<path d="M16.2548 16.2498L14.1641 18.3405" stroke="#1CC9C9" stroke-width="0.737988" stroke-linecap="round" stroke-linejoin="round"/>
<path d="M16.2548 18.3405L14.1641 16.2498" stroke="#1CC9C9" stroke-width="0.737988" stroke-linecap="round" stroke-linejoin="round"/>
<circle cx="15.8437" cy="11.5947" r="0.607385" fill="#1CC9C9"/>
<circle cx="17.9257" cy="11.5947" r="0.607385" fill="#1CC9C9"/>
<circle cx="20.0078" cy="11.5947" r="0.607385" fill="#1CC9C9"/>
<path d="M15 28.7595C7.8203 28.7595 2 22.9392 2 15.7595H-2C-2 25.1484 5.61116 32.7595 15 32.7595V28.7595ZM28 15.7595C28 22.9392 22.1797 28.7595 15 28.7595V32.7595C24.3888 32.7595 32 25.1484 32 15.7595H28ZM15 2.75952C22.1797 2.75952 28 8.57982 28 15.7595H32C32 6.37068 24.3888 -1.24048 15 -1.24048V2.75952ZM15 -1.24048C5.61116 -1.24048 -2 6.37068 -2 15.7595H2C2 8.57982 7.8203 2.75952 15 2.75952V-1.24048Z" fill="#95ECEB"/>
<defs>
<linearGradient id="paint0_linear" x1="2.63158" y1="30.7597" x2="28.0117" y2="30.7597" gradientUnits="userSpaceOnUse">
<stop stop-color="#43A8B1"/>
<stop offset="0.431827" stop-color="#3FCACB"/>
<stop offset="0.520833" stop-color="#3ED1D1"/>
<stop offset="1" stop-color="#00C2C2"/>
</linearGradient>
</defs>
</svg>
