<svg width="30" height="31" viewBox="0 0 30 31" fill="none" xmlns="http://www.w3.org/2000/svg">
<path d="M0 15.7598C0 7.47549 6.71573 0.759766 15 0.759766V0.759766C23.2843 0.759766 30 7.47549 30 15.7598V15.7598C30 24.044 23.2843 30.7598 15 30.7598V30.7598C6.71573 30.7598 0 24.044 0 15.7598V15.7598Z" fill="url(#paint0_linear)"/>
<rect x="13.0625" y="7.75977" width="3.87294" height="1.05628" rx="0.528141" fill="black"/>
<rect x="14.2695" y="8.81592" width="1.45721" height="1.60291" fill="black"/>
<rect x="22.834" y="13.6567" width="3.87294" height="1.05628" rx="0.528141" transform="rotate(90 22.834 13.6567)" fill="black"/>
<rect x="21.7773" y="14.8647" width="1.45721" height="1.60291" transform="rotate(90 21.7773 14.8647)" fill="black"/>
<rect x="21.9082" y="19.7632" width="3.87294" height="1.05628" rx="0.528141" transform="rotate(135 21.9082 19.7632)" fill="black"/>
<rect x="20.3066" y="19.8706" width="1.45721" height="1.60291" transform="rotate(135 20.3066 19.8706)" fill="black"/>
<rect x="10.8301" y="22.502" width="3.87294" height="1.05628" rx="0.528141" transform="rotate(-135 10.8301 22.502)" fill="black"/>
<rect x="10.7227" y="20.9009" width="1.45721" height="1.60291" transform="rotate(-135 10.7227 20.9009)" fill="black"/>
<rect width="3.87294" height="1.05628" rx="0.528141" transform="matrix(1 0 0 -1 13.0625 23.4272)" fill="black"/>
<rect width="1.45721" height="1.60291" transform="matrix(1 0 0 -1 14.2695 22.3711)" fill="black"/>
<rect width="3.87294" height="1.05628" rx="0.528141" transform="matrix(-4.37114e-08 1 1 4.37114e-08 7.16602 13.6567)" fill="black"/>
<rect width="1.45721" height="1.60291" transform="matrix(-4.37114e-08 1 1 4.37114e-08 8.22266 14.8647)" fill="black"/>
<rect width="3.87294" height="1.05628" rx="0.528141" transform="matrix(-0.707107 0.707107 0.707107 0.707107 10.8301 8.68506)" fill="black"/>
<rect width="1.45721" height="1.60291" transform="matrix(-0.707107 0.707107 0.707107 0.707107 10.7227 10.2861)" fill="black"/>
<rect width="3.87294" height="1.05628" rx="0.528141" transform="matrix(-0.707107 -0.707107 -0.707107 0.707107 21.9082 11.4233)" fill="black"/>
<rect width="1.45721" height="1.60291" transform="matrix(-0.707107 -0.707107 -0.707107 0.707107 20.3066 11.3164)" fill="black"/>
<path fill-rule="evenodd" clip-rule="evenodd" d="M20.3065 15.5366C20.3065 18.4678 17.9303 20.8441 14.999 20.8441C12.0677 20.8441 9.69141 18.4678 9.69141 15.5366C9.69141 12.6053 12.0677 10.229 14.999 10.229C17.9303 10.229 20.3065 12.6053 20.3065 15.5366ZM14.9989 13.2967C14.9989 14.1628 14.2968 14.8649 13.4307 14.8649C12.5646 14.8649 11.8625 14.1628 11.8625 13.2967C11.8625 12.4306 12.5646 11.7285 13.4307 11.7285C14.2968 11.7285 14.9989 12.4306 14.9989 13.2967ZM17.5761 18.4535C17.9299 18.4535 18.2168 18.1666 18.2168 17.8128C18.2168 17.459 17.9299 17.1721 17.5761 17.1721C17.2222 17.1721 16.9354 17.459 16.9354 17.8128C16.9354 18.1666 17.2222 18.4535 17.5761 18.4535ZM18.1424 14.2977C18.1424 14.6515 17.8556 14.9384 17.5018 14.9384C17.1479 14.9384 16.8611 14.6515 16.8611 14.2977C16.8611 13.9438 17.1479 13.657 17.5018 13.657C17.8556 13.657 18.1424 13.9438 18.1424 14.2977ZM13.0123 18.7371C13.6513 18.7371 14.1693 18.2191 14.1693 17.5801C14.1693 16.9411 13.6513 16.423 13.0123 16.423C12.3733 16.423 11.8552 16.9411 11.8552 17.5801C11.8552 18.2191 12.3733 18.7371 13.0123 18.7371Z" fill="black"/>
<path d="M15 28.7598C7.8203 28.7598 2 22.9395 2 15.7598H-2C-2 25.1486 5.61116 32.7598 15 32.7598V28.7598ZM28 15.7598C28 22.9395 22.1797 28.7598 15 28.7598V32.7598C24.3888 32.7598 32 25.1486 32 15.7598H28ZM15 2.75977C22.1797 2.75977 28 8.58006 28 15.7598H32C32 6.37092 24.3888 -1.24023 15 -1.24023V2.75977ZM15 -1.24023C5.61116 -1.24023 -2 6.37092 -2 15.7598H2C2 8.58006 7.8203 2.75977 15 2.75977V-1.24023Z" fill="#95ECEB"/>
<defs>
<linearGradient id="paint0_linear" x1="2.63158" y1="30.7599" x2="28.0117" y2="30.7599" gradientUnits="userSpaceOnUse">
<stop stop-color="#43A8B1"/>
<stop offset="0.431827" stop-color="#3FCACB"/>
<stop offset="0.520833" stop-color="#3ED1D1"/>
<stop offset="1" stop-color="#00C2C2"/>
</linearGradient>
</defs>
</svg>
