<svg width="30" height="31" viewBox="0 0 30 31" fill="none" xmlns="http://www.w3.org/2000/svg">
<path d="M0 15.7598C0 7.47549 6.71573 0.759766 15 0.759766V0.759766C23.2843 0.759766 30 7.47549 30 15.7598V15.7598C30 24.044 23.2843 30.7598 15 30.7598V30.7598C6.71573 30.7598 0 24.044 0 15.7598V15.7598Z" fill="url(#paint0_linear)"/>
<rect x="7.25" y="11.3818" width="13.7095" height="10.5747" rx="0.945948" fill="black"/>
<path d="M16.3245 18.332C16.0414 17.9445 16.1526 17.6196 16.248 17.1562C16.3356 16.7306 15.7427 16.8734 15.5522 16.9474C14.9871 17.1672 14.5642 17.3965 14.0772 17.7337C13.917 17.8446 13.4788 18.3037 13.0823 18.1581C12.5074 17.947 13.5027 17.1191 13.785 16.7561C13.8714 16.645 14.621 15.6533 14.0355 15.6533C13.8383 15.6533 13.5275 15.8899 13.5275 15.8899C13.5275 15.8899 11.8239 17.2711 11.1411 17.6745C10.8934 17.8209 10.4229 17.867 10.167 17.7476C9.98516 17.6627 9.54362 17.4013 9.62772 16.7178C9.71182 16.0344 10.5541 15.8031 10.6262 16.0917" stroke="#1CC9C9" stroke-width="0.872694" stroke-linecap="round"/>
<path d="M22.192 9.70498C21.8593 9.52716 21.4455 9.6504 21.2643 9.98127L19.6698 12.8928C19.486 13.2284 19.6114 13.6496 19.9489 13.83L20.4886 14.1185C20.8213 14.2963 21.2351 14.173 21.4163 13.8422L23.0108 10.9306C23.1946 10.595 23.0692 10.1739 22.7317 9.99347L22.192 9.70498Z" fill="black" stroke="#15C8C7" stroke-width="0.872694"/>
<rect x="22.334" y="9.56299" width="0.480498" height="0.791358" rx="0.240249" transform="rotate(29.8549 22.334 9.56299)" fill="black"/>
<path d="M17.4097 16.9254L17.8385 17.0061L17.4097 16.9254L17.2352 17.8535L17.662 17.9338L17.2352 17.8535C17.1136 18.5001 17.8819 18.9321 18.3712 18.4923L19.0881 17.8478C19.1475 17.7944 19.1972 17.731 19.2349 17.6605L20.6287 15.0529C20.8078 14.7179 20.6813 14.301 20.3462 14.1219L19.8065 13.8334C19.4714 13.6543 19.0546 13.7807 18.8755 14.1158L17.4791 16.7283C17.446 16.7901 17.4226 16.8566 17.4097 16.9254Z" fill="black" stroke="#15C8C7" stroke-width="0.872694"/>
<path d="M15 28.7598C7.8203 28.7598 2 22.9395 2 15.7598H-2C-2 25.1486 5.61116 32.7598 15 32.7598V28.7598ZM28 15.7598C28 22.9395 22.1797 28.7598 15 28.7598V32.7598C24.3888 32.7598 32 25.1486 32 15.7598H28ZM15 2.75977C22.1797 2.75977 28 8.58006 28 15.7598H32C32 6.37092 24.3888 -1.24023 15 -1.24023V2.75977ZM15 -1.24023C5.61116 -1.24023 -2 6.37092 -2 15.7598H2C2 8.58006 7.8203 2.75977 15 2.75977V-1.24023Z" fill="#95ECEB"/>
<defs>
<linearGradient id="paint0_linear" x1="2.63158" y1="30.7599" x2="28.0117" y2="30.7599" gradientUnits="userSpaceOnUse">
<stop stop-color="#43A8B1"/>
<stop offset="0.431827" stop-color="#3FCACB"/>
<stop offset="0.520833" stop-color="#3ED1D1"/>
<stop offset="1" stop-color="#00C2C2"/>
</linearGradient>
</defs>
</svg>
