<svg width="30" height="31" viewBox="0 0 30 31" fill="none" xmlns="http://www.w3.org/2000/svg">
<path d="M0 15.7598C0 7.47549 6.71573 0.759766 15 0.759766V0.759766C23.2843 0.759766 30 7.47549 30 15.7598V15.7598C30 24.044 23.2843 30.7598 15 30.7598V30.7598C6.71573 30.7598 0 24.044 0 15.7598V15.7598Z" fill="url(#paint0_linear)"/>
<path fill-rule="evenodd" clip-rule="evenodd" d="M8.44922 8.82307C8.44922 8.23582 8.92527 7.75977 9.51252 7.75977H18.6479C19.2351 7.75977 19.7112 8.23582 19.7112 8.82307V20.7739C19.7112 21.3612 19.2351 21.8372 18.6479 21.8372H9.51252C8.92527 21.8372 8.44922 21.3612 8.44922 20.7739V8.82307Z" fill="black"/>
<path d="M11.2656 11.0444H16.8966" stroke="#1CC9C9" stroke-width="1.0633" stroke-linecap="round" stroke-linejoin="round"/>
<path d="M11.2656 12.9214H16.8966" stroke="#1CC9C9" stroke-width="1.0633" stroke-linecap="round" stroke-linejoin="round"/>
<path d="M11.2656 14.7983H14.5504" stroke="#1CC9C9" stroke-width="1.0633" stroke-linecap="round" stroke-linejoin="round"/>
<path d="M9.81641 19.0215H21.0784" stroke="#1CC9C9" stroke-width="1.0633" stroke-linecap="round" stroke-linejoin="round"/>
<path fill-rule="evenodd" clip-rule="evenodd" d="M18.6613 23.7597C20.9326 23.7597 22.7738 21.9184 22.7738 19.6472C22.7738 17.3759 20.9326 15.5347 18.6613 15.5347C16.3901 15.5347 14.5488 17.3759 14.5488 19.6472C14.5488 21.9184 16.3901 23.7597 18.6613 23.7597Z" fill="black" stroke="#1CC9C9" stroke-width="0.925402" stroke-linecap="round" stroke-linejoin="round"/>
<path d="M20.1152 18.1934L17.2073 21.1013" stroke="#1CC9C9" stroke-width="1.16485" stroke-linecap="round" stroke-linejoin="round"/>
<path d="M17.207 18.1934L20.115 21.1013" stroke="#1CC9C9" stroke-width="1.16485" stroke-linecap="round" stroke-linejoin="round"/>
<path d="M15 28.7598C7.8203 28.7598 2 22.9395 2 15.7598H-2C-2 25.1486 5.61116 32.7598 15 32.7598V28.7598ZM28 15.7598C28 22.9395 22.1797 28.7598 15 28.7598V32.7598C24.3888 32.7598 32 25.1486 32 15.7598H28ZM15 2.75977C22.1797 2.75977 28 8.58006 28 15.7598H32C32 6.37092 24.3888 -1.24023 15 -1.24023V2.75977ZM15 -1.24023C5.61116 -1.24023 -2 6.37092 -2 15.7598H2C2 8.58006 7.8203 2.75977 15 2.75977V-1.24023Z" fill="#95ECEB"/>
<defs>
<linearGradient id="paint0_linear" x1="2.63158" y1="30.7599" x2="28.0117" y2="30.7599" gradientUnits="userSpaceOnUse">
<stop stop-color="#43A8B1"/>
<stop offset="0.431827" stop-color="#3FCACB"/>
<stop offset="0.520833" stop-color="#3ED1D1"/>
<stop offset="1" stop-color="#00C2C2"/>
</linearGradient>
</defs>
</svg>
