<svg width="30" height="31" viewBox="0 0 30 31" fill="none" xmlns="http://www.w3.org/2000/svg">
<path d="M0 15.2598C0 6.97549 6.71573 0.259766 15 0.259766V0.259766C23.2843 0.259766 30 6.97549 30 15.2598V15.2598C30 23.544 23.2843 30.2598 15 30.2598V30.2598C6.71573 30.2598 0 23.544 0 15.2598V15.2598Z" fill="url(#paint0_linear)"/>
<path d="M11.8948 10.9761H9.46157C8.93482 10.9761 8.50781 11.4031 8.50781 11.9298V20.0383C8.50781 20.5651 8.93483 20.9921 9.46157 20.9921H20.5393C21.0661 20.9921 21.4931 20.5651 21.4931 20.0383V11.9298C21.4931 11.4031 21.0661 10.9761 20.5393 10.9761H18.0518" stroke="black" stroke-width="0.953759"/>
<rect x="8.72852" y="19.4702" width="12.7646" height="1.099" fill="black"/>
<path d="M12.9945 21.9365H16.8103L17.5431 23.2091H12.2617L12.9945 21.9365Z" fill="black"/>
<rect x="11.082" y="23.0298" width="7.75816" height="0.639361" rx="0.319681" fill="black"/>
<path d="M15.6787 7.20335L15.2977 7.42333L15.6787 7.20335C15.3625 6.65572 14.5721 6.65572 14.2559 7.20335L14.6273 7.41776L14.2559 7.20335L9.96874 14.629C9.65257 15.1766 10.0478 15.8612 10.6801 15.8612H19.2545C19.8869 15.8612 20.2821 15.1766 19.9659 14.629L15.6787 7.20335Z" fill="black" stroke="url(#paint1_linear)" stroke-width="0.8799"/>
<line x1="14.9183" y1="10.1429" x2="14.9183" y2="12.0878" stroke="#2FCFCE" stroke-width="0.953759" stroke-linecap="round"/>
<line x1="14.9183" y1="13.574" x2="14.9183" y2="13.5368" stroke="#2FCFCE" stroke-width="0.953759" stroke-linecap="round"/>
<path d="M15 28.2598C7.8203 28.2598 2 22.4395 2 15.2598H-2C-2 24.6486 5.61116 32.2598 15 32.2598V28.2598ZM28 15.2598C28 22.4395 22.1797 28.2598 15 28.2598V32.2598C24.3888 32.2598 32 24.6486 32 15.2598H28ZM15 2.25977C22.1797 2.25977 28 8.08006 28 15.2598H32C32 5.87092 24.3888 -1.74023 15 -1.74023V2.25977ZM15 -1.74023C5.61116 -1.74023 -2 5.87092 -2 15.2598H2C2 8.08006 7.8203 2.25977 15 2.25977V-1.74023Z" fill="#95ECEB"/>
<defs>
<linearGradient id="paint0_linear" x1="2.63158" y1="30.2599" x2="28.0117" y2="30.2599" gradientUnits="userSpaceOnUse">
<stop stop-color="#43A8B1"/>
<stop offset="0.431827" stop-color="#3FCACB"/>
<stop offset="0.520833" stop-color="#3ED1D1"/>
<stop offset="1" stop-color="#00C2C2"/>
</linearGradient>
<linearGradient id="paint1_linear" x1="14.9671" y1="6.22991" x2="14.9671" y2="16.1952" gradientUnits="userSpaceOnUse">
<stop stop-color="#3AD1D0"/>
<stop offset="0.520833" stop-color="#2ECECD"/>
<stop offset="1" stop-color="#37D0CF"/>
</linearGradient>
</defs>
</svg>
