<svg width="30" height="31" viewBox="0 0 30 31" fill="none" xmlns="http://www.w3.org/2000/svg">
<path d="M0 15.7595C0 7.47525 6.71573 0.759521 15 0.759521V0.759521C23.2843 0.759521 30 7.47525 30 15.7595V15.7595C30 24.0438 23.2843 30.7595 15 30.7595V30.7595C6.71573 30.7595 0 24.0438 0 15.7595V15.7595Z" fill="url(#paint0_linear)"/>
<path fill-rule="evenodd" clip-rule="evenodd" d="M8.32815 10.2322V15.443C8.32818 18.8146 10.4045 21.838 13.5513 23.0485L14.2637 23.3222C14.7382 23.5047 15.2634 23.5047 15.7379 23.3222L16.4503 23.0485C19.5971 21.838 21.6734 18.8146 21.6734 15.443V10.2322C21.6761 9.83168 21.4436 9.46683 21.0794 9.3001C19.1631 8.46365 17.0917 8.0413 15.0008 8.0607C12.9099 8.0413 10.8385 8.46365 8.92218 9.3001C8.55799 9.46683 8.32547 9.83168 8.32815 10.2322Z" fill="black"/>
<path fill-rule="evenodd" clip-rule="evenodd" d="M9.53713 11.2337V15.5003C9.53715 18.261 11.2373 20.7366 13.8139 21.7278L14.3972 21.9519C14.7857 22.1013 15.2158 22.1013 15.6043 21.9519L16.1876 21.7278C18.7642 20.7366 20.4644 18.261 20.4644 15.5003V11.2337C20.4666 10.9057 20.2762 10.607 19.978 10.4704C18.4089 9.78554 16.7128 9.43972 15.0008 9.4556C13.2887 9.43972 11.5927 9.78554 10.0235 10.4704C9.72533 10.607 9.53493 10.9057 9.53713 11.2337Z" stroke="#3FCFCF" stroke-width="0.862899" stroke-linecap="round" stroke-linejoin="round"/>
<path fill-rule="evenodd" clip-rule="evenodd" d="M13.5767 18.5934C14.5662 18.5934 15.3683 17.7913 15.3683 16.8018C15.3683 15.8124 14.5662 15.0103 13.5767 15.0103C12.5873 15.0103 11.7852 15.8124 11.7852 16.8018C11.7852 17.7913 12.5873 18.5934 13.5767 18.5934Z" stroke="#3DD1D1" stroke-width="0.862899" stroke-linecap="round" stroke-linejoin="round"/>
<path d="M14.8438 15.5346L18.0107 12.3677L18.9608 13.3178" stroke="#3DD1D1" stroke-width="0.862899" stroke-linecap="round" stroke-linejoin="round"/>
<path d="M16.7441 13.6343L17.3778 14.2679" stroke="#3DD1D1" stroke-width="0.862899" stroke-linecap="round" stroke-linejoin="round"/>
<path d="M15 28.7595C7.8203 28.7595 2 22.9392 2 15.7595H-2C-2 25.1484 5.61116 32.7595 15 32.7595V28.7595ZM28 15.7595C28 22.9392 22.1797 28.7595 15 28.7595V32.7595C24.3888 32.7595 32 25.1484 32 15.7595H28ZM15 2.75952C22.1797 2.75952 28 8.57982 28 15.7595H32C32 6.37068 24.3888 -1.24048 15 -1.24048V2.75952ZM15 -1.24048C5.61116 -1.24048 -2 6.37068 -2 15.7595H2C2 8.57982 7.8203 2.75952 15 2.75952V-1.24048Z" fill="#95ECEB"/>
<defs>
<linearGradient id="paint0_linear" x1="2.63158" y1="30.7597" x2="28.0117" y2="30.7597" gradientUnits="userSpaceOnUse">
<stop stop-color="#43A8B1"/>
<stop offset="0.431827" stop-color="#3FCACB"/>
<stop offset="0.520833" stop-color="#3ED1D1"/>
<stop offset="1" stop-color="#00C2C2"/>
</linearGradient>
</defs>
</svg>
