<svg width="30" height="31" viewBox="0 0 30 31" fill="none" xmlns="http://www.w3.org/2000/svg">
<path d="M0 15.2595C0 6.97525 6.71573 0.259521 15 0.259521V0.259521C23.2843 0.259521 30 6.97525 30 15.2595V15.2595C30 23.5438 23.2843 30.2595 15 30.2595V30.2595C6.71573 30.2595 0 23.5438 0 15.2595V15.2595Z" fill="url(#paint0_linear)"/>
<path d="M11.1523 14.6316C12.0435 13.7426 14.3653 13.8116 14.9374 14.6316" stroke="black" stroke-width="1.37759" stroke-linecap="round" stroke-linejoin="round"/>
<path d="M9.48633 12.6369C11.6288 10.6675 14.9205 10.6602 17.0716 12.6202" stroke="black" stroke-width="1.37759" stroke-linecap="round" stroke-linejoin="round"/>
<path d="M8.15039 10.3685C11.155 7.95703 15.4322 7.95871 18.435 10.3725" stroke="black" stroke-width="1.37759" stroke-linecap="round" stroke-linejoin="round"/>
<path fill-rule="evenodd" clip-rule="evenodd" d="M18.3945 21.9577C20.3037 21.9577 21.8515 20.4099 21.8515 18.5007C21.8515 16.5915 20.3037 15.0437 18.3945 15.0437C16.4853 15.0437 14.9375 16.5915 14.9375 18.5007C14.9375 20.4099 16.4853 21.9577 18.3945 21.9577Z" fill="black"/>
<path d="M19.6904 17.2039L17.0977 19.7966" stroke="#1CC9C9" stroke-width="0.917644" stroke-linecap="round" stroke-linejoin="round"/>
<path d="M17.0977 17.2039L19.6904 19.7966" stroke="#1CC9C9" stroke-width="0.917644" stroke-linecap="round" stroke-linejoin="round"/>
<path d="M15 28.2595C7.8203 28.2595 2 22.4392 2 15.2595H-2C-2 24.6484 5.61116 32.2595 15 32.2595V28.2595ZM28 15.2595C28 22.4392 22.1797 28.2595 15 28.2595V32.2595C24.3888 32.2595 32 24.6484 32 15.2595H28ZM15 2.25952C22.1797 2.25952 28 8.07982 28 15.2595H32C32 5.87068 24.3888 -1.74048 15 -1.74048V2.25952ZM15 -1.74048C5.61116 -1.74048 -2 5.87068 -2 15.2595H2C2 8.07982 7.8203 2.25952 15 2.25952V-1.74048Z" fill="#95ECEB"/>
<defs>
<linearGradient id="paint0_linear" x1="2.63158" y1="30.2597" x2="28.0117" y2="30.2597" gradientUnits="userSpaceOnUse">
<stop stop-color="#43A8B1"/>
<stop offset="0.431827" stop-color="#3FCACB"/>
<stop offset="0.520833" stop-color="#3ED1D1"/>
<stop offset="1" stop-color="#00C2C2"/>
</linearGradient>
</defs>
</svg>
