<svg width="30" height="31" viewBox="0 0 30 31" fill="none" xmlns="http://www.w3.org/2000/svg">
<path d="M0 15.7595C0 7.47525 6.71573 0.759521 15 0.759521V0.759521C23.2843 0.759521 30 7.47525 30 15.7595V15.7595C30 24.0438 23.2843 30.7595 15 30.7595V30.7595C6.71573 30.7595 0 24.0438 0 15.7595V15.7595Z" fill="url(#paint0_linear)"/>
<path fill-rule="evenodd" clip-rule="evenodd" d="M14.2188 17.5788L14.4524 18.4996H22.0903C22.3109 18.4996 22.5157 18.3855 22.6317 18.1979C22.7476 18.0104 22.7583 17.7761 22.6598 17.5788L21.4538 14.6807H15.0889L14.2188 17.5788Z" fill="black"/>
<path d="M15.5547 17.2917H22.7277" stroke="#1CC9C9" stroke-width="0.836721" stroke-linecap="round"/>
<path fill-rule="evenodd" clip-rule="evenodd" d="M21.16 13.8422H15.3828V9.79818C15.3828 9.47911 15.6415 9.22046 15.9605 9.22046H20.5823C20.9013 9.22046 21.16 9.47911 21.16 9.79818V13.8422Z" fill="black"/>
<path d="M8.19939 15.0201C7.45695 15.0201 6.85508 15.622 6.85508 16.3644V21.9201C6.85508 22.6626 7.45695 23.2645 8.19939 23.2645H13.7551C14.4976 23.2645 15.0994 22.6626 15.0994 21.9201V16.3644C15.0994 15.622 14.4976 15.0201 13.7551 15.0201H8.19939Z" fill="black" stroke="url(#paint1_linear)" stroke-width="0.836721" stroke-linecap="round" stroke-linejoin="round"/>
<path fill-rule="evenodd" clip-rule="evenodd" d="M10.9767 20.9947C11.4881 20.9947 11.9027 20.5802 11.9027 20.0688C11.9027 19.5574 11.4881 19.1428 10.9767 19.1428C10.4653 19.1428 10.0508 19.5574 10.0508 20.0688C10.0508 20.5802 10.4653 20.9947 10.9767 20.9947Z" stroke="#40C3C6" stroke-width="0.925953" stroke-linecap="round" stroke-linejoin="round"/>
<path d="M9.3418 17.9687C10.2456 17.0661 11.7097 17.0661 12.6135 17.9687" stroke="#40C3C6" stroke-width="0.925953" stroke-linecap="round" stroke-linejoin="round"/>
<path d="M8.58203 13.5865C9.69629 12.4726 11.4501 12.321 12.7389 13.2272" stroke="black" stroke-width="0.925953" stroke-linecap="round" stroke-linejoin="round"/>
<path d="M7.27344 12.277C9.01658 10.5343 11.7574 10.2897 13.7817 11.6962" stroke="black" stroke-width="0.925953" stroke-linecap="round" stroke-linejoin="round"/>
<path d="M15 28.7595C7.8203 28.7595 2 22.9392 2 15.7595H-2C-2 25.1484 5.61116 32.7595 15 32.7595V28.7595ZM28 15.7595C28 22.9392 22.1797 28.7595 15 28.7595V32.7595C24.3888 32.7595 32 25.1484 32 15.7595H28ZM15 2.75952C22.1797 2.75952 28 8.57982 28 15.7595H32C32 6.37068 24.3888 -1.24048 15 -1.24048V2.75952ZM15 -1.24048C5.61116 -1.24048 -2 6.37068 -2 15.7595H2C2 8.57982 7.8203 2.75952 15 2.75952V-1.24048Z" fill="#95ECEB"/>
<defs>
<linearGradient id="paint0_linear" x1="2.63158" y1="30.7597" x2="28.0117" y2="30.7597" gradientUnits="userSpaceOnUse">
<stop stop-color="#43A8B1"/>
<stop offset="0.431827" stop-color="#3FCACB"/>
<stop offset="0.520833" stop-color="#3ED1D1"/>
<stop offset="1" stop-color="#00C2C2"/>
</linearGradient>
<linearGradient id="paint1_linear" x1="7.67896" y1="15.0372" x2="14.1901" y2="22.8461" gradientUnits="userSpaceOnUse">
<stop stop-color="#41B5BC"/>
<stop offset="0.520833" stop-color="#40C2C5"/>
<stop offset="1" stop-color="#3ED1D0"/>
</linearGradient>
</defs>
</svg>
