<svg width="30" height="31" viewBox="0 0 30 31" fill="none" xmlns="http://www.w3.org/2000/svg">
<path d="M0 15.2595C0 6.97525 6.71573 0.259521 15 0.259521V0.259521C23.2843 0.259521 30 6.97525 30 15.2595V15.2595C30 23.5438 23.2843 30.2595 15 30.2595V30.2595C6.71573 30.2595 0 23.5438 0 15.2595V15.2595Z" fill="url(#paint0_linear)"/>
<path fill-rule="evenodd" clip-rule="evenodd" d="M18.7264 20.2628H9.62854C9.12608 20.2628 8.71875 19.8554 8.71875 19.353V9.34533C8.71875 8.84287 9.12608 8.43555 9.62854 8.43555H16.0753C16.3166 8.43544 16.5481 8.53122 16.7188 8.70181L18.4601 10.4431C18.6307 10.6138 18.7265 10.8453 18.7264 11.0867V20.2628Z" fill="black"/>
<path d="M22.2507 17.5334C21.8284 15.8992 20.3377 14.77 18.6502 14.8058C16.9627 14.8415 15.5213 16.033 15.1686 17.6836C14.8159 19.3342 15.6444 21.0108 17.1699 21.7331C18.6954 22.4555 20.5174 22.0341 21.5708 20.7153" stroke="#27CCCC" stroke-width="2.23991" stroke-linecap="round" stroke-linejoin="round"/>
<path d="M22.2507 17.5334C21.8284 15.8992 20.3377 14.77 18.6502 14.8058C16.9627 14.8415 15.5213 16.033 15.1686 17.6836C14.8159 19.3342 15.6444 21.0108 17.1699 21.7331C18.6954 22.4555 20.5174 22.0341 21.5708 20.7153" stroke="black" stroke-width="0.746637" stroke-linecap="round" stroke-linejoin="round"/>
<path d="M20.2842 17.288L22.4772 17.8912L23.2836 15.6191" stroke="black" stroke-width="0.909787" stroke-linecap="round" stroke-linejoin="round"/>
<path d="M13.7227 11.6199L15.0873 12.9846L13.7227 14.3492" stroke="#3FC9CB" stroke-width="0.909787" stroke-linecap="round" stroke-linejoin="round"/>
<path d="M11.9037 11.6199L10.5391 12.9846L11.9037 14.3492" stroke="#3FC9CB" stroke-width="0.909787" stroke-linecap="round" stroke-linejoin="round"/>
<path d="M15 28.2595C7.8203 28.2595 2 22.4392 2 15.2595H-2C-2 24.6484 5.61116 32.2595 15 32.2595V28.2595ZM28 15.2595C28 22.4392 22.1797 28.2595 15 28.2595V32.2595C24.3888 32.2595 32 24.6484 32 15.2595H28ZM15 2.25952C22.1797 2.25952 28 8.07982 28 15.2595H32C32 5.87068 24.3888 -1.74048 15 -1.74048V2.25952ZM15 -1.74048C5.61116 -1.74048 -2 5.87068 -2 15.2595H2C2 8.07982 7.8203 2.25952 15 2.25952V-1.74048Z" fill="#95ECEB"/>
<defs>
<linearGradient id="paint0_linear" x1="2.63158" y1="30.2597" x2="28.0117" y2="30.2597" gradientUnits="userSpaceOnUse">
<stop stop-color="#43A8B1"/>
<stop offset="0.431827" stop-color="#3FCACB"/>
<stop offset="0.520833" stop-color="#3ED1D1"/>
<stop offset="1" stop-color="#00C2C2"/>
</linearGradient>
</defs>
</svg>
