<svg width="1402" height="787" viewBox="0 0 1402 787" fill="none" xmlns="http://www.w3.org/2000/svg">
<path d="M38.8582 48.4982H98.3895C104.257 48.4982 109.884 46.1679 114.034 42.0198L119.821 36.2353C123.408 32.6496 128.272 30.6353 133.345 30.6353H1196.57C1203.19 30.6353 1209.46 27.673 1213.66 22.5611L1225.24 8.47959C1228.88 4.06064 1234.3 1.5 1240.02 1.5H1362.78C1367.85 1.5 1372.71 3.51307 1376.3 7.09684L1394.89 25.6753C1398.48 29.2632 1400.5 34.1314 1400.5 39.2077V750.9C1400.5 755.978 1398.48 760.849 1394.89 764.437L1390.35 768.968C1386.76 772.549 1381.9 774.56 1376.83 774.56H1265.22C1260.26 774.56 1255.5 776.53 1251.98 780.036C1249.04 782.981 1245.04 784.635 1240.87 784.635H258.057C252.989 784.635 248.128 782.624 244.541 779.043L238.256 772.768C234.107 768.625 228.484 766.298 222.621 766.298H31.9152C26.847 766.298 21.986 764.287 18.3994 760.706L7.11339 749.438C3.5195 745.849 1.5 740.979 1.5 735.901V84.2342C1.5 78.8517 3.76768 73.7182 7.74665 70.0933L25.9756 53.4864C29.4986 50.277 34.0926 48.4982 38.8582 48.4982Z" fill="url(#paint0_linear)" fill-opacity="0.9" stroke="#5AC3FF" stroke-width="3"/>
<defs>
<linearGradient id="paint0_linear" x1="39.3275" y1="438.539" x2="657.223" y2="438.539" gradientUnits="userSpaceOnUse">
<stop stop-color="#041C3C"/>
<stop offset="1" stop-color="#001528"/>
</linearGradient>
</defs>
</svg>
