<svg width="36" height="36" viewBox="0 0 36 36" fill="none" xmlns="http://www.w3.org/2000/svg">
<path d="M34.54 18.29C34.54 27.4027 27.1527 34.79 18.04 34.79C8.92734 34.79 1.54004 27.4027 1.54004 18.29C1.54004 9.17734 8.92734 1.79004 18.04 1.79004C27.1527 1.79004 34.54 9.17734 34.54 18.29Z" fill="black" stroke="#F89CD3" stroke-width="2"/>
<path d="M11.8083 27.4298L12.0825 26.5523L17.0182 24.0296L23.4345 20.9586L23.599 21.0683C23.7636 21.1779 23.9281 21.2328 24.1474 21.1779C24.312 21.1231 24.4765 21.0683 24.641 20.9586C24.7507 20.8489 24.8055 20.7392 24.6958 20.6295L24.5313 20.4102L24.641 19.8618C24.641 19.8069 24.641 19.8069 24.5862 19.7521L24.4216 19.4779C24.312 19.3682 24.1474 19.3134 23.9829 19.3682C23.7636 19.423 23.5442 19.4779 23.4894 19.5327C23.3797 19.5876 23.1055 20.1908 23.1055 20.1908L19.1021 22.2199L11.6986 25.7297C11.6986 25.7297 10.6018 25.6749 10.2728 25.8942L10.2179 25.9491C9.99856 26.1136 9.94372 26.4426 10.1631 26.6072L10.4373 26.8814L10.7115 27.5943C10.7663 27.7588 10.9308 27.8685 11.0954 27.8685H11.3696C11.5341 27.8137 11.6986 27.6491 11.8083 27.4298Z" fill="#F89CD3"/>
<path d="M15.6473 22.1652L11.644 20.1361C11.644 20.1361 11.3698 19.5329 11.2601 19.478C11.2053 19.4232 10.9311 19.3683 10.7665 19.3135C10.602 19.2587 10.3826 19.3135 10.3278 19.4232L10.1633 19.6974C10.1633 19.7522 10.1084 19.7522 10.1084 19.8071L10.2181 20.3555L10.0536 20.5748C9.99876 20.6845 9.99876 20.7942 10.1084 20.9039C10.2181 21.0136 10.3826 21.0684 10.602 21.1232C10.8214 21.1781 11.0407 21.1232 11.1504 21.0136L11.3149 20.9039L16.0312 23.2072L16.9635 22.7685L15.6473 22.1652Z" fill="#F89CD3"/>
<path d="M22.6121 26.5522L22.8863 27.4297C22.9411 27.649 23.1605 27.8135 23.4347 27.8135H23.7089C23.8734 27.8135 24.038 27.7039 24.0928 27.5393L24.367 26.8264L24.6412 26.5522C24.8057 26.3329 24.8057 26.0586 24.5864 25.8941L24.5315 25.8393C24.2025 25.6199 23.1057 25.6748 23.1057 25.6748L18.7184 23.5908L17.7861 24.0295L22.6121 26.5522Z" fill="#F89CD3"/>
<path d="M22.5019 13.4453C22.4471 13.2808 22.4471 13.1711 22.3922 13.0614C22.3374 12.8969 22.2825 12.7324 22.2277 12.6227C22.1729 12.513 22.118 12.4033 22.0632 12.3485C22.0083 12.2937 21.9535 12.184 21.8987 12.1291C21.8438 12.0195 21.789 11.9646 21.7341 11.8549C21.7341 11.8001 21.6793 11.8001 21.6793 11.7453C21.6245 11.6904 21.5696 11.6356 21.5148 11.5259C21.4599 11.4711 21.4051 11.4162 21.3503 11.3065L21.2954 11.2517C21.2406 11.1969 21.1309 11.0872 21.0761 11.0323L21.0212 10.9775C20.9664 10.9226 20.8567 10.8678 20.8019 10.813C20.747 10.7581 20.6922 10.7581 20.6373 10.7033L20.5825 10.6484C20.5276 10.5936 20.418 10.5388 20.3631 10.5388C20.3083 10.5388 20.3083 10.4839 20.2534 10.4839C20.1986 10.4839 20.1438 10.4291 20.0889 10.4291C20.0341 10.3742 19.9244 10.3742 19.8696 10.3194C19.8696 10.3194 19.8147 10.3194 19.8147 10.2646C19.7599 10.2097 19.6502 10.2097 19.5954 10.1549H19.5405C19.4857 10.1549 19.4308 10.1 19.376 10.1C19.3212 10.1 19.3212 10.1 19.2663 10.0452C19.2115 10.0452 19.1566 9.99036 19.1018 9.99036C19.0469 9.99036 18.9921 9.99036 18.9921 9.93552C18.9373 9.93552 18.8824 9.93552 18.8276 9.88068C18.7727 9.88068 18.7179 9.88068 18.6631 9.82584C18.6082 9.82584 18.5534 9.82584 18.4985 9.82584C18.4437 9.82584 18.4437 9.82584 18.3889 9.82584C18.334 9.82584 18.2243 9.82584 18.1695 9.771C18.1147 9.771 18.0598 9.771 18.005 9.771H17.9501C17.7856 9.771 17.6759 9.771 17.6211 9.771C17.5663 9.771 17.5114 9.771 17.4566 9.771H17.4017C17.3469 9.771 17.2372 9.771 17.1824 9.771H17.1275C17.0727 9.771 17.0178 9.771 16.963 9.771C16.9082 9.771 16.7985 9.771 16.7436 9.82584C16.6888 9.82584 16.634 9.82584 16.634 9.82584C16.5791 9.82584 16.5791 9.82584 16.5243 9.82584C16.4694 9.82584 16.4146 9.82584 16.3598 9.88068C16.3049 9.88068 16.3049 9.88068 16.2501 9.88068C16.1952 9.88068 16.1404 9.93552 16.0856 9.93552C16.0307 9.93552 16.0307 9.93552 15.9759 9.99036C15.921 9.99036 15.921 9.99036 15.8662 10.0452C15.8114 10.0452 15.7017 10.1 15.6468 10.1549C15.4823 10.2097 15.3726 10.2646 15.2081 10.3194C15.2081 10.3194 15.1533 10.3194 15.1533 10.3742C15.0984 10.4291 14.9887 10.4291 14.9339 10.4839C14.8791 10.4839 14.8791 10.5388 14.8242 10.5388C14.7694 10.5388 14.7694 10.5936 14.7145 10.5936C14.6049 10.6484 14.4952 10.7033 14.4403 10.7581C14.4403 10.7581 14.3855 10.7581 14.3855 10.813C14.3307 10.8678 14.2758 10.9226 14.221 10.9775C14.1661 11.0323 14.1113 11.0323 14.0565 11.0872C14.0016 11.142 14.0016 11.142 13.9468 11.1969C13.8919 11.2517 13.8371 11.3065 13.7823 11.3614C13.7274 11.4162 13.6726 11.4711 13.6177 11.5259C13.5629 11.5807 13.508 11.6904 13.4532 11.7453C13.3984 11.8001 13.3984 11.8549 13.3435 11.9098C13.2887 12.0195 13.2338 12.1291 13.179 12.2388C13.1242 12.2937 13.1242 12.3485 13.0693 12.4582C13.0145 12.5679 12.9596 12.6227 12.9596 12.7324C12.85 13.0066 12.7951 13.3356 12.7403 13.6647C12.6306 14.1582 12.6306 14.7615 12.6854 15.3647C12.6854 15.3647 12.6854 15.5841 12.7403 15.8583C12.7951 16.3519 12.85 17.0648 12.9596 17.6132C13.0145 17.7777 13.0145 17.8874 13.0693 17.9971V18.0519C13.0693 18.1068 13.0693 18.1616 13.0693 18.2165C13.0693 18.2165 13.0693 18.2165 13.0145 18.2713C13.0145 18.2713 12.9596 18.3261 12.9048 18.3261C12.7951 18.4358 12.6854 18.5455 12.7951 18.7649C12.85 18.8197 12.85 18.9294 12.9048 18.9842C12.9596 19.0391 12.9596 19.0939 13.0145 19.1487C13.0693 19.2036 13.0693 19.2036 13.1242 19.2584C13.179 19.3133 13.2338 19.3681 13.2887 19.4229C13.3435 19.4778 13.3435 19.4778 13.3984 19.5326C13.4532 19.5875 13.508 19.6423 13.5629 19.6423C13.6177 19.6971 13.6726 19.6971 13.7274 19.752C13.7822 19.8068 13.8371 19.8068 13.8919 19.8068C13.9468 19.8068 13.9468 19.8068 14.0016 19.8068C14.0565 19.8068 14.1113 19.8068 14.1661 19.8068C14.221 19.8068 14.2758 19.8068 14.3307 19.752H14.3855C14.4952 19.752 14.6049 19.752 14.6597 19.752C14.7145 19.752 14.7145 19.752 14.7694 19.752C14.8242 19.752 14.8242 19.752 14.8791 19.752C14.9339 19.752 15.0436 19.8068 15.0984 19.8068C15.0984 19.8068 15.1533 19.8068 15.1533 19.8617C15.1533 19.8617 15.2081 19.9165 15.2081 20.0262C15.3726 20.6294 15.921 21.0133 16.5243 21.0133H18.6082C19.2115 21.0133 19.7599 20.6294 19.9244 20.081C19.9244 20.081 19.9244 20.081 19.9244 20.0262C19.9792 19.9714 20.0341 19.9165 20.1438 19.8617C20.1986 19.8617 20.2534 19.8068 20.3083 19.8068C20.3631 19.8068 20.3631 19.8068 20.418 19.8068C20.4728 19.8068 20.5825 19.8068 20.6373 19.8068H20.6922C20.747 19.8068 20.8018 19.8068 20.8567 19.8068C20.9115 19.8068 21.0212 19.8068 21.0761 19.8617H21.1309C21.1857 19.8617 21.2406 19.8617 21.2954 19.8617H21.3503H21.4051C21.4599 19.8617 21.5148 19.8068 21.5696 19.752C21.6245 19.6971 21.6793 19.6971 21.7341 19.6423L21.789 19.5875C21.8438 19.5326 21.8987 19.4778 21.9535 19.4229C22.0083 19.3681 22.0632 19.3133 22.118 19.3133C22.1729 19.2584 22.2277 19.2036 22.2825 19.1487C22.3374 19.0391 22.3922 18.9842 22.4471 18.9294C22.4471 18.8745 22.5019 18.8745 22.5019 18.8745C22.5567 18.71 22.5019 18.6003 22.4471 18.5455C22.3922 18.4907 22.3374 18.4358 22.2825 18.381C22.2277 18.3261 22.1729 18.2713 22.2277 18.2165C22.2277 18.1616 22.2825 18.1068 22.2825 18.0519C22.3374 17.8326 22.3922 17.5584 22.4471 17.2842C22.5019 17.01 22.5019 16.7358 22.5567 16.5164C22.6116 15.968 22.6116 15.5293 22.6116 15.5293C22.6664 14.6518 22.6116 13.9937 22.5019 13.4453ZM16.4694 17.2293C16.4694 17.2842 16.4694 17.2842 16.4694 17.339C16.4694 17.4487 16.4146 17.5584 16.3598 17.668C16.3049 17.7777 16.2501 17.8326 16.1952 17.9422C16.1404 17.9971 16.1404 17.9971 16.0856 18.0519C16.0307 18.1068 15.9759 18.1616 15.921 18.1616C15.8662 18.1616 15.8662 18.2165 15.8114 18.2165C15.7565 18.2165 15.7565 18.2713 15.7017 18.2713C15.6468 18.2713 15.5371 18.3261 15.4823 18.3261C15.4275 18.3261 15.3726 18.3261 15.3178 18.3261C15.2081 18.3261 15.0984 18.3261 15.0436 18.3261H14.9887C14.9339 18.3261 14.8242 18.3261 14.7694 18.3261C14.7145 18.3261 14.7145 18.3261 14.6597 18.3261C14.6049 18.3261 14.6049 18.3261 14.55 18.3261C14.4403 18.3261 14.3307 18.2713 14.2758 18.2713H14.221C14.1661 18.2165 14.1113 18.2164 14.0565 18.1616C14.0016 18.1068 13.9468 18.1068 13.8919 18.0519C13.8371 17.9971 13.8371 17.9971 13.7823 17.9422C13.7274 17.8326 13.6726 17.7229 13.6177 17.6132C13.508 17.2842 13.5629 16.9003 13.6177 16.7358C13.6726 16.6261 13.7274 16.5712 13.7823 16.4616C13.8371 16.4067 13.8371 16.4067 13.8919 16.3519C13.9468 16.297 14.0016 16.2422 14.0565 16.2422C14.1113 16.1873 14.1661 16.1873 14.221 16.1325H14.2758C14.3855 16.0777 14.4403 16.0777 14.55 16.0228C14.6049 16.0228 14.6049 16.0228 14.6597 16.0228C14.7145 16.0228 14.7145 16.0228 14.7694 16.0228C14.8242 16.0228 14.9339 16.0228 14.9887 15.968H15.0436C15.1533 15.968 15.2081 15.968 15.3178 15.968C15.3178 15.968 15.3178 15.968 15.3726 15.968C15.4275 15.968 15.4823 15.968 15.5371 15.968C15.6468 15.968 15.7017 16.0228 15.7565 16.0228C15.8113 16.0228 15.8662 16.0777 15.8662 16.0777C15.921 16.0777 15.921 16.1325 15.9759 16.1325C16.0307 16.1873 16.0856 16.2422 16.1404 16.297C16.1952 16.3519 16.1952 16.3519 16.2501 16.4067C16.3049 16.5164 16.4146 16.5712 16.4146 16.6809C16.4694 16.7906 16.4694 16.8454 16.5243 16.9551C16.4694 16.9551 16.4694 17.0648 16.4694 17.2293ZM18.0598 19.0391C18.005 19.0939 17.9501 19.1487 17.8953 19.1487H17.8405C17.7856 19.1487 17.7856 19.1487 17.7856 19.0939C17.7856 18.8197 17.5114 18.0519 17.5114 18.0519C17.5114 18.0519 17.4017 18.381 17.3469 18.6552C17.3469 18.7649 17.292 18.8745 17.292 18.9294C17.292 18.9842 17.292 19.0391 17.292 19.0939C17.292 19.2036 17.1824 19.1487 17.0727 19.0939L17.0178 19.0391C16.963 18.9842 16.9082 18.9294 16.8533 18.8197C16.7985 18.71 16.7436 18.5455 16.7985 18.4358C16.7985 18.381 16.8533 18.381 16.8533 18.3261C16.9082 18.2165 16.963 18.1616 17.0178 18.1068C17.0178 18.0519 17.0727 18.0519 17.0727 17.9971C17.1275 17.9422 17.1275 17.8874 17.1824 17.8326C17.2372 17.7777 17.2372 17.7229 17.292 17.7229H17.3469C17.4566 17.7229 17.5114 17.7229 17.5114 17.7229C17.5114 17.7229 17.7308 17.668 17.8405 17.8326C17.8405 17.8326 17.8405 17.8326 17.8405 17.8874C17.8405 17.9422 17.8953 17.9422 17.8953 17.9971C17.9501 18.0519 18.005 18.1616 18.0598 18.2165C18.1147 18.2713 18.1695 18.381 18.2243 18.5455C18.334 18.6552 18.2243 18.9294 18.0598 19.0391ZM21.5148 17.3938C21.4599 17.5584 21.4051 17.7229 21.3503 17.8874C21.3503 17.9422 21.2954 17.9422 21.2954 17.9971C21.2406 18.0519 21.1309 18.1616 21.0761 18.2165C21.0761 18.2165 21.0212 18.2165 21.0212 18.2713C20.9664 18.3261 20.9115 18.3261 20.8019 18.381C20.747 18.381 20.6922 18.4358 20.6373 18.4358H20.5825C20.5276 18.4358 20.418 18.4358 20.3631 18.4358C20.3083 18.4358 20.3083 18.4358 20.2534 18.4358C20.1986 18.4358 20.1438 18.4358 20.0889 18.4358C20.0341 18.4358 19.9792 18.4358 19.8696 18.4358H19.8147C19.8147 18.4358 19.8147 18.4358 19.7599 18.4358C19.705 18.4358 19.5954 18.4358 19.5405 18.381H19.4857C19.4308 18.381 19.376 18.3261 19.3211 18.3261C19.2663 18.3261 19.2663 18.2713 19.2115 18.2713C19.1566 18.2165 19.1018 18.2164 19.0469 18.1616C18.9921 18.1068 18.9373 18.1068 18.9373 18.0519C18.8824 17.9971 18.8276 17.9422 18.7727 17.8326C18.7179 17.7229 18.6631 17.5584 18.6082 17.4487C18.6082 17.3938 18.6082 17.3938 18.6082 17.339C18.6082 17.1745 18.6082 17.01 18.6082 16.9003C18.6631 16.7906 18.6631 16.6261 18.7727 16.5164C18.8276 16.4616 18.8824 16.3519 18.9373 16.297C18.9921 16.2422 19.0469 16.1873 19.0469 16.1873C19.1018 16.1325 19.1566 16.0777 19.2115 16.0777C19.2663 16.0777 19.2663 16.0228 19.3211 16.0228C19.376 15.968 19.4308 15.968 19.4857 15.968H19.5405C19.5954 15.968 19.6502 15.968 19.7599 15.968C19.7599 15.968 19.7599 15.968 19.8147 15.968H19.8696C19.9244 15.968 20.0341 15.968 20.0889 15.968C20.1438 15.968 20.1986 15.968 20.2534 15.968C20.3083 15.968 20.3083 15.968 20.3631 15.968C20.418 15.968 20.5276 16.0228 20.5825 16.0228H20.6373C20.6922 16.0228 20.747 16.0777 20.8019 16.0777C20.8567 16.1325 20.9664 16.1325 21.0212 16.1873L21.0761 16.2422C21.1857 16.297 21.2406 16.3519 21.2954 16.4616C21.3503 16.5164 21.3503 16.5164 21.3503 16.5712C21.4051 16.6261 21.4599 16.7358 21.4599 16.7906C21.4599 16.8454 21.5148 16.9003 21.5148 17.01C21.5148 16.9551 21.5148 17.1745 21.5148 17.3938Z" fill="#F89CD3"/>
</svg>
