<svg width="339" height="369" viewBox="0 0 339 369" fill="none" xmlns="http://www.w3.org/2000/svg">
<path opacity="0.8" d="M19.2965 10.38H48.1344C51.054 10.38 53.8538 9.21929 55.9171 7.15365L58.7178 4.34967C60.406 2.6596 62.6967 1.70996 65.0855 1.70996H239.41C241.796 1.70996 244.084 2.65711 245.772 4.34326L251.525 10.0915C253.587 12.1523 256.384 13.31 259.3 13.31H319.366C321.754 13.31 324.044 14.259 325.732 15.9481L334.746 24.9683C336.433 26.656 337.38 28.9442 337.38 31.3301V351.038C337.38 353.425 336.432 355.714 334.744 357.402L332.542 359.604C330.854 361.292 328.565 362.24 326.178 362.24H272.098C269.619 362.24 267.241 363.225 265.488 364.978C264.11 366.356 262.241 367.13 260.292 367.13H125.522C123.135 367.13 120.846 366.182 119.158 364.494L116.116 361.452C114.053 359.389 111.255 358.23 108.338 358.23H15.9321C13.5451 358.23 11.256 357.282 9.56814 355.594L4.096 350.122C2.40817 348.434 1.45996 346.145 1.45996 343.758V27.4427C1.45996 24.9128 2.52483 22.4996 4.39375 20.7944L13.2303 12.7316C14.8884 11.2187 17.052 10.38 19.2965 10.38Z" fill="url(#paint0_linear)" stroke="#95ECEB" stroke-width="2"/>
<path d="M248.65 0.709961L256.74 8.79996H298.57L290.64 0.879959L248.65 0.709961Z" fill="#95ECEB"/>
<path d="M114.56 368.13L109.12 362.69H63.1904L68.5804 368.08L114.56 368.13Z" fill="#95ECEB"/>
<defs>
<linearGradient id="paint0_linear" x1="19.5184" y1="199.42" x2="318.955" y2="199.42" gradientUnits="userSpaceOnUse">
<stop stop-color="#041C3C"/>
<stop offset="1" stop-color="#001528"/>
</linearGradient>
</defs>
</svg>
