<svg width="339" height="368" viewBox="0 0 339 368" fill="none" xmlns="http://www.w3.org/2000/svg">
<path d="M19.7961 9.87005H48.6508C51.5677 9.87005 54.3652 8.71147 56.4281 6.64911L59.2325 3.84528C60.9203 2.15789 63.2092 1.20996 65.5958 1.20996H239.972C242.355 1.20996 244.642 2.15541 246.329 3.83887L252.086 9.58358C254.149 11.6412 256.943 12.7967 259.856 12.7967H319.946C322.332 12.7967 324.62 13.744 326.308 15.4305L335.322 24.4377C337.011 26.1257 337.96 28.4158 337.96 30.8039V350.129C337.96 352.518 337.01 354.809 335.32 356.497L333.12 358.694C331.432 360.379 329.145 361.326 326.76 361.326H272.66C270.182 361.326 267.805 362.309 266.051 364.06C264.673 365.437 262.804 366.21 260.856 366.21H126.047C123.662 366.21 121.375 365.263 119.687 363.578L116.641 360.537C114.579 358.477 111.783 357.32 108.868 357.32H16.4307C14.0459 357.32 11.7586 356.374 10.0712 354.688L4.6004 349.225C2.90988 347.537 1.95996 345.246 1.95996 342.857V26.9213C1.95996 24.3892 3.02664 21.9742 4.89832 20.2688L13.7345 12.2175C15.392 10.7072 17.5537 9.87005 19.7961 9.87005Z" fill="url(#paint0_linear)" stroke="#5AC3FF" stroke-width="2"/>
<path d="M249.57 1.12988L257.66 9.21988H299.49L291.56 1.29988L249.57 1.12988Z" fill="#5AC3FF"/>
<path d="M115.48 367.55L110.04 362.11H64.1104L69.5004 367.5L115.48 367.55Z" fill="#5AC3FF"/>
<defs>
<linearGradient id="paint0_linear" x1="20.0229" y1="198.693" x2="319.53" y2="198.693" gradientUnits="userSpaceOnUse">
<stop stop-color="#041C3C"/>
<stop offset="1" stop-color="#001528"/>
</linearGradient>
</defs>
</svg>
