<svg width="36" height="36" viewBox="0 0 36 36" fill="none" xmlns="http://www.w3.org/2000/svg">
	<path d="M34.54 18.29C34.54 27.4027 27.1527 34.79 18.04 34.79C8.92734 34.79 1.54004 27.4027 1.54004 18.29C1.54004 9.17734 8.92734 1.79004 18.04 1.79004C27.1527 1.79004 34.54 9.17734 34.54 18.29Z" fill="black" stroke="#95ECEB" stroke-width="2"/>
	<path d="M23.207 15.8564V15.028C23.207 12.5426 21.1951 10.5898 18.7689 10.5898H18.118C15.6326 10.5898 13.6798 12.6018 13.6798 15.028V15.8564C13.1472 15.8564 12.6738 16.3298 12.6738 16.8624V24.7919C12.6738 25.3837 13.1472 25.7979 13.6798 25.7979H23.1479C23.7396 25.7979 24.1538 25.3245 24.1538 24.7919V16.9216C24.1538 16.3298 23.7396 15.9156 23.207 15.8564ZM17.2895 23.6084L17.8221 21.3597C17.6446 21.1822 17.5854 20.9455 17.5854 20.7088C17.5854 20.1762 17.9996 19.762 18.5322 19.762C19.0648 19.762 19.479 20.1762 19.479 20.7088C19.479 20.9455 19.3606 21.1822 19.2423 21.3597L19.7749 23.6084H17.2895ZM22.0235 15.8564H14.8633V15.028C14.8633 13.2527 16.3427 11.7733 18.118 11.7733H18.7689C20.5441 11.7733 22.0235 13.2527 22.0235 15.028V15.8564Z" fill="#37FFF2"/>
</svg>