<svg width="35" height="35" viewBox="0 0 35 35" fill="none" xmlns="http://www.w3.org/2000/svg">
<path d="M34 17.5C34 26.6127 26.6127 34 17.5 34C8.3873 34 1 26.6127 1 17.5C1 8.3873 8.3873 1 17.5 1C26.6127 1 34 8.3873 34 17.5Z" fill="black" stroke="#5AC3FF" stroke-width="2"/>
<path d="M11.4557 18.9362C9.43047 23.3917 14.8121 27.5 14.8121 27.5C14.8121 27.5 13.0755 25.2432 13.9438 23.1602C14.8121 21.0771 18.2839 19.7462 18.2839 15.8116C22.6812 19.2833 20.1934 23.5653 20.1934 23.5653L22.1029 21.0771C23.3177 25.0118 21.6978 27.2685 21.6978 27.2685C21.6978 27.2685 24.7643 24.6068 24.7643 21.0771C24.7643 17.5475 24.9957 12.9762 16.3741 8C16.3741 13.9021 13.4809 14.4807 11.4557 18.9362Z" fill="#3FB6FF"/>
</svg>
