<svg width="25" height="25" viewBox="0 0 25 25" fill="none" xmlns="http://www.w3.org/2000/svg">
<path d="M0 5C0 2.23858 2.23858 0 5 0H20C22.7614 0 25 2.23858 25 5V20C25 22.7614 22.7614 25 20 25H5C2.23858 25 0 22.7614 0 20V5Z" fill="url(#paint0_linear)"/>
<path fill-rule="evenodd" clip-rule="evenodd" d="M17.8537 8.64592C17.9002 8.69236 17.9372 8.74754 17.9624 8.80828C17.9876 8.86903 18.0005 8.93415 18.0005 8.99992C18.0005 9.06568 17.9876 9.13081 17.9624 9.19155C17.9372 9.2523 17.9002 9.30747 17.8537 9.35392L10.8537 16.3539C10.8072 16.4005 10.752 16.4374 10.6913 16.4626C10.6305 16.4878 10.5654 16.5008 10.4997 16.5008C10.4339 16.5008 10.3688 16.4878 10.308 16.4626C10.2473 16.4374 10.1921 16.4005 10.1457 16.3539L6.64565 12.8539C6.55177 12.76 6.49902 12.6327 6.49902 12.4999C6.49902 12.3671 6.55177 12.2398 6.64565 12.1459C6.73954 12.052 6.86688 11.9993 6.99966 11.9993C7.13243 11.9993 7.25977 12.052 7.35366 12.1459L10.4997 15.2929L17.1457 8.64592C17.1921 8.59935 17.2473 8.56241 17.308 8.5372C17.3688 8.512 17.4339 8.49902 17.4997 8.49902C17.5654 8.49902 17.6305 8.512 17.6913 8.5372C17.752 8.56241 17.8072 8.59935 17.8537 8.64592V8.64592Z" fill="black"/>
<defs>
<linearGradient id="paint0_linear" x1="2.19298" y1="25.0001" x2="23.3431" y2="25.0001" gradientUnits="userSpaceOnUse">
<stop stop-color="#43A8B1"/>
<stop offset="0.431827" stop-color="#3FCACB"/>
<stop offset="0.520833" stop-color="#3ED1D1"/>
<stop offset="1" stop-color="#00C2C2"/>
</linearGradient>
</defs>
</svg>
