<svg width="355" height="488" viewBox="0 0 355 488" fill="none" xmlns="http://www.w3.org/2000/svg">
<path d="M263.274 0L272.376 6H345.274L336.352 0.12608L263.274 0Z" fill="#2B3D4D"/>
<path d="M19.9946 487.605C17.6265 487.602 15.3362 486.759 13.5316 485.225L3.52465 476.722C1.28868 474.822 0 472.036 0 469.101L0 18.3446C0 15.7487 1.00945 13.2545 2.81494 11.3894L10.8926 3.04479C12.7764 1.09869 15.3691 0 18.0777 0L250.308 0C253.016 0 255.609 1.09891 257.493 3.04534L263.145 8.8849C265.029 10.8313 267.622 11.9302 270.331 11.9302H340.438C343.147 11.9302 345.74 13.0293 347.624 14.9759L352.186 19.6902C353.991 21.5553 355 24.0491 355 26.6445V469.835C355 472.777 353.704 475.57 351.458 477.47L341.811 485.63C340.002 487.16 337.709 487.998 335.34 487.995L19.9946 487.605Z" fill="url(#paint0_linear)" fill-opacity="0.4"/>
<defs>
<linearGradient id="paint0_linear" x1="-43.5843" y1="145.136" x2="260.338" y2="145.136" gradientUnits="userSpaceOnUse">
<stop stop-color="white"/>
<stop offset="1" stop-color="white" stop-opacity="0.4"/>
</linearGradient>
</defs>
</svg>
