<svg width="224" height="96" viewBox="0 0 224 96" fill="none" xmlns="http://www.w3.org/2000/svg">
<path d="M135 0.930176L143.103 6.93018H208L200.057 1.05626L135 0.930176Z" fill="#75F0FF"/>
<path d="M14.3447 91.9547L3.7402 81.689C1.98878 79.9936 1 77.6602 1 75.2226V18.7556C1 16.3191 1.98785 13.9867 3.73782 12.2914L11.8156 4.46604C13.4945 2.83961 15.7403 1.93018 18.0778 1.93018H122.247C124.585 1.93018 126.831 2.83979 128.51 4.46651L134.397 10.1702C136.449 12.1584 139.194 13.2702 142.051 13.2702H208.534C210.872 13.2702 213.118 14.1799 214.797 15.8068L219.312 20.1815C221.061 21.8767 222.049 24.2088 222.049 26.6448V75.9326C222.049 78.3702 221.06 80.7036 219.309 82.399L209.062 92.3185C207.379 93.9479 205.126 94.8567 202.784 94.8521L20.5865 94.4882C18.2564 94.4836 16.0189 93.5754 14.3447 91.9547Z" fill="url(#paint0_linear)" stroke="#75F0FF" stroke-width="2"/>
<g clip-path="url(#clip0)">
<circle cx="48.5" cy="47.4302" r="21.5" stroke="white" stroke-width="2"/>
<circle cx="48.6875" cy="41.6177" r="4.6875" fill="white"/>
<path d="M41 55.8364C41 51.608 44.4278 48.1802 48.6562 48.1802V48.1802C52.8847 48.1802 56.3125 51.608 56.3125 55.8364V56.9302H41V55.8364Z" fill="white"/>
</g>
<defs>
<linearGradient id="paint0_linear" x1="-104.993" y1="185.892" x2="203.064" y2="185.892" gradientUnits="userSpaceOnUse">
<stop stop-color="#0C3652"/>
<stop offset="1" stop-color="#2C769F"/>
</linearGradient>
<clipPath id="clip0">
<rect width="45" height="45" fill="white" transform="translate(26 24.9302)"/>
</clipPath>
</defs>
</svg>
