<svg width="224" height="95" viewBox="0 0 224 95" fill="none" xmlns="http://www.w3.org/2000/svg">
<path d="M135 0L143.048 6H208L200.111 0.12608L135 0Z" fill="#21AABA"/>
<path opacity="0.6" d="M14.3447 91.0245L3.7402 80.7589C1.98878 79.0634 1 76.7301 1 74.2924V17.8254C1 15.3889 1.98785 13.0566 3.73782 11.3613L11.8156 3.53586C13.4945 1.90943 15.7403 1 18.0778 1H122.247C124.585 1 126.831 1.90962 128.51 3.53634L134.397 9.24004C136.449 11.2282 139.194 12.34 142.051 12.34H208.534C210.872 12.34 213.118 13.2497 214.797 14.8766L219.312 19.2513C221.061 20.9466 222.049 23.2786 222.049 25.7147V75.0024C222.049 77.44 221.06 79.7734 219.309 81.4689L209.062 91.3884C207.379 93.0177 205.126 93.9266 202.784 93.9219L20.5865 93.5581C18.2564 93.5534 16.0189 92.6452 14.3447 91.0245Z" fill="url(#paint0_linear)" stroke="#21AABA" stroke-width="2"/>
<circle cx="48.5" cy="46.5" r="21.5" stroke="#00FFFF" stroke-width="2"/>
<circle cx="48.6875" cy="40.6875" r="4.6875" fill="#00FFFF"/>
<path d="M41 54.9062C41 50.6778 44.4278 47.25 48.6562 47.25V47.25C52.8847 47.25 56.3125 50.6778 56.3125 54.9062V56H41V54.9062Z" fill="#00FFFF"/>
<defs>
<linearGradient id="paint0_linear" x1="-104.993" y1="184.962" x2="203.064" y2="184.962" gradientUnits="userSpaceOnUse">
<stop stop-color="#000102"/>
<stop offset="1" stop-color="#031F39"/>
</linearGradient>
</defs>
</svg>
