<svg width="35" height="36" viewBox="0 0 35 36" fill="none" xmlns="http://www.w3.org/2000/svg">
<g clip-path="url(#clip0)">
<path d="M34 18.2595C34 27.3722 26.6127 34.7595 17.5 34.7595C8.3873 34.7595 1 27.3722 1 18.2595C1 9.14682 8.3873 1.75952 17.5 1.75952C26.6127 1.75952 34 9.14682 34 18.2595Z" fill="black" stroke="#95ECEB" stroke-width="2"/>
<path fill-rule="evenodd" clip-rule="evenodd" d="M10.3828 12.3649V17.9221C10.3829 21.5178 12.5972 24.7421 15.9532 26.0331L16.713 26.325C17.2189 26.5196 17.7791 26.5196 18.2851 26.325L19.0449 26.0331C22.4008 24.7421 24.6152 21.5178 24.6152 17.9221V12.3649C24.6181 11.9377 24.3701 11.5486 23.9817 11.3708C21.9379 10.4788 19.7289 10.0283 17.499 10.049C15.2692 10.0283 13.0601 10.4788 11.0164 11.3708C10.628 11.5486 10.38 11.9377 10.3828 12.3649Z" fill="#37FFF2"/>
<path d="M15.3788 21.7991C14.5065 21.7991 13.7994 22.5063 13.7994 23.3786V26.5599C13.7994 27.4322 14.5065 28.1393 15.3788 28.1393H19.6206C20.4929 28.1393 21.2 27.4322 21.2 26.5599V23.3786C21.2 22.5063 20.4929 21.7991 19.6206 21.7991H15.3788Z" fill="#37FFF2" stroke="black" stroke-width="1.03795" stroke-linecap="round" stroke-linejoin="round"/>
<path d="M15.2852 21.4357C15.2852 20.3532 16.2771 19.4756 17.5006 19.4756C18.7242 19.4756 19.7161 20.3532 19.7161 21.4357" stroke="black" stroke-width="0.980056" stroke-linecap="round" stroke-linejoin="round"/>
<path d="M16.793 21.6103C16.793 21.2198 17.1095 20.9033 17.4999 20.9033C17.8903 20.9033 18.2068 21.2198 18.2068 21.6103" stroke="black" stroke-width="0.980056" stroke-linecap="round" stroke-linejoin="round"/>
<path d="M17.4116 24.7249C17.558 24.7249 17.6767 24.8435 17.6767 24.99C17.6767 25.1364 17.558 25.2551 17.4116 25.2551C17.2652 25.2551 17.1465 25.1364 17.1465 24.99C17.1465 24.8435 17.2652 24.7249 17.4116 24.7249" stroke="black" stroke-width="1.06045" stroke-linecap="round" stroke-linejoin="round"/>
<path d="M14.1946 15.4391C14.1946 15.9541 14.088 16.348 13.8749 16.6208C13.6617 16.8937 13.3497 17.0301 12.9387 17.0301C12.5329 17.0301 12.2225 16.8962 12.0077 16.6285C11.7928 16.3608 11.6828 15.9771 11.6777 15.4775V14.792C11.6777 14.2719 11.7852 13.8772 12 13.6077C12.2166 13.3383 12.5278 13.2036 12.9336 13.2036C13.3395 13.2036 13.6498 13.3375 13.8647 13.6052C14.0795 13.8712 14.1895 14.254 14.1946 14.7536V15.4391ZM13.4554 14.6871C13.4554 14.3785 13.4128 14.1543 13.3275 14.0144C13.244 13.8729 13.1127 13.8021 12.9336 13.8021C12.7597 13.8021 12.6309 13.8695 12.5474 14.0042C12.4655 14.1372 12.4221 14.3461 12.4169 14.6309V15.5363C12.4169 15.8399 12.4579 16.0658 12.5397 16.2141C12.6233 16.3608 12.7563 16.4341 12.9387 16.4341C13.1195 16.4341 13.2499 16.3634 13.3301 16.2218C13.4102 16.0803 13.452 15.8637 13.4554 15.5721V14.6871Z" fill="black"/>
<path d="M16.4915 16.9789H15.7523V14.1295L14.8699 14.4032V13.8021L16.4122 13.2497H16.4915V16.9789Z" fill="black"/>
<path d="M17.8139 15.1475L18.0288 13.2548H20.1159V13.8712H18.635L18.5429 14.6718C18.7185 14.578 18.9052 14.5311 19.103 14.5311C19.4577 14.5311 19.7357 14.6411 19.9369 14.8611C20.1381 15.081 20.2387 15.3888 20.2387 15.7844C20.2387 16.0249 20.1875 16.2406 20.0852 16.4316C19.9846 16.6208 19.8397 16.7683 19.6504 16.8741C19.4611 16.9781 19.2377 17.0301 18.9803 17.0301C18.7552 17.0301 18.5463 16.9849 18.3536 16.8945C18.1609 16.8024 18.0083 16.6737 17.8958 16.5083C17.7849 16.3429 17.7261 16.1545 17.7193 15.943H18.4508C18.4661 16.0982 18.5199 16.2193 18.6119 16.3062C18.7057 16.3915 18.8276 16.4341 18.9777 16.4341C19.1448 16.4341 19.2736 16.3744 19.3639 16.2551C19.4543 16.134 19.4995 15.9635 19.4995 15.7435C19.4995 15.5321 19.4475 15.3701 19.3435 15.2575C19.2394 15.145 19.0919 15.0887 18.901 15.0887C18.7253 15.0887 18.5829 15.1348 18.4738 15.2268L18.4022 15.2933L17.8139 15.1475Z" fill="black"/>
<path d="M22.8988 15.5773H23.3208V16.1732H22.8988V16.9789H22.1596V16.1732H20.6326L20.5993 15.7077L22.1519 13.2548H22.8988V15.5773ZM21.336 15.5773H22.1596V14.2625L22.111 14.347L21.336 15.5773Z" fill="black"/>
</g>
<defs>
<clipPath id="clip0">
<rect width="35" height="35" fill="white" transform="translate(0 0.759521)"/>
</clipPath>
</defs>
</svg>
