<svg width="35" height="36" viewBox="0 0 35 36" fill="none" xmlns="http://www.w3.org/2000/svg">
<g clip-path="url(#clip0)">
<path d="M34 18.2598C34 27.3725 26.6127 34.7598 17.5 34.7598C8.3873 34.7598 1 27.3725 1 18.2598C1 9.14707 8.3873 1.75977 17.5 1.75977C26.6127 1.75977 34 9.14707 34 18.2598Z" fill="black" stroke="#5AC3FF" stroke-width="2"/>
<rect x="15.2129" y="9.00977" width="4.57317" height="1.24726" rx="0.623629" fill="#3FB6FF"/>
<rect x="16.6387" y="10.2573" width="1.72067" height="1.89272" fill="#3FB6FF"/>
<rect x="26.75" y="15.9731" width="4.57317" height="1.24726" rx="0.623629" transform="rotate(90 26.75 15.9731)" fill="#3FB6FF"/>
<rect x="25.502" y="17.3994" width="1.72067" height="1.89272" transform="rotate(90 25.502 17.3994)" fill="#3FB6FF"/>
<rect x="25.6582" y="23.1836" width="4.57317" height="1.24726" rx="0.623629" transform="rotate(135 25.6582 23.1836)" fill="#3FB6FF"/>
<rect x="23.7676" y="23.3101" width="1.72067" height="1.89272" transform="rotate(135 23.7676 23.3101)" fill="#3FB6FF"/>
<rect x="12.5762" y="26.4175" width="4.57317" height="1.24726" rx="0.623629" transform="rotate(-135 12.5762 26.4175)" fill="#3FB6FF"/>
<rect x="12.4492" y="24.5269" width="1.72067" height="1.89272" transform="rotate(-135 12.4492 24.5269)" fill="#3FB6FF"/>
<rect width="4.57317" height="1.24726" rx="0.623629" transform="matrix(1 0 0 -1 15.2129 27.5098)" fill="#3FB6FF"/>
<rect width="1.72067" height="1.89272" transform="matrix(1 0 0 -1 16.6387 26.2627)" fill="#3FB6FF"/>
<rect width="4.57317" height="1.24726" rx="0.623629" transform="matrix(-4.37114e-08 1 1 4.37114e-08 8.25 15.9731)" fill="#3FB6FF"/>
<rect width="1.72067" height="1.89272" transform="matrix(-4.37114e-08 1 1 4.37114e-08 9.49805 17.3994)" fill="#3FB6FF"/>
<rect width="4.57317" height="1.24726" rx="0.623629" transform="matrix(-0.707107 0.707107 0.707107 0.707107 12.5762 10.1021)" fill="#3FB6FF"/>
<rect width="1.72067" height="1.89272" transform="matrix(-0.707107 0.707107 0.707107 0.707107 12.4492 11.9927)" fill="#3FB6FF"/>
<rect width="4.57317" height="1.24726" rx="0.623629" transform="matrix(-0.707107 -0.707107 -0.707107 0.707107 25.6582 13.3359)" fill="#3FB6FF"/>
<rect width="1.72067" height="1.89272" transform="matrix(-0.707107 -0.707107 -0.707107 0.707107 23.7676 13.2095)" fill="#3FB6FF"/>
<path fill-rule="evenodd" clip-rule="evenodd" d="M23.7668 18.1925C23.7668 21.6537 20.9608 24.4596 17.4996 24.4596C14.0383 24.4596 11.2324 21.6537 11.2324 18.1925C11.2324 14.7312 14.0383 11.9253 17.4996 11.9253C20.9608 11.9253 23.7668 14.7312 23.7668 18.1925ZM17.4996 15.5476C17.4996 16.5703 16.6706 17.3994 15.6478 17.3994C14.6251 17.3994 13.7961 16.5703 13.7961 15.5476C13.7961 14.5249 14.6251 13.6959 15.6478 13.6959C16.6706 13.6959 17.4996 14.5249 17.4996 15.5476ZM20.5427 21.6368C20.9605 21.6368 21.2992 21.2981 21.2992 20.8803C21.2992 20.4625 20.9605 20.1238 20.5427 20.1238C20.1249 20.1238 19.7862 20.4625 19.7862 20.8803C19.7862 21.2981 20.1249 21.6368 20.5427 21.6368ZM21.2114 16.7297C21.2114 17.1475 20.8727 17.4862 20.4549 17.4862C20.0371 17.4862 19.6984 17.1475 19.6984 16.7297C19.6984 16.3119 20.0371 15.9731 20.4549 15.9731C20.8727 15.9731 21.2114 16.3119 21.2114 16.7297ZM15.1537 21.9718C15.9083 21.9718 16.52 21.3601 16.52 20.6056C16.52 19.851 15.9083 19.2393 15.1537 19.2393C14.3992 19.2393 13.7875 19.851 13.7875 20.6056C13.7875 21.3601 14.3992 21.9718 15.1537 21.9718Z" fill="#3FB6FF"/>
</g>
<defs>
<clipPath id="clip0">
<rect width="35" height="35" fill="white" transform="translate(0 0.759766)"/>
</clipPath>
</defs>
</svg>
