<svg width="35" height="36" viewBox="0 0 35 36" fill="none" xmlns="http://www.w3.org/2000/svg">
<g clip-path="url(#clip0)">
<path d="M34 18.2598C34 27.3725 26.6127 34.7598 17.5 34.7598C8.3873 34.7598 1 27.3725 1 18.2598C1 9.14707 8.3873 1.75977 17.5 1.75977C26.6127 1.75977 34 9.14707 34 18.2598Z" fill="black" stroke="#95ECEB" stroke-width="2"/>
<circle cx="17.4242" cy="13.1014" r="3.67418" fill="#37FFF2"/>
<path d="M25.2728 24.5335C25.2728 23.6178 25.0698 22.7111 24.6753 21.8651C24.2809 21.0191 23.7027 20.2504 22.9738 19.6029C22.2449 18.9554 21.3796 18.4418 20.4273 18.0913C19.475 17.7409 18.4543 17.5605 17.4235 17.5605C16.3927 17.5605 15.372 17.7409 14.4197 18.0913C13.4674 18.4418 12.6021 18.9554 11.8732 19.6029C11.1444 20.2504 10.5662 21.0191 10.1717 21.8651C9.77725 22.7111 9.57422 23.6178 9.57422 24.5335L17.4235 24.5335H25.2728Z" fill="#37FFF2"/>
<path d="M23.2564 17.5457C22.9279 16.9767 22.1068 16.9767 21.7783 17.5457L17.3246 25.2597C16.9962 25.8286 17.4067 26.5397 18.0637 26.5397H26.9711C27.628 26.5397 28.0386 25.8286 27.7101 25.2597L23.2564 17.5457Z" fill="#37FFF2" stroke="black" stroke-width="0.914077"/>
<line x1="22.4642" y1="20.5989" x2="22.4642" y2="22.6194" stroke="black" stroke-width="0.990804" stroke-linecap="round"/>
<line x1="22.4642" y1="24.1639" x2="22.4642" y2="24.1252" stroke="black" stroke-width="0.990804" stroke-linecap="round"/>
</g>
<defs>
<clipPath id="clip0">
<rect width="35" height="35" fill="white" transform="translate(0 0.759766)"/>
</clipPath>
</defs>
</svg>
