<svg width="35" height="36" viewBox="0 0 35 36" fill="none" xmlns="http://www.w3.org/2000/svg">
<g clip-path="url(#clip0)">
<path d="M34 17.7595C34 26.8722 26.6127 34.2595 17.5 34.2595C8.3873 34.2595 1 26.8722 1 17.7595C1 8.64682 8.3873 1.25952 17.5 1.25952C26.6127 1.25952 34 8.64682 34 17.7595Z" fill="black" stroke="#95ECEB" stroke-width="2"/>
<path fill-rule="evenodd" clip-rule="evenodd" d="M10.3828 11.8649V17.4221C10.3829 21.0178 12.5972 24.2421 15.9532 25.5331L16.713 25.825C17.2189 26.0196 17.7791 26.0196 18.2851 25.825L19.0449 25.5331C22.4008 24.2421 24.6152 21.0178 24.6152 17.4221V11.8649C24.6181 11.4377 24.3701 11.0486 23.9817 10.8708C21.9379 9.97876 19.7289 9.52834 17.499 9.54902C15.2692 9.52834 13.0601 9.97876 11.0164 10.8708C10.628 11.0486 10.38 11.4377 10.3828 11.8649Z" fill="#37FFF2"/>
<path d="M15.6484 16.8272C16.4192 16.0583 18.4274 16.118 18.9222 16.8272" stroke="black" stroke-width="1.19151" stroke-linecap="round" stroke-linejoin="round"/>
<path d="M14.207 15.102C16.0601 13.3986 18.9072 13.3924 20.7677 15.0876" stroke="black" stroke-width="1.19151" stroke-linecap="round" stroke-linejoin="round"/>
<path d="M13.0508 13.14C15.6496 11.0542 19.349 11.0557 21.9462 13.1435" stroke="black" stroke-width="1.19151" stroke-linecap="round" stroke-linejoin="round"/>
<circle cx="17.2843" cy="18.7677" r="0.696393" fill="black"/>
<path d="M15.0203 22.4373L15.5717 20.6079H16.1297L15.2826 23.0404H14.7597L13.916 20.6079H14.4724L15.0203 22.4373Z" fill="black"/>
<path d="M16.8614 22.1834V23.0404H16.3602V20.6079H17.3092C17.4919 20.6079 17.6522 20.6413 17.7904 20.7082C17.9296 20.775 18.0365 20.8702 18.1111 20.9938C18.1858 21.1164 18.2231 21.2561 18.2231 21.4132C18.2231 21.6515 18.1412 21.8398 17.9775 21.9779C17.8149 22.1149 17.5893 22.1834 17.3008 22.1834H16.8614ZM16.8614 21.7774H17.3092C17.4417 21.7774 17.5425 21.7462 17.6116 21.6838C17.6818 21.6215 17.7168 21.5324 17.7168 21.4165C17.7168 21.2973 17.6818 21.201 17.6116 21.1275C17.5414 21.054 17.4445 21.0161 17.3209 21.0139H16.8614V21.7774Z" fill="black"/>
<path d="M20.547 23.0404H20.0458L19.0701 21.4399V23.0404H18.5689V20.6079H19.0701L20.0475 22.2118V20.6079H20.547V23.0404Z" fill="black"/>
</g>
<defs>
<clipPath id="clip0">
<rect width="35" height="35" fill="white" transform="translate(0 0.259521)"/>
</clipPath>
</defs>
</svg>
