<svg width="35" height="36" viewBox="0 0 35 36" fill="none" xmlns="http://www.w3.org/2000/svg">
<g clip-path="url(#clip0)">
<path d="M34 17.7595C34 26.8722 26.6127 34.2595 17.5 34.2595C8.3873 34.2595 1 26.8722 1 17.7595C1 8.64682 8.3873 1.25952 17.5 1.25952C26.6127 1.25952 34 8.64682 34 17.7595Z" fill="black" stroke="#F89CD3" stroke-width="2"/>
<path fill-rule="evenodd" clip-rule="evenodd" d="M13.1093 16.621C14.3778 16.621 15.4062 15.5927 15.4062 14.3242C15.4062 13.0557 14.3778 12.0273 13.1093 12.0273C11.8408 12.0273 10.8125 13.0557 10.8125 14.3242C10.8125 15.5927 11.8408 16.621 13.1093 16.621Z" stroke="black" stroke-width="0.765613" stroke-linecap="round" stroke-linejoin="round"/>
<path d="M13.1094 12.0273V14.3242L14.7335 15.9483" stroke="black" stroke-width="0.765613" stroke-linecap="round" stroke-linejoin="round"/>
<path d="M17.0879 13.5479H20.8482" stroke="black" stroke-width="0.912234" stroke-linecap="round" stroke-linejoin="round"/>
<path d="M17.0879 15.3721H20.8482" stroke="black" stroke-width="0.912234" stroke-linecap="round" stroke-linejoin="round"/>
<path d="M11.9196 26.3695L12.1938 25.492L17.1295 22.9693L23.5458 19.8983L23.7104 20.008C23.8749 20.1176 24.0394 20.1725 24.2588 20.1176C24.4233 20.0628 24.5878 20.008 24.7523 19.8983C24.862 19.7886 24.9169 19.6789 24.8072 19.5692L24.6427 19.3499L24.7523 18.8015C24.7523 18.7466 24.7523 18.7466 24.6975 18.6918L24.533 18.4176C24.4233 18.3079 24.2588 18.2531 24.0942 18.3079C23.8749 18.3627 23.6555 18.4176 23.6007 18.4724C23.491 18.5273 23.2168 19.1305 23.2168 19.1305L19.2134 21.1596L11.8099 24.6694C11.8099 24.6694 10.7131 24.6146 10.3841 24.8339L10.3293 24.8888C10.1099 25.0533 10.055 25.3823 10.2744 25.5469L10.5486 25.8211L10.8228 26.534C10.8777 26.6985 11.0422 26.8082 11.2067 26.8082H11.4809C11.6454 26.7533 11.8099 26.5888 11.9196 26.3695Z" fill="#F89CD3"/>
<path d="M15.7587 21.1047L11.7553 19.0756C11.7553 19.0756 11.4811 18.4723 11.3714 18.4175C11.3166 18.3626 11.0424 18.3078 10.8779 18.253C10.7133 18.1981 10.494 18.253 10.4391 18.3626L10.2746 18.6368C10.2746 18.6917 10.2198 18.6917 10.2198 18.7465L10.3295 19.2949L10.1649 19.5143C10.1101 19.624 10.1101 19.7337 10.2198 19.8433C10.3295 19.953 10.494 20.0079 10.7133 20.0627C10.9327 20.1175 11.1521 20.0627 11.2617 19.953L11.4263 19.8433L16.1426 22.1466L17.0748 21.7079L15.7587 21.1047Z" fill="#F89CD3"/>
<path d="M22.7244 25.4919L22.9986 26.3694C23.0534 26.5887 23.2728 26.7532 23.547 26.7532H23.8212C23.9857 26.7532 24.1503 26.6436 24.2051 26.479L24.4793 25.7661L24.7535 25.4919C24.918 25.2725 24.918 24.9983 24.6987 24.8338L24.6438 24.779C24.3148 24.5596 23.218 24.6145 23.218 24.6145L18.8307 22.5305L17.8984 22.9692L22.7244 25.4919Z" fill="#F89CD3"/>
<path d="M22.6123 12.385C22.5574 12.2205 22.5574 12.1108 22.5026 12.0011C22.4477 11.8366 22.3929 11.6721 22.3381 11.5624C22.2832 11.4527 22.2284 11.343 22.1735 11.2882C22.1187 11.2334 22.0639 11.1237 22.009 11.0688C21.9542 10.9592 21.8993 10.9043 21.8445 10.7946C21.8445 10.7398 21.7896 10.7398 21.7896 10.685C21.7348 10.6301 21.68 10.5753 21.6251 10.4656C21.5703 10.4108 21.5154 10.3559 21.4606 10.2462L21.4058 10.1914C21.3509 10.1365 21.2412 10.0269 21.1864 9.97203L21.1316 9.91719C21.0767 9.86235 20.967 9.80751 20.9122 9.75267C20.8574 9.69783 20.8025 9.69782 20.7477 9.64298L20.6928 9.58814C20.638 9.5333 20.5283 9.47846 20.4735 9.47846C20.4186 9.47846 20.4186 9.42362 20.3638 9.42362C20.309 9.42362 20.2541 9.36878 20.1993 9.36878C20.1444 9.31394 20.0347 9.31394 19.9799 9.2591C19.9799 9.2591 19.9251 9.2591 19.9251 9.20426C19.8702 9.14942 19.7605 9.14942 19.7057 9.09458H19.6509C19.596 9.09458 19.5412 9.03974 19.4863 9.03974C19.4315 9.03974 19.4315 9.03974 19.3767 8.9849C19.3218 8.9849 19.267 8.93006 19.2121 8.93006C19.1573 8.93006 19.1025 8.93006 19.1025 8.87521C19.0476 8.87521 18.9928 8.87522 18.9379 8.82038C18.8831 8.82038 18.8283 8.82038 18.7734 8.76554C18.7186 8.76554 18.6637 8.76554 18.6089 8.76554C18.554 8.76554 18.5541 8.76554 18.4992 8.76554C18.4444 8.76554 18.3347 8.76553 18.2799 8.71069C18.225 8.71069 18.1702 8.71069 18.1153 8.71069H18.0605C17.896 8.71069 17.7863 8.71069 17.7314 8.71069C17.6766 8.71069 17.6218 8.71069 17.5669 8.71069H17.5121C17.4572 8.71069 17.3476 8.71069 17.2927 8.71069H17.2379C17.183 8.71069 17.1282 8.71069 17.0734 8.71069C17.0185 8.71069 16.9088 8.71069 16.854 8.76554C16.7992 8.76554 16.7443 8.76554 16.7443 8.76554C16.6895 8.76554 16.6895 8.76554 16.6346 8.76554C16.5798 8.76554 16.525 8.76553 16.4701 8.82038C16.4153 8.82038 16.4153 8.82038 16.3604 8.82038C16.3056 8.82038 16.2507 8.87521 16.1959 8.87521C16.1411 8.87521 16.1411 8.87522 16.0862 8.93006C16.0314 8.93006 16.0314 8.93006 15.9765 8.9849C15.9217 8.9849 15.812 9.03974 15.7572 9.09458C15.5927 9.14942 15.483 9.20426 15.3185 9.2591C15.3185 9.2591 15.2636 9.2591 15.2636 9.31394C15.2088 9.36878 15.0991 9.36878 15.0443 9.42362C14.9894 9.42362 14.9894 9.47846 14.9346 9.47846C14.8797 9.47846 14.8797 9.5333 14.8249 9.5333C14.7152 9.58814 14.6055 9.64298 14.5507 9.69782C14.5507 9.69782 14.4958 9.69783 14.4958 9.75267C14.441 9.80751 14.3862 9.86235 14.3313 9.91719C14.2765 9.97203 14.2216 9.97203 14.1668 10.0269C14.112 10.0817 14.112 10.0817 14.0571 10.1366C14.0023 10.1914 13.9474 10.2462 13.8926 10.3011C13.8378 10.3559 13.7829 10.4108 13.7281 10.4656C13.6732 10.5204 13.6184 10.6301 13.5636 10.685C13.5087 10.7398 13.5087 10.7946 13.4539 10.8495C13.399 10.9592 13.3442 11.0688 13.2894 11.1785C13.2345 11.2334 13.2345 11.2882 13.1797 11.3979C13.1248 11.5076 13.07 11.5624 13.07 11.6721C12.9603 11.9463 12.9055 12.2753 12.8506 12.6044C12.7409 13.0979 12.7409 13.7012 12.7958 14.3044C12.7958 14.3044 12.7958 14.5238 12.8506 14.798C12.9055 15.2916 12.9603 16.0045 13.07 16.5529C13.1248 16.7174 13.1248 16.8271 13.1797 16.9368V16.9916C13.1797 17.0465 13.1797 17.1013 13.1797 17.1561C13.1797 17.1561 13.1797 17.1561 13.1248 17.211C13.1248 17.211 13.07 17.2658 13.0151 17.2658C12.9055 17.3755 12.7958 17.4852 12.9055 17.7046C12.9603 17.7594 12.9603 17.8691 13.0151 17.9239C13.07 17.9788 13.07 18.0336 13.1248 18.0884C13.1797 18.1433 13.1797 18.1433 13.2345 18.1981C13.2894 18.253 13.3442 18.3078 13.399 18.3626C13.4539 18.4175 13.4539 18.4175 13.5087 18.4723C13.5636 18.5272 13.6184 18.582 13.6732 18.582C13.7281 18.6368 13.7829 18.6368 13.8378 18.6917C13.8926 18.7465 13.9474 18.7465 14.0023 18.7465C14.0571 18.7465 14.0571 18.7465 14.112 18.7465C14.1668 18.7465 14.2216 18.7465 14.2765 18.7465C14.3313 18.7465 14.3862 18.7465 14.441 18.6917H14.4958C14.6055 18.6917 14.7152 18.6917 14.77 18.6917C14.8249 18.6917 14.8249 18.6917 14.8797 18.6917C14.9346 18.6917 14.9346 18.6917 14.9894 18.6917C15.0443 18.6917 15.1539 18.7465 15.2088 18.7465C15.2088 18.7465 15.2636 18.7465 15.2636 18.8014C15.2636 18.8014 15.3185 18.8562 15.3185 18.9659C15.483 19.5691 16.0314 19.953 16.6346 19.953H18.7186C19.3218 19.953 19.8702 19.5691 20.0347 19.0207C20.0347 19.0207 20.0347 19.0207 20.0347 18.9659C20.0896 18.911 20.1444 18.8562 20.2541 18.8014C20.3089 18.8014 20.3638 18.7465 20.4186 18.7465C20.4735 18.7465 20.4735 18.7465 20.5283 18.7465C20.5832 18.7465 20.6928 18.7465 20.7477 18.7465H20.8025C20.8574 18.7465 20.9122 18.7465 20.967 18.7465C21.0219 18.7465 21.1316 18.7465 21.1864 18.8014H21.2412C21.2961 18.8014 21.3509 18.8014 21.4058 18.8014H21.4606H21.5154C21.5703 18.8014 21.6251 18.7465 21.68 18.6917C21.7348 18.6368 21.7897 18.6368 21.8445 18.582L21.8993 18.5272C21.9542 18.4723 22.009 18.4175 22.0639 18.3626C22.1187 18.3078 22.1735 18.253 22.2284 18.253C22.2832 18.1981 22.3381 18.1433 22.3929 18.0884C22.4477 17.9788 22.5026 17.9239 22.5574 17.8691C22.5574 17.8142 22.6123 17.8142 22.6123 17.8142C22.6671 17.6497 22.6123 17.54 22.5574 17.4852C22.5026 17.4304 22.4477 17.3755 22.3929 17.3207C22.3381 17.2658 22.2832 17.211 22.3381 17.1561C22.3381 17.1013 22.3929 17.0465 22.3929 16.9916C22.4477 16.7723 22.5026 16.4981 22.5574 16.2239C22.6123 15.9497 22.6123 15.6755 22.6671 15.4561C22.7219 14.9077 22.7219 14.469 22.7219 14.469C22.7768 13.5915 22.7219 12.9334 22.6123 12.385ZM16.5798 16.169C16.5798 16.2239 16.5798 16.2239 16.5798 16.2787C16.5798 16.3884 16.525 16.4981 16.4701 16.6077C16.4153 16.7174 16.3604 16.7723 16.3056 16.8819C16.2507 16.9368 16.2507 16.9368 16.1959 16.9916C16.1411 17.0465 16.0862 17.1013 16.0314 17.1013C15.9765 17.1013 15.9765 17.1561 15.9217 17.1561C15.8669 17.1561 15.8669 17.211 15.812 17.211C15.7572 17.211 15.6475 17.2658 15.5927 17.2658C15.5378 17.2658 15.483 17.2658 15.4281 17.2658C15.3185 17.2658 15.2088 17.2658 15.1539 17.2658H15.0991C15.0443 17.2658 14.9346 17.2658 14.8797 17.2658C14.8249 17.2658 14.8249 17.2658 14.77 17.2658C14.7152 17.2658 14.7152 17.2658 14.6604 17.2658C14.5507 17.2658 14.441 17.211 14.3862 17.211H14.3313C14.2765 17.1561 14.2216 17.1561 14.1668 17.1013C14.112 17.0465 14.0571 17.0465 14.0023 16.9916C13.9474 16.9368 13.9474 16.9368 13.8926 16.8819C13.8378 16.7723 13.7829 16.6626 13.7281 16.5529C13.6184 16.2239 13.6732 15.84 13.7281 15.6755C13.7829 15.5658 13.8378 15.5109 13.8926 15.4012C13.9474 15.3464 13.9474 15.3464 14.0023 15.2916C14.0571 15.2367 14.112 15.1819 14.1668 15.1819C14.2216 15.127 14.2765 15.127 14.3313 15.0722H14.3862C14.4958 15.0174 14.5507 15.0174 14.6604 14.9625C14.7152 14.9625 14.7152 14.9625 14.77 14.9625C14.8249 14.9625 14.8249 14.9625 14.8797 14.9625C14.9346 14.9625 15.0443 14.9625 15.0991 14.9077H15.1539C15.2636 14.9077 15.3185 14.9077 15.4281 14.9077C15.4281 14.9077 15.4281 14.9077 15.483 14.9077C15.5378 14.9077 15.5927 14.9077 15.6475 14.9077C15.7572 14.9077 15.812 14.9625 15.8669 14.9625C15.9217 14.9625 15.9765 15.0174 15.9765 15.0174C16.0314 15.0174 16.0314 15.0722 16.0862 15.0722C16.1411 15.127 16.1959 15.1819 16.2508 15.2367C16.3056 15.2916 16.3056 15.2916 16.3604 15.3464C16.4153 15.4561 16.525 15.5109 16.525 15.6206C16.5798 15.7303 16.5798 15.7851 16.6346 15.8948C16.5798 15.8948 16.5798 16.0045 16.5798 16.169ZM18.1702 17.9788C18.1153 18.0336 18.0605 18.0884 18.0056 18.0884H17.9508C17.896 18.0884 17.896 18.0884 17.896 18.0336C17.896 17.7594 17.6218 16.9916 17.6218 16.9916C17.6218 16.9916 17.5121 17.3207 17.4572 17.5949C17.4572 17.7046 17.4024 17.8142 17.4024 17.8691C17.4024 17.9239 17.4024 17.9788 17.4024 18.0336C17.4024 18.1433 17.2927 18.0884 17.183 18.0336L17.1282 17.9788C17.0734 17.9239 17.0185 17.8691 16.9637 17.7594C16.9088 17.6497 16.854 17.4852 16.9088 17.3755C16.9088 17.3207 16.9637 17.3207 16.9637 17.2658C17.0185 17.1561 17.0734 17.1013 17.1282 17.0465C17.1282 16.9916 17.183 16.9916 17.183 16.9368C17.2379 16.8819 17.2379 16.8271 17.2927 16.7723C17.3476 16.7174 17.3476 16.6626 17.4024 16.6626H17.4572C17.5669 16.6626 17.6218 16.6626 17.6218 16.6626C17.6218 16.6626 17.8411 16.6077 17.9508 16.7723C17.9508 16.7723 17.9508 16.7723 17.9508 16.8271C17.9508 16.8819 18.0056 16.8819 18.0056 16.9368C18.0605 16.9916 18.1153 17.1013 18.1702 17.1561C18.225 17.211 18.2798 17.3207 18.3347 17.4852C18.4444 17.5949 18.3347 17.8691 18.1702 17.9788ZM21.6251 16.3335C21.5703 16.4981 21.5154 16.6626 21.4606 16.8271C21.4606 16.8819 21.4058 16.8819 21.4058 16.9368C21.3509 16.9916 21.2412 17.1013 21.1864 17.1561C21.1864 17.1561 21.1316 17.1561 21.1316 17.211C21.0767 17.2658 21.0219 17.2658 20.9122 17.3207C20.8574 17.3207 20.8025 17.3755 20.7477 17.3755H20.6928C20.638 17.3755 20.5283 17.3755 20.4735 17.3755C20.4186 17.3755 20.4186 17.3755 20.3638 17.3755C20.309 17.3755 20.2541 17.3755 20.1993 17.3755C20.1444 17.3755 20.0896 17.3755 19.9799 17.3755H19.9251C19.9251 17.3755 19.9251 17.3755 19.8702 17.3755C19.8154 17.3755 19.7057 17.3755 19.6509 17.3207H19.596C19.5412 17.3207 19.4863 17.2658 19.4315 17.2658C19.3767 17.2658 19.3767 17.211 19.3218 17.211C19.267 17.1561 19.2121 17.1561 19.1573 17.1013C19.1025 17.0465 19.0476 17.0465 19.0476 16.9916C18.9928 16.9368 18.9379 16.8819 18.8831 16.7723C18.8283 16.6626 18.7734 16.4981 18.7186 16.3884C18.7186 16.3335 18.7186 16.3335 18.7186 16.2787C18.7186 16.1142 18.7186 15.9497 18.7186 15.84C18.7734 15.7303 18.7734 15.5658 18.8831 15.4561C18.9379 15.4012 18.9928 15.2916 19.0476 15.2367C19.1025 15.1819 19.1573 15.127 19.1573 15.127C19.2121 15.0722 19.267 15.0174 19.3218 15.0174C19.3767 15.0174 19.3767 14.9625 19.4315 14.9625C19.4863 14.9077 19.5412 14.9077 19.596 14.9077H19.6509C19.7057 14.9077 19.7605 14.9077 19.8702 14.9077C19.8702 14.9077 19.8702 14.9077 19.9251 14.9077H19.9799C20.0347 14.9077 20.1444 14.9077 20.1993 14.9077C20.2541 14.9077 20.309 14.9077 20.3638 14.9077C20.4186 14.9077 20.4186 14.9077 20.4735 14.9077C20.5283 14.9077 20.638 14.9625 20.6928 14.9625H20.7477C20.8025 14.9625 20.8574 15.0174 20.9122 15.0174C20.967 15.0722 21.0767 15.0722 21.1316 15.127L21.1864 15.1819C21.2961 15.2367 21.3509 15.2916 21.4058 15.4012C21.4606 15.4561 21.4606 15.4561 21.4606 15.5109C21.5154 15.5658 21.5703 15.6755 21.5703 15.7303C21.5703 15.7851 21.6251 15.84 21.6251 15.9497C21.6251 15.8948 21.6251 16.1142 21.6251 16.3335Z" fill="#F89CD3"/>
</g>
<defs>
<clipPath id="clip0">
<rect width="35" height="35" fill="white" transform="translate(0 0.259521)"/>
</clipPath>
</defs>
</svg>
