<svg width="35" height="36" viewBox="0 0 35 36" fill="none" xmlns="http://www.w3.org/2000/svg">
<path d="M34 18.2595C34 27.3722 26.6127 34.7595 17.5 34.7595C8.3873 34.7595 1 27.3722 1 18.2595C1 9.14682 8.3873 1.75952 17.5 1.75952C26.6127 1.75952 34 9.14682 34 18.2595Z" fill="black" stroke="#F89CD3" stroke-width="2"/>
<rect x="11.7819" y="14.651" width="11.2436" height="8.48205" rx="0.416647" stroke="#F89CD3" stroke-width="0.833295"/>
<rect x="11.9238" y="21.9377" width="11.1524" height="0.960192" fill="#F89CD3"/>
<path d="M15.65 24.0925H18.9838L19.6241 25.2043H15.0098L15.65 24.0925Z" fill="#F89CD3"/>
<rect x="13.9805" y="25.0476" width="6.77827" height="0.558607" rx="0.279304" fill="#F89CD3"/>
<circle r="0.941197" transform="matrix(-1 0 0 1 26.8205 18.8919)" fill="#F89CD3"/>
<circle r="0.941197" transform="matrix(-1 0 0 1 26.8205 13.8706)" fill="#F89CD3"/>
<circle cx="26.8205" cy="23.9135" r="0.941197" transform="rotate(-180 26.8205 23.9135)" fill="#F89CD3"/>
<line y1="-0.307506" x2="3.71805" y2="-0.307506" transform="matrix(-1 0 0 1 26.7949 19.1956)" stroke="#F89CD3" stroke-width="0.615012"/>
<path d="M23.0769 16.843H26.7949V14.4761" stroke="#F89CD3" stroke-width="0.615012"/>
<path d="M23.0769 20.9412H26.7949V23.3081" stroke="#F89CD3" stroke-width="0.615012"/>
<circle cx="8.17948" cy="18.8919" r="0.941197" fill="#F89CD3"/>
<circle cx="8.17948" cy="13.8706" r="0.941197" fill="#F89CD3"/>
<circle r="0.941197" transform="matrix(1 0 0 -1 8.17948 23.9135)" fill="#F89CD3"/>
<line x1="8.20508" y1="18.8881" x2="11.9231" y2="18.8881" stroke="#F89CD3" stroke-width="0.615012"/>
<path d="M11.9231 16.843H8.20508V14.4761" stroke="#F89CD3" stroke-width="0.615012"/>
<path d="M11.9231 20.9412H8.20508V23.3081" stroke="#F89CD3" stroke-width="0.615012"/>
<mask id="path-18-outside-1" maskUnits="userSpaceOnUse" x="12.9277" y="9.45508" width="10" height="11" fill="black">
<rect fill="white" x="12.9277" y="9.45508" width="10" height="11"/>
<path d="M20.9757 13.0835C20.9365 12.9658 20.9365 12.8873 20.8972 12.8089C20.858 12.6912 20.8188 12.5735 20.7795 12.495C20.7403 12.4166 20.7011 12.3381 20.6618 12.2989C20.6226 12.2597 20.5834 12.1812 20.5442 12.142C20.5049 12.0635 20.4657 12.0243 20.4265 11.9458C20.4265 11.9066 20.3872 11.9066 20.3872 11.8674C20.348 11.8281 20.3088 11.7889 20.2695 11.7104C20.2303 11.6712 20.1911 11.632 20.1519 11.5535L20.1126 11.5143C20.0734 11.4751 19.9949 11.3966 19.9557 11.3574L19.9165 11.3181C19.8772 11.2789 19.7988 11.2397 19.7596 11.2005C19.7203 11.1612 19.6811 11.1612 19.6419 11.122L19.6026 11.0828C19.5634 11.0435 19.4849 11.0043 19.4457 11.0043C19.4065 11.0043 19.4065 10.9651 19.3673 10.9651C19.328 10.9651 19.2888 10.9258 19.2496 10.9258C19.2103 10.8866 19.1319 10.8866 19.0926 10.8474C19.0926 10.8474 19.0534 10.8474 19.0534 10.8081C19.0142 10.7689 18.9357 10.7689 18.8965 10.7297H18.8573C18.818 10.7297 18.7788 10.6905 18.7396 10.6905C18.7003 10.6905 18.7003 10.6905 18.6611 10.6512C18.6219 10.6512 18.5827 10.612 18.5434 10.612C18.5042 10.612 18.465 10.612 18.465 10.5728C18.4257 10.5728 18.3865 10.5728 18.3473 10.5335C18.308 10.5335 18.2688 10.5335 18.2296 10.4943C18.1904 10.4943 18.1511 10.4943 18.1119 10.4943C18.0727 10.4943 18.0727 10.4943 18.0334 10.4943C17.9942 10.4943 17.9157 10.4943 17.8765 10.4551C17.8373 10.4551 17.7981 10.4551 17.7588 10.4551H17.7196C17.6019 10.4551 17.5234 10.4551 17.4842 10.4551C17.445 10.4551 17.4058 10.4551 17.3665 10.4551H17.3273C17.2881 10.4551 17.2096 10.4551 17.1704 10.4551H17.1311C17.0919 10.4551 17.0527 10.4551 17.0135 10.4551C16.9742 10.4551 16.8958 10.4551 16.8565 10.4943C16.8173 10.4943 16.7781 10.4943 16.7781 10.4943C16.7388 10.4943 16.7388 10.4943 16.6996 10.4943C16.6604 10.4943 16.6211 10.4943 16.5819 10.5335C16.5427 10.5335 16.5427 10.5335 16.5035 10.5335C16.4642 10.5335 16.425 10.5728 16.3858 10.5728C16.3465 10.5728 16.3465 10.5728 16.3073 10.612C16.2681 10.612 16.2681 10.612 16.2289 10.6512C16.1896 10.6512 16.1112 10.6905 16.0719 10.7297C15.9542 10.7689 15.8758 10.8081 15.7581 10.8474C15.7581 10.8474 15.7189 10.8474 15.7189 10.8866C15.6796 10.9258 15.6012 10.9258 15.5619 10.9651C15.5227 10.9651 15.5227 11.0043 15.4835 11.0043C15.4442 11.0043 15.4442 11.0435 15.405 11.0435C15.3266 11.0828 15.2481 11.122 15.2089 11.1612C15.2089 11.1612 15.1696 11.1612 15.1696 11.2005C15.1304 11.2397 15.0912 11.2789 15.0519 11.3181C15.0127 11.3574 14.9735 11.3574 14.9343 11.3966C14.895 11.4358 14.895 11.4358 14.8558 11.4751C14.8166 11.5143 14.7773 11.5535 14.7381 11.5928C14.6989 11.632 14.6596 11.6712 14.6204 11.7104C14.5812 11.7497 14.542 11.8281 14.5027 11.8674C14.4635 11.9066 14.4635 11.9458 14.4243 11.9851C14.385 12.0635 14.3458 12.142 14.3066 12.2204C14.2673 12.2597 14.2673 12.2989 14.2281 12.3774C14.1889 12.4558 14.1497 12.495 14.1497 12.5735C14.0712 12.7697 14.032 13.005 13.9927 13.2404C13.9143 13.5935 13.9143 14.025 13.9535 14.4565C13.9535 14.4565 13.9535 14.6135 13.9927 14.8096C14.032 15.1627 14.0712 15.6727 14.1497 16.065C14.1889 16.1827 14.1889 16.2611 14.2281 16.3396V16.3788C14.2281 16.4181 14.2281 16.4573 14.2281 16.4965C14.2281 16.4965 14.2281 16.4965 14.1889 16.5357C14.1889 16.5357 14.1497 16.575 14.1104 16.575C14.032 16.6534 13.9535 16.7319 14.032 16.8888C14.0712 16.928 14.0712 17.0065 14.1104 17.0457C14.1497 17.085 14.1497 17.1242 14.1889 17.1634C14.2281 17.2027 14.2281 17.2027 14.2673 17.2419C14.3066 17.2811 14.3458 17.3203 14.385 17.3596C14.4243 17.3988 14.4243 17.3988 14.4635 17.438C14.5027 17.4773 14.542 17.5165 14.5812 17.5165C14.6204 17.5557 14.6596 17.5557 14.6989 17.595C14.7381 17.6342 14.7773 17.6342 14.8166 17.6342C14.8558 17.6342 14.8558 17.6342 14.895 17.6342C14.9343 17.6342 14.9735 17.6342 15.0127 17.6342C15.0519 17.6342 15.0912 17.6342 15.1304 17.595H15.1696C15.2481 17.595 15.3266 17.595 15.3658 17.595C15.405 17.595 15.405 17.595 15.4442 17.595C15.4835 17.595 15.4835 17.595 15.5227 17.595C15.5619 17.595 15.6404 17.6342 15.6796 17.6342C15.6796 17.6342 15.7189 17.6342 15.7189 17.6734C15.7189 17.6734 15.7581 17.7126 15.7581 17.7911C15.8758 18.2226 16.2681 18.4972 16.6996 18.4972H18.1904C18.6219 18.4972 19.0142 18.2226 19.1319 17.8303C19.1319 17.8303 19.1319 17.8303 19.1319 17.7911C19.1711 17.7519 19.2103 17.7126 19.2888 17.6734C19.328 17.6734 19.3673 17.6342 19.4065 17.6342C19.4457 17.6342 19.4457 17.6342 19.4849 17.6342C19.5242 17.6342 19.6026 17.6342 19.6419 17.6342H19.6811C19.7203 17.6342 19.7596 17.6342 19.7988 17.6342C19.838 17.6342 19.9165 17.6342 19.9557 17.6734H19.9949C20.0342 17.6734 20.0734 17.6734 20.1126 17.6734H20.1519H20.1911C20.2303 17.6734 20.2695 17.6342 20.3088 17.595C20.348 17.5557 20.3872 17.5557 20.4265 17.5165L20.4657 17.4773C20.5049 17.438 20.5442 17.3988 20.5834 17.3596C20.6226 17.3203 20.6618 17.2811 20.7011 17.2811C20.7403 17.2419 20.7795 17.2027 20.8188 17.1634C20.858 17.085 20.8972 17.0457 20.9365 17.0065C20.9365 16.9673 20.9757 16.9673 20.9757 16.9673C21.0149 16.8496 20.9757 16.7711 20.9365 16.7319C20.8972 16.6927 20.858 16.6534 20.8188 16.6142C20.7795 16.575 20.7403 16.5357 20.7795 16.4965C20.7795 16.4573 20.8188 16.4181 20.8188 16.3788C20.858 16.2219 20.8972 16.0258 20.9365 15.8296C20.9757 15.6335 20.9757 15.4373 21.0149 15.2804C21.0542 14.8881 21.0541 14.5742 21.0541 14.5742C21.0934 13.9466 21.0541 13.4758 20.9757 13.0835ZM16.6604 15.7904C16.6604 15.8296 16.6604 15.8296 16.6604 15.8688C16.6604 15.9473 16.6211 16.0258 16.5819 16.1042C16.5427 16.1827 16.5035 16.2219 16.4642 16.3004C16.425 16.3396 16.425 16.3396 16.3858 16.3788C16.3465 16.4181 16.3073 16.4573 16.2681 16.4573C16.2288 16.4573 16.2288 16.4965 16.1896 16.4965C16.1504 16.4965 16.1504 16.5357 16.1112 16.5357C16.0719 16.5357 15.9935 16.575 15.9542 16.575C15.915 16.575 15.8758 16.575 15.8365 16.575C15.7581 16.575 15.6796 16.575 15.6404 16.575H15.6012C15.5619 16.575 15.4835 16.575 15.4442 16.575C15.405 16.575 15.405 16.575 15.3658 16.575C15.3266 16.575 15.3266 16.575 15.2873 16.575C15.2089 16.575 15.1304 16.5357 15.0912 16.5357H15.0519C15.0127 16.4965 14.9735 16.4965 14.9343 16.4573C14.895 16.4181 14.8558 16.4181 14.8166 16.3788C14.7773 16.3396 14.7773 16.3396 14.7381 16.3004C14.6989 16.2219 14.6596 16.1434 14.6204 16.065C14.542 15.8296 14.5812 15.555 14.6204 15.4373C14.6596 15.3588 14.6989 15.3196 14.7381 15.2411C14.7773 15.2019 14.7773 15.2019 14.8166 15.1627C14.8558 15.1235 14.895 15.0842 14.9343 15.0842C14.9735 15.045 15.0127 15.045 15.0519 15.0058H15.0912C15.1696 14.9665 15.2089 14.9665 15.2873 14.9273C15.3266 14.9273 15.3266 14.9273 15.3658 14.9273C15.405 14.9273 15.405 14.9273 15.4442 14.9273C15.4835 14.9273 15.5619 14.9273 15.6012 14.8881H15.6404C15.7189 14.8881 15.7581 14.8881 15.8365 14.8881C15.8365 14.8881 15.8365 14.8881 15.8758 14.8881C15.915 14.8881 15.9542 14.8881 15.9935 14.8881C16.0719 14.8881 16.1112 14.9273 16.1504 14.9273C16.1896 14.9273 16.2289 14.9665 16.2289 14.9665C16.2681 14.9665 16.2681 15.0058 16.3073 15.0058C16.3465 15.045 16.3858 15.0842 16.425 15.1235C16.4642 15.1627 16.4642 15.1627 16.5035 15.2019C16.5427 15.2804 16.6212 15.3196 16.6212 15.3981C16.6604 15.4765 16.6604 15.5158 16.6996 15.5942C16.6604 15.5942 16.6604 15.6727 16.6604 15.7904ZM17.7981 17.085C17.7588 17.1242 17.7196 17.1634 17.6804 17.1634H17.6411C17.6019 17.1634 17.6019 17.1634 17.6019 17.1242C17.6019 16.928 17.4058 16.3788 17.4058 16.3788C17.4058 16.3788 17.3273 16.6142 17.2881 16.8104C17.2881 16.8888 17.2488 16.9673 17.2488 17.0065C17.2488 17.0457 17.2488 17.085 17.2488 17.1242C17.2488 17.2027 17.1704 17.1634 17.0919 17.1242L17.0527 17.085C17.0134 17.0457 16.9742 17.0065 16.935 16.928C16.8958 16.8496 16.8565 16.7319 16.8958 16.6534C16.8958 16.6142 16.935 16.6142 16.935 16.575C16.9742 16.4965 17.0134 16.4573 17.0527 16.4181C17.0527 16.3788 17.0919 16.3788 17.0919 16.3396C17.1311 16.3004 17.1311 16.2611 17.1704 16.2219C17.2096 16.1827 17.2096 16.1434 17.2488 16.1434H17.2881C17.3665 16.1434 17.4058 16.1434 17.4058 16.1434C17.4058 16.1434 17.5627 16.1042 17.6411 16.2219C17.6411 16.2219 17.6411 16.2219 17.6411 16.2611C17.6411 16.3004 17.6804 16.3004 17.6804 16.3396C17.7196 16.3788 17.7588 16.4573 17.7981 16.4965C17.8373 16.5357 17.8765 16.6142 17.9157 16.7319C17.9942 16.8104 17.9157 17.0065 17.7981 17.085ZM20.2695 15.9081C20.2303 16.0258 20.1911 16.1434 20.1519 16.2611C20.1519 16.3004 20.1126 16.3004 20.1126 16.3396C20.0734 16.3788 19.9949 16.4573 19.9557 16.4965C19.9557 16.4965 19.9165 16.4965 19.9165 16.5357C19.8772 16.575 19.838 16.575 19.7596 16.6142C19.7203 16.6142 19.6811 16.6534 19.6419 16.6534H19.6026C19.5634 16.6534 19.4849 16.6534 19.4457 16.6534C19.4065 16.6534 19.4065 16.6534 19.3673 16.6534C19.328 16.6534 19.2888 16.6534 19.2496 16.6534C19.2103 16.6534 19.1711 16.6534 19.0926 16.6534H19.0534C19.0534 16.6534 19.0534 16.6534 19.0142 16.6534C18.975 16.6534 18.8965 16.6534 18.8573 16.6142H18.818C18.7788 16.6142 18.7396 16.575 18.7003 16.575C18.6611 16.575 18.6611 16.5357 18.6219 16.5357C18.5827 16.4965 18.5434 16.4965 18.5042 16.4573C18.465 16.4181 18.4257 16.4181 18.4257 16.3788C18.3865 16.3396 18.3473 16.3004 18.308 16.2219C18.2688 16.1434 18.2296 16.0258 18.1904 15.9473C18.1904 15.9081 18.1904 15.9081 18.1904 15.8688C18.1904 15.7511 18.1904 15.6334 18.1904 15.555C18.2296 15.4765 18.2296 15.3588 18.308 15.2804C18.3473 15.2411 18.3865 15.1627 18.4257 15.1235C18.465 15.0842 18.5042 15.045 18.5042 15.045C18.5434 15.0058 18.5827 14.9665 18.6219 14.9665C18.6611 14.9665 18.6611 14.9273 18.7003 14.9273C18.7396 14.8881 18.7788 14.8881 18.818 14.8881H18.8573C18.8965 14.8881 18.9357 14.8881 19.0142 14.8881C19.0142 14.8881 19.0142 14.8881 19.0534 14.8881H19.0926C19.1319 14.8881 19.2103 14.8881 19.2496 14.8881C19.2888 14.8881 19.328 14.8881 19.3673 14.8881C19.4065 14.8881 19.4065 14.8881 19.4457 14.8881C19.4849 14.8881 19.5634 14.9273 19.6026 14.9273H19.6419C19.6811 14.9273 19.7203 14.9665 19.7596 14.9665C19.7988 15.0058 19.8772 15.0058 19.9165 15.045L19.9557 15.0842C20.0342 15.1235 20.0734 15.1627 20.1126 15.2411C20.1519 15.2804 20.1519 15.2804 20.1519 15.3196C20.1911 15.3588 20.2303 15.4373 20.2303 15.4765C20.2303 15.5158 20.2695 15.555 20.2695 15.6335C20.2695 15.5942 20.2695 15.7511 20.2695 15.9081Z"/>
</mask>
<path d="M20.9757 13.0835C20.9365 12.9658 20.9365 12.8873 20.8972 12.8089C20.858 12.6912 20.8188 12.5735 20.7795 12.495C20.7403 12.4166 20.7011 12.3381 20.6618 12.2989C20.6226 12.2597 20.5834 12.1812 20.5442 12.142C20.5049 12.0635 20.4657 12.0243 20.4265 11.9458C20.4265 11.9066 20.3872 11.9066 20.3872 11.8674C20.348 11.8281 20.3088 11.7889 20.2695 11.7104C20.2303 11.6712 20.1911 11.632 20.1519 11.5535L20.1126 11.5143C20.0734 11.4751 19.9949 11.3966 19.9557 11.3574L19.9165 11.3181C19.8772 11.2789 19.7988 11.2397 19.7596 11.2005C19.7203 11.1612 19.6811 11.1612 19.6419 11.122L19.6026 11.0828C19.5634 11.0435 19.4849 11.0043 19.4457 11.0043C19.4065 11.0043 19.4065 10.9651 19.3673 10.9651C19.328 10.9651 19.2888 10.9258 19.2496 10.9258C19.2103 10.8866 19.1319 10.8866 19.0926 10.8474C19.0926 10.8474 19.0534 10.8474 19.0534 10.8081C19.0142 10.7689 18.9357 10.7689 18.8965 10.7297H18.8573C18.818 10.7297 18.7788 10.6905 18.7396 10.6905C18.7003 10.6905 18.7003 10.6905 18.6611 10.6512C18.6219 10.6512 18.5827 10.612 18.5434 10.612C18.5042 10.612 18.465 10.612 18.465 10.5728C18.4257 10.5728 18.3865 10.5728 18.3473 10.5335C18.308 10.5335 18.2688 10.5335 18.2296 10.4943C18.1904 10.4943 18.1511 10.4943 18.1119 10.4943C18.0727 10.4943 18.0727 10.4943 18.0334 10.4943C17.9942 10.4943 17.9157 10.4943 17.8765 10.4551C17.8373 10.4551 17.7981 10.4551 17.7588 10.4551H17.7196C17.6019 10.4551 17.5234 10.4551 17.4842 10.4551C17.445 10.4551 17.4058 10.4551 17.3665 10.4551H17.3273C17.2881 10.4551 17.2096 10.4551 17.1704 10.4551H17.1311C17.0919 10.4551 17.0527 10.4551 17.0135 10.4551C16.9742 10.4551 16.8958 10.4551 16.8565 10.4943C16.8173 10.4943 16.7781 10.4943 16.7781 10.4943C16.7388 10.4943 16.7388 10.4943 16.6996 10.4943C16.6604 10.4943 16.6211 10.4943 16.5819 10.5335C16.5427 10.5335 16.5427 10.5335 16.5035 10.5335C16.4642 10.5335 16.425 10.5728 16.3858 10.5728C16.3465 10.5728 16.3465 10.5728 16.3073 10.612C16.2681 10.612 16.2681 10.612 16.2289 10.6512C16.1896 10.6512 16.1112 10.6905 16.0719 10.7297C15.9542 10.7689 15.8758 10.8081 15.7581 10.8474C15.7581 10.8474 15.7189 10.8474 15.7189 10.8866C15.6796 10.9258 15.6012 10.9258 15.5619 10.9651C15.5227 10.9651 15.5227 11.0043 15.4835 11.0043C15.4442 11.0043 15.4442 11.0435 15.405 11.0435C15.3266 11.0828 15.2481 11.122 15.2089 11.1612C15.2089 11.1612 15.1696 11.1612 15.1696 11.2005C15.1304 11.2397 15.0912 11.2789 15.0519 11.3181C15.0127 11.3574 14.9735 11.3574 14.9343 11.3966C14.895 11.4358 14.895 11.4358 14.8558 11.4751C14.8166 11.5143 14.7773 11.5535 14.7381 11.5928C14.6989 11.632 14.6596 11.6712 14.6204 11.7104C14.5812 11.7497 14.542 11.8281 14.5027 11.8674C14.4635 11.9066 14.4635 11.9458 14.4243 11.9851C14.385 12.0635 14.3458 12.142 14.3066 12.2204C14.2673 12.2597 14.2673 12.2989 14.2281 12.3774C14.1889 12.4558 14.1497 12.495 14.1497 12.5735C14.0712 12.7697 14.032 13.005 13.9927 13.2404C13.9143 13.5935 13.9143 14.025 13.9535 14.4565C13.9535 14.4565 13.9535 14.6135 13.9927 14.8096C14.032 15.1627 14.0712 15.6727 14.1497 16.065C14.1889 16.1827 14.1889 16.2611 14.2281 16.3396V16.3788C14.2281 16.4181 14.2281 16.4573 14.2281 16.4965C14.2281 16.4965 14.2281 16.4965 14.1889 16.5357C14.1889 16.5357 14.1497 16.575 14.1104 16.575C14.032 16.6534 13.9535 16.7319 14.032 16.8888C14.0712 16.928 14.0712 17.0065 14.1104 17.0457C14.1497 17.085 14.1497 17.1242 14.1889 17.1634C14.2281 17.2027 14.2281 17.2027 14.2673 17.2419C14.3066 17.2811 14.3458 17.3203 14.385 17.3596C14.4243 17.3988 14.4243 17.3988 14.4635 17.438C14.5027 17.4773 14.542 17.5165 14.5812 17.5165C14.6204 17.5557 14.6596 17.5557 14.6989 17.595C14.7381 17.6342 14.7773 17.6342 14.8166 17.6342C14.8558 17.6342 14.8558 17.6342 14.895 17.6342C14.9343 17.6342 14.9735 17.6342 15.0127 17.6342C15.0519 17.6342 15.0912 17.6342 15.1304 17.595H15.1696C15.2481 17.595 15.3266 17.595 15.3658 17.595C15.405 17.595 15.405 17.595 15.4442 17.595C15.4835 17.595 15.4835 17.595 15.5227 17.595C15.5619 17.595 15.6404 17.6342 15.6796 17.6342C15.6796 17.6342 15.7189 17.6342 15.7189 17.6734C15.7189 17.6734 15.7581 17.7126 15.7581 17.7911C15.8758 18.2226 16.2681 18.4972 16.6996 18.4972H18.1904C18.6219 18.4972 19.0142 18.2226 19.1319 17.8303C19.1319 17.8303 19.1319 17.8303 19.1319 17.7911C19.1711 17.7519 19.2103 17.7126 19.2888 17.6734C19.328 17.6734 19.3673 17.6342 19.4065 17.6342C19.4457 17.6342 19.4457 17.6342 19.4849 17.6342C19.5242 17.6342 19.6026 17.6342 19.6419 17.6342H19.6811C19.7203 17.6342 19.7596 17.6342 19.7988 17.6342C19.838 17.6342 19.9165 17.6342 19.9557 17.6734H19.9949C20.0342 17.6734 20.0734 17.6734 20.1126 17.6734H20.1519H20.1911C20.2303 17.6734 20.2695 17.6342 20.3088 17.595C20.348 17.5557 20.3872 17.5557 20.4265 17.5165L20.4657 17.4773C20.5049 17.438 20.5442 17.3988 20.5834 17.3596C20.6226 17.3203 20.6618 17.2811 20.7011 17.2811C20.7403 17.2419 20.7795 17.2027 20.8188 17.1634C20.858 17.085 20.8972 17.0457 20.9365 17.0065C20.9365 16.9673 20.9757 16.9673 20.9757 16.9673C21.0149 16.8496 20.9757 16.7711 20.9365 16.7319C20.8972 16.6927 20.858 16.6534 20.8188 16.6142C20.7795 16.575 20.7403 16.5357 20.7795 16.4965C20.7795 16.4573 20.8188 16.4181 20.8188 16.3788C20.858 16.2219 20.8972 16.0258 20.9365 15.8296C20.9757 15.6335 20.9757 15.4373 21.0149 15.2804C21.0542 14.8881 21.0541 14.5742 21.0541 14.5742C21.0934 13.9466 21.0541 13.4758 20.9757 13.0835ZM16.6604 15.7904C16.6604 15.8296 16.6604 15.8296 16.6604 15.8688C16.6604 15.9473 16.6211 16.0258 16.5819 16.1042C16.5427 16.1827 16.5035 16.2219 16.4642 16.3004C16.425 16.3396 16.425 16.3396 16.3858 16.3788C16.3465 16.4181 16.3073 16.4573 16.2681 16.4573C16.2288 16.4573 16.2288 16.4965 16.1896 16.4965C16.1504 16.4965 16.1504 16.5357 16.1112 16.5357C16.0719 16.5357 15.9935 16.575 15.9542 16.575C15.915 16.575 15.8758 16.575 15.8365 16.575C15.7581 16.575 15.6796 16.575 15.6404 16.575H15.6012C15.5619 16.575 15.4835 16.575 15.4442 16.575C15.405 16.575 15.405 16.575 15.3658 16.575C15.3266 16.575 15.3266 16.575 15.2873 16.575C15.2089 16.575 15.1304 16.5357 15.0912 16.5357H15.0519C15.0127 16.4965 14.9735 16.4965 14.9343 16.4573C14.895 16.4181 14.8558 16.4181 14.8166 16.3788C14.7773 16.3396 14.7773 16.3396 14.7381 16.3004C14.6989 16.2219 14.6596 16.1434 14.6204 16.065C14.542 15.8296 14.5812 15.555 14.6204 15.4373C14.6596 15.3588 14.6989 15.3196 14.7381 15.2411C14.7773 15.2019 14.7773 15.2019 14.8166 15.1627C14.8558 15.1235 14.895 15.0842 14.9343 15.0842C14.9735 15.045 15.0127 15.045 15.0519 15.0058H15.0912C15.1696 14.9665 15.2089 14.9665 15.2873 14.9273C15.3266 14.9273 15.3266 14.9273 15.3658 14.9273C15.405 14.9273 15.405 14.9273 15.4442 14.9273C15.4835 14.9273 15.5619 14.9273 15.6012 14.8881H15.6404C15.7189 14.8881 15.7581 14.8881 15.8365 14.8881C15.8365 14.8881 15.8365 14.8881 15.8758 14.8881C15.915 14.8881 15.9542 14.8881 15.9935 14.8881C16.0719 14.8881 16.1112 14.9273 16.1504 14.9273C16.1896 14.9273 16.2289 14.9665 16.2289 14.9665C16.2681 14.9665 16.2681 15.0058 16.3073 15.0058C16.3465 15.045 16.3858 15.0842 16.425 15.1235C16.4642 15.1627 16.4642 15.1627 16.5035 15.2019C16.5427 15.2804 16.6212 15.3196 16.6212 15.3981C16.6604 15.4765 16.6604 15.5158 16.6996 15.5942C16.6604 15.5942 16.6604 15.6727 16.6604 15.7904ZM17.7981 17.085C17.7588 17.1242 17.7196 17.1634 17.6804 17.1634H17.6411C17.6019 17.1634 17.6019 17.1634 17.6019 17.1242C17.6019 16.928 17.4058 16.3788 17.4058 16.3788C17.4058 16.3788 17.3273 16.6142 17.2881 16.8104C17.2881 16.8888 17.2488 16.9673 17.2488 17.0065C17.2488 17.0457 17.2488 17.085 17.2488 17.1242C17.2488 17.2027 17.1704 17.1634 17.0919 17.1242L17.0527 17.085C17.0134 17.0457 16.9742 17.0065 16.935 16.928C16.8958 16.8496 16.8565 16.7319 16.8958 16.6534C16.8958 16.6142 16.935 16.6142 16.935 16.575C16.9742 16.4965 17.0134 16.4573 17.0527 16.4181C17.0527 16.3788 17.0919 16.3788 17.0919 16.3396C17.1311 16.3004 17.1311 16.2611 17.1704 16.2219C17.2096 16.1827 17.2096 16.1434 17.2488 16.1434H17.2881C17.3665 16.1434 17.4058 16.1434 17.4058 16.1434C17.4058 16.1434 17.5627 16.1042 17.6411 16.2219C17.6411 16.2219 17.6411 16.2219 17.6411 16.2611C17.6411 16.3004 17.6804 16.3004 17.6804 16.3396C17.7196 16.3788 17.7588 16.4573 17.7981 16.4965C17.8373 16.5357 17.8765 16.6142 17.9157 16.7319C17.9942 16.8104 17.9157 17.0065 17.7981 17.085ZM20.2695 15.9081C20.2303 16.0258 20.1911 16.1434 20.1519 16.2611C20.1519 16.3004 20.1126 16.3004 20.1126 16.3396C20.0734 16.3788 19.9949 16.4573 19.9557 16.4965C19.9557 16.4965 19.9165 16.4965 19.9165 16.5357C19.8772 16.575 19.838 16.575 19.7596 16.6142C19.7203 16.6142 19.6811 16.6534 19.6419 16.6534H19.6026C19.5634 16.6534 19.4849 16.6534 19.4457 16.6534C19.4065 16.6534 19.4065 16.6534 19.3673 16.6534C19.328 16.6534 19.2888 16.6534 19.2496 16.6534C19.2103 16.6534 19.1711 16.6534 19.0926 16.6534H19.0534C19.0534 16.6534 19.0534 16.6534 19.0142 16.6534C18.975 16.6534 18.8965 16.6534 18.8573 16.6142H18.818C18.7788 16.6142 18.7396 16.575 18.7003 16.575C18.6611 16.575 18.6611 16.5357 18.6219 16.5357C18.5827 16.4965 18.5434 16.4965 18.5042 16.4573C18.465 16.4181 18.4257 16.4181 18.4257 16.3788C18.3865 16.3396 18.3473 16.3004 18.308 16.2219C18.2688 16.1434 18.2296 16.0258 18.1904 15.9473C18.1904 15.9081 18.1904 15.9081 18.1904 15.8688C18.1904 15.7511 18.1904 15.6334 18.1904 15.555C18.2296 15.4765 18.2296 15.3588 18.308 15.2804C18.3473 15.2411 18.3865 15.1627 18.4257 15.1235C18.465 15.0842 18.5042 15.045 18.5042 15.045C18.5434 15.0058 18.5827 14.9665 18.6219 14.9665C18.6611 14.9665 18.6611 14.9273 18.7003 14.9273C18.7396 14.8881 18.7788 14.8881 18.818 14.8881H18.8573C18.8965 14.8881 18.9357 14.8881 19.0142 14.8881C19.0142 14.8881 19.0142 14.8881 19.0534 14.8881H19.0926C19.1319 14.8881 19.2103 14.8881 19.2496 14.8881C19.2888 14.8881 19.328 14.8881 19.3673 14.8881C19.4065 14.8881 19.4065 14.8881 19.4457 14.8881C19.4849 14.8881 19.5634 14.9273 19.6026 14.9273H19.6419C19.6811 14.9273 19.7203 14.9665 19.7596 14.9665C19.7988 15.0058 19.8772 15.0058 19.9165 15.045L19.9557 15.0842C20.0342 15.1235 20.0734 15.1627 20.1126 15.2411C20.1519 15.2804 20.1519 15.2804 20.1519 15.3196C20.1911 15.3588 20.2303 15.4373 20.2303 15.4765C20.2303 15.5158 20.2695 15.555 20.2695 15.6335C20.2695 15.5942 20.2695 15.7511 20.2695 15.9081Z" fill="#F89CD3"/>
<path d="M20.9757 13.0835C20.9365 12.9658 20.9365 12.8873 20.8972 12.8089C20.858 12.6912 20.8188 12.5735 20.7795 12.495C20.7403 12.4166 20.7011 12.3381 20.6618 12.2989C20.6226 12.2597 20.5834 12.1812 20.5442 12.142C20.5049 12.0635 20.4657 12.0243 20.4265 11.9458C20.4265 11.9066 20.3872 11.9066 20.3872 11.8674C20.348 11.8281 20.3088 11.7889 20.2695 11.7104C20.2303 11.6712 20.1911 11.632 20.1519 11.5535L20.1126 11.5143C20.0734 11.4751 19.9949 11.3966 19.9557 11.3574L19.9165 11.3181C19.8772 11.2789 19.7988 11.2397 19.7596 11.2005C19.7203 11.1612 19.6811 11.1612 19.6419 11.122L19.6026 11.0828C19.5634 11.0435 19.4849 11.0043 19.4457 11.0043C19.4065 11.0043 19.4065 10.9651 19.3673 10.9651C19.328 10.9651 19.2888 10.9258 19.2496 10.9258C19.2103 10.8866 19.1319 10.8866 19.0926 10.8474C19.0926 10.8474 19.0534 10.8474 19.0534 10.8081C19.0142 10.7689 18.9357 10.7689 18.8965 10.7297H18.8573C18.818 10.7297 18.7788 10.6905 18.7396 10.6905C18.7003 10.6905 18.7003 10.6905 18.6611 10.6512C18.6219 10.6512 18.5827 10.612 18.5434 10.612C18.5042 10.612 18.465 10.612 18.465 10.5728C18.4257 10.5728 18.3865 10.5728 18.3473 10.5335C18.308 10.5335 18.2688 10.5335 18.2296 10.4943C18.1904 10.4943 18.1511 10.4943 18.1119 10.4943C18.0727 10.4943 18.0727 10.4943 18.0334 10.4943C17.9942 10.4943 17.9157 10.4943 17.8765 10.4551C17.8373 10.4551 17.7981 10.4551 17.7588 10.4551H17.7196C17.6019 10.4551 17.5234 10.4551 17.4842 10.4551C17.445 10.4551 17.4058 10.4551 17.3665 10.4551H17.3273C17.2881 10.4551 17.2096 10.4551 17.1704 10.4551H17.1311C17.0919 10.4551 17.0527 10.4551 17.0135 10.4551C16.9742 10.4551 16.8958 10.4551 16.8565 10.4943C16.8173 10.4943 16.7781 10.4943 16.7781 10.4943C16.7388 10.4943 16.7388 10.4943 16.6996 10.4943C16.6604 10.4943 16.6211 10.4943 16.5819 10.5335C16.5427 10.5335 16.5427 10.5335 16.5035 10.5335C16.4642 10.5335 16.425 10.5728 16.3858 10.5728C16.3465 10.5728 16.3465 10.5728 16.3073 10.612C16.2681 10.612 16.2681 10.612 16.2289 10.6512C16.1896 10.6512 16.1112 10.6905 16.0719 10.7297C15.9542 10.7689 15.8758 10.8081 15.7581 10.8474C15.7581 10.8474 15.7189 10.8474 15.7189 10.8866C15.6796 10.9258 15.6012 10.9258 15.5619 10.9651C15.5227 10.9651 15.5227 11.0043 15.4835 11.0043C15.4442 11.0043 15.4442 11.0435 15.405 11.0435C15.3266 11.0828 15.2481 11.122 15.2089 11.1612C15.2089 11.1612 15.1696 11.1612 15.1696 11.2005C15.1304 11.2397 15.0912 11.2789 15.0519 11.3181C15.0127 11.3574 14.9735 11.3574 14.9343 11.3966C14.895 11.4358 14.895 11.4358 14.8558 11.4751C14.8166 11.5143 14.7773 11.5535 14.7381 11.5928C14.6989 11.632 14.6596 11.6712 14.6204 11.7104C14.5812 11.7497 14.542 11.8281 14.5027 11.8674C14.4635 11.9066 14.4635 11.9458 14.4243 11.9851C14.385 12.0635 14.3458 12.142 14.3066 12.2204C14.2673 12.2597 14.2673 12.2989 14.2281 12.3774C14.1889 12.4558 14.1497 12.495 14.1497 12.5735C14.0712 12.7697 14.032 13.005 13.9927 13.2404C13.9143 13.5935 13.9143 14.025 13.9535 14.4565C13.9535 14.4565 13.9535 14.6135 13.9927 14.8096C14.032 15.1627 14.0712 15.6727 14.1497 16.065C14.1889 16.1827 14.1889 16.2611 14.2281 16.3396V16.3788C14.2281 16.4181 14.2281 16.4573 14.2281 16.4965C14.2281 16.4965 14.2281 16.4965 14.1889 16.5357C14.1889 16.5357 14.1497 16.575 14.1104 16.575C14.032 16.6534 13.9535 16.7319 14.032 16.8888C14.0712 16.928 14.0712 17.0065 14.1104 17.0457C14.1497 17.085 14.1497 17.1242 14.1889 17.1634C14.2281 17.2027 14.2281 17.2027 14.2673 17.2419C14.3066 17.2811 14.3458 17.3203 14.385 17.3596C14.4243 17.3988 14.4243 17.3988 14.4635 17.438C14.5027 17.4773 14.542 17.5165 14.5812 17.5165C14.6204 17.5557 14.6596 17.5557 14.6989 17.595C14.7381 17.6342 14.7773 17.6342 14.8166 17.6342C14.8558 17.6342 14.8558 17.6342 14.895 17.6342C14.9343 17.6342 14.9735 17.6342 15.0127 17.6342C15.0519 17.6342 15.0912 17.6342 15.1304 17.595H15.1696C15.2481 17.595 15.3266 17.595 15.3658 17.595C15.405 17.595 15.405 17.595 15.4442 17.595C15.4835 17.595 15.4835 17.595 15.5227 17.595C15.5619 17.595 15.6404 17.6342 15.6796 17.6342C15.6796 17.6342 15.7189 17.6342 15.7189 17.6734C15.7189 17.6734 15.7581 17.7126 15.7581 17.7911C15.8758 18.2226 16.2681 18.4972 16.6996 18.4972H18.1904C18.6219 18.4972 19.0142 18.2226 19.1319 17.8303C19.1319 17.8303 19.1319 17.8303 19.1319 17.7911C19.1711 17.7519 19.2103 17.7126 19.2888 17.6734C19.328 17.6734 19.3673 17.6342 19.4065 17.6342C19.4457 17.6342 19.4457 17.6342 19.4849 17.6342C19.5242 17.6342 19.6026 17.6342 19.6419 17.6342H19.6811C19.7203 17.6342 19.7596 17.6342 19.7988 17.6342C19.838 17.6342 19.9165 17.6342 19.9557 17.6734H19.9949C20.0342 17.6734 20.0734 17.6734 20.1126 17.6734H20.1519H20.1911C20.2303 17.6734 20.2695 17.6342 20.3088 17.595C20.348 17.5557 20.3872 17.5557 20.4265 17.5165L20.4657 17.4773C20.5049 17.438 20.5442 17.3988 20.5834 17.3596C20.6226 17.3203 20.6618 17.2811 20.7011 17.2811C20.7403 17.2419 20.7795 17.2027 20.8188 17.1634C20.858 17.085 20.8972 17.0457 20.9365 17.0065C20.9365 16.9673 20.9757 16.9673 20.9757 16.9673C21.0149 16.8496 20.9757 16.7711 20.9365 16.7319C20.8972 16.6927 20.858 16.6534 20.8188 16.6142C20.7795 16.575 20.7403 16.5357 20.7795 16.4965C20.7795 16.4573 20.8188 16.4181 20.8188 16.3788C20.858 16.2219 20.8972 16.0258 20.9365 15.8296C20.9757 15.6335 20.9757 15.4373 21.0149 15.2804C21.0542 14.8881 21.0541 14.5742 21.0541 14.5742C21.0934 13.9466 21.0541 13.4758 20.9757 13.0835ZM16.6604 15.7904C16.6604 15.8296 16.6604 15.8296 16.6604 15.8688C16.6604 15.9473 16.6211 16.0258 16.5819 16.1042C16.5427 16.1827 16.5035 16.2219 16.4642 16.3004C16.425 16.3396 16.425 16.3396 16.3858 16.3788C16.3465 16.4181 16.3073 16.4573 16.2681 16.4573C16.2288 16.4573 16.2288 16.4965 16.1896 16.4965C16.1504 16.4965 16.1504 16.5357 16.1112 16.5357C16.0719 16.5357 15.9935 16.575 15.9542 16.575C15.915 16.575 15.8758 16.575 15.8365 16.575C15.7581 16.575 15.6796 16.575 15.6404 16.575H15.6012C15.5619 16.575 15.4835 16.575 15.4442 16.575C15.405 16.575 15.405 16.575 15.3658 16.575C15.3266 16.575 15.3266 16.575 15.2873 16.575C15.2089 16.575 15.1304 16.5357 15.0912 16.5357H15.0519C15.0127 16.4965 14.9735 16.4965 14.9343 16.4573C14.895 16.4181 14.8558 16.4181 14.8166 16.3788C14.7773 16.3396 14.7773 16.3396 14.7381 16.3004C14.6989 16.2219 14.6596 16.1434 14.6204 16.065C14.542 15.8296 14.5812 15.555 14.6204 15.4373C14.6596 15.3588 14.6989 15.3196 14.7381 15.2411C14.7773 15.2019 14.7773 15.2019 14.8166 15.1627C14.8558 15.1235 14.895 15.0842 14.9343 15.0842C14.9735 15.045 15.0127 15.045 15.0519 15.0058H15.0912C15.1696 14.9665 15.2089 14.9665 15.2873 14.9273C15.3266 14.9273 15.3266 14.9273 15.3658 14.9273C15.405 14.9273 15.405 14.9273 15.4442 14.9273C15.4835 14.9273 15.5619 14.9273 15.6012 14.8881H15.6404C15.7189 14.8881 15.7581 14.8881 15.8365 14.8881C15.8365 14.8881 15.8365 14.8881 15.8758 14.8881C15.915 14.8881 15.9542 14.8881 15.9935 14.8881C16.0719 14.8881 16.1112 14.9273 16.1504 14.9273C16.1896 14.9273 16.2289 14.9665 16.2289 14.9665C16.2681 14.9665 16.2681 15.0058 16.3073 15.0058C16.3465 15.045 16.3858 15.0842 16.425 15.1235C16.4642 15.1627 16.4642 15.1627 16.5035 15.2019C16.5427 15.2804 16.6212 15.3196 16.6212 15.3981C16.6604 15.4765 16.6604 15.5158 16.6996 15.5942C16.6604 15.5942 16.6604 15.6727 16.6604 15.7904ZM17.7981 17.085C17.7588 17.1242 17.7196 17.1634 17.6804 17.1634H17.6411C17.6019 17.1634 17.6019 17.1634 17.6019 17.1242C17.6019 16.928 17.4058 16.3788 17.4058 16.3788C17.4058 16.3788 17.3273 16.6142 17.2881 16.8104C17.2881 16.8888 17.2488 16.9673 17.2488 17.0065C17.2488 17.0457 17.2488 17.085 17.2488 17.1242C17.2488 17.2027 17.1704 17.1634 17.0919 17.1242L17.0527 17.085C17.0134 17.0457 16.9742 17.0065 16.935 16.928C16.8958 16.8496 16.8565 16.7319 16.8958 16.6534C16.8958 16.6142 16.935 16.6142 16.935 16.575C16.9742 16.4965 17.0134 16.4573 17.0527 16.4181C17.0527 16.3788 17.0919 16.3788 17.0919 16.3396C17.1311 16.3004 17.1311 16.2611 17.1704 16.2219C17.2096 16.1827 17.2096 16.1434 17.2488 16.1434H17.2881C17.3665 16.1434 17.4058 16.1434 17.4058 16.1434C17.4058 16.1434 17.5627 16.1042 17.6411 16.2219C17.6411 16.2219 17.6411 16.2219 17.6411 16.2611C17.6411 16.3004 17.6804 16.3004 17.6804 16.3396C17.7196 16.3788 17.7588 16.4573 17.7981 16.4965C17.8373 16.5357 17.8765 16.6142 17.9157 16.7319C17.9942 16.8104 17.9157 17.0065 17.7981 17.085ZM20.2695 15.9081C20.2303 16.0258 20.1911 16.1434 20.1519 16.2611C20.1519 16.3004 20.1126 16.3004 20.1126 16.3396C20.0734 16.3788 19.9949 16.4573 19.9557 16.4965C19.9557 16.4965 19.9165 16.4965 19.9165 16.5357C19.8772 16.575 19.838 16.575 19.7596 16.6142C19.7203 16.6142 19.6811 16.6534 19.6419 16.6534H19.6026C19.5634 16.6534 19.4849 16.6534 19.4457 16.6534C19.4065 16.6534 19.4065 16.6534 19.3673 16.6534C19.328 16.6534 19.2888 16.6534 19.2496 16.6534C19.2103 16.6534 19.1711 16.6534 19.0926 16.6534H19.0534C19.0534 16.6534 19.0534 16.6534 19.0142 16.6534C18.975 16.6534 18.8965 16.6534 18.8573 16.6142H18.818C18.7788 16.6142 18.7396 16.575 18.7003 16.575C18.6611 16.575 18.6611 16.5357 18.6219 16.5357C18.5827 16.4965 18.5434 16.4965 18.5042 16.4573C18.465 16.4181 18.4257 16.4181 18.4257 16.3788C18.3865 16.3396 18.3473 16.3004 18.308 16.2219C18.2688 16.1434 18.2296 16.0258 18.1904 15.9473C18.1904 15.9081 18.1904 15.9081 18.1904 15.8688C18.1904 15.7511 18.1904 15.6334 18.1904 15.555C18.2296 15.4765 18.2296 15.3588 18.308 15.2804C18.3473 15.2411 18.3865 15.1627 18.4257 15.1235C18.465 15.0842 18.5042 15.045 18.5042 15.045C18.5434 15.0058 18.5827 14.9665 18.6219 14.9665C18.6611 14.9665 18.6611 14.9273 18.7003 14.9273C18.7396 14.8881 18.7788 14.8881 18.818 14.8881H18.8573C18.8965 14.8881 18.9357 14.8881 19.0142 14.8881C19.0142 14.8881 19.0142 14.8881 19.0534 14.8881H19.0926C19.1319 14.8881 19.2103 14.8881 19.2496 14.8881C19.2888 14.8881 19.328 14.8881 19.3673 14.8881C19.4065 14.8881 19.4065 14.8881 19.4457 14.8881C19.4849 14.8881 19.5634 14.9273 19.6026 14.9273H19.6419C19.6811 14.9273 19.7203 14.9665 19.7596 14.9665C19.7988 15.0058 19.8772 15.0058 19.9165 15.045L19.9557 15.0842C20.0342 15.1235 20.0734 15.1627 20.1126 15.2411C20.1519 15.2804 20.1519 15.2804 20.1519 15.3196C20.1911 15.3588 20.2303 15.4373 20.2303 15.4765C20.2303 15.5158 20.2695 15.555 20.2695 15.6335C20.2695 15.5942 20.2695 15.7511 20.2695 15.9081Z" stroke="black" stroke-width="2" mask="url(#path-18-outside-1)"/>
</svg>
