<svg width="35" height="36" viewBox="0 0 35 36" fill="none" xmlns="http://www.w3.org/2000/svg">
<g clip-path="url(#clip0)">
<path d="M34 18.2598C34 27.3725 26.6127 34.7598 17.5 34.7598C8.3873 34.7598 1 27.3725 1 18.2598C1 9.14707 8.3873 1.75977 17.5 1.75977C26.6127 1.75977 34 9.14707 34 18.2598Z" fill="black" stroke="#5AC3FF" stroke-width="2"/>
<path fill-rule="evenodd" clip-rule="evenodd" d="M24.4283 19.0734V12.4862C24.4283 11.8485 23.9113 11.3315 23.2736 11.3315H11.7269C11.0892 11.3315 10.5723 11.8485 10.5723 12.4862V19.0734H24.4283Z" fill="#3FB6FF"/>
<path fill-rule="evenodd" clip-rule="evenodd" d="M26.0607 23.5642C26.2194 23.9214 26.1866 24.3347 25.9736 24.6624C25.7605 24.9901 25.3962 25.1877 25.0053 25.1877H9.99466C9.6038 25.1877 9.23945 24.9901 9.02642 24.6624C8.81339 24.3347 8.78061 23.9214 8.93929 23.5642L10.572 19.9917H24.428L26.0607 23.5642Z" fill="#3FB6FF"/>
<path d="M15.4121 22.8779H16.5668L19.5893 22.8779" stroke="black" stroke-width="1.15467" stroke-linecap="round" stroke-linejoin="round"/>
<path d="M11.5195 13.4404C11.5195 12.8881 11.9672 12.4404 12.5195 12.4404H22.4827C23.0349 12.4404 23.4827 12.8881 23.4827 13.4404V18.2724H11.5195V13.4404Z" fill="black"/>
<path d="M15.997 9.81777C15.3247 9.81777 14.7797 10.3628 14.7797 11.0351V13.4871C14.7797 14.1595 15.3247 14.7045 15.997 14.7045H19.2664C19.9387 14.7045 20.4837 14.1595 20.4837 13.4871V11.0351C20.4837 10.3628 19.9387 9.81777 19.2664 9.81777H15.997Z" fill="#3FB6FF" stroke="black" stroke-width="0.8" stroke-linecap="round" stroke-linejoin="round"/>
<path d="M16.8145 10.2176V9.4003C16.8145 8.4975 16.0826 7.76562 15.1798 7.76562C14.277 7.76562 13.5451 8.4975 13.5451 9.4003" stroke="#3FB6FF" stroke-width="0.81734" stroke-linecap="round" stroke-linejoin="round"/>
<path d="M17.6321 12.0723C17.7449 12.0723 17.8364 12.1637 17.8364 12.2766C17.8364 12.3895 17.7449 12.4809 17.6321 12.4809C17.5192 12.4809 17.4277 12.3895 17.4277 12.2766C17.4277 12.1637 17.5192 12.0723 17.6321 12.0723" stroke="black" stroke-width="0.81734" stroke-linecap="round" stroke-linejoin="round"/>
</g>
<defs>
<clipPath id="clip0">
<rect width="35" height="35" fill="white" transform="translate(0 0.759766)"/>
</clipPath>
</defs>
</svg>
