<svg width="35" height="36" viewBox="0 0 35 36" fill="none" xmlns="http://www.w3.org/2000/svg">
<path d="M34 18.2595C34 27.3722 26.6127 34.7595 17.5 34.7595C8.3873 34.7595 1 27.3722 1 18.2595C1 9.14682 8.3873 1.75952 17.5 1.75952C26.6127 1.75952 34 9.14682 34 18.2595Z" fill="black" stroke="#F89CD3" stroke-width="2"/>
<path d="M13.207 17.7508C14.3068 16.6539 17.1719 16.739 17.8779 17.7508" stroke="#F89CD3" stroke-width="1.7" stroke-linecap="round" stroke-linejoin="round"/>
<path d="M11.1523 15.2894C13.7962 12.8591 17.8583 12.8501 20.5128 15.2688" stroke="#F89CD3" stroke-width="1.7" stroke-linecap="round" stroke-linejoin="round"/>
<path d="M9.50195 12.49C13.2098 9.51416 18.488 9.51623 22.1936 12.495" stroke="#F89CD3" stroke-width="1.7" stroke-linecap="round" stroke-linejoin="round"/>
<path fill-rule="evenodd" clip-rule="evenodd" d="M22.143 26.7917C24.4991 26.7917 26.4091 24.8817 26.4091 22.5256C26.4091 20.1695 24.4991 18.2595 22.143 18.2595C19.7869 18.2595 17.877 20.1695 17.877 22.5256C17.877 24.8817 19.7869 26.7917 22.143 26.7917Z" fill="#F89CD3"/>
<path d="M23.7425 20.925L20.543 24.1246" stroke="black" stroke-width="1.13241" stroke-linecap="round" stroke-linejoin="round"/>
<path d="M20.543 20.925L23.7425 24.1246" stroke="black" stroke-width="1.13241" stroke-linecap="round" stroke-linejoin="round"/>
</svg>
