<svg width="35" height="36" viewBox="0 0 35 36" fill="none" xmlns="http://www.w3.org/2000/svg">
<g clip-path="url(#clip0)">
<path d="M34 18.2598C34 27.3725 26.6127 34.7598 17.5 34.7598C8.3873 34.7598 1 27.3725 1 18.2598C1 9.14707 8.3873 1.75977 17.5 1.75977C26.6127 1.75977 34 9.14707 34 18.2598Z" fill="black" stroke="#95ECEB" stroke-width="2"/>
<rect x="9.64453" y="12.2012" width="15.7095" height="12.1173" rx="1.08394" fill="#37FFF2"/>
<path d="M20.0432 20.1647C19.7187 19.7206 19.8462 19.3484 19.9555 18.8173C20.0559 18.3297 19.3765 18.4933 19.1583 18.5781C18.5107 18.83 18.026 19.0927 17.4681 19.479C17.2845 19.6061 16.7823 20.1322 16.328 19.9654C15.6692 19.7235 16.8097 18.7748 17.1332 18.3589C17.2323 18.2315 18.0911 17.0952 17.4202 17.0952C17.1942 17.0952 16.8382 17.3663 16.8382 17.3663C16.8382 17.3663 14.886 18.9489 14.1036 19.4113C13.8198 19.579 13.2807 19.6318 12.9874 19.495C12.7791 19.3978 12.2731 19.0981 12.3695 18.315C12.4659 17.5319 13.431 17.2669 13.5136 17.5975" stroke="black" stroke-linecap="round"/>
<path d="M26.7649 10.279C26.3837 10.0752 25.9095 10.2164 25.7018 10.5956L23.8748 13.9318C23.6642 14.3165 23.8079 14.799 24.1946 15.0057L24.813 15.3363C25.1943 15.5401 25.6685 15.3988 25.8761 15.0197L27.7031 11.6835C27.9138 11.2988 27.77 10.8163 27.3833 10.6096L26.7649 10.279Z" fill="#37FFF2" stroke="black"/>
<rect x="26.9277" y="10.1167" width="0.550592" height="0.9068" rx="0.275296" transform="rotate(29.8549 26.9277 10.1167)" fill="#37FFF2"/>
<path d="M24.0329 15.0099C23.649 14.8047 23.1713 14.9495 22.9661 15.3335L21.366 18.3271C21.3281 18.3979 21.3013 18.4741 21.2865 18.553L21.0865 19.6164C20.9472 20.3574 21.8276 20.8524 22.3883 20.3484L23.2097 19.61C23.2778 19.5487 23.3347 19.4761 23.3779 19.3953L24.975 16.4073C25.1803 16.0234 25.0354 15.5457 24.6514 15.3405L24.0329 15.0099Z" fill="#37FFF2" stroke="black"/>
</g>
<defs>
<clipPath id="clip0">
<rect width="35" height="35" fill="white" transform="translate(0 0.759766)"/>
</clipPath>
</defs>
</svg>
