<svg width="35" height="36" viewBox="0 0 35 36" fill="none" xmlns="http://www.w3.org/2000/svg">
<path d="M34 18.2595C34 27.3722 26.6127 34.7595 17.5 34.7595C8.3873 34.7595 1 27.3722 1 18.2595C1 9.14682 8.3873 1.75952 17.5 1.75952C26.6127 1.75952 34 9.14682 34 18.2595Z" fill="black" stroke="#F89CD3" stroke-width="2"/>
<rect x="8.91211" y="11.8184" width="17.3024" height="11.729" rx="1.56489" fill="#F89CD3"/>
<circle cx="14.1631" cy="15.4722" r="1.83107" fill="black"/>
<path d="M18.0755 21.1696C18.0755 20.7133 17.9743 20.2614 17.7777 19.8398C17.5812 19.4182 17.293 19.0351 16.9298 18.7124C16.5665 18.3897 16.1353 18.1337 15.6607 17.9591C15.1861 17.7845 14.6774 17.6946 14.1637 17.6946C13.65 17.6946 13.1414 17.7845 12.6668 17.9591C12.1922 18.1337 11.7609 18.3897 11.3977 18.7124C11.0344 19.0351 10.7463 19.4182 10.5497 19.8398C10.3531 20.2614 10.252 20.7133 10.252 21.1696L14.1637 21.1696H18.0755Z" fill="black"/>
<circle cx="19.1474" cy="14.1662" r="0.588805" fill="black"/>
<circle cx="21.3681" cy="14.1662" r="0.588805" fill="black"/>
<circle cx="23.5888" cy="14.1662" r="0.588805" fill="black"/>
<circle cx="23.435" cy="21.0019" r="3.69871" fill="#F89CD3" stroke="black" stroke-width="0.793282" stroke-linecap="round" stroke-linejoin="round"/>
<path fill-rule="evenodd" clip-rule="evenodd" d="M24.0313 18.3237L21.6859 21.0544C21.6483 21.0986 21.6398 21.1606 21.6642 21.2133C21.6885 21.266 21.7413 21.2997 21.7993 21.2996H22.8409V23.6803L25.1859 20.9496C25.2235 20.9055 25.232 20.8436 25.2077 20.7909C25.1834 20.7383 25.1308 20.7045 25.0728 20.7044H24.0313V18.3237Z" fill="black"/>
</svg>
