<svg width="35" height="36" viewBox="0 0 35 36" fill="none" xmlns="http://www.w3.org/2000/svg">
<path d="M34 18.2595C34 27.3722 26.6127 34.7595 17.5 34.7595C8.3873 34.7595 1 27.3722 1 18.2595C1 9.14682 8.3873 1.75952 17.5 1.75952C26.6127 1.75952 34 9.14682 34 18.2595Z" fill="black" stroke="#F89CD3" stroke-width="2"/>
<path d="M14.1792 16.5194C13.7417 16.6798 13.3479 16.8466 12.9417 16.962C11.798 17.2957 10.1667 18.0719 9.97299 19.2717C9.82299 20.1955 10.4294 26.6984 10.4294 26.6984H12.2027C12.2027 26.6984 11.9183 21.9536 11.8933 21.2223C11.8746 20.6192 12.1933 20.2728 12.7746 20.2663C15.8558 20.2599 19.1392 20.2599 22.2266 20.2663C22.8079 20.2663 23.1266 20.6192 23.1016 21.2287C23.0578 22.3514 22.8176 26.6984 22.8176 26.6984L24.5012 26.7176C24.5012 26.7176 25.1852 20.0223 24.9727 19.0022C24.7727 18.0142 23.2165 17.3406 22.2603 17.0262C21.7853 16.8722 21.3228 16.6926 20.829 16.513C20.929 16.3205 21.0103 16.1665 21.0915 16.0061C21.5728 15.0245 21.7228 14.0044 21.4415 12.9266C21.0853 11.5537 20.4603 10.3411 19.4478 9.35955C18.2166 8.15983 16.7416 8.17266 15.5292 9.39163C14.4167 10.5015 13.7417 11.8616 13.4729 13.4142C13.3042 14.3701 13.5354 15.2619 13.9667 16.1088C14.0229 16.2307 14.0917 16.3526 14.1792 16.5194ZM20.0103 14.2739C20.0041 14.2482 20.0166 14.2675 20.0166 14.2932C20.0166 14.3573 20.0166 14.4215 20.0103 14.4856C19.8353 15.865 19.0541 16.7952 17.9104 17.4432C17.6229 17.61 17.2979 17.5779 17.0104 17.4047C16.3729 17.0198 15.8229 16.5386 15.4479 15.8714C15.1604 15.3581 14.9854 14.8128 14.9792 14.1969C15.0479 14.2033 15.0792 14.2033 15.1042 14.2097C15.8666 14.5241 16.5666 14.4471 17.1854 13.8569C17.4041 13.6516 17.6229 13.7157 17.8604 13.8826C18.1416 14.075 18.4478 14.2867 18.7603 14.3381C19.1541 14.4022 19.5728 14.306 20.0103 14.2739ZM19.4478 13.4527C19.0166 13.9339 18.6041 13.9275 18.2103 13.4527C18.5666 12.9587 19.0666 12.9523 19.4478 13.4527ZM16.8229 13.4527C16.4041 13.9467 15.9291 13.9403 15.5854 13.4463C15.9791 12.9715 16.4041 12.9651 16.8229 13.4527Z" fill="#F89CD3"/>
<path d="M17.5031 20.9219C16.0031 20.9219 14.5031 20.9219 13.0032 20.9219C12.5282 20.9219 12.4657 20.9924 12.4844 21.4864C12.5532 23.1096 12.6219 24.7328 12.6969 26.3559C12.7157 26.7665 12.7969 26.8499 13.1782 26.8499C16.0531 26.8499 18.9281 26.8499 21.7968 26.8499C22.1905 26.8499 22.2717 26.7665 22.2905 26.3687C22.3655 24.7327 22.4342 23.1032 22.503 21.4672C22.5217 20.9924 22.4592 20.9219 21.9967 20.9219C20.503 20.9219 19.0031 20.9219 17.5031 20.9219Z" fill="#F89CD3"/>
<path d="M17.5332 28.0431C19.0206 28.0431 20.5081 28.0431 21.9956 28.0431C22.3643 28.0431 22.4425 27.8378 22.3893 27.5876C22.3361 27.3374 21.9768 27.3438 21.9768 27.3438C21.9768 27.3438 22.0331 27.3374 21.9768 27.3374C18.9769 27.3374 15.9832 27.3374 12.9832 27.3374C12.777 27.3374 12.577 27.3181 12.5708 27.6261C12.5645 27.9597 12.6208 28.0367 12.9645 28.0367C14.4957 28.0431 16.0144 28.0431 17.5332 28.0431Z" fill="#F89CD3"/>
<path fill-rule="evenodd" clip-rule="evenodd" d="M17.4915 25.7074C18.4975 25.7074 19.3131 24.8918 19.3131 23.8858C19.3131 22.8798 18.4975 22.0642 17.4915 22.0642C16.4855 22.0642 15.6699 22.8798 15.6699 23.8858C15.6699 24.8918 16.4855 25.7074 17.4915 25.7074Z" fill="black"/>
<path d="M18.1748 23.2024L16.8086 24.5686" stroke="#F89CD3" stroke-width="0.483531" stroke-linecap="round" stroke-linejoin="round"/>
<path d="M16.8086 23.2024L18.1748 24.5686" stroke="#F89CD3" stroke-width="0.483531" stroke-linecap="round" stroke-linejoin="round"/>
<path d="M13.3067 16.1282L17.5535 19.5136L21.5515 16.1282" stroke="black" stroke-width="0.8" stroke-linecap="round"/>
</svg>
