<svg width="35" height="36" viewBox="0 0 35 36" fill="none" xmlns="http://www.w3.org/2000/svg">
<path d="M34 17.7595C34 26.8722 26.6127 34.2595 17.5 34.2595C8.3873 34.2595 1 26.8722 1 17.7595C1 8.64682 8.3873 1.25952 17.5 1.25952C26.6127 1.25952 34 8.64682 34 17.7595Z" fill="black" stroke="#F89CD3" stroke-width="2"/>
<path fill-rule="evenodd" clip-rule="evenodd" d="M21.7705 23.7632H10.8534C10.2505 23.7632 9.76172 23.2744 9.76172 22.6715V10.6628C9.76172 10.0598 10.2505 9.57105 10.8534 9.57105H18.5893C18.8788 9.57091 19.1566 9.68585 19.3615 9.89055L21.451 11.9801C21.6557 12.1849 21.7706 12.4627 21.7705 12.7523V23.7632Z" fill="#F89CD3"/>
<path d="M25.9994 20.4882C25.4926 18.5272 23.7039 17.1722 21.6789 17.2151C19.654 17.258 17.9244 18.6877 17.5011 20.6684C17.0779 22.6491 18.0721 24.6608 19.9027 25.5277C21.7332 26.3945 23.9195 25.8888 25.1835 24.3062" stroke="black" stroke-width="2.6878" stroke-linecap="round" stroke-linejoin="round"/>
<path d="M25.9994 20.4882C25.4926 18.5272 23.7039 17.1722 21.6789 17.2151C19.654 17.258 17.9244 18.6877 17.5011 20.6684C17.0779 22.6491 18.0721 24.6608 19.9027 25.5277C21.7332 26.3945 23.9195 25.8888 25.1835 24.3062" stroke="#F89CD3" stroke-width="0.895933" stroke-linecap="round" stroke-linejoin="round"/>
<path d="M23.6391 20.1935L26.2706 20.9173L27.2383 18.1909" stroke="#F89CD3" stroke-width="1.09171" stroke-linecap="round" stroke-linejoin="round"/>
<path d="M15.7656 13.3921L17.4032 15.0296L15.7656 16.6672" stroke="black" stroke-width="1.09171" stroke-linecap="round" stroke-linejoin="round"/>
<path d="M13.5829 13.3921L11.9453 15.0296L13.5829 16.6672" stroke="black" stroke-width="1.09171" stroke-linecap="round" stroke-linejoin="round"/>
</svg>
