<svg width="35" height="36" viewBox="0 0 35 36" fill="none" xmlns="http://www.w3.org/2000/svg">
<g clip-path="url(#clip0)">
<path d="M34 18.2595C34 27.3722 26.6127 34.7595 17.5 34.7595C8.3873 34.7595 1 27.3722 1 18.2595C1 9.14682 8.3873 1.75952 17.5 1.75952C26.6127 1.75952 34 9.14682 34 18.2595Z" fill="black" stroke="#95ECEB" stroke-width="2"/>
<path fill-rule="evenodd" clip-rule="evenodd" d="M9.55081 11.6747V17.8824C9.55084 21.8991 12.0244 25.5009 15.7733 26.943L16.622 27.2691C17.1872 27.4865 17.813 27.4865 18.3782 27.2691L19.2269 26.943C22.9757 25.5009 25.4493 21.8991 25.4494 17.8824V11.6747C25.4526 11.1975 25.1756 10.7628 24.7417 10.5642C22.4587 9.56772 19.991 9.06457 17.5001 9.08768C15.0092 9.06457 12.5415 9.56772 10.2585 10.5642C9.82463 10.7628 9.54762 11.1975 9.55081 11.6747Z" fill="#37FFF2"/>
<path fill-rule="evenodd" clip-rule="evenodd" d="M11.0879 12.9474V17.9552C11.0879 21.1954 13.0834 24.101 16.1076 25.2644L16.7922 25.5275C17.2482 25.7028 17.753 25.7028 18.209 25.5275L18.8936 25.2644C21.9178 24.101 23.9133 21.1954 23.9133 17.9552V12.9474C23.9159 12.5625 23.6924 12.2118 23.3424 12.0516C21.5007 11.2477 19.51 10.8418 17.5006 10.8605C15.4912 10.8418 13.5005 11.2477 11.6588 12.0516C11.3088 12.2118 11.0853 12.5625 11.0879 12.9474Z" fill="#37FFF2" stroke="black" stroke-width="1.11707" stroke-linecap="round" stroke-linejoin="round"/>
<path fill-rule="evenodd" clip-rule="evenodd" d="M15.8497 21.5436C16.9964 21.5436 17.9259 20.614 17.9259 19.4674C17.9259 18.3207 16.9964 17.3911 15.8497 17.3911C14.703 17.3911 13.7734 18.3207 13.7734 19.4674C13.7734 20.614 14.703 21.5436 15.8497 21.5436Z" stroke="black" stroke-linecap="round" stroke-linejoin="round"/>
<path d="M17.3184 17.999L20.9885 14.3289L22.0896 15.43" stroke="black" stroke-linecap="round" stroke-linejoin="round"/>
<path d="M19.5195 15.7966L20.2538 16.5309" stroke="black" stroke-linecap="round" stroke-linejoin="round"/>
</g>
<defs>
<clipPath id="clip0">
<rect width="35" height="35" fill="white" transform="translate(0 0.759521)"/>
</clipPath>
</defs>
</svg>
