<svg width="35" height="36" viewBox="0 0 35 36" fill="none" xmlns="http://www.w3.org/2000/svg">
<g clip-path="url(#clip0)">
<path d="M34 18.2598C34 27.3725 26.6127 34.7598 17.5 34.7598C8.3873 34.7598 1 27.3725 1 18.2598C1 9.14707 8.3873 1.75977 17.5 1.75977C26.6127 1.75977 34 9.14707 34 18.2598Z" fill="black" stroke="#95ECEB" stroke-width="2"/>
<path fill-rule="evenodd" clip-rule="evenodd" d="M24.1655 15.7596C24.1655 16.1558 24.1155 16.541 24.0211 16.91C24.3166 16.8243 24.629 16.7784 24.9521 16.7784C26.7958 16.7784 28.2904 18.2731 28.2904 20.1168C28.2904 21.8723 26.9354 23.3114 25.2141 23.445V23.4551H24.9686C24.9631 23.4551 24.9576 23.4552 24.9521 23.4552C24.9466 23.4552 24.941 23.4551 24.9355 23.4551H10.3585C10.3525 23.4552 10.3464 23.4552 10.3403 23.4552C10.3342 23.4552 10.3282 23.4552 10.3221 23.4551H10.1432V23.4494C8.39124 23.3474 7.00195 21.8944 7.00195 20.1168C7.00195 18.2731 8.49659 16.7784 10.3403 16.7784C10.4639 16.7784 10.586 16.7852 10.7061 16.7983C10.619 16.5599 10.5715 16.3026 10.5715 16.0341C10.5715 14.805 11.5679 13.8086 12.797 13.8086C13.2285 13.8086 13.6314 13.9314 13.9725 14.1439C14.6851 12.2232 16.6329 10.8447 18.9241 10.8447C21.8188 10.8447 24.1655 13.0452 24.1655 15.7596Z" fill="#37FFF2"/>
<path d="M16.3813 14.7598H14.4264V18.2229H13.4414L15.4269 21.6706L17.397 18.2229H16.3813V14.7598Z" fill="black"/>
<path d="M18.9137 21.6704L20.8685 21.6704L20.8685 18.2073L21.8535 18.2073L19.868 14.7596L17.8979 18.2073L18.9137 18.2073L18.9137 21.6704Z" fill="black"/>
</g>
<defs>
<clipPath id="clip0">
<rect width="35" height="35" fill="white" transform="translate(0 0.759766)"/>
</clipPath>
</defs>
</svg>
