<svg width="35" height="36" viewBox="0 0 35 36" fill="none" xmlns="http://www.w3.org/2000/svg">
<g clip-path="url(#clip0)">
<path d="M34 18.2598C34 27.3725 26.6127 34.7598 17.5 34.7598C8.3873 34.7598 1 27.3725 1 18.2598C1 9.14707 8.3873 1.75977 17.5 1.75977C26.6127 1.75977 34 9.14707 34 18.2598Z" fill="black" stroke="#5AC3FF" stroke-width="2"/>
<path d="M11.4557 19.696C9.43047 24.1514 14.8121 28.2597 14.8121 28.2597C14.8121 28.2597 13.0755 26.003 13.9438 23.92C14.8121 21.8369 18.2839 20.506 18.2839 16.5713C22.6812 20.0431 20.1934 24.325 20.1934 24.325L22.1029 21.8369C23.3177 25.7716 21.6978 28.0283 21.6978 28.0283C21.6978 28.0283 24.7643 25.3665 24.7643 21.8369C24.7643 18.3073 24.9957 13.736 16.3741 8.75977C16.3741 14.6618 13.4809 15.2405 11.4557 19.696Z" fill="#3FB6FF"/>
</g>
<defs>
<clipPath id="clip0">
<rect width="35" height="35" fill="white" transform="translate(0 0.759766)"/>
</clipPath>
</defs>
</svg>
