<svg width="35" height="36" viewBox="0 0 35 36" fill="none" xmlns="http://www.w3.org/2000/svg">
<g clip-path="url(#clip0)">
<path d="M34 18.2598C34 27.3725 26.6127 34.7598 17.5 34.7598C8.3873 34.7598 1 27.3725 1 18.2598C1 9.14707 8.3873 1.75977 17.5 1.75977C26.6127 1.75977 34 9.14707 34 18.2598Z" fill="black" stroke="#95ECEB" stroke-width="2"/>
<rect x="9.97266" y="10.2461" width="15.0533" height="16.0279" rx="1.08394" fill="#37FFF2"/>
<path fill-rule="evenodd" clip-rule="evenodd" d="M21.5227 28.5786C24.096 28.5786 26.1821 26.4925 26.1821 23.9192C26.1821 21.3458 24.096 19.2598 21.5227 19.2598C18.9494 19.2598 16.8633 21.3458 16.8633 23.9192C16.8633 26.4925 18.9494 28.5786 21.5227 28.5786Z" fill="#37FFF2" stroke="black" stroke-width="0.925402" stroke-linecap="round" stroke-linejoin="round"/>
<path d="M19.5449 24.1099L21.0866 25.7189L23.4293 22.6567" stroke="black" stroke-linecap="round"/>
<path d="M11.3906 16.4008V13.5102H11.9743V14.6479H13.1178V13.5102H13.7015V16.4008H13.1178V15.1369H11.9743V16.4008H11.3906Z" fill="black"/>
<path d="M14.9575 16.4008V13.9992H14.0998V13.5102H16.3968V13.9992H15.5411V16.4008H14.9575Z" fill="black"/>
<path d="M17.426 16.4008V13.9992H16.5683V13.5102H18.8654V13.9992H18.0097V16.4008H17.426Z" fill="black"/>
<path d="M19.244 16.4008V13.5102H20.1805C20.5354 13.5102 20.7668 13.5247 20.8746 13.5536C21.0402 13.597 21.1789 13.6916 21.2906 13.8375C21.4023 13.9821 21.4582 14.1694 21.4582 14.3995C21.4582 14.5769 21.426 14.7261 21.3616 14.8471C21.2972 14.968 21.215 15.0633 21.1151 15.1329C21.0165 15.2013 20.916 15.2467 20.8134 15.269C20.6741 15.2966 20.4723 15.3104 20.2081 15.3104H19.8276V16.4008H19.244ZM19.8276 13.9992V14.8194H20.147C20.377 14.8194 20.5308 14.8043 20.6084 14.7741C20.6859 14.7439 20.7464 14.6965 20.7898 14.6321C20.8345 14.5677 20.8568 14.4928 20.8568 14.4074C20.8568 14.3022 20.8259 14.2154 20.7641 14.1471C20.7024 14.0787 20.6242 14.036 20.5295 14.0189C20.4598 14.0058 20.3199 13.9992 20.1095 13.9992H19.8276Z" fill="black"/>
<path d="M21.7894 15.4603L22.3573 15.405C22.3915 15.5956 22.4605 15.7356 22.5643 15.825C22.6695 15.9144 22.8108 15.9591 22.9882 15.9591C23.1762 15.9591 23.3175 15.9197 23.4122 15.8408C23.5081 15.7606 23.5561 15.6673 23.5561 15.5608C23.5561 15.4925 23.5357 15.4346 23.495 15.3873C23.4555 15.3387 23.3859 15.2966 23.286 15.2611C23.2176 15.2375 23.0618 15.1954 22.8187 15.1349C22.5058 15.0574 22.2863 14.9621 22.1601 14.849C21.9827 14.69 21.8939 14.4961 21.8939 14.2674C21.8939 14.1201 21.9353 13.9828 22.0182 13.8553C22.1023 13.7265 22.2226 13.6285 22.379 13.5615C22.5367 13.4945 22.7267 13.4609 22.9488 13.4609C23.3116 13.4609 23.5844 13.5405 23.7671 13.6995C23.9511 13.8586 24.0477 14.0709 24.0569 14.3364L23.4733 14.362C23.4483 14.2135 23.3944 14.107 23.3116 14.0426C23.2301 13.9769 23.1072 13.944 22.9429 13.944C22.7733 13.944 22.6406 13.9788 22.5446 14.0485C22.4828 14.0932 22.4519 14.153 22.4519 14.2279C22.4519 14.2963 22.4809 14.3548 22.5387 14.4034C22.6123 14.4652 22.7911 14.5296 23.075 14.5966C23.3589 14.6637 23.5686 14.7333 23.704 14.8056C23.8407 14.8766 23.9471 14.9746 24.0234 15.0994C24.1009 15.223 24.1397 15.3761 24.1397 15.5588C24.1397 15.7245 24.0937 15.8796 24.0017 16.0242C23.9097 16.1688 23.7796 16.2765 23.6113 16.3475C23.443 16.4172 23.2334 16.452 22.9823 16.452C22.6169 16.452 22.3363 16.3679 22.1404 16.1996C21.9445 16.0301 21.8276 15.7836 21.7894 15.4603Z" fill="black"/>
</g>
<defs>
<clipPath id="clip0">
<rect width="35" height="35" fill="white" transform="translate(0 0.759766)"/>
</clipPath>
</defs>
</svg>
