<svg width="35" height="36" viewBox="0 0 35 36" fill="none" xmlns="http://www.w3.org/2000/svg">
<g clip-path="url(#clip0)">
<path d="M34 17.7595C34 26.8722 26.6127 34.2595 17.5 34.2595C8.3873 34.2595 1 26.8722 1 17.7595C1 8.64682 8.3873 1.25952 17.5 1.25952C26.6127 1.25952 34 8.64682 34 17.7595Z" fill="black" stroke="#F89CD3" stroke-width="2"/>
<path fill-rule="evenodd" clip-rule="evenodd" d="M13.1093 16.621C14.3778 16.621 15.4062 15.5927 15.4062 14.3242C15.4062 13.0557 14.3778 12.0273 13.1093 12.0273C11.8408 12.0273 10.8125 13.0557 10.8125 14.3242C10.8125 15.5927 11.8408 16.621 13.1093 16.621Z" stroke="black" stroke-width="0.765613" stroke-linecap="round" stroke-linejoin="round"/>
<path d="M13.1094 12.0273V14.3242L14.7335 15.9483" stroke="black" stroke-width="0.765613" stroke-linecap="round" stroke-linejoin="round"/>
<path d="M17.0879 13.5479H20.8482" stroke="black" stroke-width="0.912234" stroke-linecap="round" stroke-linejoin="round"/>
<path d="M17.0879 15.3721H20.8482" stroke="black" stroke-width="0.912234" stroke-linecap="round" stroke-linejoin="round"/>
<rect x="7.18945" y="10.4614" width="20.6201" height="9.48516" rx="1" fill="#F89CD3"/>
<rect x="9.21484" y="11.8813" width="1.71425" height="1.54839" fill="black"/>
<rect x="9.21484" y="14.4297" width="1.71425" height="1.54839" fill="black"/>
<rect x="9.21484" y="16.978" width="1.71425" height="1.54839" fill="black"/>
<rect x="12.9297" y="11.8813" width="1.71425" height="1.54839" fill="black"/>
<rect x="12.9297" y="14.4297" width="1.71425" height="1.54839" fill="black"/>
<rect x="16.6426" y="11.8813" width="1.71425" height="1.54839" fill="black"/>
<rect x="20.3574" y="11.8813" width="1.71425" height="1.54839" fill="black"/>
<rect x="20.3574" y="14.4297" width="1.71425" height="1.54839" fill="black"/>
<rect x="24.0723" y="11.8813" width="1.71425" height="1.54839" fill="black"/>
<rect x="24.0723" y="14.4297" width="1.71425" height="1.54839" fill="black"/>
<rect x="24.0723" y="16.978" width="1.71425" height="1.54839" fill="black"/>
<path d="M17.4987 27.2624C20.449 27.2624 22.8407 24.8707 22.8407 21.9203C22.8407 18.97 20.449 16.5783 17.4987 16.5783C14.5484 16.5783 12.1566 18.97 12.1566 21.9203C12.1566 24.8707 14.5484 27.2624 17.4987 27.2624Z" fill="#F89CD3" stroke="black" stroke-width="0.8" stroke-linecap="round" stroke-linejoin="round"/>
<path fill-rule="evenodd" clip-rule="evenodd" d="M14.1018 21.3627C13.7994 21.6739 13.7994 22.1692 14.1018 22.4803C14.7832 23.1634 16.0013 24.23 17.4989 24.23C18.9964 24.23 20.2146 23.1638 20.8964 22.4807C21.1986 22.1695 21.1986 21.6744 20.8964 21.3632C20.215 20.6801 18.9951 19.613 17.4989 19.613C16.0026 19.613 14.7836 20.6792 14.1018 21.3627Z" fill="black"/>
<path fill-rule="evenodd" clip-rule="evenodd" d="M17.4982 22.9087C18.0441 22.9087 18.4866 22.4662 18.4866 21.9203C18.4866 21.3744 18.0441 20.9319 17.4982 20.9319C16.9523 20.9319 16.5098 21.3744 16.5098 21.9203C16.5098 22.4662 16.9523 22.9087 17.4982 22.9087Z" stroke="#F89CD3" stroke-width="0.6" stroke-linecap="round" stroke-linejoin="round"/>
</g>
<defs>
<clipPath id="clip0">
<rect width="35" height="35" fill="white" transform="translate(0 0.259521)"/>
</clipPath>
</defs>
</svg>
