<svg width="35" height="36" viewBox="0 0 35 36" fill="none" xmlns="http://www.w3.org/2000/svg">
<path d="M34 18.2595C34 27.3722 26.6127 34.7595 17.5 34.7595C8.3873 34.7595 1 27.3722 1 18.2595C1 9.14682 8.3873 1.75952 17.5 1.75952C26.6127 1.75952 34 9.14682 34 18.2595Z" fill="black" stroke="#F89CD3" stroke-width="2"/>
<path fill-rule="evenodd" clip-rule="evenodd" d="M17.5 20.2645L17.7792 21.365H26.9077C27.1712 21.365 27.416 21.2286 27.5546 21.0044C27.6932 20.7802 27.706 20.5003 27.5882 20.2645L26.147 16.8008H18.5399L17.5 20.2645Z" fill="#F89CD3"/>
<path d="M19.0957 19.9211H27.6683" stroke="black" stroke-linecap="round"/>
<path fill-rule="evenodd" clip-rule="evenodd" d="M26.1461 15.7065H18.5391V10.3816C18.5391 9.96143 18.8796 9.62085 19.2998 9.62085H25.3854C25.8055 9.62085 26.1461 9.96143 26.1461 10.3816V15.7065Z" fill="#F89CD3"/>
<path fill-rule="evenodd" clip-rule="evenodd" d="M25.1559 14.9135H19.5312V10.9763C19.5312 10.6656 19.7831 10.4138 20.0937 10.4138H24.5934C24.904 10.4138 25.1559 10.6656 25.1559 10.9763V14.9135Z" fill="black"/>
<path d="M10.3059 17.2063C9.41854 17.2063 8.69922 17.9256 8.69922 18.8129V25.4528C8.69922 26.3401 9.41854 27.0595 10.3059 27.0595H16.9457C17.8331 27.0595 18.5524 26.3401 18.5524 25.4528V18.8129C18.5524 17.9256 17.8331 17.2063 16.9457 17.2063H10.3059Z" fill="#F89CD3" stroke="black" stroke-linecap="round" stroke-linejoin="round"/>
<path fill-rule="evenodd" clip-rule="evenodd" d="M13.6262 24.3468C14.2374 24.3468 14.7328 23.8514 14.7328 23.2402C14.7328 22.629 14.2374 22.1335 13.6262 22.1335C13.015 22.1335 12.5195 22.629 12.5195 23.2402C12.5195 23.8514 13.015 24.3468 13.6262 24.3468Z" stroke="black" stroke-width="1.10664" stroke-linecap="round" stroke-linejoin="round"/>
<path d="M11.6699 20.7302C12.7501 19.6514 14.4999 19.6514 15.5801 20.7302" stroke="black" stroke-width="1.10664" stroke-linecap="round" stroke-linejoin="round"/>
<path d="M10.7637 15.4929C12.0954 14.1616 14.1914 13.9805 15.7318 15.0635" stroke="#F89CD3" stroke-width="1.10664" stroke-linecap="round" stroke-linejoin="round"/>
<path d="M9.19922 13.9282C11.2825 11.8454 14.5582 11.553 16.9775 13.234" stroke="#F89CD3" stroke-width="1.10664" stroke-linecap="round" stroke-linejoin="round"/>
</svg>
