<svg width="35" height="36" viewBox="0 0 35 36" fill="none" xmlns="http://www.w3.org/2000/svg">
<g clip-path="url(#clip0)">
<path d="M34 18.2598C34 27.3725 26.6127 34.7598 17.5 34.7598C8.3873 34.7598 1 27.3725 1 18.2598C1 9.14707 8.3873 1.75977 17.5 1.75977C26.6127 1.75977 34 9.14707 34 18.2598Z" fill="black" stroke="#95ECEB" stroke-width="2"/>
<path fill-rule="evenodd" clip-rule="evenodd" d="M16.2833 10.2627C16.5941 10.6069 17.0361 10.8033 17.4999 10.8033C17.9636 10.8033 18.4056 10.6069 18.7164 10.2627L19.5029 9.39086C19.9676 8.87573 20.7063 8.70895 21.3472 8.97446C21.9882 9.23998 22.3925 9.88026 22.3568 10.5731L22.2966 11.7445C22.2731 12.2078 22.4468 12.6595 22.7748 12.9876C23.1027 13.3157 23.5543 13.4897 24.0177 13.4664L25.189 13.4061C25.8814 13.3716 26.5207 13.7764 26.7855 14.417C27.0503 15.0577 26.8835 15.7957 26.3688 16.2601L25.4969 17.0466C25.1527 17.3574 24.9563 17.7994 24.9563 18.2631C24.9563 18.7269 25.1527 19.1689 25.4969 19.4797L26.3688 20.2662C26.8839 20.7309 27.0507 21.4695 26.7852 22.1105C26.5197 22.7514 25.8794 23.1558 25.1865 23.1201L24.0152 23.0599C23.5519 23.0363 23.1003 23.2101 22.7723 23.5381C22.4443 23.8661 22.2705 24.3177 22.2941 24.7809L22.3543 25.9523C22.3876 26.6435 21.9832 27.2811 21.3438 27.5456C20.7044 27.8102 19.9677 27.6447 19.5029 27.132L18.7164 26.2602C18.4056 25.916 17.9636 25.7196 17.4999 25.7196C17.0361 25.7196 16.5941 25.916 16.2833 26.2602L15.4968 27.132C15.0319 27.6431 14.2963 27.8078 13.6578 27.5437C13.0193 27.2795 12.615 26.6434 12.6471 25.9531L12.7073 24.7818C12.7317 24.3174 12.5577 23.8646 12.2286 23.5361C11.8995 23.2077 11.4463 23.0345 10.982 23.0599L9.81068 23.1201C9.1183 23.1547 8.47906 22.7499 8.21423 22.1092C7.9494 21.4686 8.11626 20.7306 8.63095 20.2662L9.50278 19.4797C9.84697 19.1689 10.0434 18.7269 10.0434 18.2631C10.0434 17.7994 9.84697 17.3574 9.50278 17.0466L8.63095 16.2601C8.11983 15.7951 7.95519 15.0596 8.21932 14.4211C8.48345 13.7826 9.11962 13.3783 9.80984 13.4103L10.9812 13.4706C11.4454 13.4945 11.8979 13.3203 12.2263 12.9913C12.5546 12.6623 12.7279 12.2094 12.7031 11.7453L12.6471 10.5731C12.615 9.88288 13.0193 9.24671 13.6578 8.98258C14.2963 8.71845 15.0319 8.88309 15.4968 9.39421L16.2833 10.2627Z" fill="#37FFF2"/>
<path d="M19.7115 15.4271C18.6288 14.5818 17.1588 14.4276 15.9242 15.0299C14.6897 15.6323 13.9064 16.8857 13.9062 18.2593V19.0887" stroke="black" stroke-linecap="round" stroke-linejoin="round"/>
<path d="M14.8428 21.2384C15.8793 22.14 17.339 22.3718 18.6038 21.8358C19.8685 21.2997 20.7171 20.0896 20.7901 18.7179L20.8341 17.8897" stroke="black" stroke-linecap="round" stroke-linejoin="round"/>
<path d="M12.5996 18.0112L13.907 19.3186L15.2143 18.0113" stroke="black" stroke-linecap="round" stroke-linejoin="round"/>
<path d="M22.084 19.0347L20.8478 17.6599L19.473 18.896" stroke="black" stroke-linecap="round" stroke-linejoin="round"/>
</g>
<defs>
<clipPath id="clip0">
<rect width="35" height="35" fill="white" transform="translate(0 0.759766)"/>
</clipPath>
</defs>
</svg>
