<svg width="171" height="39" viewBox="0 0 171 39" fill="none" xmlns="http://www.w3.org/2000/svg">
<path d="M8.77393 2.14059H8.60579V1.89595H8.77393V2.14059ZM8.68222 2.78277H8.51408V2.53813H8.68222V2.78277ZM8.57522 3.24147H8.40708V2.90509H8.57522V3.24147ZM8.48351 3.45553L8.37651 4.06712H8.20837L8.31537 3.45553H8.48351ZM9.9815 7.46149H9.79807V3.45553H9.9815V7.46149ZM8.97265 5.94779L8.85036 6.19243L8.71279 6.14656L8.83508 5.90192L8.97265 5.94779ZM8.40708 5.73373C8.40708 5.85605 8.34594 6.03443 8.22365 6.26888C8.14213 6.20772 8.00965 6.17714 7.82623 6.17714C7.77528 6.2281 7.7498 6.28926 7.7498 6.36062C7.7498 6.48293 7.84661 6.63074 8.04023 6.80402H7.97908C7.91794 6.80402 7.8568 6.78364 7.79566 6.74286C7.6428 6.8346 7.47466 7.19647 7.29123 7.82845C7.58675 6.20772 7.89756 5.20368 8.22365 4.81633C8.13194 5.06097 8.00456 5.43812 7.84151 5.94779L8.00965 6.10069C8.13194 6.00895 8.26441 5.88663 8.40708 5.73373ZM4.89139 13.9291L4.76911 14.1738L4.63154 14.1126L4.75382 13.8833L4.89139 13.9291ZM13.8488 24.7697H13.6806V24.4333H13.8488V24.7697ZM13.8488 27.002L13.7265 27.369L13.5889 27.3078L13.7112 27.002H13.8488ZM13.0539 26.788H12.8858V26.5433H13.0539V26.788ZM13.5583 28.531H13.3902V28.1947H13.5583V28.531ZM10.0274 12.6907C6.99061 12.6907 5.43658 12.7161 5.36525 12.7671H3.77554V18.8984H8.33065V22.1245H3.76026V32.3841H0V9.49505H3.7144C3.88764 9.49505 4.2494 9.45428 4.79968 9.37273C5.29901 9.30138 5.63529 9.2759 5.80853 9.29628L6.67981 9.40331C6.76133 9.13829 6.84285 8.87326 6.92438 8.60824C7.05685 8.26167 7.19442 8.03741 7.33709 7.93548C7.10271 8.47572 6.93966 8.94462 6.84795 9.34215L7.03138 9.49505C7.86699 9.49505 8.86565 9.46447 10.0274 9.40331V12.6907ZM13.0539 28.3476H12.8858V28.0112H13.0539V28.3476ZM13.8488 30.641H13.6806V30.3964H13.8488V30.641ZM13.8488 32.3841H13.7112L13.5889 32.1547L13.7265 32.1089L13.8488 32.3841ZM3.04183 10.8559V10.443C3.02145 10.5348 2.96541 10.5806 2.87369 10.5806C2.80236 10.5806 2.7616 10.5501 2.75141 10.4889C2.74122 10.4277 2.70046 10.3972 2.62912 10.3972C2.47627 10.3972 2.39984 10.4328 2.39984 10.5042V10.9476C2.43041 10.9374 2.45589 10.9272 2.47627 10.917C2.45589 10.917 2.5527 10.9527 2.76669 11.024C2.76669 10.8915 2.78707 10.8049 2.82784 10.7641C2.88898 10.8253 2.96031 10.8559 3.04183 10.8559ZM3.11826 12.9047C3.11826 12.5072 3.09788 11.9516 3.05712 11.2381C2.93484 11.2381 2.78707 11.233 2.61384 11.2228L2.32341 11.498C2.20113 11.4267 2.05337 11.3247 1.88013 11.1922C2.14508 11.0495 2.27755 10.8457 2.27755 10.5806C2.27755 10.4175 2.20113 10.2697 2.04827 10.1372H0.718423C0.708233 10.1372 0.698042 10.1423 0.687852 10.1525C0.616519 10.2035 0.580853 10.3003 0.580853 10.443C0.580853 10.5246 0.662376 10.6826 0.825422 10.917C0.998659 11.1413 1.08528 11.2891 1.08528 11.3604C1.08528 11.4114 0.927326 11.6866 0.611424 12.1861C0.591043 12.339 0.580853 12.5378 0.580853 12.7824C0.580853 13.4653 0.845803 13.9087 1.3757 14.1126C1.1719 14.2247 1.00885 14.2808 0.886565 14.2808C1.08018 14.5356 1.39608 14.9536 1.83427 15.5346L2.20113 14.9383C2.08903 14.4796 2.03298 14.1687 2.03298 14.0056C2.03298 13.71 2.12979 13.4857 2.32341 13.3328C2.50684 13.4959 2.65969 13.6182 2.78198 13.6998C2.89407 13.6998 2.99088 13.659 3.07241 13.5775C3.10298 13.4653 3.11826 13.2411 3.11826 12.9047ZM2.07884 16.4214L1.83427 16.1768C1.73237 16.2685 1.65084 16.3551 1.5897 16.4367H1.65084H1.72727C1.82918 16.4367 1.94637 16.4316 2.07884 16.4214ZM2.41512 12.4919H2.2317V11.6968H2.41512V12.4919Z" fill="#00FFFF"/>
<path d="M11.4642 7.82845C11.4744 8.38908 11.3929 9.20964 11.2196 10.2901C11.0464 11.3706 10.9598 12.181 10.9598 12.7212C10.9598 13.0372 10.9751 13.3379 11.0056 13.6233C10.9547 13.2564 10.8732 12.7008 10.7611 11.9567C10.7407 11.8854 10.7203 11.8089 10.6999 11.7274L10.6846 11.7885C10.6948 11.7274 10.8018 11.1871 11.0056 10.1678C11.1177 9.62757 11.2706 8.8172 11.4642 7.73671V7.82845ZM22.9895 26.1611C22.9895 26.3242 22.9539 26.4414 22.8825 26.5128C22.8214 26.5128 22.7144 26.365 22.5615 26.0693C22.6329 26.1305 22.7755 26.1611 22.9895 26.1611ZM21.2317 27.8889C20.9464 27.5932 20.8037 27.3945 20.8037 27.2925C20.8037 27.2416 20.8801 27.1346 21.033 26.9715C21.0534 27.0122 21.1196 27.318 21.2317 27.8889ZM22.0724 32.3841H18.5109C18.2255 30.5595 17.9402 28.9031 17.6549 27.4149C16.432 27.3027 15.3518 27.2467 14.4143 27.2467C14.1188 27.2467 13.9354 27.3792 13.864 27.6442C13.8437 27.7156 13.8284 27.9653 13.8182 28.3934C13.8182 28.5463 13.8029 28.6737 13.7723 28.7757C13.6908 29.3465 13.5685 30.1722 13.4055 31.2526C13.3647 31.5279 13.2526 31.7113 13.0692 31.8031L13.2373 31.8642V32.3841H9.7675L11.0515 24.6474C10.8884 24.576 10.435 24.3161 9.69107 23.8676C9.30383 23.6332 8.72298 23.3579 7.94851 23.0419C7.3269 22.8177 6.40467 22.4609 5.18182 21.9716C5.11049 21.9411 4.95763 21.8137 4.72325 21.5894C4.53982 21.4161 4.3564 21.3295 4.17297 21.3295L4.02011 21.1307C4.0303 21.1001 4.0354 21.0797 4.0354 21.0695C4.0354 20.988 3.97935 20.9523 3.86726 20.9625C4.09145 20.8606 4.37168 20.8096 4.70796 20.8096C4.89139 20.8096 5.28372 21.0542 5.88496 21.5435C6.476 22.0328 6.87852 22.2774 7.09252 22.2774C7.98927 22.2774 8.92679 22.7361 9.90507 23.6535C10.1089 23.6535 10.3382 23.572 10.5929 23.4089L10.3178 23.1337H10.8986L11.0973 23.1184C11.1483 23.1184 11.1738 23.1133 11.1738 23.1031L11.3266 22.9502L11.3419 22.889C11.3419 22.7565 10.9598 22.5527 10.1955 22.2774L10.1344 22.5221L10.1038 22.4915C10.1445 22.5527 10.1802 22.6291 10.2108 22.7209C10.1191 22.7107 10.0477 22.7361 9.99678 22.7973C9.95602 22.8483 9.93564 22.9196 9.93564 23.0114H9.59936C9.56879 22.9706 9.41083 22.8075 9.1255 22.5221C8.88093 22.2774 8.75865 22.1194 8.75865 22.0481C8.75865 21.9767 8.78922 21.9105 8.85036 21.8493V21.3295C8.8096 21.2887 8.74336 21.2683 8.65165 21.2683C8.44784 21.2683 8.35613 21.411 8.37651 21.6964H7.82623C7.92813 21.6862 8.05042 21.6506 8.19308 21.5894C8.03004 21.3142 7.81604 21.095 7.55109 20.9319C7.62242 20.9421 7.70394 20.9472 7.79566 20.9472C8.01985 20.9472 8.31027 20.9064 8.66693 20.8249L8.30008 20.4579C8.61598 20.621 8.84017 20.7688 8.97265 20.9014C8.96246 20.7892 8.95736 20.6057 8.95736 20.3509C9.31403 20.5344 9.56879 20.6261 9.72164 20.6261C9.78278 20.6261 9.84393 20.5956 9.90507 20.5344C9.96621 20.4732 10.0274 20.4427 10.0885 20.4427C10.17 20.4834 10.3178 20.5446 10.5318 20.6261C10.5522 20.6057 10.5623 20.5854 10.5623 20.565C10.5623 20.565 10.5165 20.4681 10.4248 20.2745C10.6795 20.2031 10.7967 20.1674 10.7763 20.1674C10.8477 20.1674 10.9292 20.2592 11.0209 20.4427C11.0719 20.4121 11.1177 20.356 11.1585 20.2745C11.2706 20.2745 11.4132 20.3917 11.5865 20.6261C11.9024 19.5049 12.0603 18.6741 12.0603 18.1339C12.0603 18.0727 11.9431 17.8179 11.7088 17.3694C11.454 16.8801 11.3062 16.5743 11.2655 16.452C11.1636 16.1156 11.0973 15.6824 11.0668 15.1523C11.077 14.8465 11.0515 14.4031 10.9903 13.8221C11.0209 13.8731 11.133 14.4439 11.3266 15.5346C11.4897 16.4418 11.7444 17.1247 12.0909 17.5834L13.543 9.31157H18.0217C18.0421 9.4237 18.9745 14.7395 20.819 25.259C20.9107 25.3711 20.9922 25.4272 21.0636 25.4272C21.0024 25.5699 20.9718 25.8043 20.9718 26.1305H20.9107C20.7578 26.1101 20.5388 26.1968 20.2534 26.3904C20.3146 26.5943 20.4419 26.7931 20.6356 26.9867L20.5897 26.8797C20.5897 26.9613 20.5897 27.0428 20.5897 27.1244C20.5897 27.5932 20.6814 28.0367 20.8648 28.4546L20.9871 28.3934C20.8954 28.2507 20.8496 28.0672 20.8496 27.843C20.8597 27.9245 20.9566 28.0774 21.14 28.3017C21.1298 28.3526 21.1247 28.4036 21.1247 28.4546C21.1247 28.689 21.2317 28.9082 21.4457 29.112C21.5884 29.8256 21.7973 30.9163 22.0724 32.3841ZM6.25181 20.5038L5.25825 20.1216L5.68624 19.984C5.81872 20.0961 6.00724 20.2694 6.25181 20.5038ZM6.52695 21.3906H6.28238V21.2377H6.52695V21.3906ZM3.59212 20.4121L3.37812 20.6261C3.17431 20.5344 2.94503 20.3203 2.69027 19.984C3.09788 20.2286 3.30678 20.3509 3.31698 20.3509C3.38831 20.3509 3.42397 20.3356 3.42397 20.305C3.41378 20.2745 3.3934 20.2439 3.36283 20.2133C3.41378 20.2643 3.49021 20.3305 3.59212 20.4121ZM2.38455 20.198L1.86484 20.1063V19.9381L2.38455 20.0451V20.198ZM17.1963 9.61737V9.46447H16.86V9.61737H17.1963ZM16.9364 22.5985L15.79 15.1982L14.7353 21.9564C14.7251 22.0685 14.8016 22.2163 14.9646 22.3998C15.1684 22.6342 15.2754 22.7616 15.2856 22.782C15.2245 22.8432 15.1022 22.8738 14.9187 22.8738C15.1735 22.9961 15.2958 23.1133 15.2856 23.2254C15.1327 23.2764 14.9493 23.3528 14.7353 23.4548C14.8372 23.4548 14.9901 23.4446 15.1939 23.4242C15.4079 23.3936 15.5658 23.3783 15.6677 23.3783C15.6677 23.4599 15.6321 23.5312 15.5607 23.5924L15.9276 23.8217C15.9276 23.8829 15.8665 23.9746 15.7442 24.0969H16.1875V24.0205C16.1875 23.837 16.2843 23.5924 16.4779 23.2866C16.6307 23.0623 16.7836 22.833 16.9364 22.5985ZM20.4521 25.9165C20.3808 25.8757 20.1566 25.6973 19.7796 25.3813C19.4433 25.0959 19.2446 24.9532 19.1834 24.9532C19.0815 24.9532 18.9134 24.9889 18.679 25.0602C18.4548 25.1214 18.2816 25.1469 18.1593 25.1367H18.0982C18.1287 25.2386 18.1491 25.3252 18.1593 25.3966C18.2306 25.3762 18.2918 25.366 18.3427 25.366C18.4446 25.366 18.5261 25.4017 18.5873 25.473C18.5465 25.6157 18.5261 25.7636 18.5261 25.9165V26.0541C18.5261 26.1152 18.5312 26.207 18.5414 26.3293C18.6739 26.0541 18.7707 25.84 18.8319 25.6871C19.1172 25.7483 19.2599 25.9317 19.2599 26.2375C19.2599 26.2681 19.2548 26.2936 19.2446 26.314C19.4484 26.2426 19.5248 26.207 19.4739 26.207C19.4942 26.207 19.5095 26.2121 19.5197 26.2222C19.3669 26.1101 19.27 26.0082 19.2293 25.9165L19.3821 25.7788C19.4331 25.8196 19.5095 25.8706 19.6114 25.9317C19.642 25.891 19.6879 25.84 19.749 25.7788C19.7898 25.84 19.8203 25.9012 19.8407 25.9623C19.7898 25.6259 19.7643 25.473 19.7643 25.5036L19.9783 25.7483C19.9783 25.8094 19.963 25.9063 19.9324 26.0388C19.912 26.1611 19.9019 26.2528 19.9019 26.314C19.9834 26.2936 20.0955 26.263 20.2381 26.2222C20.2381 26.1203 20.2279 25.9725 20.2076 25.7788C20.2585 25.8094 20.34 25.8553 20.4521 25.9165ZM20.1923 26.6809V26.3446H20.0241V26.6809H20.1923ZM19.642 26.8644L19.535 26.3446H19.3821L19.4739 26.8644H19.642ZM19.7337 27.3231V26.895H19.5656V27.3231H19.7337ZM18.3427 26.0388V25.5189H18.1899V26.0388H18.3427ZM19.9171 27.1702H19.7643L19.7031 27.5066H19.856L19.9171 27.1702ZM17.8994 25.0602H17.7313L17.6396 25.5801H17.7924L17.8994 25.0602ZM14.8576 22.8126V22.3845H14.6895V22.8126H14.8576ZM21.568 30.2741V30.0294H21.4151V30.2741H21.568ZM15.5455 24.0664V23.8982L14.7506 23.9899V24.1581L15.5455 24.0664ZM18.679 27.5831C18.5771 27.4302 18.5261 27.2467 18.5261 27.0326C18.5261 26.9511 18.5312 26.8695 18.5414 26.788C18.5414 26.8491 18.4803 26.9409 18.358 27.0632L17.9912 26.6962C18.0217 26.9409 18.0472 27.1244 18.0676 27.2467C18.3529 27.1651 18.4956 27.2467 18.4956 27.4913C18.4956 27.5729 18.4752 27.6748 18.4344 27.7971L18.679 27.5831ZM16.004 25.6565C16.004 25.5342 15.9276 25.3915 15.7747 25.2284V25.4119C15.7747 25.5138 15.7798 25.6208 15.79 25.733C15.841 25.7024 15.9123 25.6769 16.004 25.6565ZM11.5865 20.8249H11.1585V21.1613H11.4795C11.5508 21.1001 11.5865 20.988 11.5865 20.8249ZM15.4996 26.1917L15.362 26.1458L15.255 26.3751L15.3773 26.4363L15.4996 26.1917ZM9.40064 21.6353L9.04908 21.5129V21.6506L9.35479 21.7576L9.40064 21.6353ZM9.75221 21.9716C9.70126 21.9207 9.62993 21.8697 9.53821 21.8187C9.38536 21.8187 9.30893 21.936 9.30893 22.1704C9.41083 22.1194 9.55859 22.0532 9.75221 21.9716ZM10.5318 32.0171V31.7725H10.3636V32.0171H10.5318ZM19.4127 25.6718H19.0764C18.9541 25.4781 18.8268 25.3813 18.6943 25.3813L18.9083 25.1367C19.1223 25.2386 19.2904 25.417 19.4127 25.6718ZM16.3862 22.7667C16.3658 22.8687 16.325 22.9502 16.2639 23.0114C16.1212 23.0114 15.9785 22.8687 15.8359 22.5832C15.9378 22.5832 16.1212 22.6444 16.3862 22.7667Z" fill="#00FFFF"/>
<path d="M33.7965 19.7087L33.6742 20.0757L33.5366 20.0145L33.6589 19.7087H33.7965ZM28.4465 17.1094H28.2784V16.5896H28.4465V17.1094ZM27.9726 16.4367L27.8504 16.6813L27.7128 16.6202L27.8351 16.3908L27.9726 16.4367ZM30.8005 20.5344L30.6782 20.9625H30.5253L30.6323 20.5344H30.8005ZM28.7216 19.3112H28.5535V18.9748H28.7216V19.3112ZM20.498 11.5592H20.2381V11.4063H20.498V11.5592ZM22.3934 13.975C22.1794 14.0871 22.0979 14.2502 22.1488 14.4643V14.4337C22.159 14.3929 22.1132 14.3318 22.0113 14.2502C21.9094 14.1585 21.8482 14.0973 21.8278 14.0667C21.8992 13.9852 22.0062 13.8731 22.1488 13.7304L22.3934 13.975ZM20.07 11.8038L19.7184 12.0179L19.642 11.8956L19.9783 11.6815L20.07 11.8038ZM22.6991 15.0912H22.5463V14.2044H22.6991V15.0912ZM30.1279 22.4303H29.9751V21.9105H30.1279V22.4303ZM33.0933 32.7052H32.4666V32.3841H24.0901V27.2925C24.0901 27.2314 24.029 27.2008 23.9067 27.2008C23.9984 27.0071 24.0442 26.9205 24.0442 26.9409V20.7026C23.9933 20.7434 23.9678 20.7841 23.9678 20.8249C23.9678 20.8453 23.9678 20.8657 23.9678 20.8861V9.34215H27.6364V14.082C27.6364 14.2247 27.7026 14.2808 27.8351 14.2502L27.7128 14.3573C27.6822 15.0606 27.6669 15.6722 27.6669 16.192C27.6669 17.0585 27.7128 17.6752 27.8045 18.0421C27.8656 17.9708 27.8962 17.8383 27.8962 17.6446C27.8962 17.4815 27.8758 17.2776 27.8351 17.033C27.8656 17.3388 27.9574 17.7618 28.1102 18.3021C28.0593 18.2817 28.0083 18.2715 27.9574 18.2715C27.7536 18.2715 27.6516 18.4397 27.6516 18.776C27.6516 18.9289 27.6669 19.0207 27.6975 19.0513L27.9115 18.8678L28.3395 20.6414C28.8796 21.0492 29.1496 21.6302 29.1496 22.3845V22.889C29.1089 22.8992 29.063 22.9043 29.0121 22.9043C28.9509 22.9043 28.8541 22.889 28.7216 22.8585C28.5994 22.8279 28.5076 22.8126 28.4465 22.8126C28.3242 22.8126 28.2019 22.8738 28.0796 22.9961L27.8809 22.8126C27.8402 22.833 27.7637 22.8839 27.6516 22.9655L27.7281 23.3783C27.8096 23.307 27.937 23.2203 28.1102 23.1184C28.0491 23.1796 28.0185 23.2407 28.0185 23.3019C28.0185 23.363 28.0389 23.414 28.0796 23.4548C28.1714 23.414 28.2478 23.3936 28.3089 23.3936C28.1561 23.6077 28.044 24.0358 27.9726 24.678C27.9421 25.1469 27.9064 25.6157 27.8656 26.0846C27.723 26.2477 27.6516 26.3955 27.6516 26.528V29.1426H32.8182C32.8182 29.1732 32.8182 29.1987 32.8182 29.2191C32.8182 29.3618 32.9099 29.4688 33.0933 29.5402V32.7052ZM34.2703 27.9959L34.148 28.2405L34.0105 28.1794L34.1327 27.95L34.2703 27.9959ZM22.0418 16.0086L21.7056 16.3297L21.6138 16.2226L21.9348 15.9168L22.0418 16.0086ZM29.3331 23.4701C29.3331 23.5618 29.2566 23.8319 29.1038 24.2804C29.1038 24.1887 29.0834 24.0562 29.0426 23.8829C29.0019 23.6994 28.9815 23.5618 28.9815 23.4701H29.3331ZM20.605 15.7945C20.605 15.8659 20.5591 15.9423 20.4674 16.0239C20.3961 15.9933 20.3197 15.9525 20.2381 15.9015C20.2381 15.6773 20.3197 15.5652 20.4827 15.5652C20.5642 15.6365 20.605 15.713 20.605 15.7945ZM28.8134 23.9288L28.6911 24.2957L28.5688 24.2346L28.6758 23.9288H28.8134ZM23.4634 18.9137L23.3411 19.1583L23.2035 19.0971L23.3258 18.8678L23.4634 18.9137ZM28.3395 24.3569H28.1866V24.0205H28.3395V24.3569ZM30.4642 27.3996H29.9751C29.6999 27.3996 29.5267 27.2416 29.4554 26.9256C29.3942 26.6096 29.2974 26.4567 29.1649 26.4669C29.1853 26.2528 29.221 25.9266 29.2719 25.4883C29.4757 25.4883 29.5929 25.4679 29.6235 25.4272C29.3382 25.1723 29.1191 24.9328 28.9662 24.7085C28.9662 24.6168 29.1191 24.5098 29.4248 24.3875C29.4248 24.6219 29.5318 24.8513 29.7458 25.0755C30.0311 25.8706 30.2706 26.6453 30.4642 27.3996ZM18.4803 14.5102L18.358 14.7548L18.2204 14.6936L18.3427 14.4643L18.4803 14.5102ZM23.6468 19.6476L23.4787 19.984L23.3411 19.9228L23.5093 19.6017L23.6468 19.6476ZM22.3323 18.5467L22.21 18.7913L22.0724 18.7302L22.1947 18.5008L22.3323 18.5467ZM23.8302 19.984L23.6163 20.6261L23.4787 20.565L23.6927 19.984H23.8302ZM23.4175 20.1674C23.3666 20.2388 23.2902 20.356 23.1883 20.5191V19.9381C23.1984 20.091 23.2749 20.1674 23.4175 20.1674ZM23.6927 21.7423H23.2494V21.5894H23.6927V21.7423ZM22.0418 20.1063L21.9195 20.3509L21.7973 20.2898L21.9043 20.0604L22.0418 20.1063ZM22.2405 20.5344L22.1335 20.9625H21.9654L22.0877 20.5344H22.2405ZM22.3323 21.5129H22.1947L22.0724 21.2989L22.21 21.253L22.3323 21.5129ZM23.6468 23.3477H23.4787V22.7361H23.6468V23.3477ZM22.2405 22.7056H22.0724V21.6353H22.2405V22.7056ZM22.2864 22.8279C22.2864 23.0929 22.1998 23.363 22.0265 23.6382V23.0725C22.0265 22.9094 22.1132 22.8279 22.2864 22.8279ZM24.0137 25.5954L23.9067 25.6871L23.6774 25.4578L23.7844 25.366L24.0137 25.5954ZM23.5551 25.5189L23.4328 25.7636L23.2953 25.7024L23.4175 25.473L23.5551 25.5189ZM21.0177 23.623H20.8496V23.2866H21.0177V23.623ZM22.424 26.0999H22.2558V25.7636H22.424V26.0999ZM22.1335 25.5189L21.782 26.1305L21.6444 26.0693L22.0113 25.473L22.1335 25.5189ZM22.7908 26.895L22.6685 27.1396L22.5463 27.0785L22.6685 26.8491L22.7908 26.895ZM21.0177 25.3049L20.8954 25.6718L20.7578 25.6107L20.8801 25.3049H21.0177ZM22.1641 27.4913C22.0418 27.3588 21.9348 27.2925 21.8431 27.2925V26.9562C21.9858 26.9562 22.0928 26.9358 22.1641 26.895V27.4913ZM22.2405 28.1182H22.0724V27.5983H22.2405V28.1182ZM21.8584 29.7695H21.6903V29.4331H21.8584V29.7695ZM22.2405 30.6869H22.0724V30.0753H22.2405V30.6869ZM28.4771 22.4456C28.4771 22.2723 28.4363 22.15 28.3548 22.0787C28.2325 22.2112 28.0644 22.2774 27.8504 22.2774C27.8809 22.359 27.9217 22.4762 27.9726 22.6291C28.1255 22.4762 28.2529 22.3998 28.3548 22.3998C28.4057 22.3998 28.4465 22.4151 28.4771 22.4456Z" fill="#00FFFF"/>
<path d="M38.7184 5.29032H38.5656V5.04568H38.7184V5.29032ZM38.8101 6.29946L38.7031 6.71228H38.5503L38.6573 6.29946H38.8101ZM38.8407 7.99664C38.8407 8.20051 38.7643 8.37379 38.6114 8.5165V8.19541L38.8407 7.99664ZM38.9324 9.18925H38.7031V9.03636H38.9324V9.18925ZM40.0636 13.7915H39.9107L39.8037 13.3634H39.9566L40.0636 13.7915ZM42.4175 16.0239H42.2953C42.1934 16.0239 42.066 16.0137 41.9131 15.9933C42.0762 15.9321 42.2443 15.8455 42.4175 15.7333V16.0239ZM40.6291 15.0453C40.5272 15.0351 40.3896 15.03 40.2164 15.03L40.3387 14.7854C40.3998 14.8465 40.4967 14.9332 40.6291 15.0453ZM41.7144 16.1615H41.4698V16.0086H41.7144V16.1615ZM39.8343 14.9994H39.5897V14.8465H39.8343V14.9994ZM42.5551 17.2165L42.2647 17.9198L42.1424 17.8739L42.4328 17.2165H42.5551ZM42.5245 18.2562C42.4328 18.2766 42.2902 18.3072 42.0965 18.3479C42.1577 18.2664 42.2596 18.1543 42.4023 18.0116C42.443 18.0625 42.4838 18.1441 42.5245 18.2562ZM40.14 16.085L40.033 16.3144L39.9107 16.2685L40.0177 16.0391L40.14 16.085ZM42.6621 18.8219L42.5551 19.3418H42.4023L42.494 18.8219H42.6621ZM42.6468 19.8769H42.494V19.4488H42.6468V19.8769ZM41.9895 18.3174C41.908 18.4091 41.7552 18.455 41.531 18.455C41.5208 18.4753 41.5157 18.5008 41.5157 18.5314C41.5157 18.6333 41.5514 18.7913 41.6227 19.0054C41.6736 18.9952 41.7093 18.9748 41.7297 18.9442C41.7297 18.9137 41.7042 18.8729 41.6533 18.8219C41.7348 18.8933 41.7755 18.9748 41.7755 19.0666C41.7755 19.1583 41.745 19.2551 41.6838 19.3571C41.6125 19.2857 41.4698 19.0054 41.2558 18.5161C41.1437 18.5059 41.0062 18.4652 40.8431 18.3938C41.3832 18.2715 41.6634 18.2103 41.6838 18.2103C41.8163 18.2103 41.9182 18.246 41.9895 18.3174ZM41.0877 18.6384C40.9552 19.0156 40.889 19.1634 40.889 19.0818C40.7565 18.9493 40.6495 18.8831 40.568 18.8831L40.7667 18.6384H41.0877ZM31.7023 9.89259C31.3864 10.0557 31.1368 10.1372 30.9533 10.1372C30.8922 10.1372 30.8107 10.1067 30.7088 10.0455C30.6069 9.98433 30.5202 9.96395 30.4489 9.98433C30.6629 9.91298 30.8667 9.8773 31.0603 9.8773C31.6208 9.8773 31.8348 9.8824 31.7023 9.89259ZM30.2961 9.77027L29.9751 9.98433L29.8986 9.86201L30.2196 9.64795L30.2961 9.77027ZM45.1231 26.421C45.1231 29.0611 44.1295 30.8602 42.1424 31.8184C42.1118 31.8999 42.0303 32.0375 41.8978 32.2312C41.8876 32.2108 41.8825 32.1904 41.8825 32.17C41.8825 32.1191 41.9182 32.063 41.9895 32.0018L41.9437 31.8795C41.8316 31.9305 41.7195 32.0171 41.6074 32.1395H41.531C41.266 32.1293 40.8839 32.1802 40.3846 32.2924L40.5374 32.5064C40.3336 32.3535 39.9973 32.2669 39.5286 32.2465C39.1719 32.2363 38.8152 32.2261 38.4586 32.2159C37.3478 32.1242 36.339 31.4871 35.432 30.3047C34.5658 29.1834 34.1327 28.0468 34.1327 26.895V26.2528L37.4191 25.7177C37.4191 26.4516 37.5109 27.1193 37.6943 27.7207C37.9592 28.5871 38.3618 29.0203 38.9019 29.0203C39.0241 29.0203 39.2025 29.0356 39.4368 29.0662C39.6814 29.0866 39.8648 29.0968 39.9871 29.0968C40.2928 29.0968 40.517 29.0509 40.6597 28.9591C40.5068 28.7553 40.3132 28.6534 40.0788 28.6534C39.9566 28.6534 39.7884 28.6941 39.5744 28.7757C39.5846 28.7247 39.6458 28.6432 39.7578 28.531C39.605 28.3985 39.3655 28.2099 39.0394 27.9653C39.1209 27.9653 39.233 27.899 39.3757 27.7665L39.2229 27.9806L39.4368 28.1182C39.4368 28.0774 39.4623 27.9755 39.5133 27.8124C39.554 27.6799 39.5744 27.5831 39.5744 27.5219V24.7697C39.5744 24.7085 39.5489 24.6219 39.498 24.5098C39.447 24.3875 39.4216 24.2906 39.4216 24.2193C39.4216 24.1071 39.4368 23.9339 39.4674 23.6994C39.498 23.4548 39.5133 23.2713 39.5133 23.149C39.5133 22.9655 39.498 22.8534 39.4674 22.8126C39.2025 22.568 38.8458 22.2367 38.3974 21.8187C37.6943 21.1256 36.9351 20.3254 36.1199 19.4182C35.5084 18.7353 35.0601 18.0116 34.7747 17.2471C34.5811 16.7272 34.4843 15.9066 34.4843 14.7854C34.4843 13.1137 34.9531 11.758 35.8906 10.7182C36.8383 9.66834 38.1427 9.14338 39.8037 9.14338C40.8839 9.14338 41.8571 9.45938 42.7233 10.0914C43.5996 10.7132 44.1703 11.5439 44.4352 12.5836L44.7868 13.9444C44.8072 14.0158 44.8276 14.0667 44.8479 14.0973V14.6019C44.3486 14.6427 43.6251 14.7446 42.6774 14.9077C42.6366 14.9179 42.5653 14.9587 42.4634 15.03C42.3717 15.1014 42.2902 15.137 42.2188 15.137C42.1883 15.137 42.173 15.0912 42.173 14.9994C42.1526 14.979 42.122 14.9689 42.0813 14.9689C41.3577 14.9689 40.9094 14.9485 40.7361 14.9077C40.9094 14.8669 41.1335 14.8567 41.4087 14.8771L41.5463 14.7242V14.4031C41.4545 14.3114 41.3119 14.1585 41.1183 13.9444C41.159 13.8119 41.1794 13.6794 41.1794 13.5469C41.1794 12.762 40.675 12.3696 39.6661 12.3696C39.2483 12.3696 39.0394 12.5785 39.0394 12.9965C39.0394 13.2513 39.0853 13.8119 39.177 14.6783C39.2789 15.5855 39.3604 16.1105 39.4216 16.2532L39.4063 16.4061C39.3961 16.7119 39.4827 16.9616 39.6661 17.1553C39.6458 17.3796 39.6152 17.6038 39.5744 17.8281C39.5133 17.8281 39.4827 17.8434 39.4827 17.8739C39.5133 17.9147 39.5133 17.9504 39.4827 17.981C39.4827 18.2358 39.5897 18.3632 39.8037 18.3632C39.8547 18.3632 39.8801 18.3326 39.8801 18.2715C39.8903 18.2817 39.8954 18.297 39.8954 18.3174C39.8852 18.3581 39.8699 18.3887 39.8496 18.4091L40.0788 18.5467C40.1298 18.4855 40.1553 18.3938 40.1553 18.2715C40.1858 18.5773 40.6342 19.1175 41.5004 19.8922C41.5514 19.8412 41.6278 19.7597 41.7297 19.6476C41.6889 19.7189 41.6278 19.8158 41.5463 19.9381C41.7297 20.0502 41.959 20.2439 42.2341 20.5191H42.4787C42.5398 20.4579 42.5704 20.3356 42.5704 20.1521C42.5908 20.3458 42.6417 20.6261 42.7233 20.9931C44.3231 22.7361 45.1231 24.5455 45.1231 26.421ZM39.0394 25.9165C38.9783 26.0082 38.9477 26.0795 38.9477 26.1305C38.8968 26.0795 38.8101 26.0184 38.6879 25.947L38.8254 26.0541C38.9069 25.9827 38.9783 25.9368 39.0394 25.9165ZM39.2076 26.4363C39.1872 26.579 39.177 26.7676 39.177 27.002C39.177 26.8389 39.0802 26.7574 38.8866 26.7574V26.3751C38.8968 26.4159 38.9324 26.4924 38.9936 26.6045L39.2076 26.4363ZM39.07 27.1244H38.9477L38.8254 26.9103L38.963 26.8644L39.07 27.1244ZM43.1818 31.7266L43.0901 31.8031L42.8608 31.589L42.9525 31.4973L43.1818 31.7266ZM41.3934 13.7457L41.2711 13.6998L41.1641 13.9291L41.2864 13.9903L41.3934 13.7457ZM38.9324 12.4613C38.1681 12.8588 37.786 13.5877 37.786 14.6478C37.786 15.3919 38.1325 16.2736 38.8254 17.2929L38.9324 12.4613ZM40.8278 24.1428C40.7157 24.0715 40.5782 23.9644 40.4151 23.8217V24.6321C40.5476 24.3773 40.6852 24.2142 40.8278 24.1428ZM40.2928 24.0664V23.7606C40.1807 23.5771 39.982 23.3019 39.6967 22.9349C39.6152 23.0572 39.5744 23.1897 39.5744 23.3325C39.5744 23.4242 39.6967 23.5414 39.9413 23.6841C39.9107 23.8778 39.8496 24.1275 39.7578 24.4333H40.1094C40.1094 24.2295 40.1706 24.1071 40.2928 24.0664ZM41.1335 24.7544L40.996 24.7085L40.889 24.9379L41.0113 24.9991L41.1335 24.7544ZM40.8278 24.8767C40.7361 24.785 40.624 24.7391 40.4916 24.7391L40.6138 25.1672C40.6138 24.9736 40.6852 24.8767 40.8278 24.8767ZM40.2776 24.6474H39.8496C39.9005 24.7901 40.0126 24.9634 40.1858 25.1672C40.1858 25.1978 40.2164 25.0245 40.2776 24.6474Z" fill="#00FFFF"/>
<path d="M53.1022 13.501H52.934V13.2564H53.1022V13.501ZM46.4071 6.89576H46.2389V6.55938H46.4071V6.89576ZM54.4015 15.9321L54.2792 16.1768L54.1416 16.1309L54.2639 15.8862L54.4015 15.9321ZM46.4071 8.54708H46.2389V8.30244H46.4071V8.54708ZM52.9952 16.5284H52.8423V16.2838H52.9952V16.5284ZM46.4071 10.8406H46.2389V9.77027H46.4071V10.8406ZM46.4071 10.9782L46.2848 11.2228L46.1472 11.1769L46.2695 10.9323L46.4071 10.9782ZM51.4208 17.6293H51.2679V17.1094H51.4208V17.6293ZM54.7377 23.3325L54.6919 23.4242C54.6307 23.4548 54.6002 23.5006 54.6002 23.5618C54.59 23.4497 54.5849 23.3426 54.5849 23.2407V22.9655C54.6868 23.1286 54.7377 23.2509 54.7377 23.3325ZM57.214 32.3076H48.6693C48.598 32.379 48.5624 32.4554 48.5624 32.537C48.5624 32.3841 48.5114 32.3076 48.4095 32.3076C48.3382 32.3076 48.3025 32.3688 48.3025 32.4911C48.1089 32.3586 47.9 32.2924 47.6758 32.2924C47.686 32.2414 47.6911 32.1904 47.6911 32.1395C47.6911 31.9866 47.6248 31.8795 47.4924 31.8184C47.6248 31.7164 47.686 31.5584 47.6758 31.3444L47.5229 22.3998C47.3905 22.5425 47.3497 22.7412 47.4006 22.9961C47.3191 23.0267 47.1968 23.0419 47.0338 23.0419C47.0338 22.991 47.0338 22.9349 47.0338 22.8738C47.0338 22.8024 47.044 22.7005 47.0644 22.568C47.0949 22.4252 47.1102 22.3233 47.1102 22.2622C47.1102 22.1908 47.0185 22.15 46.8351 22.1398C46.6618 22.1194 46.5752 22.043 46.5752 21.9105C46.6058 21.9207 46.6364 21.9258 46.6669 21.9258C46.7485 21.9258 46.8657 21.885 47.0185 21.8035C46.9574 21.7321 46.9013 21.6964 46.8504 21.6964L46.7892 21.727L46.9574 21.4977C47.0185 21.4773 47.0796 21.4161 47.1408 21.3142C47.1816 21.4059 47.2529 21.5282 47.3548 21.6811C47.4567 21.5996 47.5076 21.4824 47.5076 21.3295C47.5076 21.2173 47.4771 21.0848 47.4159 20.9319C47.4567 20.9319 47.3905 20.9931 47.2172 21.1154V20.779C47.4108 20.6363 47.5076 20.4885 47.5076 20.3356C47.5076 20.2031 47.4363 20.0706 47.2936 19.9381L47.0491 20.1216C47.0389 19.8565 46.9064 19.4335 46.6516 18.8525C46.8147 18.8525 46.9523 18.8015 47.0644 18.6996C47.0338 18.7302 47.0185 18.8831 47.0185 19.1583C47.0185 19.3622 47.1051 19.5915 47.2784 19.8463H47.5076C47.6197 19.6934 47.6758 19.4335 47.6758 19.0666C47.6758 19.0156 47.6554 18.9391 47.6146 18.8372C47.5841 18.7251 47.5688 18.6435 47.5688 18.5926L47.5994 18.5161C47.5688 18.2409 47.5178 18.1033 47.4465 18.1033C47.3752 18.1033 47.2987 18.1237 47.2172 18.1644C47.4618 17.7058 47.5841 17.0432 47.5841 16.1768C47.5841 15.7996 47.5586 15.3817 47.5076 14.923C47.6095 14.8414 47.6605 14.6732 47.6605 14.4184C47.6605 14.3369 47.6503 14.2095 47.6299 14.0362C47.6095 13.8629 47.5994 13.7355 47.5994 13.6539C47.5994 13.3787 47.6095 12.971 47.6299 12.4307C47.6605 11.8803 47.6758 11.4675 47.6758 11.1922C47.6758 10.4991 47.6197 9.87221 47.5076 9.31157H57.1376V12.5836H51.222V18.6843L51.3596 18.8372H52.506C52.6793 18.8372 52.8168 18.776 52.9187 18.6537L53.041 18.776C53.306 18.8168 53.8715 18.8372 54.7377 18.8372C55.288 18.8372 55.6141 18.6843 55.716 18.3785C55.716 18.4295 55.6753 18.5212 55.5937 18.6537C55.5122 18.7862 55.4714 18.8882 55.4714 18.9595V22.0328H54.7072C54.646 22.1347 54.6154 22.3794 54.6154 22.7667C54.5135 22.5832 54.4626 22.3641 54.4626 22.1093C54.2894 22.0685 54.1161 22.0481 53.9429 22.0481C53.7391 22.0481 53.5302 22.0736 53.3162 22.1245C53.2245 22.2061 53.1786 22.2723 53.1786 22.3233C53.1786 22.3539 53.2296 22.41 53.3315 22.4915C53.2907 22.4507 53.2397 22.4303 53.1786 22.4303C53.0767 22.4303 53.0257 22.4558 53.0257 22.5068V22.4762C53.0359 22.4151 52.9901 22.3386 52.8882 22.2469C52.7965 22.1449 52.7404 22.0736 52.72 22.0328C52.6589 22.1245 52.5672 22.2469 52.4449 22.3998C52.4449 22.2163 52.4143 22.094 52.3532 22.0328C52.2411 22.0328 52.185 22.1449 52.185 22.3692C52.185 22.2673 52.1443 22.2163 52.0628 22.2163C52.0118 22.2163 51.9405 22.2367 51.8488 22.2774C51.9812 22.3998 52.0475 22.5068 52.0475 22.5985C52.0475 22.6903 51.9201 22.7973 51.6653 22.9196C51.757 22.9706 51.8793 23.0572 52.0322 23.1796C51.9914 23.2917 51.8997 23.4089 51.757 23.5312C51.6144 23.6535 51.543 23.7759 51.543 23.8982C51.543 23.9491 51.5481 24.0052 51.5583 24.0664C51.5481 23.9746 51.5074 23.8217 51.436 23.6077C51.4157 23.6892 51.3341 23.8013 51.1915 23.944V29.0968H57.214C57.1834 29.3822 57.1681 29.7899 57.1681 30.32C57.1681 30.8602 57.1834 31.5228 57.214 32.3076ZM46.0249 15.978H45.8721V15.6416H46.0249V15.978ZM53.1022 24.1428H52.934V23.0725H53.1022V24.1428ZM52.72 23.5924H52.5672V23.0725H52.72V23.5924ZM46.9879 18.088C46.937 18.0574 46.8606 18.0268 46.7586 17.9963C46.7586 17.9249 46.8351 17.7465 46.9879 17.4611V18.088ZM47.4159 18.5773L47.3242 18.669L47.0949 18.4397L47.1866 18.3479L47.4159 18.5773ZM52.7659 24.3722L52.2462 24.2804V24.1122L52.7659 24.2193V24.3722ZM47.4312 18.7608L47.3242 19.4641H47.1714L47.2631 18.7608H47.4312ZM51.971 24.0511H51.8335L51.7265 23.73L51.864 23.6841L51.971 24.0511ZM52.078 24.1887L51.9558 24.4333L51.8182 24.3722L51.9405 24.1428L52.078 24.1887ZM52.9952 25.5801L52.9035 25.7024L52.4755 25.3354L52.5825 25.2131L52.9952 25.5801ZM51.9252 24.7391H51.5889V24.5709H51.9252V24.7391ZM47.2784 14.8924C47.2784 15.137 47.2376 15.2594 47.1561 15.2594C47.0949 15.2594 47.0389 15.2288 46.9879 15.1676C46.9879 15.1778 46.9828 15.1829 46.9726 15.1829C46.9625 15.2135 46.9574 15.239 46.9574 15.2594C46.9574 15.3103 46.9676 15.3715 46.9879 15.4428C46.8962 15.4428 46.7434 15.4123 46.5294 15.3511C46.3867 15.6263 46.3154 15.8862 46.3154 16.1309C46.3154 16.3959 46.3969 16.6406 46.5599 16.8648L46.4529 16.9718C46.4529 17.9504 46.4377 19.2297 46.4071 20.8096C46.3663 22.9196 46.3408 24.1989 46.3307 24.6474C46.3612 24.7187 46.4071 24.8156 46.4682 24.9379L46.3307 27.6289C46.3612 27.5882 46.3765 27.5525 46.3765 27.5219C46.3765 27.4709 46.3307 27.4454 46.2389 27.4454C46.1676 27.4454 46.0912 27.476 46.0097 27.5372C46.03 27.2416 46.0402 26.9613 46.0402 26.6962C46.0402 26.4414 46.03 26.2019 46.0097 25.9776C45.9587 25.998 45.9078 26.049 45.8568 26.1305C45.8568 26.0693 45.9027 25.947 45.9944 25.7636C45.9536 25.7432 45.8823 25.6922 45.7804 25.6107C45.709 25.8247 45.6071 26.0999 45.4747 26.4363C45.3931 26.1203 45.3524 25.9572 45.3524 25.947C45.3524 25.8961 45.5256 25.6361 45.8721 25.1672C45.8721 25.2794 45.8211 25.3864 45.7192 25.4883C45.7804 25.4985 45.8568 25.5444 45.9485 25.6259C46.0504 25.6361 46.1014 25.575 46.1014 25.4425V22.8585C46.0198 22.889 45.8976 22.9196 45.7345 22.9502C45.7855 22.6342 45.8109 22.4762 45.8109 22.4762L45.6581 22.3233C45.5766 22.3743 45.5052 22.3998 45.4441 22.3998V21.2377C45.6377 21.0441 45.76 20.9472 45.8109 20.9472C45.8721 20.9472 45.9128 20.9625 45.9332 20.9931L45.9638 21.1307C46.0963 21.039 46.1625 20.8402 46.1625 20.5344C46.1625 20.4732 46.1421 20.2388 46.1014 19.8311C46.0504 19.8311 45.9893 19.826 45.9179 19.8158C46.1014 19.4284 46.1931 18.7455 46.1931 17.7669C46.1931 17.4611 46.1676 17.2522 46.1167 17.14C46.1574 16.9973 46.1778 16.8801 46.1778 16.7884C46.1778 16.6966 46.1574 16.6253 46.1167 16.5743C46.2084 16.4112 46.2695 15.5754 46.3001 14.0667C46.3103 13.1493 46.3205 12.232 46.3307 11.3146C46.3918 12.1402 46.4224 12.9047 46.4224 13.608C46.4224 14.1687 46.402 14.6936 46.3612 15.1829C46.351 15.1931 46.3459 15.2033 46.3459 15.2135C46.3459 15.2441 46.402 15.2594 46.5141 15.2594C46.6567 15.2594 46.9115 15.137 47.2784 14.8924ZM46.8657 20.2898H46.7128V19.7699H46.8657V20.2898ZM44.5422 19.6476H44.3894V19.4029H44.5422V19.6476ZM47.3701 23.6841C47.2682 23.6739 47.1255 23.6688 46.9421 23.6688L47.0491 23.2407C47.1204 23.3019 47.2274 23.3325 47.3701 23.3325V23.6841ZM44.5422 22.308H44.3894V21.146H44.5422V22.308ZM44.6034 22.4303C44.5219 22.5425 44.4811 22.624 44.4811 22.675L44.2365 22.4303H44.6034ZM45.7498 24.1887L45.6275 24.4333L45.5052 24.3722L45.6122 24.1428L45.7498 24.1887ZM47.3395 26.0693H47.1714V25.8094H47.3395V26.0693ZM47.3395 28.1794H47.1714V27.9194H47.3395V28.1794ZM44.634 26.0693H44.4811V25.366H44.634V26.0693ZM47.4312 29.6013L47.3089 29.846L47.1714 29.7848L47.2936 29.5555L47.4312 29.6013ZM44.634 27.6289H44.4811V27.369H44.634V27.6289ZM46.4377 30.4117C46.4377 30.6767 46.402 31.0029 46.3307 31.3902C46.3307 31.217 46.3052 30.8908 46.2542 30.4117C46.2033 30.004 46.1778 29.6778 46.1778 29.4331V28.8215C46.1778 28.2303 46.188 27.8685 46.2084 27.736L46.3918 27.843L46.4071 28.2099C46.4071 28.5259 46.3816 29.0509 46.3307 29.7848C46.402 29.9377 46.4377 30.1467 46.4377 30.4117ZM44.7257 28.2558H44.5881L44.4811 28.0418L44.6034 27.9959L44.7257 28.2558ZM44.634 30.1823H44.4811V29.846H44.634V30.1823ZM46.3154 26.8033V26.4516H46.1472V26.8033H46.3154Z" fill="#00FFFF"/>
<path d="M68.4795 20.7943C68.4082 20.7943 68.3164 20.8504 68.2043 20.9625C68.2043 20.7688 68.2349 20.6108 68.2961 20.4885C68.4183 20.621 68.4795 20.723 68.4795 20.7943ZM68.9228 21.4824L68.8158 21.6964L68.7088 21.6353L68.8005 21.4365L68.9228 21.4824ZM69.0756 22.3845H68.9381V22.1704H69.0756V22.3845ZM64.6122 20.1216L64.5205 20.4885C64.3982 20.4885 64.2759 20.3662 64.1537 20.1216H64.6122ZM69.0451 20.0757C68.6884 20.2388 68.4948 20.3764 68.4642 20.4885C68.3215 20.3254 68.1687 20.2439 68.0056 20.2439C68.0158 20.4477 67.9292 20.7434 67.7458 21.1307C67.6643 20.9574 67.5369 20.7179 67.3636 20.4121L67.1191 21.36C67.0681 21.1256 66.9051 20.9166 66.6299 20.7332H66.4159C66.365 20.7841 66.3344 20.83 66.3242 20.8708C66.3344 20.9014 66.3752 20.9166 66.4465 20.9166C66.4363 20.9268 66.4261 20.9319 66.4159 20.9319C66.3854 20.9319 66.3548 20.9166 66.3242 20.8861L66.2019 21.0237C66.2427 21.0542 66.314 21.1664 66.4159 21.36C66.5178 21.2581 66.5637 21.2071 66.5535 21.2071L66.7522 21.4212C66.5484 21.4722 66.4465 21.5588 66.4465 21.6811C66.4465 21.7321 66.4618 21.7882 66.4924 21.8493C66.5535 21.8493 66.5943 21.8238 66.6146 21.7729C66.6554 21.7117 66.6503 21.6658 66.5994 21.6353C66.7624 21.6353 66.8898 21.7423 66.9815 21.9564V22.3845C66.4312 22.3845 66.1561 22.3845 66.1561 22.3845C65.3103 22.3947 64.9383 22.3998 65.0402 22.3998C65.0402 22.3182 65.0147 22.2112 64.9638 22.0787C64.8823 22.0787 64.8415 22.1806 64.8415 22.3845H60.317V20.0298C60.7959 20.0706 61.173 20.091 61.4481 20.091C61.7334 20.091 61.9169 20.0706 61.9984 20.0298C61.9882 20.0706 61.9831 20.1114 61.9831 20.1521C61.9831 20.2337 62.0035 20.3203 62.0443 20.4121C62.2379 20.147 62.4621 20.0145 62.7168 20.0145C62.7881 20.0145 62.8697 20.0451 62.9614 20.1063C63.0633 20.1572 63.1397 20.1827 63.1907 20.1827C63.2416 20.1827 63.3028 20.1572 63.3741 20.1063C63.4556 20.0451 63.527 20.0145 63.5881 20.0145C63.8021 20.0145 63.9193 20.1165 63.9397 20.3203C63.9702 20.6363 64.0263 20.8555 64.1078 20.9778C64.1486 20.9778 64.1893 20.9625 64.2301 20.9319C64.1486 20.7994 64.1078 20.6414 64.1078 20.4579C64.1078 20.5293 64.1893 20.6567 64.3524 20.8402C64.3116 20.9319 64.2912 21.0084 64.2912 21.0695C64.2912 21.1307 64.3065 21.1868 64.3371 21.2377C64.4186 21.3295 64.5001 21.4263 64.5817 21.5282C64.6938 21.3957 64.7498 21.2785 64.7498 21.1766C64.7498 21.1052 64.7039 21.0033 64.6122 20.8708C64.5205 20.7383 64.4798 20.6414 64.4899 20.5803C64.5205 20.6414 64.5766 20.7179 64.6581 20.8096C64.76 20.7077 64.8466 20.6567 64.9179 20.6567L65.0555 20.8096V20.8249C65.0657 20.8351 65.0759 20.83 65.0861 20.8096V20.6873C65.0861 20.6567 65.03 20.5803 64.9179 20.4579C64.8058 20.3356 64.7345 20.2082 64.7039 20.0757H69.0451ZM65.5905 20.7179L65.4988 20.6414L65.3154 20.8249L65.3918 20.9166L65.5905 20.7179ZM65.6058 20.9778H65.4682L65.3765 21.3448H65.5141L65.6058 20.9778Z" fill="#00FFFF"/>
<path d="M76.0459 5.29032H75.893V5.04568H76.0459V5.29032ZM76.1376 6.29946L76.0306 6.71228H75.8777L75.9847 6.29946H76.1376ZM76.1681 7.99664C76.1681 8.20051 76.0917 8.37379 75.9389 8.5165V8.19541L76.1681 7.99664ZM76.2599 9.18925H76.0306V9.03636H76.2599V9.18925ZM77.391 13.7915H77.2381L77.1311 13.3634H77.284L77.391 13.7915ZM79.745 16.0239H79.6227C79.5208 16.0239 79.3934 16.0137 79.2405 15.9933C79.4036 15.9321 79.5717 15.8455 79.745 15.7333V16.0239ZM77.9566 15.0453C77.8547 15.0351 77.7171 15.03 77.5438 15.03L77.6661 14.7854C77.7273 14.8465 77.8241 14.9332 77.9566 15.0453ZM79.0418 16.1615H78.7973V16.0086H79.0418V16.1615ZM77.1617 14.9994H76.9171V14.8465H77.1617V14.9994ZM79.8825 17.2165L79.5921 17.9198L79.4698 17.8739L79.7603 17.2165H79.8825ZM79.852 18.2562C79.7603 18.2766 79.6176 18.3072 79.424 18.3479C79.4851 18.2664 79.587 18.1543 79.7297 18.0116C79.7704 18.0625 79.8112 18.1441 79.852 18.2562ZM77.4674 16.085L77.3604 16.3144L77.2381 16.2685L77.3451 16.0391L77.4674 16.085ZM79.9895 18.8219L79.8825 19.3418H79.7297L79.8214 18.8219H79.9895ZM79.9743 19.8769H79.8214V19.4488H79.9743V19.8769ZM79.317 18.3174C79.2355 18.4091 79.0826 18.455 78.8584 18.455C78.8482 18.4753 78.8431 18.5008 78.8431 18.5314C78.8431 18.6333 78.8788 18.7913 78.9501 19.0054C79.0011 18.9952 79.0367 18.9748 79.0571 18.9442C79.0571 18.9137 79.0316 18.8729 78.9807 18.8219C79.0622 18.8933 79.103 18.9748 79.103 19.0666C79.103 19.1583 79.0724 19.2551 79.0113 19.3571C78.9399 19.2857 78.7973 19.0054 78.5833 18.5161C78.4712 18.5059 78.3336 18.4652 78.1706 18.3938C78.7106 18.2715 78.9909 18.2103 79.0113 18.2103C79.1437 18.2103 79.2456 18.246 79.317 18.3174ZM78.4151 18.6384C78.2827 19.0156 78.2164 19.1634 78.2164 19.0818C78.0839 18.9493 77.9769 18.8831 77.8954 18.8831L78.0941 18.6384H78.4151ZM69.0298 9.89259C68.7139 10.0557 68.4642 10.1372 68.2808 10.1372C68.2196 10.1372 68.1381 10.1067 68.0362 10.0455C67.9343 9.98433 67.8477 9.96395 67.7764 9.98433C67.9903 9.91298 68.1942 9.8773 68.3878 9.8773C68.9482 9.8773 69.1622 9.8824 69.0298 9.89259ZM67.6235 9.77027L67.3025 9.98433L67.2261 9.86201L67.5471 9.64795L67.6235 9.77027ZM82.4505 26.421C82.4505 29.0611 81.457 30.8602 79.4698 31.8184C79.4393 31.8999 79.3577 32.0375 79.2253 32.2312C79.2151 32.2108 79.21 32.1904 79.21 32.17C79.21 32.1191 79.2456 32.063 79.317 32.0018L79.2711 31.8795C79.159 31.9305 79.0469 32.0171 78.9348 32.1395H78.8584C78.5935 32.1293 78.2113 32.1802 77.712 32.2924L77.8648 32.5064C77.661 32.3535 77.3248 32.2669 76.856 32.2465C76.4993 32.2363 76.1427 32.2261 75.786 32.2159C74.6752 32.1242 73.6664 31.4871 72.7595 30.3047C71.8933 29.1834 71.4602 28.0468 71.4602 26.895V26.2528L74.7466 25.7177C74.7466 26.4516 74.8383 27.1193 75.0217 27.7207C75.2867 28.5871 75.6892 29.0203 76.2293 29.0203C76.3516 29.0203 76.5299 29.0356 76.7643 29.0662C77.0089 29.0866 77.1923 29.0968 77.3146 29.0968C77.6203 29.0968 77.8445 29.0509 77.9871 28.9591C77.8343 28.7553 77.6407 28.6534 77.4063 28.6534C77.284 28.6534 77.1159 28.6941 76.9019 28.7757C76.912 28.7247 76.9732 28.6432 77.0853 28.531C76.9324 28.3985 76.6929 28.2099 76.3669 27.9653C76.4484 27.9653 76.5605 27.899 76.7031 27.7665L76.5503 27.9806L76.7643 28.1182C76.7643 28.0774 76.7898 27.9755 76.8407 27.8124C76.8815 27.6799 76.9019 27.5831 76.9019 27.5219V24.7697C76.9019 24.7085 76.8764 24.6219 76.8254 24.5098C76.7745 24.3875 76.749 24.2906 76.749 24.2193C76.749 24.1071 76.7643 23.9339 76.7949 23.6994C76.8254 23.4548 76.8407 23.2713 76.8407 23.149C76.8407 22.9655 76.8254 22.8534 76.7949 22.8126C76.5299 22.568 76.1732 22.2367 75.7249 21.8187C75.0217 21.1256 74.2625 20.3254 73.4473 19.4182C72.8359 18.7353 72.3875 18.0116 72.1022 17.2471C71.9086 16.7272 71.8117 15.9066 71.8117 14.7854C71.8117 13.1137 72.2805 11.758 73.218 10.7182C74.1657 9.66834 75.4701 9.14338 77.1311 9.14338C78.2113 9.14338 79.1845 9.45938 80.0507 10.0914C80.9271 10.7132 81.4977 11.5439 81.7627 12.5836L82.1142 13.9444C82.1346 14.0158 82.155 14.0667 82.1754 14.0973V14.6019C81.6761 14.6427 80.9525 14.7446 80.0048 14.9077C79.9641 14.9179 79.8927 14.9587 79.7908 15.03C79.6991 15.1014 79.6176 15.137 79.5463 15.137C79.5157 15.137 79.5004 15.0912 79.5004 14.9994C79.48 14.979 79.4495 14.9689 79.4087 14.9689C78.6852 14.9689 78.2368 14.9485 78.0636 14.9077C78.2368 14.8669 78.461 14.8567 78.7361 14.8771L78.8737 14.7242V14.4031C78.782 14.3114 78.6393 14.1585 78.4457 13.9444C78.4865 13.8119 78.5068 13.6794 78.5068 13.5469C78.5068 12.762 78.0024 12.3696 76.9936 12.3696C76.5758 12.3696 76.3669 12.5785 76.3669 12.9965C76.3669 13.2513 76.4127 13.8119 76.5044 14.6783C76.6063 15.5855 76.6879 16.1105 76.749 16.2532L76.7337 16.4061C76.7235 16.7119 76.8101 16.9616 76.9936 17.1553C76.9732 17.3796 76.9426 17.6038 76.9019 17.8281C76.8407 17.8281 76.8101 17.8434 76.8101 17.8739C76.8407 17.9147 76.8407 17.9504 76.8101 17.981C76.8101 18.2358 76.9171 18.3632 77.1311 18.3632C77.1821 18.3632 77.2076 18.3326 77.2076 18.2715C77.2178 18.2817 77.2228 18.297 77.2228 18.3174C77.2127 18.3581 77.1974 18.3887 77.177 18.4091L77.4063 18.5467C77.4572 18.4855 77.4827 18.3938 77.4827 18.2715C77.5133 18.5773 77.9617 19.1175 78.8278 19.8922C78.8788 19.8412 78.9552 19.7597 79.0571 19.6476C79.0164 19.7189 78.9552 19.8158 78.8737 19.9381C79.0571 20.0502 79.2864 20.2439 79.5615 20.5191H79.8061C79.8673 20.4579 79.8978 20.3356 79.8978 20.1521C79.9182 20.3458 79.9692 20.6261 80.0507 20.9931C81.6506 22.7361 82.4505 24.5455 82.4505 26.421ZM76.3669 25.9165C76.3057 26.0082 76.2751 26.0795 76.2751 26.1305C76.2242 26.0795 76.1376 26.0184 76.0153 25.947L76.1529 26.0541C76.2344 25.9827 76.3057 25.9368 76.3669 25.9165ZM76.535 26.4363C76.5146 26.579 76.5044 26.7676 76.5044 27.002C76.5044 26.8389 76.4076 26.7574 76.214 26.7574V26.3751C76.2242 26.4159 76.2599 26.4924 76.321 26.6045L76.535 26.4363ZM76.3974 27.1244H76.2751L76.1529 26.9103L76.2904 26.8644L76.3974 27.1244ZM80.5093 31.7266L80.4175 31.8031L80.1883 31.589L80.28 31.4973L80.5093 31.7266ZM78.7208 13.7457L78.5986 13.6998L78.4916 13.9291L78.6138 13.9903L78.7208 13.7457ZM76.2599 12.4613C75.4956 12.8588 75.1134 13.5877 75.1134 14.6478C75.1134 15.3919 75.4599 16.2736 76.1529 17.2929L76.2599 12.4613ZM78.1553 24.1428C78.0432 24.0715 77.9056 23.9644 77.7426 23.8217V24.6321C77.875 24.3773 78.0126 24.2142 78.1553 24.1428ZM77.6203 24.0664V23.7606C77.5082 23.5771 77.3095 23.3019 77.0241 22.9349C76.9426 23.0572 76.9019 23.1897 76.9019 23.3325C76.9019 23.4242 77.0241 23.5414 77.2687 23.6841C77.2381 23.8778 77.177 24.1275 77.0853 24.4333H77.4369C77.4369 24.2295 77.498 24.1071 77.6203 24.0664ZM78.461 24.7544L78.3234 24.7085L78.2164 24.9379L78.3387 24.9991L78.461 24.7544ZM78.1553 24.8767C78.0636 24.785 77.9515 24.7391 77.819 24.7391L77.9413 25.1672C77.9413 24.9736 78.0126 24.8767 78.1553 24.8767ZM77.605 24.6474H77.177C77.2279 24.7901 77.34 24.9634 77.5133 25.1672C77.5133 25.1978 77.5438 25.0245 77.605 24.6474Z" fill="#00FFFF"/>
<path d="M90.4296 13.501H90.2615V13.2564H90.4296V13.501ZM83.7345 6.89576H83.5664V6.55938H83.7345V6.89576ZM91.7289 15.9321L91.6066 16.1768L91.469 16.1309L91.5913 15.8862L91.7289 15.9321ZM83.7345 8.54708H83.5664V8.30244H83.7345V8.54708ZM90.3226 16.5284H90.1698V16.2838H90.3226V16.5284ZM83.7345 10.8406H83.5664V9.77027H83.7345V10.8406ZM83.7345 10.9782L83.6122 11.2228L83.4747 11.1769L83.5969 10.9323L83.7345 10.9782ZM88.7482 17.6293H88.5953V17.1094H88.7482V17.6293ZM92.0652 23.3325L92.0193 23.4242C91.9582 23.4548 91.9276 23.5006 91.9276 23.5618C91.9174 23.4497 91.9123 23.3426 91.9123 23.2407V22.9655C92.0142 23.1286 92.0652 23.2509 92.0652 23.3325ZM94.5414 32.3076H85.9968C85.9255 32.379 85.8898 32.4554 85.8898 32.537C85.8898 32.3841 85.8388 32.3076 85.7369 32.3076C85.6656 32.3076 85.6299 32.3688 85.6299 32.4911C85.4363 32.3586 85.2274 32.2924 85.0032 32.2924C85.0134 32.2414 85.0185 32.1904 85.0185 32.1395C85.0185 31.9866 84.9523 31.8795 84.8198 31.8184C84.9523 31.7164 85.0134 31.5584 85.0032 31.3444L84.8504 22.3998C84.7179 22.5425 84.6771 22.7412 84.7281 22.9961C84.6466 23.0267 84.5243 23.0419 84.3612 23.0419C84.3612 22.991 84.3612 22.9349 84.3612 22.8738C84.3612 22.8024 84.3714 22.7005 84.3918 22.568C84.4224 22.4252 84.4377 22.3233 84.4377 22.2622C84.4377 22.1908 84.3459 22.15 84.1625 22.1398C83.9893 22.1194 83.9027 22.043 83.9027 21.9105C83.9332 21.9207 83.9638 21.9258 83.9944 21.9258C84.0759 21.9258 84.1931 21.885 84.3459 21.8035C84.2848 21.7321 84.2288 21.6964 84.1778 21.6964L84.1167 21.727L84.2848 21.4977C84.3459 21.4773 84.4071 21.4161 84.4682 21.3142C84.509 21.4059 84.5803 21.5282 84.6822 21.6811C84.7841 21.5996 84.8351 21.4824 84.8351 21.3295C84.8351 21.2173 84.8045 21.0848 84.7434 20.9319C84.7841 20.9319 84.7179 20.9931 84.5447 21.1154V20.779C84.7383 20.6363 84.8351 20.4885 84.8351 20.3356C84.8351 20.2031 84.7637 20.0706 84.6211 19.9381L84.3765 20.1216C84.3663 19.8565 84.2338 19.4335 83.9791 18.8525C84.1421 18.8525 84.2797 18.8015 84.3918 18.6996C84.3612 18.7302 84.3459 18.8831 84.3459 19.1583C84.3459 19.3622 84.4326 19.5915 84.6058 19.8463H84.8351C84.9472 19.6934 85.0032 19.4335 85.0032 19.0666C85.0032 19.0156 84.9828 18.9391 84.9421 18.8372C84.9115 18.7251 84.8962 18.6435 84.8962 18.5926L84.9268 18.5161C84.8962 18.2409 84.8453 18.1033 84.7739 18.1033C84.7026 18.1033 84.6262 18.1237 84.5447 18.1644C84.7892 17.7058 84.9115 17.0432 84.9115 16.1768C84.9115 15.7996 84.886 15.3817 84.8351 14.923C84.937 14.8414 84.9879 14.6732 84.9879 14.4184C84.9879 14.3369 84.9777 14.2095 84.9574 14.0362C84.937 13.8629 84.9268 13.7355 84.9268 13.6539C84.9268 13.3787 84.937 12.971 84.9574 12.4307C84.9879 11.8803 85.0032 11.4675 85.0032 11.1922C85.0032 10.4991 84.9472 9.87221 84.8351 9.31157H94.465V12.5836H88.5495V18.6843L88.687 18.8372H89.8335C90.0067 18.8372 90.1443 18.776 90.2462 18.6537L90.3685 18.776C90.6334 18.8168 91.199 18.8372 92.0652 18.8372C92.6154 18.8372 92.9415 18.6843 93.0434 18.3785C93.0434 18.4295 93.0027 18.5212 92.9212 18.6537C92.8396 18.7862 92.7989 18.8882 92.7989 18.9595V22.0328H92.0346C91.9735 22.1347 91.9429 22.3794 91.9429 22.7667C91.841 22.5832 91.79 22.3641 91.79 22.1093C91.6168 22.0685 91.4436 22.0481 91.2703 22.0481C91.0665 22.0481 90.8576 22.0736 90.6436 22.1245C90.5519 22.2061 90.506 22.2723 90.506 22.3233C90.506 22.3539 90.557 22.41 90.6589 22.4915C90.6181 22.4507 90.5672 22.4303 90.506 22.4303C90.4041 22.4303 90.3532 22.4558 90.3532 22.5068V22.4762C90.3634 22.4151 90.3175 22.3386 90.2156 22.2469C90.1239 22.1449 90.0678 22.0736 90.0475 22.0328C89.9863 22.1245 89.8946 22.2469 89.7723 22.3998C89.7723 22.2163 89.7418 22.094 89.6806 22.0328C89.5685 22.0328 89.5125 22.1449 89.5125 22.3692C89.5125 22.2673 89.4717 22.2163 89.3902 22.2163C89.3392 22.2163 89.2679 22.2367 89.1762 22.2774C89.3087 22.3998 89.3749 22.5068 89.3749 22.5985C89.3749 22.6903 89.2475 22.7973 88.9928 22.9196C89.0845 22.9706 89.2068 23.0572 89.3596 23.1796C89.3189 23.2917 89.2271 23.4089 89.0845 23.5312C88.9418 23.6535 88.8705 23.7759 88.8705 23.8982C88.8705 23.9491 88.8756 24.0052 88.8858 24.0664C88.8756 23.9746 88.8348 23.8217 88.7635 23.6077C88.7431 23.6892 88.6616 23.8013 88.5189 23.944V29.0968H94.5414C94.5109 29.3822 94.4956 29.7899 94.4956 30.32C94.4956 30.8602 94.5109 31.5228 94.5414 32.3076ZM83.3524 15.978H83.1995V15.6416H83.3524V15.978ZM90.4296 24.1428H90.2615V23.0725H90.4296V24.1428ZM90.0475 23.5924H89.8946V23.0725H90.0475V23.5924ZM84.3154 18.088C84.2644 18.0574 84.188 18.0268 84.0861 17.9963C84.0861 17.9249 84.1625 17.7465 84.3154 17.4611V18.088ZM84.7434 18.5773L84.6516 18.669L84.4224 18.4397L84.5141 18.3479L84.7434 18.5773ZM90.0933 24.3722L89.5736 24.2804V24.1122L90.0933 24.2193V24.3722ZM84.7587 18.7608L84.6516 19.4641H84.4988L84.5905 18.7608H84.7587ZM89.2985 24.0511H89.1609L89.0539 23.73L89.1915 23.6841L89.2985 24.0511ZM89.4055 24.1887L89.2832 24.4333L89.1456 24.3722L89.2679 24.1428L89.4055 24.1887ZM90.3226 25.5801L90.2309 25.7024L89.8029 25.3354L89.9099 25.2131L90.3226 25.5801ZM89.2526 24.7391H88.9163V24.5709H89.2526V24.7391ZM84.6058 14.8924C84.6058 15.137 84.565 15.2594 84.4835 15.2594C84.4224 15.2594 84.3663 15.2288 84.3154 15.1676C84.3154 15.1778 84.3103 15.1829 84.3001 15.1829C84.2899 15.2135 84.2848 15.239 84.2848 15.2594C84.2848 15.3103 84.295 15.3715 84.3154 15.4428C84.2237 15.4428 84.0708 15.4123 83.8568 15.3511C83.7141 15.6263 83.6428 15.8862 83.6428 16.1309C83.6428 16.3959 83.7243 16.6406 83.8874 16.8648L83.7804 16.9718C83.7804 17.9504 83.7651 19.2297 83.7345 20.8096C83.6938 22.9196 83.6683 24.1989 83.6581 24.6474C83.6887 24.7187 83.7345 24.8156 83.7957 24.9379L83.6581 27.6289C83.6887 27.5882 83.7039 27.5525 83.7039 27.5219C83.7039 27.4709 83.6581 27.4454 83.5664 27.4454C83.495 27.4454 83.4186 27.476 83.3371 27.5372C83.3575 27.2416 83.3677 26.9613 83.3677 26.6962C83.3677 26.4414 83.3575 26.2019 83.3371 25.9776C83.2861 25.998 83.2352 26.049 83.1842 26.1305C83.1842 26.0693 83.2301 25.947 83.3218 25.7636C83.281 25.7432 83.2097 25.6922 83.1078 25.6107C83.0365 25.8247 82.9346 26.0999 82.8021 26.4363C82.7206 26.1203 82.6798 25.9572 82.6798 25.947C82.6798 25.8961 82.853 25.6361 83.1995 25.1672C83.1995 25.2794 83.1486 25.3864 83.0467 25.4883C83.1078 25.4985 83.1842 25.5444 83.2759 25.6259C83.3779 25.6361 83.4288 25.575 83.4288 25.4425V22.8585C83.3473 22.889 83.225 22.9196 83.062 22.9502C83.1129 22.6342 83.1384 22.4762 83.1384 22.4762L82.9855 22.3233C82.904 22.3743 82.8327 22.3998 82.7715 22.3998V21.2377C82.9651 21.0441 83.0874 20.9472 83.1384 20.9472C83.1995 20.9472 83.2403 20.9625 83.2607 20.9931L83.2912 21.1307C83.4237 21.039 83.4899 20.8402 83.4899 20.5344C83.4899 20.4732 83.4696 20.2388 83.4288 19.8311C83.3779 19.8311 83.3167 19.826 83.2454 19.8158C83.4288 19.4284 83.5205 18.7455 83.5205 17.7669C83.5205 17.4611 83.495 17.2522 83.4441 17.14C83.4848 16.9973 83.5052 16.8801 83.5052 16.7884C83.5052 16.6966 83.4848 16.6253 83.4441 16.5743C83.5358 16.4112 83.5969 15.5754 83.6275 14.0667C83.6377 13.1493 83.6479 12.232 83.6581 11.3146C83.7192 12.1402 83.7498 12.9047 83.7498 13.608C83.7498 14.1687 83.7294 14.6936 83.6887 15.1829C83.6785 15.1931 83.6734 15.2033 83.6734 15.2135C83.6734 15.2441 83.7294 15.2594 83.8415 15.2594C83.9842 15.2594 84.2389 15.137 84.6058 14.8924ZM84.1931 20.2898H84.0402V19.7699H84.1931V20.2898ZM81.8697 19.6476H81.7168V19.4029H81.8697V19.6476ZM84.6975 23.6841C84.5956 23.6739 84.4529 23.6688 84.2695 23.6688L84.3765 23.2407C84.4478 23.3019 84.5548 23.3325 84.6975 23.3325V23.6841ZM81.8697 22.308H81.7168V21.146H81.8697V22.308ZM81.9308 22.4303C81.8493 22.5425 81.8085 22.624 81.8085 22.675L81.564 22.4303H81.9308ZM83.0772 24.1887L82.9549 24.4333L82.8327 24.3722L82.9397 24.1428L83.0772 24.1887ZM84.6669 26.0693H84.4988V25.8094H84.6669V26.0693ZM84.6669 28.1794H84.4988V27.9194H84.6669V28.1794ZM81.9614 26.0693H81.8085V25.366H81.9614V26.0693ZM84.7587 29.6013L84.6364 29.846L84.4988 29.7848L84.6211 29.5555L84.7587 29.6013ZM81.9614 27.6289H81.8085V27.369H81.9614V27.6289ZM83.7651 30.4117C83.7651 30.6767 83.7294 31.0029 83.6581 31.3902C83.6581 31.217 83.6326 30.8908 83.5817 30.4117C83.5307 30.004 83.5052 29.6778 83.5052 29.4331V28.8215C83.5052 28.2303 83.5154 27.8685 83.5358 27.736L83.7192 27.843L83.7345 28.2099C83.7345 28.5259 83.709 29.0509 83.6581 29.7848C83.7294 29.9377 83.7651 30.1467 83.7651 30.4117ZM82.0531 28.2558H81.9155L81.8085 28.0418L81.9308 27.9959L82.0531 28.2558ZM81.9614 30.1823H81.8085V29.846H81.9614V30.1823ZM83.6428 26.8033V26.4516H83.4747V26.8033H83.6428Z" fill="#00FFFF"/>
<path d="M103.025 6.36062H102.903L102.796 6.14656L102.918 6.0854L103.025 6.36062ZM107.29 25.1978C107.29 30.0091 105.532 32.4147 102.016 32.4147C100.406 32.4147 99.0965 31.8388 98.0877 30.6869C97.1298 29.586 96.6508 28.2201 96.6508 26.5892C96.6508 26.5382 96.6916 24.0664 96.7731 19.1736C96.8037 19.2144 96.8394 19.3622 96.8801 19.617C96.9107 19.8311 97.0279 20.0094 97.2317 20.1521C97.354 19.9992 97.4151 19.8667 97.4151 19.7546C97.4151 19.6731 97.3642 19.566 97.2623 19.4335C97.1706 19.2908 97.1247 19.1838 97.1247 19.1124V19.0818C97.1757 19.143 97.2419 19.2297 97.3234 19.3418C97.4355 19.2297 97.5323 19.1736 97.6138 19.1736L97.782 19.3571L97.8126 19.3418V19.2042C97.8227 19.1328 97.7565 19.0207 97.6138 18.8678C97.4406 18.6741 97.3438 18.562 97.3234 18.5314C97.303 18.6435 97.247 18.7964 97.1553 18.9901C96.9413 18.9901 96.8139 18.8882 96.7731 18.6843C96.7629 18.6741 96.7578 18.4804 96.7578 18.1033C96.9311 18.1848 97.0585 18.3021 97.14 18.455C97.14 17.9045 97.2164 17.5579 97.3693 17.4152C97.1858 17.191 96.9769 17.1145 96.7426 17.1859V14.1126C96.7426 13.9291 96.8037 13.552 96.926 12.9812C97.0483 12.4001 97.1451 12.0536 97.2164 11.9414C97.3591 11.7682 97.5578 11.5082 97.8126 11.1617C97.7412 11.0597 97.624 10.7539 97.461 10.2443C97.624 10.1831 97.8329 10.0914 98.0877 9.96904C98.0367 9.86711 97.9807 9.71931 97.9196 9.52563C98.0724 9.48486 98.2304 9.35744 98.3934 9.14338C98.638 9.32686 98.9692 9.59699 99.387 9.95375C99.7844 9.76008 100.014 9.44918 100.075 9.02107C100.37 8.88855 100.518 8.64901 100.518 8.30244C100.518 8.20051 100.508 8.0527 100.488 7.85903C100.467 7.65516 100.457 7.50226 100.457 7.40033C100.457 7.27801 100.498 7.08434 100.579 6.81931C100.671 6.55429 100.707 6.35042 100.686 6.20772C100.951 6.20772 101.272 6.14656 101.649 6.02424C101.649 6.12617 101.593 6.34023 101.481 6.66641C101.675 6.8397 101.848 6.92634 102.001 6.92634C101.991 7.18118 102.159 7.41562 102.505 7.62968C102.566 7.5991 102.643 7.54304 102.735 7.46149C102.745 7.42072 102.694 7.33917 102.582 7.21685C102.47 7.08434 102.403 6.9926 102.383 6.94163C102.464 6.86009 102.566 6.81931 102.689 6.81931C102.75 6.81931 102.943 6.98241 103.27 7.30859C103.127 7.63478 103.025 7.79787 102.964 7.79787C102.801 7.79787 102.694 7.81826 102.643 7.85903V8.19541C102.724 8.2158 102.826 8.24638 102.949 8.28715L103.239 8.79172C103.463 8.76114 103.794 8.70507 104.233 8.62353C104.182 8.9701 104.008 9.14338 103.713 9.14338C103.631 9.14338 103.56 9.11281 103.499 9.05165L103.27 9.28099L103.331 9.38802C105.97 10.1627 107.29 12.0026 107.29 14.9077V17.0024H106.235C106.184 16.6558 105.776 16.3348 105.012 16.0391C105.002 16.029 104.992 16.0239 104.981 16.0239C104.941 16.0341 104.905 16.0544 104.874 16.085C104.956 16.2277 105.094 16.4214 105.287 16.666C105.318 16.666 105.415 16.6406 105.578 16.5896V17.0024H105.257C105.257 16.8801 105.262 16.7935 105.272 16.7425C105.221 16.7629 105.145 16.8291 105.043 16.9413C104.992 16.9922 104.834 17.0177 104.569 17.0177C104.171 17.0177 103.932 16.6253 103.85 15.8404C103.718 14.5458 103.626 13.8119 103.575 13.6386C103.32 12.8537 102.785 12.4613 101.97 12.4613C100.676 12.4613 100.029 13.603 100.029 15.8862V19.7852C100.039 19.5915 99.9729 19.4539 99.8303 19.3724C99.6876 19.2806 99.5144 19.2398 99.3105 19.25L99.2035 19.4029C99.2341 19.4437 99.28 19.4641 99.3411 19.4641C99.3309 19.4743 99.3207 19.4794 99.3105 19.4794C99.2698 19.4794 99.2341 19.4641 99.2035 19.4335L99.066 19.5711C99.1271 19.6221 99.2035 19.7546 99.2953 19.9687C99.336 19.9279 99.3921 19.8667 99.4634 19.7852C99.5144 19.8362 99.5908 19.9177 99.6927 20.0298C99.4685 20.091 99.3564 20.1878 99.3564 20.3203C99.3564 20.3815 99.3717 20.4477 99.4023 20.5191C99.5042 20.5191 99.5551 20.4528 99.5551 20.3203L99.5245 20.2592C99.871 20.5242 100.044 20.8249 100.044 21.1613V23.8064C100.014 23.7453 99.9423 23.6586 99.8303 23.5465L99.494 23.8982C99.3717 23.9288 99.1883 24.0205 98.9437 24.1734C98.7603 24.153 98.5208 23.7045 98.2253 22.8279C98.1743 23.0012 98.1488 23.1745 98.1488 23.3477C98.1488 23.5312 98.1794 23.7147 98.2405 23.8982C98.1692 23.8676 98.0418 23.781 97.8584 23.6382L97.7208 23.7759C97.9552 24.0103 98.103 24.2448 98.1641 24.4792C98.1132 24.4996 98.0266 24.5658 97.9043 24.678C97.9043 24.7595 98.0062 24.8003 98.21 24.8003C98.2813 24.8003 98.3221 24.7697 98.3323 24.7085C98.3526 24.6474 98.3883 24.6168 98.4393 24.6168C98.5004 24.6168 98.638 24.7442 98.852 24.9991V25.0755C98.852 25.3303 98.9386 25.7177 99.1118 26.2375C99.1934 26.1662 99.2647 26.1101 99.3258 26.0693C99.3258 26.3548 99.3156 26.5586 99.2953 26.6809C99.3258 26.5994 99.3819 26.4822 99.4634 26.3293L99.6468 26.4975C99.6978 26.4669 99.7182 26.3955 99.708 26.2834L99.6927 26.1152L99.5551 25.9623C99.5042 25.9725 99.4787 26.0031 99.4787 26.0541C99.5093 25.7279 99.5347 25.3966 99.5551 25.0602C99.6264 24.6729 99.7793 24.4078 100.014 24.2651C100.034 24.3059 100.044 24.7187 100.044 25.5036C100.044 27.9602 100.686 29.1885 101.97 29.1885C102.561 29.1885 103.025 28.9795 103.361 28.5616C103.667 28.1743 103.82 27.6799 103.82 27.0785V24.1275H107.183C107.254 24.362 107.29 24.7187 107.29 25.1978ZM98.4698 24.3416H98.3323L98.2253 24.1275L98.3628 24.0817L98.4698 24.3416ZM99.3564 25.259L99.1577 25.8859L99.0354 25.84L99.2341 25.259H99.3564ZM102.276 8.40947V8.10367C102.215 7.98135 102.143 7.80806 102.062 7.58381C101.94 7.50226 101.756 7.39524 101.512 7.26272L101.389 7.49207C101.389 7.56342 101.44 7.70103 101.542 7.9049C101.644 8.09857 101.695 8.24128 101.695 8.33302C101.715 8.33302 101.736 8.32792 101.756 8.31773C101.807 8.31773 101.889 8.33302 102.001 8.3636C102.123 8.39418 102.215 8.40947 102.276 8.40947ZM102.276 8.62353C102.133 8.6643 101.929 8.73565 101.665 8.83759C101.98 8.85797 102.118 8.86817 102.077 8.86817L102.276 8.62353ZM101.558 8.50121C101.456 8.29734 101.287 8.06799 101.053 7.81316L100.961 8.68469C101.267 8.53179 101.466 8.47063 101.558 8.50121ZM101.374 9.31157C101.374 9.14848 101.247 9.00068 100.992 8.86817C100.859 8.92933 100.727 9.10261 100.595 9.38802C100.87 9.33706 101.13 9.31157 101.374 9.31157ZM104.599 16.1309H104.171C104.202 16.2124 104.243 16.3297 104.294 16.4826C104.345 16.3908 104.401 16.3399 104.462 16.3297C104.482 16.3399 104.513 16.3551 104.554 16.3755C104.584 16.3144 104.599 16.2328 104.599 16.1309ZM98.7144 10.4277C98.6329 10.387 98.2762 10.3207 97.6444 10.229V10.6571C97.7157 10.6571 97.8075 10.7132 97.9196 10.8253C98.0316 10.9374 98.103 11.0037 98.1336 11.024C98.2966 10.861 98.4902 10.6622 98.7144 10.4277ZM98.3781 19.2347L98.2864 19.143L98.0571 19.3571L98.1488 19.4488L98.3781 19.2347ZM98.3934 19.5405H98.2405L98.1336 19.9534H98.2864L98.3934 19.5405ZM97.3998 21.2989V21.0542H97.247V21.2989H97.3998ZM98.3781 22.8126V22.5832H98.2253V22.8126H98.3781Z" fill="#00FFFF"/>
<path d="M116.201 6.88047H116.033V6.63583H116.201V6.88047ZM116.385 7.32388H116.216V7.09453H116.385V7.32388ZM116.109 7.56852L115.987 7.79787L115.85 7.752L115.972 7.52265L116.109 7.56852ZM115.911 9.11281H115.758V8.60824H115.911V9.11281ZM115.911 9.66324H115.758V9.4186H115.911V9.66324ZM115.819 11.8038H115.666V10.6724H115.819V11.8038ZM115.819 12.2472H115.666V12.0179H115.819V12.2472ZM116.048 16.1003C115.967 16.1003 115.901 16.0748 115.85 16.0239C115.799 16.1156 115.763 16.294 115.743 16.559V15.6722C115.844 15.7843 115.946 15.927 116.048 16.1003ZM115.636 15.4123L115.544 16.9871H115.391L115.483 15.4123H115.636ZM124.501 25.0143L124.379 25.2437L124.241 25.1978L124.364 24.9685L124.501 25.0143ZM123.905 25.7636L123.462 25.6718C123.441 25.5903 123.406 25.5138 123.355 25.4425C123.406 25.4425 123.482 25.4934 123.584 25.5954C123.615 25.5444 123.66 25.4679 123.722 25.366C123.701 25.315 123.594 25.1978 123.401 25.0143C123.431 25.0347 123.467 25.05 123.508 25.0602C123.559 25.0602 123.625 25.0347 123.706 24.9838C123.706 25.0347 123.773 25.1316 123.905 25.2743V25.7636ZM115.544 17.3541H115.391V17.1094H115.544V17.3541ZM122.621 25.0143C122.427 25.2488 122.234 25.5342 122.04 25.8706C121.918 25.7483 121.821 25.6871 121.75 25.6871C121.699 25.6871 121.673 25.7483 121.673 25.8706C121.602 25.7788 121.566 25.682 121.566 25.5801C121.566 25.5291 121.587 25.4476 121.628 25.3354C121.668 25.2233 121.689 25.1367 121.689 25.0755C121.689 24.9736 121.653 24.8767 121.582 24.785C121.592 24.8156 121.612 24.8462 121.643 24.8767C121.826 24.6015 121.918 24.3976 121.918 24.2651C121.999 24.4486 122.127 24.7136 122.3 25.0602C122.341 24.9991 122.361 24.943 122.361 24.892C122.473 24.9226 122.56 24.9634 122.621 25.0143ZM123.706 26.6657C123.594 26.6249 123.416 26.4873 123.171 26.2528C123.396 26.2528 123.574 26.2477 123.706 26.2375V26.6657ZM121.444 25.0143C121.444 25.1367 121.388 25.2998 121.276 25.5036C121.307 25.4425 121.322 25.3813 121.322 25.3201C121.322 25.259 121.307 25.2029 121.276 25.152C121.205 25.2029 121.118 25.2794 121.016 25.3813C120.914 26.8186 120.751 27.899 120.527 28.6228C120.16 29.846 119.549 30.7073 118.693 31.2068C118.489 31.2985 118.28 31.3902 118.066 31.482C117.832 31.6043 117.714 31.7776 117.714 32.0018C117.714 32.0426 117.714 32.0783 117.714 32.1089C117.582 32.0681 117.495 32.0477 117.455 32.0477L117.011 32.2924C117.001 32.3433 116.996 32.3841 116.996 32.4147C116.996 32.4554 117.001 32.4911 117.011 32.5217C116.807 32.7256 116.67 32.8938 116.599 33.0263C116.486 32.9345 116.323 32.7867 116.109 32.5829C115.478 33.062 115.157 33.3015 115.146 33.3015C115.106 33.3015 115.034 33.2964 114.932 33.2862C114.841 33.2862 114.764 33.2862 114.703 33.2862C114.703 33.1129 114.683 32.8428 114.642 32.4758C114.611 32.1191 114.596 31.854 114.596 31.6808C114.596 31.0692 114.662 30.2129 114.795 29.112C114.887 28.5514 114.983 27.736 115.085 26.6657C115.034 26.6759 115.009 26.7064 115.009 26.7574C114.958 26.5433 114.932 26.1101 114.932 25.4578C114.932 25.0908 114.973 24.5505 115.055 23.837C115.146 23.1133 115.192 22.568 115.192 22.201C115.233 22.4864 115.299 22.9043 115.391 23.4548C115.422 23.4344 115.478 23.3325 115.559 23.149C115.62 22.9961 115.681 22.9196 115.743 22.9196C115.804 22.9196 115.855 22.9349 115.895 22.9655L115.911 23.0114C116.002 22.94 116.043 22.8177 116.033 22.6444C116.033 22.5629 116.043 22.7107 116.064 23.0878C116.013 23.0878 115.936 23.1439 115.834 23.256C115.722 23.3987 115.646 23.4803 115.605 23.5006H115.59L115.62 23.5312L115.743 23.5465C115.834 23.4853 115.997 23.3987 116.232 23.2866C116.232 23.3783 116.145 23.5057 115.972 23.6688C116.023 23.7198 116.074 23.7453 116.125 23.7453C116.186 23.7453 116.252 23.7096 116.323 23.6382C116.283 23.7096 116.227 23.8217 116.155 23.9746C116.033 23.9746 115.926 23.888 115.834 23.7147C115.62 24.0307 115.513 24.2855 115.513 24.4792C115.513 24.5302 115.534 24.576 115.574 24.6168C115.788 24.576 115.911 24.6423 115.941 24.8156C115.972 24.9889 116.002 25.1621 116.033 25.3354C116.135 25.2539 116.186 25.1723 116.186 25.0908C116.186 25.05 116.171 25.0092 116.14 24.9685C116.385 25.4476 116.553 25.84 116.644 26.1458L116.751 26.1917C116.741 26.2324 116.7 26.2885 116.629 26.3599C116.69 26.421 116.751 26.4516 116.813 26.4516C116.69 26.4312 116.588 26.5026 116.507 26.6657C116.497 26.6045 116.43 26.5179 116.308 26.4057L116.155 26.5433C116.176 26.6759 116.227 26.8695 116.308 27.1244C116.359 27.0734 116.395 26.9969 116.415 26.895V27.2314C116.476 27.2824 116.634 27.3078 116.889 27.3078V27.9959C116.818 27.9551 116.741 27.899 116.66 27.8277C116.578 27.8481 116.492 27.9245 116.4 28.057C116.4 27.9653 116.339 27.8634 116.216 27.7512C116.216 27.7614 116.206 27.8379 116.186 27.9806C116.176 28.0621 116.135 28.1029 116.064 28.1029C115.982 28.1029 115.921 28.0978 115.88 28.0876L116.4 28.4699C116.461 28.4699 116.492 28.4852 116.492 28.5157C116.481 28.5667 116.481 28.6075 116.492 28.6381C117.144 28.2201 117.47 27.0683 117.47 25.1825V9.31157L117.592 9.40331C117.786 9.38293 118.035 9.37273 118.341 9.37273C118.912 9.37273 119.798 9.38802 121.001 9.4186V24.9991L121.184 25.152C121.307 25.0398 121.378 24.9532 121.398 24.892C121.429 24.9226 121.444 24.9634 121.444 25.0143ZM121.459 24.5709L121.337 24.8003L121.2 24.7544L121.322 24.5251L121.459 24.5709ZM115.452 19.984L115.345 20.3203L115.208 20.2745L115.315 19.984H115.452ZM125.693 31.0845L125.586 31.1762L125.372 30.9468L125.464 30.8551L125.693 31.0845ZM122.01 28.7145H121.872L121.765 28.5005L121.887 28.4546L122.01 28.7145ZM116.935 24.6474L116.813 24.892L116.69 24.8309L116.797 24.6015L116.935 24.6474ZM117.241 24.8003L117.164 25.7636C117.154 25.6922 117.108 25.5801 117.027 25.4272C116.935 25.4781 116.807 25.5648 116.644 25.6871V25.3507C116.93 25.208 117.128 25.0245 117.241 24.8003ZM122.621 30.8398H122.56H122.438C122.234 30.8398 122.05 30.8143 121.887 30.7634L122.04 30.427V30.7175C122.213 30.799 122.407 30.8398 122.621 30.8398ZM114.596 28.7298L114.397 32.0324C113.715 31.9611 112.966 31.6043 112.15 30.9621C111.284 30.269 110.724 29.5147 110.469 28.6992C110.275 28.0367 110.148 27.3843 110.087 26.7421C110.067 26.4261 109.98 26.2172 109.827 26.1152C109.817 26.0337 109.812 25.947 109.812 25.8553C109.812 25.7636 109.817 25.6667 109.827 25.5648C109.684 25.4323 109.613 25.3558 109.613 25.3354C109.613 25.2539 109.689 25.0602 109.842 24.7544C110.005 24.4384 110.087 24.2549 110.087 24.204V9.32686H113.618V27.3996H114.306L114.596 28.7298ZM121.597 30.2894H121.337V30.1365H121.597V30.2894ZM121.689 30.534C121.628 30.6054 121.536 30.6971 121.414 30.8092L121.521 30.7175C121.47 30.6665 121.378 30.5799 121.245 30.4576C121.245 30.4576 121.393 30.483 121.689 30.534ZM117.21 26.5739H117.057V26.3293H117.21V26.5739ZM121.031 30.4423V30.6105C121.031 30.9468 121.021 31.1558 121.001 31.2374C121.001 31.166 120.98 31.0997 120.94 31.0386C120.899 30.9672 120.879 30.9265 120.879 30.9163C120.889 30.8857 120.914 30.8551 120.955 30.8245C120.782 30.6512 120.695 30.5544 120.695 30.534C120.777 30.5136 120.889 30.483 121.031 30.4423ZM114.581 26.8338H113.862C114.036 26.7217 114.234 26.5484 114.459 26.314L114.581 26.8338ZM114.718 34.6164H114.566V33.3932H114.718V34.6164ZM114.627 36.5888H114.459V35.809H114.627V36.5888ZM114.627 36.9558H114.474V36.7112H114.627V36.9558ZM114.535 38.5307L114.413 38.76L114.29 38.7141L114.397 38.4848L114.535 38.5307ZM121.887 25.3354L121.842 25.2131L121.628 25.3201V25.4425L121.887 25.3354ZM115.452 24.1581V23.9135H115.299V24.1581H115.452ZM116.171 25.9623L116.125 25.84L115.895 25.947V26.0693L116.171 25.9623ZM116.064 26.7574C116.064 26.6962 116.023 26.6096 115.941 26.4975C115.87 26.5586 115.834 26.6911 115.834 26.895C115.834 26.8033 115.911 26.7574 116.064 26.7574ZM115.911 27.1549L115.788 27.1091L115.666 27.3384L115.804 27.3996L115.911 27.1549ZM115.177 28.1794L115.055 27.9194L114.932 27.9653L115.039 28.1794H115.177ZM115.085 28.8062V28.4699H114.932V28.8062H115.085Z" fill="#00FFFF"/>
<path d="M139.374 9.73969C139.048 9.90279 138.788 9.98433 138.595 9.98433C138.544 9.98433 138.462 9.95375 138.35 9.89259C138.238 9.82124 138.146 9.79576 138.075 9.81614C138.299 9.74479 138.508 9.70911 138.702 9.70911C138.763 9.70911 138.87 9.71931 139.023 9.73969C139.175 9.74989 139.293 9.74989 139.374 9.73969ZM137.922 9.60208L137.586 9.83143L137.509 9.69382L137.83 9.47976L137.922 9.60208ZM135.323 9.14338L135.262 9.28099L134.85 9.06694L134.895 8.92933L135.323 9.14338ZM134.681 8.95991L134.605 9.09752L134.269 8.86817L134.36 8.74585L134.681 8.95991ZM128.903 8.91404C128.72 8.91404 128.628 8.94462 128.628 9.00578V8.9752C128.639 8.84268 128.669 8.77643 128.72 8.77643C128.781 8.86817 128.842 8.91404 128.903 8.91404ZM134.559 32.4758H130.906L128.598 22.889H127.13V32.4758H125.541V15.397C125.541 15.1625 125.49 14.9536 125.388 14.7701V32.3841H123.416V29.3261C123.304 29.214 123.212 29.1528 123.141 29.1426L123.416 28.8368V9.17396C123.691 9.21474 123.976 9.23512 124.272 9.23512C124.608 9.23512 124.955 9.20964 125.311 9.15868C125.332 9.31157 125.342 9.53073 125.342 9.81614C125.362 9.86711 125.403 9.89259 125.464 9.89259C125.505 8.93442 125.576 7.92019 125.678 6.84989C125.678 8.07309 125.744 8.90384 125.877 9.34215C126.162 9.32177 126.499 9.31157 126.886 9.31157C127.64 9.31157 128.582 9.35235 129.714 9.43389C129.765 9.39312 129.79 9.34725 129.79 9.29628C129.78 9.25551 129.759 9.21983 129.729 9.18925C129.882 9.35235 129.989 9.43389 130.05 9.43389C130.152 9.43389 130.198 9.38293 130.187 9.28099L130.386 9.52563C130.539 9.44409 130.651 9.40331 130.722 9.40331C130.784 9.40331 130.809 9.45938 130.799 9.5715C133.071 10.2952 134.208 12.4613 134.208 16.0697C134.208 17.4458 134.08 18.5314 133.825 19.3265C133.51 20.305 132.898 21.2377 131.991 22.1245L134.559 32.4758ZM122.514 28.9744H122.361V28.7298H122.514V28.9744ZM125.571 11.1617V10.0914H125.403V11.1617H125.571ZM125.571 11.6204V11.284H125.403V11.6204H125.571ZM130.692 16.1156C130.692 14.2604 130.269 13.1697 129.423 12.8436C129.423 12.9863 129.403 13.078 129.362 13.1188C129.342 12.9965 129.255 12.8436 129.102 12.6601H128.766C128.786 12.7416 128.796 12.813 128.796 12.8741C128.796 12.9761 128.771 13.0576 128.72 13.1188C128.598 12.9965 128.537 12.8894 128.537 12.7977C128.537 13.0423 128.445 13.1646 128.261 13.1646C128.353 13.1646 128.399 13.185 128.399 13.2258C128.379 13.2768 128.348 13.3226 128.307 13.3634C128.389 13.3226 128.465 13.3022 128.537 13.3022C128.689 13.3022 128.776 13.3583 128.796 13.4704C128.827 13.6743 128.847 13.7864 128.858 13.8068C128.837 13.8374 128.807 13.8527 128.766 13.8527C128.756 13.8527 128.73 13.8425 128.689 13.8221C128.649 13.8017 128.628 13.766 128.628 13.7151C128.618 13.7966 128.562 13.8782 128.46 13.9597L128.307 13.8068C128.379 13.7355 128.43 13.6641 128.46 13.5928L128.154 14.1279C128.073 14.0464 127.946 13.9597 127.772 13.868C127.711 14.1738 127.594 14.6019 127.421 15.1523L127.283 14.9994C127.365 14.8669 127.405 14.7599 127.405 14.6783C127.405 14.607 127.375 14.5509 127.314 14.5102C127.314 14.5713 127.278 14.6529 127.207 14.7548C127.146 14.8465 127.115 14.923 127.115 14.9841V19.5711H128.888C130.091 19.5711 130.692 18.4193 130.692 16.1156Z" fill="#00FFFF"/>
<path d="M145.947 11.1464H145.213V10.9782H145.947V11.1464ZM134.712 0.244639H134.544V0H134.712V0.244639ZM134.819 1.29965L134.712 1.72776H134.544L134.651 1.29965H134.819ZM144.372 11.8344H144.204V11.5898H144.372V11.8344ZM145.213 12.5072L144.938 12.6295V12.4919L145.152 12.3696L145.213 12.5072ZM145.335 12.7518L145.106 13.0729L144.969 12.9965L145.198 12.6601L145.335 12.7518ZM144.571 12.3543L144.434 12.4307L144.204 12.0943L144.342 12.0179L144.571 12.3543ZM138.457 6.48293L138.35 7.01808H138.182L138.289 6.48293H138.457ZM144.831 13.1493L144.556 13.2717V13.1341L144.77 13.027L144.831 13.1493ZM143.272 11.8344C143.16 11.7733 143.073 11.7427 143.012 11.7427V11.4063C143.083 11.5082 143.17 11.6509 143.272 11.8344ZM141.988 10.3207L141.866 10.5653L141.728 10.5042L141.85 10.2748L141.988 10.3207ZM134.85 3.0427C134.85 3.26695 134.768 3.45043 134.605 3.59314V3.25676L134.85 3.0427ZM144.097 13.0423H143.929L143.822 12.5225H143.99L144.097 13.0423ZM138.533 7.35446L138.411 7.5991L138.289 7.53794L138.411 7.30859L138.533 7.35446ZM134.957 4.28118H134.697V4.12828H134.957V4.28118ZM143.241 12.8894L143.119 13.3175H142.966L143.073 12.8894H143.241ZM141.957 10.9782L141.453 10.8253C141.443 11.0495 141.438 11.391 141.438 11.8497C141.397 11.6968 141.326 11.4522 141.224 11.1158C141.163 11.1464 141.132 11.1922 141.132 11.2534C141.132 11.1719 141.163 11.0495 141.224 10.8864C141.295 10.7233 141.331 10.5959 141.331 10.5042C141.331 10.6571 141.392 10.7335 141.514 10.7335C141.575 10.7335 141.606 10.6724 141.606 10.5501C141.667 10.6214 141.779 10.6571 141.942 10.6571V11.5133C141.942 12.5327 141.942 13.2054 141.942 13.5316L141.927 14.0362C141.927 14.0464 141.922 14.0566 141.912 14.0667C141.769 13.8833 141.591 13.5622 141.377 13.1035C141.448 13.0117 141.484 12.9404 141.484 12.8894C141.514 12.9506 141.591 13.0372 141.713 13.1493L141.866 12.9812C141.876 12.8588 141.779 12.7518 141.575 12.6601V11.5439C141.575 11.4522 141.626 11.3502 141.728 11.2381C141.871 11.0954 141.947 11.0088 141.957 10.9782ZM141.208 12.6142L141.101 12.7059L140.872 12.4766L140.964 12.3849L141.208 12.6142ZM144.082 15.6875L143.96 15.9321L143.822 15.8862L143.944 15.6416L144.082 15.6875ZM141.315 13.1035L141.193 13.3481L141.056 13.287L141.178 13.0423L141.315 13.1035ZM144.082 16.2838H143.929V16.0391H144.082V16.2838ZM136.164 9.05165H135.996L135.889 8.62353H136.042L136.164 9.05165ZM142.752 15.7333H142.584V15.4734H142.752V15.7333ZM143.226 16.926H143.058V16.4061H143.226V16.926ZM136.76 10.3666C136.658 10.3564 136.511 10.3513 136.317 10.3513L136.439 10.0914C136.511 10.1525 136.618 10.2443 136.76 10.3666ZM141.942 16.2838C141.799 16.2838 141.647 16.2022 141.484 16.0391H141.529C141.591 16.0391 141.647 16.0646 141.698 16.1156C141.769 15.8404 141.805 15.5142 141.805 15.137C141.896 15.4123 141.942 15.7945 141.942 16.2838ZM135.904 10.3054H135.66V10.1525H135.904V10.3054ZM141.988 16.6813L141.881 17.3082H141.713L141.82 16.6813H141.988ZM136.241 11.4216L136.118 11.6815L135.981 11.6204L136.103 11.3757L136.241 11.4216ZM141.698 18.0421H141.56L141.438 17.7363L141.575 17.6905L141.698 18.0421ZM141.698 18.4244H141.529V18.1644H141.698V18.4244ZM146.879 24.0817C146.818 23.6739 146.64 23.414 146.344 23.3019L146.788 22.889C146.849 23.1031 146.879 23.5006 146.879 24.0817ZM136.393 14.1585C136.241 14.1585 136.016 14.1279 135.721 14.0667C135.65 14.2808 135.614 14.5509 135.614 14.8771C135.614 15.397 135.685 15.7588 135.828 15.9627V16.4673C135.716 16.5182 135.65 16.6762 135.629 16.9413C135.609 17.2369 135.558 17.4254 135.476 17.507C135.476 17.0789 135.466 16.6355 135.446 16.1768C135.446 16.0646 135.415 15.8913 135.354 15.6569C135.283 15.4123 135.247 15.2237 135.247 15.0912C135.247 15.0096 135.252 14.9383 135.262 14.8771C135.16 14.8363 135.033 14.765 134.88 14.6631C135.002 14.6223 135.064 14.5254 135.064 14.3725C135.064 14.2808 135.033 14.1483 134.972 13.975C134.911 13.8017 134.88 13.6743 134.88 13.5928C134.88 13.5622 134.895 13.501 134.926 13.4093C134.957 13.3175 134.972 13.2462 134.972 13.1952C134.972 13.0933 134.962 12.9404 134.941 12.7365C134.911 12.5327 134.895 12.3798 134.895 12.2778C134.895 12.0332 134.951 11.8446 135.064 11.7121C135.013 11.6611 134.957 11.6204 134.895 11.5898C134.916 11.4878 134.875 11.34 134.773 11.1464C134.946 10.9425 135.033 10.703 135.033 10.4277C134.89 10.1933 134.819 9.90279 134.819 9.55621C134.819 9.35235 134.855 9.04655 134.926 8.63882C134.987 8.22089 135.013 7.9049 135.002 7.69084V7.58381C135.053 7.63478 135.115 7.70103 135.186 7.78258C135.084 9.65815 135.267 11.2483 135.736 12.553C135.655 12.6957 135.614 12.8232 135.614 12.9353C135.614 13.0372 135.639 13.1239 135.69 13.1952C135.619 13.3889 135.583 13.5367 135.583 13.6386C135.583 13.8731 135.777 13.9903 136.164 13.9903C136.154 13.9903 136.23 13.9291 136.393 13.8068V14.1585ZM143.226 20.3662H143.089L142.966 20.1369L143.104 20.091L143.226 20.3662ZM141.988 19.1889L141.881 19.617H141.713L141.835 19.1889H141.988ZM141.025 19.617H140.857V17.981H141.025V19.617ZM136.959 14.6325C136.959 14.8771 136.918 15.0198 136.837 15.0606C136.633 15.1523 136.521 15.2084 136.5 15.2288C136.613 15.3409 136.669 15.4479 136.669 15.5499L136.317 15.2441V14.923C136.47 14.8618 136.684 14.765 136.959 14.6325ZM136.837 16.4367C136.765 16.3959 136.658 16.3755 136.516 16.3755C136.567 16.3042 136.633 16.187 136.714 16.0239C136.796 16.0952 136.837 16.2328 136.837 16.4367ZM142.049 22.0175C141.917 22.0889 141.759 22.1245 141.575 22.1245C141.585 21.9716 141.55 21.8238 141.468 21.6811C141.468 21.6506 141.555 21.5639 141.728 21.4212C141.789 21.0644 141.83 20.779 141.85 20.565C141.952 21.2071 142.019 21.6913 142.049 22.0175ZM136.149 15.9627L136.027 16.2226L135.889 16.1615L136.011 15.9168L136.149 15.9627ZM145.626 26.7574H145.458V26.421H145.626V26.7574ZM141.896 23.5159H141.728V22.5221H141.896V23.5159ZM144.816 25.7788C144.622 25.7279 144.403 25.7788 144.158 25.9317V25.5801C144.148 25.5801 144.332 25.5495 144.709 25.4883C144.709 25.682 144.744 25.7788 144.816 25.7788ZM141.025 23.0572H140.857V22.5221H141.025V23.0572ZM140.903 11.4369C140.77 11.916 140.704 12.7467 140.704 13.9291V32.3229H138.61C138.62 32.2822 138.625 32.2465 138.625 32.2159C138.625 32.114 138.554 32.063 138.411 32.063C138.34 32.063 138.238 32.1089 138.105 32.2006C137.983 32.2822 137.886 32.3229 137.815 32.3229H137.112V28.0418C137.071 28.0112 137.03 27.9959 136.99 27.9959C136.928 27.9959 136.867 28.0163 136.806 28.057C136.877 27.9551 136.939 27.8022 136.99 27.5983C136.928 27.6391 136.832 27.6952 136.699 27.7665C136.811 27.6238 136.939 27.5168 137.081 27.4454V24.892C136.623 24.6066 136.317 24.4639 136.164 24.4639C136.103 24.4639 136.011 24.4843 135.889 24.5251C135.777 24.5658 135.695 24.5862 135.644 24.5862C135.634 24.5862 135.629 24.5811 135.629 24.5709C135.629 24.5404 135.695 24.4588 135.828 24.3263C135.665 24.1836 135.41 23.9899 135.064 23.7453C135.155 23.7453 135.272 23.6739 135.415 23.5312C135.415 23.5822 135.364 23.6586 135.262 23.7606C135.303 23.781 135.374 23.8268 135.476 23.8982C135.527 23.7147 135.553 23.5516 135.553 23.4089C135.553 23.1745 135.486 22.991 135.354 22.8585V22.3845C135.497 22.0583 135.568 21.6913 135.568 21.2836C135.568 21.1001 135.553 20.8351 135.522 20.4885C135.481 20.1318 135.461 19.8667 135.461 19.6934C135.461 19.3469 135.502 18.9289 135.583 18.4397C135.593 18.613 135.741 18.8984 136.027 19.2959C135.955 19.4896 135.92 19.7597 135.92 20.1063H136.149C136.251 20.0145 136.286 19.9483 136.256 19.9075C136.307 19.8667 136.332 19.5915 136.332 19.0818C136.414 19.143 136.516 19.2653 136.638 19.4488C136.679 19.3978 136.699 19.3418 136.699 19.2806C136.801 19.2806 136.908 19.3367 137.02 19.4488C137.122 19.3571 137.173 19.25 137.173 19.1277C137.173 18.9035 137.051 18.7608 136.806 18.6996L136.776 18.7302C137.102 18.4244 137.265 18.1543 137.265 17.9198C137.265 17.8485 137.234 17.7465 137.173 17.614C137.112 17.4815 137.081 17.3745 137.081 17.2929C137.01 17.2216 136.939 17.1655 136.867 17.1247C136.837 17.2369 136.745 17.4101 136.592 17.6446C136.623 17.665 136.648 17.6752 136.669 17.6752C136.719 17.6752 136.781 17.6497 136.852 17.5987C136.852 17.6701 136.857 17.7771 136.867 17.9198C136.867 18.0625 136.867 18.1695 136.867 18.2409C136.837 18.2205 136.801 18.2103 136.76 18.2103C136.883 18.2103 136.74 18.2511 136.332 18.3326C136.322 18.2817 136.281 18.2001 136.21 18.088C136.342 18.088 136.47 18.0268 136.592 17.9045C136.572 17.8332 136.47 17.7261 136.286 17.5834C136.113 17.4407 136.027 17.3388 136.027 17.2776C136.027 17.1961 136.088 17.1196 136.21 17.0483C136.342 16.9667 136.414 16.9056 136.424 16.8648C136.516 16.8648 136.623 16.926 136.745 17.0483C136.755 17.0381 136.76 17.0228 136.76 17.0024C136.76 16.9311 136.709 16.7985 136.607 16.6049C136.77 16.6049 136.908 16.6558 137.02 16.7578C137.081 16.7068 137.112 16.6202 137.112 16.4978C137.112 16.2022 137.005 16.0035 136.791 15.9015C136.791 15.7792 136.842 15.7181 136.944 15.7181L137.005 15.7486C137.056 15.5142 137.081 15.3052 137.081 15.1218C137.081 14.7038 136.954 14.4337 136.699 14.3114C136.791 14.2502 136.918 14.1585 137.081 14.0362C136.979 13.9342 136.928 13.8527 136.928 13.7915C136.928 13.7406 136.979 13.7151 137.081 13.7151L136.883 10.2137C137.005 10.1525 137.081 9.90788 137.112 9.47976C137.142 9.10261 137.285 8.90894 137.54 8.89875C137.479 8.90894 137.448 8.9701 137.448 9.08222H138.243C138.314 8.99049 138.35 8.90384 138.35 8.8223C138.35 8.67959 138.243 8.56746 138.029 8.48592C138.172 8.31263 138.279 8.04761 138.35 7.69084C138.462 7.76219 138.518 7.89471 138.518 8.08838C138.518 8.15973 138.508 8.27186 138.488 8.42476C138.467 8.56746 138.457 8.67449 138.457 8.74585C138.457 9.02107 138.62 9.15868 138.946 9.15868H140.352C140.383 9.12809 140.419 9.11281 140.459 9.11281C140.531 9.11281 140.602 9.17396 140.673 9.29628C140.633 9.5715 140.612 9.83143 140.612 10.0761C140.612 10.5959 140.709 11.0495 140.903 11.4369ZM144.816 27.1244H144.755C144.581 27.1244 144.444 27.1193 144.342 27.1091L144.464 26.5892C144.536 26.6198 144.653 26.7982 144.816 27.1244ZM141.315 23.3172L141.086 23.6382L140.964 23.5618L141.178 23.2254L141.315 23.3172ZM136.5 18.669C136.398 18.771 136.317 18.8627 136.256 18.9442C136.256 18.9544 136.251 18.8066 136.241 18.5008V18.4397L136.5 18.669ZM143.7 25.8859L143.578 26.1305L143.44 26.0693L143.562 25.84L143.7 25.8859ZM141.835 24.5404C141.723 24.52 141.636 24.4792 141.575 24.418C141.667 24.1224 141.708 23.9186 141.698 23.8064C141.789 23.9491 141.835 24.1938 141.835 24.5404ZM143.272 25.7636C143.272 25.8553 143.262 25.9623 143.241 26.0846C143.19 26.0133 143.114 25.9266 143.012 25.8247V25.1978C143.185 25.2896 143.272 25.4781 143.272 25.7636ZM144.143 26.6504C144.072 26.6708 143.965 26.6962 143.822 26.7268C143.873 26.7268 143.97 26.5892 144.113 26.314C144.113 26.4567 144.123 26.5688 144.143 26.6504ZM144.189 26.788L144.067 27.1549L143.929 27.0938L144.036 26.788H144.189ZM141.025 24.0664H140.857V23.8217H141.025V24.0664ZM143.623 26.8491H143.455L143.348 26.2375H143.516L143.623 26.8491ZM144.77 27.2773C144.75 27.318 144.612 27.5525 144.357 27.9806V27.6289C144.571 27.527 144.709 27.4098 144.77 27.2773ZM144.969 28.3934C144.969 28.3017 144.933 28.2252 144.862 28.1641C144.729 28.2966 144.561 28.4138 144.357 28.5157C144.469 28.4138 144.525 28.3221 144.525 28.2405C144.525 28.1896 144.5 28.1437 144.449 28.1029C144.622 28.1029 144.729 28.1233 144.77 28.1641C144.892 28.0418 144.953 27.8277 144.953 27.5219C144.964 27.736 144.969 27.9704 144.969 28.2252V28.3934ZM144.281 28.3323H144.143L144.021 28.1182L144.158 28.057L144.281 28.3323ZM142.08 26.207H141.912V25.947H142.08V26.207ZM144.25 27.4454C144.046 27.6493 143.939 27.8583 143.929 28.0723H143.44C143.41 28.0621 143.348 28.0163 143.257 27.9347C143.195 27.8838 143.119 27.8634 143.027 27.8736H142.92V27.5219C143.043 27.5932 143.211 27.7156 143.425 27.8889C143.466 27.8583 143.552 27.843 143.685 27.843C143.817 27.843 143.919 27.6748 143.99 27.3384C144.102 27.4098 144.189 27.4454 144.25 27.4454ZM142.232 27.2773C142.029 27.3486 141.845 27.3945 141.682 27.4149C141.682 26.7319 141.616 25.9063 141.484 24.9379C141.565 24.9175 141.682 24.8869 141.835 24.8462C141.835 25.9063 141.81 26.6504 141.759 27.0785C141.942 27.1702 142.1 27.2365 142.232 27.2773ZM144.724 28.7298C144.724 28.8929 144.673 29.0458 144.571 29.1885C144.479 28.8929 144.434 28.7502 144.434 28.7604C144.434 28.6177 144.525 28.5463 144.709 28.5463L144.724 28.6534V28.7298ZM141.315 25.3049L141.208 25.8247H141.056L141.147 25.3049H141.315ZM144.097 28.5769C144.057 28.5361 143.919 28.5157 143.685 28.5157C143.746 28.4138 143.776 28.3323 143.776 28.2711L144.097 28.5769ZM142.752 27.2773L142.63 27.5219L142.492 27.4607L142.615 27.2314L142.752 27.2773ZM143.379 28.6839C143.226 28.6839 143.15 28.7094 143.15 28.7604C143.15 28.4546 143.145 28.2252 143.134 28.0723C143.206 28.215 143.287 28.4189 143.379 28.6839ZM141.422 26.6351C141.422 26.788 141.387 26.895 141.315 26.9562C141.285 26.8542 141.244 26.7778 141.193 26.7268C141.346 26.7268 141.422 26.6962 141.422 26.6351ZM141.27 27.262H140.918V27.1091H141.27V27.262ZM141.606 27.8736H141.438V27.6289H141.606V27.8736ZM135.064 21.62C135.064 21.6098 135.058 21.6047 135.048 21.6047C135.008 21.6047 134.936 21.6607 134.834 21.7729L134.681 21.6506C134.743 21.7015 134.834 21.7678 134.957 21.8493C134.957 21.7882 134.992 21.7117 135.064 21.62ZM141.85 28.9591C141.85 29.1222 141.84 28.7961 141.82 27.9806C141.769 28.1131 141.636 28.2813 141.422 28.4852C141.443 28.4648 141.463 28.4546 141.484 28.4546C141.534 28.4546 141.596 28.4954 141.667 28.5769C141.443 28.6788 141.331 28.8062 141.331 28.9591C141.331 28.8572 141.361 28.7757 141.422 28.7145C141.473 28.7349 141.555 28.7808 141.667 28.8521C141.606 28.9133 141.575 28.9846 141.575 29.0662C141.759 29.0662 141.85 29.0305 141.85 28.9591ZM135.247 22.1551C135.227 22.1959 135.216 22.3896 135.216 22.7361C135.216 22.573 135.115 22.4915 134.911 22.4915V22.094C134.921 22.1959 134.957 22.2723 135.018 22.3233L135.247 22.1551ZM141.957 29.7084H141.575C141.728 29.4433 141.805 29.3006 141.805 29.2802C141.774 29.5555 141.759 29.6472 141.759 29.5555C141.759 29.6472 141.825 29.6982 141.957 29.7084ZM135.094 22.8585H134.957L134.834 22.6444L134.972 22.5985L135.094 22.8585ZM136.73 26.0235H136.562V25.6718H136.73V26.0235ZM135.537 24.8614C135.425 24.9022 135.344 24.9532 135.293 25.0143C135.293 24.8614 135.247 24.785 135.155 24.785L135.537 24.8614ZM133.948 29.3108L133.825 29.5707L133.688 29.5096L133.81 29.2649L133.948 29.3108ZM133.856 30.3352L133.734 30.5799L133.596 30.5187L133.718 30.2894L133.856 30.3352ZM139.848 18.1033C139.644 17.9912 139.405 17.823 139.13 17.5987C139.13 17.5987 139.13 17.7007 139.13 17.9045C139.13 18.0268 139.048 18.1237 138.885 18.195C139.048 18.297 139.119 18.4346 139.099 18.6079C139.425 18.5059 139.675 18.3377 139.848 18.1033ZM139.924 20.3509V19.9381C139.619 19.7852 139.466 19.6221 139.466 19.4488C139.466 19.3876 139.471 19.301 139.481 19.1889C139.501 19.0767 139.512 18.9952 139.512 18.9442C139.44 18.985 139.333 19.0054 139.191 19.0054C139.191 19.5966 139.186 20.0451 139.175 20.3509H139.924ZM138.885 17.5529L138.457 17.4152C138.049 17.721 137.846 18.0574 137.846 18.4244C137.846 18.6079 138.034 18.8423 138.411 19.1277C138.095 19.2297 137.937 19.3673 137.937 19.5405C137.937 19.6425 138.065 19.6934 138.319 19.6934C138.248 19.6323 138.212 19.5711 138.212 19.51C138.212 19.459 138.238 19.408 138.289 19.3571C138.37 19.3876 138.447 19.4386 138.518 19.51V19.5864C138.528 19.7801 138.493 19.9126 138.411 19.984H138.778V17.9657C138.635 18.0982 138.508 18.195 138.396 18.2562L138.319 17.8434C138.452 17.7822 138.64 17.6854 138.885 17.5529ZM136.623 17.5529L136.424 17.1553H136.271L136.5 17.5987L136.623 17.5529ZM137.066 19.8769V19.5558C136.995 19.5864 136.928 19.6017 136.867 19.6017C136.745 19.6017 136.633 19.5507 136.531 19.4488V20.2898C136.613 20.2082 136.745 20.091 136.928 19.9381C137.01 19.8667 137.056 19.8463 137.066 19.8769ZM136.974 20.5344C136.883 20.4427 136.76 20.3968 136.607 20.3968L136.745 20.8402C136.745 20.6363 136.821 20.5344 136.974 20.5344ZM136.393 20.305H135.935C135.986 20.4477 136.103 20.6261 136.286 20.8402C136.286 20.8708 136.322 20.6924 136.393 20.305ZM140.031 26.3446C139.838 26.1509 139.649 26.0541 139.466 26.0541C139.466 26.1152 139.466 26.1713 139.466 26.2222V26.3293C139.466 26.4414 139.476 26.5892 139.496 26.7727C139.71 26.7727 139.889 26.63 140.031 26.3446ZM138.61 27.1396L138.243 27.0173V27.1549L138.564 27.262L138.61 27.1396ZM137.876 27.5066V27.0632H137.708V27.5066H137.876ZM137.647 27.369C137.525 27.318 137.341 27.2467 137.097 27.1549C137.097 27.2263 137.127 27.3333 137.188 27.476C137.26 27.6187 137.295 27.7258 137.295 27.7971C137.448 27.6238 137.565 27.4811 137.647 27.369Z" fill="#00FFFF"/>
<path d="M150.089 13.5622C150.089 13.766 150.043 13.9138 149.952 14.0056C149.891 13.6284 149.86 13.445 149.86 13.4551C149.952 13.5265 150.028 13.5622 150.089 13.5622ZM150.043 14.9994H149.891V14.2044H150.043V14.9994ZM151.48 17.033H151.327V16.5131H151.48V17.033ZM151.572 17.4917H151.434L151.327 17.2776L151.45 17.2318L151.572 17.4917ZM150.762 16.3602L150.441 17.2165H150.303L150.64 16.2991L150.762 16.3602ZM156.402 24.9685H156.249V24.7238H156.402V24.9685ZM151.572 20.7332H151.419V19.8311H151.572V20.7332ZM155.913 25.3049H155.669V25.1367H155.913V25.3049ZM157.182 17.5376C156.795 17.2725 155.821 17.14 154.262 17.14C153.681 17.14 153.004 17.2878 152.229 17.5834C151.465 17.8688 150.874 18.2052 150.456 18.5926V18.6231C150.446 18.7047 150.477 18.7506 150.548 18.7608H150.487C150.415 18.7608 150.319 18.7964 150.196 18.8678C150.257 19.1124 150.405 19.4386 150.64 19.8463V20.2592C150.487 20.3203 150.42 20.5089 150.441 20.8249C150.359 20.7535 150.273 20.723 150.181 20.7332V20.7637C150.181 20.8453 150.166 20.9217 150.135 20.9931C150.166 21.6251 150.181 21.9207 150.181 21.8799C150.181 22.1245 150.135 22.2876 150.043 22.3692C150.074 22.5119 150.089 22.6597 150.089 22.8126C150.089 23.0368 150.049 23.2713 149.967 23.5159C149.957 23.2407 149.957 22.8839 149.967 22.4456C149.977 21.8952 149.982 21.5384 149.982 21.3753C149.982 20.4172 149.916 19.6833 149.784 19.1736C149.621 19.3571 149.539 19.5354 149.539 19.7087C149.539 19.8718 149.605 20.0298 149.738 20.1827C149.656 20.1114 149.564 20.0808 149.463 20.091C149.3 20.4477 149.218 20.8657 149.218 21.3448C149.218 21.4671 149.366 21.7525 149.661 22.201C149.549 22.1908 149.447 22.1347 149.356 22.0328C149.213 22.4813 149.142 23.0216 149.142 23.6535C149.142 24.3059 149.213 25.0398 149.356 25.8553C149.254 26.3038 149.203 26.9816 149.203 27.8889V32.3535H145.916V21.5435L145.672 21.2989C145.611 21.3702 145.549 21.4314 145.488 21.4824C145.407 21.411 145.366 21.2734 145.366 21.0695C145.366 20.9778 145.427 20.8402 145.549 20.6567C145.723 20.4121 145.814 20.2796 145.825 20.2592C145.702 20.2592 145.595 20.2031 145.504 20.091C145.432 20.1725 145.402 20.2694 145.412 20.3815C145.341 20.2184 145.223 20.1369 145.06 20.1369C145.142 20.1369 145.213 20.1063 145.274 20.0451C145.244 19.9738 145.188 19.8769 145.106 19.7546L145.305 19.8311L145.29 19.7852C145.29 19.6527 145.376 19.459 145.549 19.2042C145.468 19.143 145.376 19.0615 145.274 18.9595C145.356 18.8372 145.453 18.6639 145.565 18.4397L145.549 18.455C145.58 18.5365 145.646 18.6231 145.748 18.7149C145.728 18.1644 145.718 17.4254 145.718 16.4978C145.718 14.7854 145.809 13.552 145.993 12.7977C145.932 12.5428 145.009 12.4205 143.226 12.4307V12.0791C143.359 11.9975 143.567 11.8854 143.853 11.7427C143.343 11.2228 142.982 10.9629 142.768 10.9629C142.727 10.9629 142.584 10.9884 142.34 11.0393V9.21983H152.841V12.4154C152.637 12.4766 151.995 12.5072 150.915 12.5072C150.395 12.5072 150.084 12.6091 149.982 12.813C149.911 12.711 149.789 12.5836 149.615 12.4307C149.514 12.5021 149.376 12.6193 149.203 12.7824V19.0971C149.284 19.1175 149.361 19.1736 149.432 19.2653C149.748 19.0615 149.906 18.6486 149.906 18.0268C149.906 17.2827 149.885 16.4418 149.845 15.504C149.947 15.4326 150.054 15.3358 150.166 15.2135C150.166 15.4174 150.156 15.7283 150.135 16.1462C150.115 16.5641 150.105 16.8801 150.105 17.0942V18.3632C150.196 18.353 150.303 18.3479 150.426 18.3479L150.395 18.3326C150.456 18.2205 150.879 17.9912 151.664 17.6446C152.724 17.1859 153.758 16.9565 154.767 16.9565C155.419 16.9565 155.842 16.9769 156.035 17.0177C156.372 17.0789 156.754 17.2522 157.182 17.5376ZM150.762 22.6597H150.624L150.517 22.3539L150.655 22.308L150.762 22.6597ZM149.692 21.9258H149.539V21.4977H149.692V21.9258ZM144.846 17.0636L144.77 17.1706L144.541 16.9413L144.632 16.8495L144.846 17.0636ZM149.508 22.6597H149.356V22.3233H149.508V22.6597ZM145.091 18.195H144.755V18.0268H145.091V18.195ZM150.196 24.311C150.115 24.311 150.038 24.3518 149.967 24.4333V23.837L150.196 24.311ZM144.51 18.6996H144.342V18.2715H144.51V18.6996ZM144.862 19.0666H144.709V18.7302H144.862V19.0666ZM149.508 23.8676H149.356V23.5312H149.508V23.8676ZM144.953 19.8922H144.8V19.6476H144.953V19.8922ZM150.319 25.4425H150.166V25.1825H150.319V25.4425ZM144.602 19.5558L144.495 20.3509H144.342L144.434 19.5558H144.602ZM145.152 21.0237C145.142 20.881 145.065 20.8096 144.923 20.8096L145.152 20.565V21.0237ZM150.059 27.002H149.891V24.6321H150.059V27.002ZM149.768 25.7024L149.539 25.9317L149.463 25.84L149.677 25.6107L149.768 25.7024ZM143.348 20.1674H143.18L143.089 19.3724H143.257L143.348 20.1674ZM144.785 21.62C144.744 21.5384 144.688 21.462 144.617 21.3906C144.607 21.5435 144.536 21.7576 144.403 22.0328V21.7882C144.413 21.6557 144.378 21.4671 144.296 21.2224C144.479 21.2224 144.622 21.2173 144.724 21.2071C144.734 21.2989 144.755 21.4365 144.785 21.62ZM150.059 27.1244L149.952 28.0112H149.799L149.891 27.1244H150.059ZM143.746 21.1307C143.562 21.3855 143.318 21.778 143.012 22.308C142.961 22.2571 142.905 22.2316 142.844 22.2316C142.783 22.2316 142.727 22.2622 142.676 22.3233C142.747 22.2622 142.9 22.0379 143.134 21.6506C143.318 21.355 143.522 21.1817 143.746 21.1307ZM150.043 29.1273H149.891V28.2405H150.043V29.1273ZM150.059 30.4117H149.891V29.2497H150.059V30.4117ZM142.538 22.7361L142.324 23.0725L142.202 22.9808L142.416 22.6597L142.538 22.7361ZM150.043 31.9866H149.891V31.5584H150.043V31.9866ZM148.836 12.9353V12.7824H148.515V12.9353H148.836ZM146.971 11.5745L146.757 11.3298C146.553 11.3706 146.298 11.442 145.993 11.5439V11.7427V12.0638V12.1555H146.008H146.421C146.502 11.9211 146.686 11.7274 146.971 11.5745ZM150.135 16.2073V15.9627H149.982V16.2073H150.135ZM146.788 12.3696H146.451V12.813L146.298 12.7212C146.197 12.7212 146.12 12.7569 146.069 12.8283C146.028 12.8894 146.008 12.971 146.008 13.0729C146.069 13.0729 146.141 13.1086 146.222 13.1799C146.304 13.1188 146.492 12.8486 146.788 12.3696ZM145.794 19.7699V19.617L145.381 19.51V19.6629L145.794 19.7699ZM145.794 21.0084C145.794 20.8555 145.758 20.7383 145.687 20.6567C145.555 20.7892 145.488 20.9115 145.488 21.0237C145.56 21.0135 145.662 21.0084 145.794 21.0084Z" fill="#00FFFF"/>
<path d="M171 5.81018H170.006V5.65728H171V5.81018ZM169.792 5.91721L169.364 5.81018V5.64199L169.792 5.74902V5.91721ZM169.212 5.91721C169.038 5.91721 168.784 5.97327 168.447 6.0854C168.111 6.18733 167.856 6.2383 167.683 6.2383C167.571 6.2383 167.398 6.21791 167.163 6.17714C166.929 6.12617 166.751 6.10069 166.628 6.10069C166.751 6.10069 166.934 6.04972 167.179 5.94779C167.433 5.83566 167.602 5.7796 167.683 5.7796C167.744 5.7796 167.831 5.79489 167.943 5.82547C168.055 5.85605 168.142 5.87134 168.203 5.87134C168.396 5.82037 168.682 5.72863 169.059 5.59612C169.059 5.81018 169.11 5.91721 169.212 5.91721ZM166.353 6.00895C166.353 6.02933 166.353 6.07011 166.353 6.13127C166.343 6.17204 166.338 6.20772 166.338 6.2383C166.277 6.29946 166.129 6.33004 165.895 6.33004H165.681C165.487 6.33004 165.375 6.31475 165.344 6.28417C165.375 6.31475 165.482 6.33004 165.665 6.33004C165.726 6.33004 165.777 6.28417 165.818 6.19243C165.859 6.10069 165.915 6.05482 165.986 6.05482C166.098 6.05482 166.185 6.0854 166.246 6.14656C166.318 6.11598 166.353 6.07011 166.353 6.00895ZM165.008 6.29946L164.748 6.49823C164.83 6.41668 164.87 6.25359 164.87 6.00895C164.911 6.07011 164.957 6.16694 165.008 6.29946ZM162.272 4.37292L162.043 4.60227L161.951 4.49524L162.165 4.28118L162.272 4.37292ZM164.718 6.05482C164.595 6.5441 164.249 6.78873 163.678 6.78873C163.607 6.78873 163.556 6.75815 163.525 6.69699C163.505 6.63583 163.464 6.60525 163.403 6.60525C163.444 6.60525 163.092 6.66132 162.348 6.77344C162.511 6.60016 162.71 6.51351 162.944 6.51351C163.057 6.51351 163.113 6.48293 163.113 6.42178L163.311 6.60525C163.495 6.42178 163.663 6.33004 163.816 6.33004C163.857 6.33004 163.892 6.34533 163.923 6.37591C163.964 6.40649 164.004 6.42178 164.045 6.42178C164.086 6.42178 164.106 6.37591 164.106 6.28417C164.116 6.25359 164.142 6.2383 164.183 6.2383C164.407 6.2383 164.585 6.17714 164.718 6.05482ZM159.566 4.52582C159.322 4.5564 159.062 4.66853 158.787 4.8622C158.787 4.80104 158.721 4.70421 158.588 4.57169C158.527 4.60227 158.471 4.61756 158.42 4.61756C158.593 4.52582 158.67 4.47995 158.649 4.47995C158.68 4.47995 158.726 4.54111 158.787 4.66343C158.817 4.61247 158.873 4.52582 158.955 4.4035L159.566 4.52582ZM158.267 4.58698L158.16 5.03039C158.119 5.01 158.068 4.99981 158.007 4.99981C157.885 4.99981 157.722 5.04058 157.518 5.12213C157.528 4.98962 157.63 4.88259 157.824 4.80104C157.742 4.72969 157.681 4.65834 157.64 4.58698H158.267ZM152.275 3.79191C152.245 3.83268 152.178 3.87345 152.076 3.91423C151.964 3.9448 151.888 3.98048 151.847 4.02125C151.847 3.9499 151.817 3.84797 151.755 3.71546C151.684 3.58294 151.648 3.48101 151.648 3.40966H152C151.878 3.43004 151.817 3.4912 151.817 3.59314C151.908 3.62372 152.061 3.68997 152.275 3.79191ZM165.467 9.52563C165.467 9.51544 164.947 11.182 163.907 14.5254C163.225 16.7272 162.664 18.5671 162.226 20.0451C162.012 20.6873 161.747 21.6098 161.431 22.8126C161.421 22.8636 161.416 23.4752 161.416 24.6474V32.3535H158.94V31.9713C158.807 31.8999 158.593 31.8693 158.298 31.8795C158.257 30.85 158.216 29.8154 158.175 28.7757C158.084 27.2161 157.972 26.2681 157.839 25.9317C157.951 25.789 158.007 25.6973 158.007 25.6565V23.3019C157.926 23.363 157.707 23.6026 157.35 24.0205C157.36 24.1326 157.518 24.3416 157.824 24.6474C157.752 24.7187 157.717 24.8258 157.717 24.9685C157.482 24.9073 157.375 24.8767 157.396 24.8767C157.141 24.8767 156.861 25.0296 156.555 25.3354C156.576 25.101 156.428 24.9328 156.112 24.8309C155.857 24.7799 155.597 24.7289 155.332 24.678C155.332 24.3518 155.393 24.1785 155.516 24.1581C155.516 23.9746 155.388 23.8013 155.134 23.6382C154.92 23.4955 154.706 23.4089 154.492 23.3783C154.563 23.2968 154.599 23.1592 154.599 22.9655C154.965 22.8636 155.164 22.8075 155.195 22.7973C155.388 22.7158 155.531 22.5832 155.623 22.3998H155.959V22.5985C155.959 22.6699 155.964 22.7667 155.974 22.889C155.974 23.0317 155.974 23.1286 155.974 23.1796C156.056 23.2611 156.127 23.3375 156.188 23.4089C156.26 23.4701 156.275 23.5975 156.234 23.7911C156.305 23.7911 156.407 23.8064 156.54 23.837C156.672 23.8574 156.774 23.8676 156.846 23.8676C157.243 23.8676 157.442 23.73 157.442 23.4548C157.442 23.3834 157.116 23.0827 156.463 22.5527C156.423 22.1857 156.372 21.6353 156.311 20.9014C155.842 20.6873 155.607 20.4325 155.607 20.1369C155.607 20.0247 155.694 19.882 155.867 19.7087C156.04 19.5253 156.183 19.4335 156.295 19.4335C156.418 19.4335 156.509 19.4641 156.57 19.5253L156.708 19.3571L152.948 8.83759C153.039 8.94971 153.284 9.00578 153.681 9.00578C153.539 9.00578 154.512 8.94971 156.601 8.83759C157.192 10.2443 157.584 11.9465 157.778 13.9444C157.91 15.6875 158.043 17.4305 158.175 19.1736C158.186 19.2042 158.231 19.2602 158.313 19.3418C158.374 19.0666 158.405 18.7353 158.405 18.3479C158.405 17.8383 158.354 17.2369 158.252 16.5437C158.15 15.9219 158.099 15.6416 158.099 15.7028L158.328 5.3209C158.338 5.67766 158.344 6.05482 158.344 6.45236C158.344 6.96202 158.328 7.72142 158.298 8.73056C158.267 9.73969 158.252 10.494 158.252 10.9935C158.252 13.1137 158.588 14.9434 159.261 16.4826C159.342 16.4316 159.434 16.35 159.536 16.2379C159.556 16.136 159.577 15.9984 159.597 15.8251C159.76 15.7741 159.989 15.6926 160.285 15.5805C160.825 13.7355 161.396 11.6102 161.997 9.20455H165.467V9.52563ZM159.842 17.5223H159.49C159.582 17.6956 159.617 17.8688 159.597 18.0421L159.842 17.5223ZM158.496 20.9931V20.565H158.328V20.9931H158.496Z" fill="#00FFFF"/>
</svg>
