<svg width="1920" height="372" viewBox="0 0 1920 372" fill="none" xmlns="http://www.w3.org/2000/svg">
<mask id="mask0" mask-type="alpha" maskUnits="userSpaceOnUse" x="0" y="0" width="1920" height="372">
<path d="M0 0H1920V372H0V0Z" fill="#C4C4C4"/>
</mask>
<g mask="url(#mask0)">
<g filter="url(#filter0_d)">
<path d="M345.917 30.7101H344.29V28.3432H345.917V30.7101ZM345.03 36.9231H343.402V34.5562H345.03V36.9231ZM343.994 41.3609H342.367V38.1065H343.994V41.3609ZM343.106 43.432L342.071 49.3491H340.444L341.479 43.432H343.106ZM357.605 82.1893H355.829V43.432H357.605V82.1893ZM347.841 67.5444L346.657 69.9112L345.326 69.4675L346.509 67.1006L347.841 67.5444ZM342.367 65.4734C342.367 66.6568 341.775 68.3826 340.591 70.6509C339.802 70.0592 338.52 69.7633 336.745 69.7633C336.252 70.2564 336.005 70.8481 336.005 71.5385C336.005 72.7219 336.942 74.1519 338.816 75.8284H338.224C337.633 75.8284 337.041 75.6312 336.449 75.2367C334.97 76.1243 333.342 79.6252 331.567 85.7396C334.427 70.0592 337.435 60.3452 340.591 56.5976C339.704 58.9645 338.471 62.6134 336.893 67.5444L338.52 69.0237C339.704 68.1361 340.986 66.9527 342.367 65.4734ZM308.341 144.763L307.157 147.13L305.826 146.538L307.009 144.32L308.341 144.763ZM395.033 249.645H393.406V246.391H395.033V249.645ZM395.033 271.243L393.85 274.793L392.518 274.201L393.702 271.243H395.033ZM387.34 269.172H385.713V266.805H387.34V269.172ZM392.222 286.035H390.595V282.781H392.222V286.035ZM358.048 132.781C328.658 132.781 313.617 133.028 312.927 133.521H297.541V192.84H341.627V224.053H297.393V323.314H261V101.864H296.949C298.626 101.864 302.127 101.469 307.453 100.68C312.286 99.9901 315.54 99.7436 317.217 99.9408L325.65 100.976C326.439 98.4122 327.228 95.8481 328.017 93.284C329.299 89.931 330.63 87.7613 332.011 86.7751C329.743 92.002 328.165 96.5385 327.277 100.385L329.052 101.864C337.14 101.864 346.805 101.568 358.048 100.976V132.781ZM387.34 284.26H385.713V281.006H387.34V284.26ZM395.033 306.45H393.406V304.083H395.033V306.45ZM395.033 323.314H393.702L392.518 321.095L393.85 320.651L395.033 323.314ZM290.44 115.03V111.036C290.243 111.923 289.7 112.367 288.813 112.367C288.122 112.367 287.728 112.071 287.629 111.479C287.53 110.888 287.136 110.592 286.446 110.592C284.966 110.592 284.227 110.937 284.227 111.627V115.917C284.522 115.819 284.769 115.72 284.966 115.621C284.769 115.621 285.706 115.966 287.777 116.657C287.777 115.375 287.974 114.536 288.369 114.142C288.961 114.734 289.651 115.03 290.44 115.03ZM291.18 134.852C291.18 131.006 290.982 125.631 290.588 118.728C289.404 118.728 287.974 118.678 286.298 118.58L283.487 121.243C282.303 120.552 280.873 119.566 279.197 118.284C281.761 116.903 283.043 114.931 283.043 112.367C283.043 110.789 282.303 109.359 280.824 108.077H267.953C267.855 108.077 267.756 108.126 267.657 108.225C266.967 108.718 266.622 109.655 266.622 111.036C266.622 111.824 267.411 113.353 268.989 115.621C270.665 117.791 271.504 119.221 271.504 119.911C271.504 120.404 269.975 123.067 266.918 127.899C266.72 129.379 266.622 131.302 266.622 133.669C266.622 140.276 269.186 144.566 274.315 146.538C272.342 147.623 270.764 148.166 269.58 148.166C271.454 150.631 274.512 154.675 278.753 160.296L282.303 154.527C281.218 150.089 280.676 147.081 280.676 145.503C280.676 142.643 281.613 140.473 283.487 138.994C285.262 140.572 286.741 141.755 287.925 142.544C289.01 142.544 289.947 142.15 290.736 141.361C291.032 140.276 291.18 138.107 291.18 134.852ZM281.12 168.876L278.753 166.509C277.766 167.396 276.977 168.235 276.386 169.024H276.977H277.717C278.703 169.024 279.838 168.974 281.12 168.876ZM284.374 130.858H282.599V123.166H284.374V130.858Z" fill="#00FFFF"/>
<path d="M371.955 85.7396C372.053 91.1637 371.264 99.1026 369.588 109.556C367.911 120.01 367.073 127.85 367.073 133.077C367.073 136.134 367.221 139.043 367.516 141.805C367.023 138.254 366.234 132.88 365.149 125.68C364.952 124.99 364.755 124.25 364.558 123.462L364.41 124.053C364.508 123.462 365.544 118.235 367.516 108.373C368.601 103.146 370.081 95.3057 371.955 84.8521V85.7396ZM483.501 263.107C483.501 264.684 483.156 265.819 482.466 266.509C481.874 266.509 480.838 265.079 479.359 262.219C480.049 262.811 481.43 263.107 483.501 263.107ZM466.488 279.822C463.727 276.963 462.346 275.039 462.346 274.053C462.346 273.56 463.085 272.525 464.565 270.947C464.762 271.341 465.403 274.3 466.488 279.822ZM474.625 323.314H440.155C437.393 305.661 434.632 289.635 431.87 275.237C420.035 274.152 409.581 273.609 400.507 273.609C397.647 273.609 395.872 274.892 395.181 277.456C394.984 278.146 394.836 280.562 394.737 284.704C394.737 286.183 394.589 287.416 394.294 288.402C393.505 293.925 392.321 301.913 390.743 312.367C390.349 315.03 389.264 316.805 387.488 317.692L389.116 318.284V323.314H355.533L367.96 248.462C366.382 247.771 361.993 245.256 354.794 240.917C351.046 238.649 345.424 235.986 337.929 232.929C331.912 230.759 322.987 227.308 311.152 222.574C310.461 222.278 308.982 221.045 306.713 218.876C304.938 217.199 303.163 216.361 301.388 216.361L299.908 214.438C300.007 214.142 300.056 213.945 300.056 213.846C300.056 213.057 299.514 212.712 298.429 212.811C300.598 211.824 303.311 211.331 306.565 211.331C308.341 211.331 312.138 213.698 317.957 218.432C323.677 223.166 327.573 225.533 329.644 225.533C338.323 225.533 347.397 229.97 356.865 238.846C358.837 238.846 361.056 238.057 363.522 236.479L360.859 233.817H366.481L368.404 233.669C368.897 233.669 369.144 233.619 369.144 233.521L370.623 232.041L370.771 231.45C370.771 230.168 367.073 228.195 359.676 225.533L359.084 227.899L358.788 227.604C359.183 228.195 359.528 228.935 359.824 229.822C358.936 229.724 358.246 229.97 357.752 230.562C357.358 231.055 357.161 231.746 357.161 232.633H353.906C353.61 232.239 352.081 230.661 349.32 227.899C346.953 225.533 345.769 224.004 345.769 223.314C345.769 222.623 346.065 221.982 346.657 221.391V216.361C346.263 215.966 345.621 215.769 344.734 215.769C342.761 215.769 341.874 217.15 342.071 219.911H336.745C337.731 219.813 338.915 219.467 340.296 218.876C338.718 216.213 336.646 214.093 334.082 212.515C334.773 212.613 335.562 212.663 336.449 212.663C338.619 212.663 341.43 212.268 344.882 211.479L341.331 207.929C344.389 209.507 346.558 210.937 347.841 212.219C347.742 211.134 347.693 209.359 347.693 206.893C351.145 208.669 353.61 209.556 355.09 209.556C355.681 209.556 356.273 209.26 356.865 208.669C357.457 208.077 358.048 207.781 358.64 207.781C359.429 208.176 360.859 208.767 362.93 209.556C363.128 209.359 363.226 209.162 363.226 208.964C363.226 208.964 362.782 208.028 361.895 206.154C364.36 205.464 365.495 205.118 365.297 205.118C365.988 205.118 366.777 206.006 367.664 207.781C368.158 207.485 368.601 206.943 368.996 206.154C370.081 206.154 371.462 207.288 373.138 209.556C376.196 198.708 377.724 190.671 377.724 185.444C377.724 184.852 376.59 182.387 374.322 178.047C371.856 173.314 370.426 170.355 370.031 169.172C369.045 165.917 368.404 161.726 368.108 156.598C368.207 153.639 367.96 149.349 367.369 143.728C367.664 144.221 368.749 149.744 370.623 160.296C372.201 169.073 374.667 175.68 378.02 180.118L392.074 100.089H435.421C435.618 101.174 444.642 152.604 462.494 254.379C463.381 255.464 464.17 256.006 464.861 256.006C464.269 257.387 463.973 259.655 463.973 262.811H463.381C461.902 262.613 459.781 263.452 457.02 265.325C457.612 267.298 458.845 269.221 460.718 271.095L460.275 270.059C460.275 270.848 460.275 271.637 460.275 272.426C460.275 276.963 461.162 281.252 462.938 285.296L464.121 284.704C463.233 283.323 462.79 281.548 462.79 279.379C462.888 280.168 463.825 281.647 465.6 283.817C465.502 284.31 465.452 284.803 465.452 285.296C465.452 287.564 466.488 289.684 468.559 291.657C469.94 298.56 471.962 309.112 474.625 323.314ZM321.507 208.373L311.891 204.675L316.034 203.343C317.316 204.428 319.14 206.105 321.507 208.373ZM324.17 216.953H321.803V215.473H324.17V216.953ZM295.766 207.485L293.695 209.556C291.722 208.669 289.503 206.598 287.037 203.343C290.982 205.71 293.004 206.893 293.103 206.893C293.793 206.893 294.138 206.746 294.138 206.45C294.04 206.154 293.843 205.858 293.547 205.562C294.04 206.055 294.78 206.696 295.766 207.485ZM284.079 205.414L279.049 204.527V202.899L284.079 203.935V205.414ZM427.432 103.047V101.568H424.177V103.047H427.432ZM424.917 228.639L413.822 157.041L403.614 222.426C403.515 223.511 404.255 224.941 405.833 226.716C407.805 228.984 408.841 230.217 408.94 230.414C408.348 231.006 407.164 231.302 405.389 231.302C407.855 232.485 409.038 233.619 408.94 234.704C407.46 235.197 405.685 235.937 403.614 236.923C404.6 236.923 406.079 236.824 408.052 236.627C410.123 236.331 411.652 236.183 412.638 236.183C412.638 236.972 412.293 237.663 411.602 238.254L415.153 240.473C415.153 241.065 414.561 241.953 413.378 243.136H417.668V242.396C417.668 240.621 418.605 238.254 420.479 235.296C421.958 233.126 423.438 230.907 424.917 228.639ZM458.943 260.74C458.253 260.345 456.083 258.619 452.434 255.562C449.179 252.801 447.256 251.42 446.664 251.42C445.678 251.42 444.051 251.765 441.782 252.456C439.612 253.047 437.936 253.294 436.752 253.195H436.16C436.456 254.181 436.654 255.02 436.752 255.71C437.443 255.513 438.034 255.414 438.527 255.414C439.514 255.414 440.303 255.759 440.895 256.45C440.5 257.83 440.303 259.26 440.303 260.74V262.071C440.303 262.663 440.352 263.55 440.451 264.734C441.733 262.071 442.67 260 443.262 258.521C446.023 259.112 447.404 260.888 447.404 263.846C447.404 264.142 447.355 264.389 447.256 264.586C449.228 263.895 449.968 263.55 449.475 263.55C449.672 263.55 449.82 263.6 449.919 263.698C448.439 262.613 447.502 261.627 447.108 260.74L448.587 259.408C449.081 259.803 449.82 260.296 450.806 260.888C451.102 260.493 451.546 260 452.138 259.408C452.532 260 452.828 260.592 453.026 261.183C452.532 257.929 452.286 256.45 452.286 256.746L454.357 259.112C454.357 259.704 454.209 260.641 453.913 261.923C453.716 263.107 453.617 263.994 453.617 264.586C454.406 264.389 455.491 264.093 456.872 263.698C456.872 262.712 456.773 261.282 456.576 259.408C457.069 259.704 457.858 260.148 458.943 260.74ZM456.428 268.136V264.882H454.801V268.136H456.428ZM451.102 269.911L450.067 264.882H448.587L449.475 269.911H451.102ZM451.99 274.349V270.207H450.363V274.349H451.99ZM438.527 261.923V256.893H437.048V261.923H438.527ZM453.765 272.87H452.286L451.694 276.124H453.174L453.765 272.87ZM434.237 252.456H432.61L431.722 257.485H433.202L434.237 252.456ZM404.797 230.71V226.568H403.17V230.71H404.797ZM469.743 302.899V300.533H468.263V302.899H469.743ZM411.455 242.84V241.213L403.762 242.101V243.728L411.455 242.84ZM441.782 276.864C440.796 275.385 440.303 273.609 440.303 271.538C440.303 270.75 440.352 269.961 440.451 269.172C440.451 269.763 439.859 270.651 438.675 271.834L435.125 268.284C435.421 270.651 435.667 272.426 435.865 273.609C438.626 272.821 440.007 273.609 440.007 275.976C440.007 276.765 439.81 277.751 439.415 278.935L441.782 276.864ZM415.893 258.225C415.893 257.041 415.153 255.661 413.674 254.083V255.858C413.674 256.844 413.723 257.88 413.822 258.964C414.315 258.669 415.005 258.422 415.893 258.225ZM373.138 211.479H368.996V214.734H372.103C372.793 214.142 373.138 213.057 373.138 211.479ZM411.011 263.402L409.679 262.959L408.644 265.178L409.827 265.769L411.011 263.402ZM351.983 219.32L348.58 218.136V219.467L351.539 220.503L351.983 219.32ZM355.385 222.574C354.892 222.081 354.202 221.588 353.314 221.095C351.835 221.095 351.095 222.229 351.095 224.497C352.081 224.004 353.512 223.363 355.385 222.574ZM362.93 319.763V317.396H361.303V319.763H362.93ZM448.883 258.373H445.629C444.445 256.499 443.212 255.562 441.93 255.562L444.001 253.195C446.072 254.181 447.7 255.907 448.883 258.373ZM419.591 230.266C419.394 231.252 418.999 232.041 418.408 232.633C417.027 232.633 415.646 231.252 414.265 228.491C415.252 228.491 417.027 229.083 419.591 230.266Z" fill="#00FFFF"/>
<path d="M588.094 200.68L586.911 204.231L585.579 203.639L586.763 200.68H588.094ZM536.316 175.533H534.688V170.503H536.316V175.533ZM531.729 169.024L530.546 171.391L529.214 170.799L530.398 168.58L531.729 169.024ZM559.098 208.669L557.915 212.811H556.435L557.471 208.669H559.098ZM538.978 196.834H537.351V193.58H538.978V196.834ZM459.387 121.834H456.872V120.355H459.387V121.834ZM477.731 145.207C475.66 146.292 474.871 147.87 475.364 149.941V149.645C475.463 149.25 475.019 148.659 474.033 147.87C473.047 146.982 472.455 146.391 472.258 146.095C472.948 145.306 473.984 144.221 475.364 142.84L477.731 145.207ZM455.245 124.201L451.842 126.272L451.102 125.089L454.357 123.018L455.245 124.201ZM480.69 156.006H479.211V147.426H480.69V156.006ZM552.589 227.012H551.11V221.982H552.589V227.012ZM581.289 326.42H575.224V323.314H494.153V274.053C494.153 273.462 493.561 273.166 492.377 273.166C493.265 271.292 493.709 270.454 493.709 270.651V210.296C493.216 210.69 492.969 211.085 492.969 211.479C492.969 211.677 492.969 211.874 492.969 212.071V100.385H528.475V146.243C528.475 147.623 529.116 148.166 530.398 147.87L529.214 148.905C528.919 155.71 528.771 161.627 528.771 166.657C528.771 175.039 529.214 181.006 530.102 184.556C530.694 183.866 530.99 182.584 530.99 180.71C530.99 179.132 530.792 177.16 530.398 174.793C530.694 177.751 531.581 181.844 533.061 187.071C532.568 186.874 532.075 186.775 531.581 186.775C529.609 186.775 528.623 188.402 528.623 191.657C528.623 193.136 528.771 194.024 529.067 194.32L531.138 192.544L535.28 209.704C540.507 213.649 543.121 219.27 543.121 226.568V231.45C542.726 231.548 542.282 231.598 541.789 231.598C541.198 231.598 540.261 231.45 538.978 231.154C537.795 230.858 536.907 230.71 536.316 230.71C535.132 230.71 533.949 231.302 532.765 232.485L530.842 230.71C530.447 230.907 529.708 231.4 528.623 232.189L529.362 236.183C530.151 235.493 531.384 234.655 533.061 233.669C532.469 234.26 532.173 234.852 532.173 235.444C532.173 236.035 532.37 236.529 532.765 236.923C533.653 236.529 534.392 236.331 534.984 236.331C533.505 238.402 532.42 242.544 531.729 248.757C531.434 253.294 531.088 257.83 530.694 262.367C529.313 263.945 528.623 265.375 528.623 266.657V291.953H578.626C578.626 292.249 578.626 292.495 578.626 292.692C578.626 294.073 579.514 295.108 581.289 295.799V326.42ZM592.681 280.858L591.497 283.225L590.166 282.633L591.349 280.414L592.681 280.858ZM474.329 164.882L471.074 167.988L470.187 166.953L473.293 163.994L474.329 164.882ZM544.896 237.071C544.896 237.959 544.156 240.572 542.677 244.911C542.677 244.024 542.48 242.742 542.085 241.065C541.691 239.29 541.493 237.959 541.493 237.071H544.896ZM460.423 162.811C460.423 163.501 459.979 164.241 459.091 165.03C458.401 164.734 457.661 164.339 456.872 163.846C456.872 161.677 457.661 160.592 459.239 160.592C460.028 161.282 460.423 162.022 460.423 162.811ZM539.866 241.509L538.683 245.059L537.499 244.467L538.535 241.509H539.866ZM488.087 192.988L486.904 195.355L485.572 194.763L486.756 192.544L488.087 192.988ZM535.28 245.651H533.801V242.396H535.28V245.651ZM555.844 275.089H551.11C548.447 275.089 546.77 273.56 546.08 270.503C545.488 267.446 544.551 265.966 543.269 266.065C543.466 263.994 543.811 260.838 544.304 256.598C546.277 256.598 547.411 256.4 547.707 256.006C544.945 253.54 542.825 251.223 541.345 249.053C541.345 248.166 542.825 247.13 545.784 245.947C545.784 248.215 546.819 250.434 548.89 252.604C551.652 260.296 553.97 267.791 555.844 275.089ZM439.859 150.385L438.675 152.751L437.344 152.16L438.527 149.941L439.859 150.385ZM489.863 200.089L488.235 203.343L486.904 202.751L488.531 199.645L489.863 200.089ZM477.14 189.438L475.956 191.805L474.625 191.213L475.808 188.994L477.14 189.438ZM491.638 203.343L489.567 209.556L488.235 208.964L490.306 203.343H491.638ZM487.643 205.118C487.15 205.809 486.411 206.943 485.424 208.521V202.899C485.523 204.379 486.263 205.118 487.643 205.118ZM490.306 220.355H486.016V218.876H490.306V220.355ZM474.329 204.527L473.145 206.893L471.962 206.302L472.997 204.083L474.329 204.527ZM476.252 208.669L475.217 212.811H473.589L474.773 208.669H476.252ZM477.14 218.136H475.808L474.625 216.065L475.956 215.621L477.14 218.136ZM489.863 235.888H488.235V229.97H489.863V235.888ZM476.252 229.675H474.625V219.32H476.252V229.675ZM476.696 230.858C476.696 233.422 475.858 236.035 474.181 238.698V233.225C474.181 231.647 475.019 230.858 476.696 230.858ZM493.413 257.633L492.377 258.521L490.158 256.302L491.194 255.414L493.413 257.633ZM488.975 256.893L487.791 259.26L486.46 258.669L487.643 256.45L488.975 256.893ZM464.417 238.55H462.79V235.296H464.417V238.55ZM478.027 262.515H476.4V259.26H478.027V262.515ZM475.217 256.893L471.814 262.811L470.482 262.219L474.033 256.45L475.217 256.893ZM481.578 270.207L480.394 272.574L479.211 271.982L480.394 269.763L481.578 270.207ZM464.417 254.822L463.233 258.373L461.902 257.781L463.085 254.822H464.417ZM475.512 275.976C474.329 274.694 473.293 274.053 472.406 274.053V270.799C473.786 270.799 474.822 270.602 475.512 270.207V275.976ZM476.252 282.041H474.625V277.012H476.252V282.041ZM472.554 298.018H470.926V294.763H472.554V298.018ZM476.252 306.893H474.625V300.976H476.252V306.893ZM536.611 227.16C536.611 225.483 536.217 224.3 535.428 223.609C534.244 224.892 532.617 225.533 530.546 225.533C530.842 226.321 531.236 227.456 531.729 228.935C533.209 227.456 534.442 226.716 535.428 226.716C535.921 226.716 536.316 226.864 536.611 227.16Z" fill="#00FFFF"/>
<path d="M635.731 61.1834H634.252V58.8166H635.731V61.1834ZM636.619 70.9467L635.583 74.9408H634.104L635.139 70.9467H636.619ZM636.914 87.3669C636.914 89.3392 636.175 91.0158 634.695 92.3964V89.2899L636.914 87.3669ZM637.802 98.9053H635.583V97.426H637.802V98.9053ZM648.75 143.432H647.27L646.235 139.29H647.714L648.75 143.432ZM671.532 165.03H670.349C669.363 165.03 668.13 164.931 666.65 164.734C668.228 164.142 669.856 163.304 671.532 162.219V165.03ZM654.223 155.562C653.237 155.464 651.906 155.414 650.229 155.414L651.413 153.047C652.004 153.639 652.941 154.477 654.223 155.562ZM664.727 166.361H662.36V164.882H664.727V166.361ZM646.531 155.118H644.163V153.639H646.531V155.118ZM672.864 176.568L670.053 183.373L668.869 182.929L671.68 176.568H672.864ZM672.568 186.627C671.68 186.824 670.299 187.12 668.426 187.515C669.017 186.726 670.004 185.641 671.384 184.26C671.779 184.753 672.173 185.542 672.568 186.627ZM649.489 165.621L648.454 167.84L647.27 167.396L648.306 165.178L649.489 165.621ZM673.899 192.101L672.864 197.13H671.384L672.272 192.101H673.899ZM673.751 202.308H672.272V198.166H673.751V202.308ZM667.39 187.219C666.601 188.107 665.122 188.55 662.952 188.55C662.853 188.748 662.804 188.994 662.804 189.29C662.804 190.276 663.149 191.805 663.839 193.876C664.333 193.777 664.678 193.58 664.875 193.284C664.875 192.988 664.628 192.594 664.135 192.101C664.924 192.791 665.319 193.58 665.319 194.467C665.319 195.355 665.023 196.292 664.431 197.278C663.741 196.588 662.36 193.876 660.289 189.142C659.204 189.043 657.873 188.649 656.295 187.959C661.522 186.775 664.234 186.183 664.431 186.183C665.713 186.183 666.7 186.529 667.39 187.219ZM658.662 190.325C657.379 193.974 656.738 195.404 656.738 194.615C655.456 193.333 654.421 192.692 653.632 192.692L655.555 190.325H658.662ZM567.827 105.71C564.769 107.288 562.353 108.077 560.578 108.077C559.986 108.077 559.197 107.781 558.211 107.189C557.224 106.598 556.386 106.4 555.696 106.598C557.767 105.907 559.739 105.562 561.613 105.562C567.038 105.562 569.109 105.611 567.827 105.71ZM554.216 104.527L551.11 106.598L550.37 105.414L553.477 103.343L554.216 104.527ZM697.718 265.621C697.718 291.164 688.102 308.57 668.869 317.84C668.574 318.629 667.785 319.961 666.502 321.834C666.404 321.637 666.354 321.44 666.354 321.243C666.354 320.75 666.7 320.207 667.39 319.615L666.946 318.432C665.861 318.925 664.776 319.763 663.692 320.947H662.952C660.388 320.848 656.689 321.341 651.856 322.426L653.336 324.497C651.363 323.018 648.109 322.179 643.572 321.982C640.12 321.884 636.668 321.785 633.216 321.686C622.466 320.799 612.702 314.635 603.924 303.195C595.541 292.347 591.349 281.351 591.349 270.207V263.994L623.156 258.817C623.156 265.917 624.044 272.377 625.819 278.195C628.383 286.578 632.279 290.769 637.506 290.769C638.69 290.769 640.416 290.917 642.684 291.213C645.051 291.41 646.826 291.509 648.01 291.509C650.969 291.509 653.138 291.065 654.519 290.178C653.04 288.205 651.166 287.219 648.898 287.219C647.714 287.219 646.087 287.613 644.016 288.402C644.114 287.909 644.706 287.12 645.791 286.035C644.311 284.753 641.994 282.929 638.838 280.562C639.627 280.562 640.712 279.921 642.092 278.639L640.613 280.71L642.684 282.041C642.684 281.647 642.931 280.661 643.424 279.083C643.818 277.801 644.016 276.864 644.016 276.272V249.645C644.016 249.053 643.769 248.215 643.276 247.13C642.783 245.947 642.536 245.01 642.536 244.32C642.536 243.235 642.684 241.558 642.98 239.29C643.276 236.923 643.424 235.148 643.424 233.964C643.424 232.189 643.276 231.105 642.98 230.71C640.416 228.343 636.964 225.138 632.624 221.095C625.819 214.389 618.471 206.647 610.581 197.87C604.664 191.262 600.324 184.26 597.563 176.864C595.689 171.834 594.752 163.895 594.752 153.047C594.752 136.874 599.288 123.757 608.362 113.698C617.534 103.54 630.159 98.4615 646.235 98.4615C656.689 98.4615 666.108 101.519 674.491 107.633C682.973 113.649 688.496 121.686 691.06 131.746L694.463 144.911C694.66 145.602 694.857 146.095 695.055 146.391V151.272C690.222 151.667 683.22 152.653 674.047 154.231C673.653 154.329 672.962 154.724 671.976 155.414C671.088 156.105 670.299 156.45 669.609 156.45C669.313 156.45 669.165 156.006 669.165 155.118C668.968 154.921 668.672 154.822 668.278 154.822C661.275 154.822 656.936 154.625 655.259 154.231C656.936 153.836 659.105 153.738 661.768 153.935L663.1 152.456V149.349C662.212 148.462 660.831 146.982 658.957 144.911C659.352 143.629 659.549 142.347 659.549 141.065C659.549 133.471 654.667 129.675 644.903 129.675C640.86 129.675 638.838 131.696 638.838 135.74C638.838 138.205 639.281 143.629 640.169 152.012C641.155 160.789 641.944 165.868 642.536 167.249L642.388 168.728C642.29 171.686 643.128 174.103 644.903 175.976C644.706 178.146 644.41 180.316 644.016 182.485C643.424 182.485 643.128 182.633 643.128 182.929C643.424 183.323 643.424 183.669 643.128 183.964C643.128 186.43 644.163 187.663 646.235 187.663C646.728 187.663 646.974 187.367 646.974 186.775C647.073 186.874 647.122 187.022 647.122 187.219C647.024 187.613 646.876 187.909 646.678 188.107L648.898 189.438C649.391 188.846 649.637 187.959 649.637 186.775C649.933 189.734 654.273 194.961 662.656 202.456C663.149 201.963 663.889 201.174 664.875 200.089C664.481 200.779 663.889 201.716 663.1 202.899C664.875 203.984 667.094 205.858 669.757 208.521H672.124C672.716 207.929 673.012 206.746 673.012 204.97C673.209 206.844 673.702 209.556 674.491 213.107C689.975 229.97 697.718 247.475 697.718 265.621ZM638.838 260.74C638.246 261.627 637.95 262.318 637.95 262.811C637.457 262.318 636.619 261.726 635.435 261.035L636.767 262.071C637.556 261.381 638.246 260.937 638.838 260.74ZM640.465 265.769C640.268 267.15 640.169 268.974 640.169 271.243C640.169 269.665 639.232 268.876 637.358 268.876V265.178C637.457 265.572 637.802 266.312 638.394 267.396L640.465 265.769ZM639.134 272.426H637.95L636.767 270.355L638.098 269.911L639.134 272.426ZM678.929 316.953L678.042 317.692L675.823 315.621L676.71 314.734L678.929 316.953ZM661.62 142.988L660.437 142.544L659.401 144.763L660.585 145.355L661.62 142.988ZM637.802 130.562C630.405 134.408 626.707 141.46 626.707 151.716C626.707 158.915 630.06 167.446 636.767 177.308L637.802 130.562ZM656.147 243.58C655.062 242.89 653.73 241.854 652.152 240.473V248.314C653.434 245.848 654.766 244.27 656.147 243.58ZM650.969 242.84V239.882C649.884 238.107 647.961 235.444 645.199 231.893C644.41 233.077 644.016 234.359 644.016 235.74C644.016 236.627 645.199 237.761 647.566 239.142C647.27 241.016 646.678 243.432 645.791 246.391H649.193C649.193 244.418 649.785 243.235 650.969 242.84ZM659.105 249.497L657.774 249.053L656.738 251.272L657.922 251.864L659.105 249.497ZM656.147 250.68C655.259 249.793 654.174 249.349 652.892 249.349L654.075 253.491C654.075 251.617 654.766 250.68 656.147 250.68ZM650.821 248.462H646.678C647.172 249.842 648.256 251.519 649.933 253.491C649.933 253.787 650.229 252.11 650.821 248.462Z" fill="#00FFFF"/>
<path d="M774.942 140.621H773.315V138.254H774.942V140.621ZM710.145 76.716H708.517V73.4615H710.145V76.716ZM787.517 164.142L786.333 166.509L785.002 166.065L786.185 163.698L787.517 164.142ZM710.145 92.6923H708.517V90.3254H710.145V92.6923ZM773.907 169.911H772.427V167.544H773.907V169.911ZM710.145 114.882H708.517V104.527H710.145V114.882ZM710.145 116.213L708.961 118.58L707.63 118.136L708.813 115.769L710.145 116.213ZM758.669 180.562H757.189V175.533H758.669V180.562ZM790.772 235.74L790.328 236.627C789.736 236.923 789.44 237.367 789.44 237.959C789.342 236.874 789.292 235.838 789.292 234.852V232.189C790.278 233.767 790.772 234.951 790.772 235.74ZM814.738 322.574H732.04C731.349 323.264 731.004 324.004 731.004 324.793C731.004 323.314 730.511 322.574 729.525 322.574C728.834 322.574 728.489 323.166 728.489 324.349C726.615 323.067 724.593 322.426 722.424 322.426C722.522 321.933 722.571 321.44 722.571 320.947C722.571 319.467 721.93 318.432 720.648 317.84C721.93 316.854 722.522 315.325 722.424 313.254L720.944 226.716C719.662 228.097 719.267 230.02 719.761 232.485C718.972 232.781 717.788 232.929 716.21 232.929C716.21 232.436 716.21 231.893 716.21 231.302C716.21 230.611 716.309 229.625 716.506 228.343C716.802 226.963 716.95 225.976 716.95 225.385C716.95 224.694 716.062 224.3 714.287 224.201C712.61 224.004 711.772 223.264 711.772 221.982C712.068 222.081 712.364 222.13 712.66 222.13C713.449 222.13 714.583 221.736 716.062 220.947C715.47 220.256 714.928 219.911 714.435 219.911L713.843 220.207L715.47 217.988C716.062 217.791 716.654 217.199 717.246 216.213C717.64 217.101 718.331 218.284 719.317 219.763C720.303 218.974 720.796 217.84 720.796 216.361C720.796 215.276 720.5 213.994 719.909 212.515C720.303 212.515 719.662 213.107 717.985 214.29V211.036C719.859 209.655 720.796 208.225 720.796 206.746C720.796 205.464 720.106 204.181 718.725 202.899L716.358 204.675C716.259 202.11 714.977 198.018 712.512 192.396C714.09 192.396 715.421 191.903 716.506 190.917C716.21 191.213 716.062 192.692 716.062 195.355C716.062 197.327 716.9 199.546 718.577 202.012H720.796C721.881 200.533 722.424 198.018 722.424 194.467C722.424 193.974 722.226 193.235 721.832 192.249C721.536 191.164 721.388 190.375 721.388 189.882L721.684 189.142C721.388 186.479 720.895 185.148 720.204 185.148C719.514 185.148 718.774 185.345 717.985 185.74C720.352 181.302 721.536 174.892 721.536 166.509C721.536 162.86 721.289 158.817 720.796 154.379C721.782 153.59 722.276 151.963 722.276 149.497C722.276 148.708 722.177 147.475 721.98 145.799C721.782 144.122 721.684 142.89 721.684 142.101C721.684 139.438 721.782 135.493 721.98 130.266C722.276 124.941 722.424 120.947 722.424 118.284C722.424 111.578 721.881 105.513 720.796 100.089H813.998V131.746H756.746V190.769L758.077 192.249H769.172C770.849 192.249 772.181 191.657 773.167 190.473L774.35 191.657C776.915 192.051 782.388 192.249 790.772 192.249C796.097 192.249 799.253 190.769 800.24 187.811C800.24 188.304 799.845 189.191 799.056 190.473C798.267 191.755 797.873 192.742 797.873 193.432V223.166H790.476C789.884 224.152 789.588 226.519 789.588 230.266C788.602 228.491 788.109 226.371 788.109 223.905C786.432 223.511 784.755 223.314 783.079 223.314C781.106 223.314 779.084 223.56 777.013 224.053C776.126 224.842 775.682 225.483 775.682 225.976C775.682 226.272 776.175 226.815 777.161 227.604C776.767 227.209 776.274 227.012 775.682 227.012C774.696 227.012 774.202 227.258 774.202 227.751V227.456C774.301 226.864 773.857 226.124 772.871 225.237C771.983 224.25 771.441 223.56 771.244 223.166C770.652 224.053 769.764 225.237 768.581 226.716C768.581 224.941 768.285 223.757 767.693 223.166C766.608 223.166 766.066 224.25 766.066 226.42C766.066 225.434 765.671 224.941 764.882 224.941C764.389 224.941 763.699 225.138 762.811 225.533C764.093 226.716 764.734 227.751 764.734 228.639C764.734 229.527 763.501 230.562 761.036 231.746C761.923 232.239 763.107 233.077 764.586 234.26C764.192 235.345 763.304 236.479 761.923 237.663C760.543 238.846 759.852 240.03 759.852 241.213C759.852 241.706 759.902 242.249 760 242.84C759.902 241.953 759.507 240.473 758.817 238.402C758.619 239.191 757.83 240.276 756.45 241.657V291.509H814.738C814.442 294.27 814.294 298.215 814.294 303.343C814.294 308.57 814.442 314.98 814.738 322.574ZM706.446 164.586H704.967V161.331H706.446V164.586ZM774.942 243.58H773.315V233.225H774.942V243.58ZM771.244 238.254H769.764V233.225H771.244V238.254ZM715.766 185C715.273 184.704 714.533 184.408 713.547 184.112C713.547 183.422 714.287 181.696 715.766 178.935V185ZM719.909 189.734L719.021 190.621L716.802 188.402L717.689 187.515L719.909 189.734ZM771.687 245.799L766.657 244.911V243.284L771.687 244.32V245.799ZM720.056 191.509L719.021 198.314H717.542L718.429 191.509H720.056ZM763.995 242.692H762.663L761.628 239.586L762.959 239.142L763.995 242.692ZM765.03 244.024L763.847 246.391L762.515 245.799L763.699 243.58L765.03 244.024ZM773.907 257.485L773.019 258.669L768.877 255.118L769.912 253.935L773.907 257.485ZM763.551 249.349H760.296V247.722H763.551V249.349ZM718.577 154.083C718.577 156.45 718.183 157.633 717.394 157.633C716.802 157.633 716.259 157.337 715.766 156.746C715.766 156.844 715.717 156.893 715.618 156.893C715.52 157.189 715.47 157.436 715.47 157.633C715.47 158.126 715.569 158.718 715.766 159.408C714.879 159.408 713.399 159.112 711.328 158.521C709.947 161.183 709.257 163.698 709.257 166.065C709.257 168.629 710.046 170.996 711.624 173.166L710.588 174.201C710.588 183.669 710.44 196.045 710.145 211.331C709.75 231.746 709.503 244.122 709.405 248.462C709.701 249.152 710.145 250.089 710.736 251.272L709.405 277.308C709.701 276.913 709.849 276.568 709.849 276.272C709.849 275.779 709.405 275.533 708.517 275.533C707.827 275.533 707.087 275.828 706.298 276.42C706.495 273.56 706.594 270.848 706.594 268.284C706.594 265.819 706.495 263.501 706.298 261.331C705.805 261.529 705.312 262.022 704.819 262.811C704.819 262.219 705.263 261.035 706.15 259.26C705.756 259.063 705.065 258.57 704.079 257.781C703.389 259.852 702.402 262.515 701.12 265.769C700.331 262.712 699.937 261.134 699.937 261.035C699.937 260.542 701.613 258.028 704.967 253.491C704.967 254.576 704.474 255.611 703.487 256.598C704.079 256.696 704.819 257.14 705.706 257.929C706.693 258.028 707.186 257.436 707.186 256.154V231.154C706.397 231.45 705.213 231.746 703.635 232.041C704.128 228.984 704.375 227.456 704.375 227.456L702.896 225.976C702.106 226.469 701.416 226.716 700.824 226.716V215.473C702.698 213.6 703.882 212.663 704.375 212.663C704.967 212.663 705.361 212.811 705.558 213.107L705.854 214.438C707.136 213.55 707.778 211.627 707.778 208.669C707.778 208.077 707.58 205.809 707.186 201.864C706.693 201.864 706.101 201.815 705.41 201.716C707.186 197.968 708.073 191.361 708.073 181.893C708.073 178.935 707.827 176.913 707.334 175.828C707.728 174.448 707.925 173.314 707.925 172.426C707.925 171.538 707.728 170.848 707.334 170.355C708.221 168.777 708.813 160.69 709.109 146.095C709.208 137.219 709.306 128.343 709.405 119.467C709.997 127.456 710.292 134.852 710.292 141.657C710.292 147.081 710.095 152.16 709.701 156.893C709.602 156.992 709.553 157.091 709.553 157.189C709.553 157.485 710.095 157.633 711.18 157.633C712.561 157.633 715.027 156.45 718.577 154.083ZM714.583 206.302H713.103V201.272H714.583V206.302ZM692.096 200.089H690.617V197.722H692.096V200.089ZM719.465 239.142C718.478 239.043 717.098 238.994 715.322 238.994L716.358 234.852C717.048 235.444 718.084 235.74 719.465 235.74V239.142ZM692.096 225.828H690.617V214.586H692.096V225.828ZM692.688 227.012C691.899 228.097 691.504 228.886 691.504 229.379L689.137 227.012H692.688ZM703.783 244.024L702.6 246.391L701.416 245.799L702.452 243.58L703.783 244.024ZM719.169 262.219H717.542V259.704H719.169V262.219ZM719.169 282.633H717.542V280.118H719.169V282.633ZM692.984 262.219H691.504V255.414H692.984V262.219ZM720.056 296.391L718.873 298.757L717.542 298.166L718.725 295.947L720.056 296.391ZM692.984 277.308H691.504V274.793H692.984V277.308ZM710.44 304.231C710.44 306.795 710.095 309.951 709.405 313.698C709.405 312.022 709.158 308.866 708.665 304.231C708.172 300.286 707.925 297.13 707.925 294.763V288.846C707.925 283.126 708.024 279.625 708.221 278.343L709.997 279.379L710.145 282.929C710.145 285.986 709.898 291.065 709.405 298.166C710.095 299.645 710.44 301.667 710.44 304.231ZM693.871 283.373H692.54L691.504 281.302L692.688 280.858L693.871 283.373ZM692.984 302.012H691.504V298.757H692.984V302.012ZM709.257 269.32V265.917H707.63V269.32H709.257Z" fill="#00FFFF"/>
<path d="M923.769 211.183C923.079 211.183 922.191 211.726 921.106 212.811C921.106 210.937 921.402 209.408 921.994 208.225C923.178 209.507 923.769 210.493 923.769 211.183ZM928.06 217.84L927.024 219.911L925.988 219.32L926.876 217.396L928.06 217.84ZM929.539 226.568H928.207V224.497H929.539V226.568ZM886.341 204.675L885.453 208.225C884.269 208.225 883.086 207.041 881.902 204.675H886.341ZM929.243 204.231C925.791 205.809 923.917 207.14 923.621 208.225C922.241 206.647 920.761 205.858 919.183 205.858C919.282 207.83 918.443 210.69 916.668 214.438C915.879 212.761 914.646 210.444 912.97 207.485L910.603 216.657C910.11 214.389 908.532 212.367 905.869 210.592H903.797C903.304 211.085 903.008 211.529 902.91 211.923C903.008 212.219 903.403 212.367 904.093 212.367C903.995 212.465 903.896 212.515 903.797 212.515C903.502 212.515 903.206 212.367 902.91 212.071L901.726 213.402C902.121 213.698 902.811 214.783 903.797 216.657C904.784 215.671 905.228 215.178 905.129 215.178L907.052 217.249C905.08 217.742 904.093 218.58 904.093 219.763C904.093 220.256 904.241 220.799 904.537 221.391C905.129 221.391 905.523 221.144 905.721 220.651C906.115 220.059 906.066 219.615 905.573 219.32C907.151 219.32 908.384 220.355 909.271 222.426V226.568C903.945 226.568 901.282 226.568 901.282 226.568C893.096 226.667 889.497 226.716 890.483 226.716C890.483 225.927 890.236 224.892 889.743 223.609C888.954 223.609 888.56 224.596 888.56 226.568H844.77V203.787C849.405 204.181 853.054 204.379 855.717 204.379C858.479 204.379 860.254 204.181 861.043 203.787C860.944 204.181 860.895 204.576 860.895 204.97C860.895 205.759 861.092 206.598 861.487 207.485C863.361 204.921 865.53 203.639 867.996 203.639C868.686 203.639 869.475 203.935 870.363 204.527C871.349 205.02 872.089 205.266 872.582 205.266C873.075 205.266 873.667 205.02 874.357 204.527C875.146 203.935 875.837 203.639 876.429 203.639C878.5 203.639 879.634 204.625 879.831 206.598C880.127 209.655 880.67 211.775 881.459 212.959C881.853 212.959 882.248 212.811 882.642 212.515C881.853 211.233 881.459 209.704 881.459 207.929C881.459 208.619 882.248 209.852 883.826 211.627C883.431 212.515 883.234 213.254 883.234 213.846C883.234 214.438 883.382 214.98 883.678 215.473C884.467 216.361 885.256 217.298 886.045 218.284C887.13 217.002 887.672 215.868 887.672 214.882C887.672 214.191 887.228 213.205 886.341 211.923C885.453 210.641 885.058 209.704 885.157 209.112C885.453 209.704 885.995 210.444 886.784 211.331C887.771 210.345 888.609 209.852 889.299 209.852L890.631 211.331V211.479C890.729 211.578 890.828 211.529 890.927 211.331V210.148C890.927 209.852 890.384 209.112 889.299 207.929C888.214 206.746 887.524 205.513 887.228 204.231H929.243ZM895.809 210.444L894.921 209.704L893.146 211.479L893.885 212.367L895.809 210.444ZM895.957 212.959H894.625L893.738 216.509H895.069L895.957 212.959Z" fill="#00FFFF"/>
<path d="M996.999 61.1834H995.52V58.8166H996.999V61.1834ZM997.887 70.9467L996.851 74.9408H995.372L996.408 70.9467H997.887ZM998.183 87.3669C998.183 89.3392 997.443 91.0158 995.964 92.3964V89.2899L998.183 87.3669ZM999.071 98.9053H996.851V97.426H999.071V98.9053ZM1010.02 143.432H1008.54L1007.5 139.29H1008.98L1010.02 143.432ZM1032.8 165.03H1031.62C1030.63 165.03 1029.4 164.931 1027.92 164.734C1029.5 164.142 1031.12 163.304 1032.8 162.219V165.03ZM1015.49 155.562C1014.51 155.464 1013.17 155.414 1011.5 155.414L1012.68 153.047C1013.27 153.639 1014.21 154.477 1015.49 155.562ZM1026 166.361H1023.63V164.882H1026V166.361ZM1007.8 155.118H1005.43V153.639H1007.8V155.118ZM1034.13 176.568L1031.32 183.373L1030.14 182.929L1032.95 176.568H1034.13ZM1033.84 186.627C1032.95 186.824 1031.57 187.12 1029.69 187.515C1030.29 186.726 1031.27 185.641 1032.65 184.26C1033.05 184.753 1033.44 185.542 1033.84 186.627ZM1010.76 165.621L1009.72 167.84L1008.54 167.396L1009.57 165.178L1010.76 165.621ZM1035.17 192.101L1034.13 197.13H1032.65L1033.54 192.101H1035.17ZM1035.02 202.308H1033.54V198.166H1035.02V202.308ZM1028.66 187.219C1027.87 188.107 1026.39 188.55 1024.22 188.55C1024.12 188.748 1024.07 188.994 1024.07 189.29C1024.07 190.276 1024.42 191.805 1025.11 193.876C1025.6 193.777 1025.95 193.58 1026.14 193.284C1026.14 192.988 1025.9 192.594 1025.4 192.101C1026.19 192.791 1026.59 193.58 1026.59 194.467C1026.59 195.355 1026.29 196.292 1025.7 197.278C1025.01 196.588 1023.63 193.876 1021.56 189.142C1020.47 189.043 1019.14 188.649 1017.56 187.959C1022.79 186.775 1025.5 186.183 1025.7 186.183C1026.98 186.183 1027.97 186.529 1028.66 187.219ZM1019.93 190.325C1018.65 193.974 1018.01 195.404 1018.01 194.615C1016.72 193.333 1015.69 192.692 1014.9 192.692L1016.82 190.325H1019.93ZM929.095 105.71C926.038 107.288 923.621 108.077 921.846 108.077C921.254 108.077 920.465 107.781 919.479 107.189C918.493 106.598 917.654 106.4 916.964 106.598C919.035 105.907 921.008 105.562 922.882 105.562C928.306 105.562 930.377 105.611 929.095 105.71ZM915.485 104.527L912.378 106.598L911.638 105.414L914.745 103.343L915.485 104.527ZM1058.99 265.621C1058.99 291.164 1049.37 308.57 1030.14 317.84C1029.84 318.629 1029.05 319.961 1027.77 321.834C1027.67 321.637 1027.62 321.44 1027.62 321.243C1027.62 320.75 1027.97 320.207 1028.66 319.615L1028.21 318.432C1027.13 318.925 1026.04 319.763 1024.96 320.947H1024.22C1021.66 320.848 1017.96 321.341 1013.12 322.426L1014.6 324.497C1012.63 323.018 1009.38 322.179 1004.84 321.982C1001.39 321.884 997.936 321.785 994.484 321.686C983.734 320.799 973.97 314.635 965.192 303.195C956.809 292.347 952.618 281.351 952.618 270.207V263.994L984.425 258.817C984.425 265.917 985.312 272.377 987.087 278.195C989.652 286.578 993.547 290.769 998.775 290.769C999.958 290.769 1001.68 290.917 1003.95 291.213C1006.32 291.41 1008.09 291.509 1009.28 291.509C1012.24 291.509 1014.41 291.065 1015.79 290.178C1014.31 288.205 1012.43 287.219 1010.17 287.219C1008.98 287.219 1007.36 287.613 1005.28 288.402C1005.38 287.909 1005.97 287.12 1007.06 286.035C1005.58 284.753 1003.26 282.929 1000.11 280.562C1000.9 280.562 1001.98 279.921 1003.36 278.639L1001.88 280.71L1003.95 282.041C1003.95 281.647 1004.2 280.661 1004.69 279.083C1005.09 277.801 1005.28 276.864 1005.28 276.272V249.645C1005.28 249.053 1005.04 248.215 1004.54 247.13C1004.05 245.947 1003.8 245.01 1003.8 244.32C1003.8 243.235 1003.95 241.558 1004.25 239.29C1004.54 236.923 1004.69 235.148 1004.69 233.964C1004.69 232.189 1004.54 231.105 1004.25 230.71C1001.68 228.343 998.232 225.138 993.893 221.095C987.087 214.389 979.74 206.647 971.85 197.87C965.932 191.262 961.593 184.26 958.831 176.864C956.957 171.834 956.02 163.895 956.02 153.047C956.02 136.874 960.557 123.757 969.631 113.698C978.803 103.54 991.427 98.4615 1007.5 98.4615C1017.96 98.4615 1027.38 101.519 1035.76 107.633C1044.24 113.649 1049.76 121.686 1052.33 131.746L1055.73 144.911C1055.93 145.602 1056.13 146.095 1056.32 146.391V151.272C1051.49 151.667 1044.49 152.653 1035.32 154.231C1034.92 154.329 1034.23 154.724 1033.24 155.414C1032.36 156.105 1031.57 156.45 1030.88 156.45C1030.58 156.45 1030.43 156.006 1030.43 155.118C1030.24 154.921 1029.94 154.822 1029.55 154.822C1022.54 154.822 1018.2 154.625 1016.53 154.231C1018.2 153.836 1020.37 153.738 1023.04 153.935L1024.37 152.456V149.349C1023.48 148.462 1022.1 146.982 1020.23 144.911C1020.62 143.629 1020.82 142.347 1020.82 141.065C1020.82 133.471 1015.94 129.675 1006.17 129.675C1002.13 129.675 1000.11 131.696 1000.11 135.74C1000.11 138.205 1000.55 143.629 1001.44 152.012C1002.42 160.789 1003.21 165.868 1003.8 167.249L1003.66 168.728C1003.56 171.686 1004.4 174.103 1006.17 175.976C1005.97 178.146 1005.68 180.316 1005.28 182.485C1004.69 182.485 1004.4 182.633 1004.4 182.929C1004.69 183.323 1004.69 183.669 1004.4 183.964C1004.4 186.43 1005.43 187.663 1007.5 187.663C1008 187.663 1008.24 187.367 1008.24 186.775C1008.34 186.874 1008.39 187.022 1008.39 187.219C1008.29 187.613 1008.14 187.909 1007.95 188.107L1010.17 189.438C1010.66 188.846 1010.91 187.959 1010.91 186.775C1011.2 189.734 1015.54 194.961 1023.92 202.456C1024.42 201.963 1025.16 201.174 1026.14 200.089C1025.75 200.779 1025.16 201.716 1024.37 202.899C1026.14 203.984 1028.36 205.858 1031.03 208.521H1033.39C1033.98 207.929 1034.28 206.746 1034.28 204.97C1034.48 206.844 1034.97 209.556 1035.76 213.107C1051.24 229.97 1058.99 247.475 1058.99 265.621ZM1000.11 260.74C999.514 261.627 999.218 262.318 999.218 262.811C998.725 262.318 997.887 261.726 996.704 261.035L998.035 262.071C998.824 261.381 999.514 260.937 1000.11 260.74ZM1001.73 265.769C1001.54 267.15 1001.44 268.974 1001.44 271.243C1001.44 269.665 1000.5 268.876 998.627 268.876V265.178C998.725 265.572 999.071 266.312 999.662 267.396L1001.73 265.769ZM1000.4 272.426H999.218L998.035 270.355L999.366 269.911L1000.4 272.426ZM1040.2 316.953L1039.31 317.692L1037.09 315.621L1037.98 314.734L1040.2 316.953ZM1022.89 142.988L1021.71 142.544L1020.67 144.763L1021.85 145.355L1022.89 142.988ZM999.071 130.562C991.674 134.408 987.975 141.46 987.975 151.716C987.975 158.915 991.328 167.446 998.035 177.308L999.071 130.562ZM1017.42 243.58C1016.33 242.89 1015 241.854 1013.42 240.473V248.314C1014.7 245.848 1016.03 244.27 1017.42 243.58ZM1012.24 242.84V239.882C1011.15 238.107 1009.23 235.444 1006.47 231.893C1005.68 233.077 1005.28 234.359 1005.28 235.74C1005.28 236.627 1006.47 237.761 1008.83 239.142C1008.54 241.016 1007.95 243.432 1007.06 246.391H1010.46C1010.46 244.418 1011.05 243.235 1012.24 242.84ZM1020.37 249.497L1019.04 249.053L1018.01 251.272L1019.19 251.864L1020.37 249.497ZM1017.42 250.68C1016.53 249.793 1015.44 249.349 1014.16 249.349L1015.34 253.491C1015.34 251.617 1016.03 250.68 1017.42 250.68ZM1012.09 248.462H1007.95C1008.44 249.842 1009.52 251.519 1011.2 253.491C1011.2 253.787 1011.5 252.11 1012.09 248.462Z" fill="#00FFFF"/>
<path d="M1136.21 140.621H1134.58V138.254H1136.21V140.621ZM1071.41 76.716H1069.79V73.4615H1071.41V76.716ZM1148.79 164.142L1147.6 166.509L1146.27 166.065L1147.45 163.698L1148.79 164.142ZM1071.41 92.6923H1069.79V90.3254H1071.41V92.6923ZM1135.17 169.911H1133.7V167.544H1135.17V169.911ZM1071.41 114.882H1069.79V104.527H1071.41V114.882ZM1071.41 116.213L1070.23 118.58L1068.9 118.136L1070.08 115.769L1071.41 116.213ZM1119.94 180.562H1118.46V175.533H1119.94V180.562ZM1152.04 235.74L1151.6 236.627C1151 236.923 1150.71 237.367 1150.71 237.959C1150.61 236.874 1150.56 235.838 1150.56 234.852V232.189C1151.55 233.767 1152.04 234.951 1152.04 235.74ZM1176.01 322.574H1093.31C1092.62 323.264 1092.27 324.004 1092.27 324.793C1092.27 323.314 1091.78 322.574 1090.79 322.574C1090.1 322.574 1089.76 323.166 1089.76 324.349C1087.88 323.067 1085.86 322.426 1083.69 322.426C1083.79 321.933 1083.84 321.44 1083.84 320.947C1083.84 319.467 1083.2 318.432 1081.92 317.84C1083.2 316.854 1083.79 315.325 1083.69 313.254L1082.21 226.716C1080.93 228.097 1080.54 230.02 1081.03 232.485C1080.24 232.781 1079.06 232.929 1077.48 232.929C1077.48 232.436 1077.48 231.893 1077.48 231.302C1077.48 230.611 1077.58 229.625 1077.77 228.343C1078.07 226.963 1078.22 225.976 1078.22 225.385C1078.22 224.694 1077.33 224.3 1075.56 224.201C1073.88 224.004 1073.04 223.264 1073.04 221.982C1073.34 222.081 1073.63 222.13 1073.93 222.13C1074.72 222.13 1075.85 221.736 1077.33 220.947C1076.74 220.256 1076.2 219.911 1075.7 219.911L1075.11 220.207L1076.74 217.988C1077.33 217.791 1077.92 217.199 1078.51 216.213C1078.91 217.101 1079.6 218.284 1080.59 219.763C1081.57 218.974 1082.06 217.84 1082.06 216.361C1082.06 215.276 1081.77 213.994 1081.18 212.515C1081.57 212.515 1080.93 213.107 1079.25 214.29V211.036C1081.13 209.655 1082.06 208.225 1082.06 206.746C1082.06 205.464 1081.37 204.181 1079.99 202.899L1077.63 204.675C1077.53 202.11 1076.25 198.018 1073.78 192.396C1075.36 192.396 1076.69 191.903 1077.77 190.917C1077.48 191.213 1077.33 192.692 1077.33 195.355C1077.33 197.327 1078.17 199.546 1079.85 202.012H1082.06C1083.15 200.533 1083.69 198.018 1083.69 194.467C1083.69 193.974 1083.49 193.235 1083.1 192.249C1082.8 191.164 1082.66 190.375 1082.66 189.882L1082.95 189.142C1082.66 186.479 1082.16 185.148 1081.47 185.148C1080.78 185.148 1080.04 185.345 1079.25 185.74C1081.62 181.302 1082.8 174.892 1082.8 166.509C1082.8 162.86 1082.56 158.817 1082.06 154.379C1083.05 153.59 1083.54 151.963 1083.54 149.497C1083.54 148.708 1083.45 147.475 1083.25 145.799C1083.05 144.122 1082.95 142.89 1082.95 142.101C1082.95 139.438 1083.05 135.493 1083.25 130.266C1083.54 124.941 1083.69 120.947 1083.69 118.284C1083.69 111.578 1083.15 105.513 1082.06 100.089H1175.27V131.746H1118.01V190.769L1119.35 192.249H1130.44C1132.12 192.249 1133.45 191.657 1134.44 190.473L1135.62 191.657C1138.18 192.051 1143.66 192.249 1152.04 192.249C1157.37 192.249 1160.52 190.769 1161.51 187.811C1161.51 188.304 1161.11 189.191 1160.32 190.473C1159.54 191.755 1159.14 192.742 1159.14 193.432V223.166H1151.74C1151.15 224.152 1150.86 226.519 1150.86 230.266C1149.87 228.491 1149.38 226.371 1149.38 223.905C1147.7 223.511 1146.02 223.314 1144.35 223.314C1142.37 223.314 1140.35 223.56 1138.28 224.053C1137.39 224.842 1136.95 225.483 1136.95 225.976C1136.95 226.272 1137.44 226.815 1138.43 227.604C1138.04 227.209 1137.54 227.012 1136.95 227.012C1135.96 227.012 1135.47 227.258 1135.47 227.751V227.456C1135.57 226.864 1135.13 226.124 1134.14 225.237C1133.25 224.25 1132.71 223.56 1132.51 223.166C1131.92 224.053 1131.03 225.237 1129.85 226.716C1129.85 224.941 1129.55 223.757 1128.96 223.166C1127.88 223.166 1127.33 224.25 1127.33 226.42C1127.33 225.434 1126.94 224.941 1126.15 224.941C1125.66 224.941 1124.97 225.138 1124.08 225.533C1125.36 226.716 1126 227.751 1126 228.639C1126 229.527 1124.77 230.562 1122.3 231.746C1123.19 232.239 1124.38 233.077 1125.85 234.26C1125.46 235.345 1124.57 236.479 1123.19 237.663C1121.81 238.846 1121.12 240.03 1121.12 241.213C1121.12 241.706 1121.17 242.249 1121.27 242.84C1121.17 241.953 1120.78 240.473 1120.09 238.402C1119.89 239.191 1119.1 240.276 1117.72 241.657V291.509H1176.01C1175.71 294.27 1175.56 298.215 1175.56 303.343C1175.56 308.57 1175.71 314.98 1176.01 322.574ZM1067.71 164.586H1066.24V161.331H1067.71V164.586ZM1136.21 243.58H1134.58V233.225H1136.21V243.58ZM1132.51 238.254H1131.03V233.225H1132.51V238.254ZM1077.03 185C1076.54 184.704 1075.8 184.408 1074.82 184.112C1074.82 183.422 1075.56 181.696 1077.03 178.935V185ZM1081.18 189.734L1080.29 190.621L1078.07 188.402L1078.96 187.515L1081.18 189.734ZM1132.96 245.799L1127.93 244.911V243.284L1132.96 244.32V245.799ZM1081.32 191.509L1080.29 198.314H1078.81L1079.7 191.509H1081.32ZM1125.26 242.692H1123.93L1122.9 239.586L1124.23 239.142L1125.26 242.692ZM1126.3 244.024L1125.12 246.391L1123.78 245.799L1124.97 243.58L1126.3 244.024ZM1135.17 257.485L1134.29 258.669L1130.14 255.118L1131.18 253.935L1135.17 257.485ZM1124.82 249.349H1121.56V247.722H1124.82V249.349ZM1079.85 154.083C1079.85 156.45 1079.45 157.633 1078.66 157.633C1078.07 157.633 1077.53 157.337 1077.03 156.746C1077.03 156.844 1076.99 156.893 1076.89 156.893C1076.79 157.189 1076.74 157.436 1076.74 157.633C1076.74 158.126 1076.84 158.718 1077.03 159.408C1076.15 159.408 1074.67 159.112 1072.6 158.521C1071.22 161.183 1070.53 163.698 1070.53 166.065C1070.53 168.629 1071.31 170.996 1072.89 173.166L1071.86 174.201C1071.86 183.669 1071.71 196.045 1071.41 211.331C1071.02 231.746 1070.77 244.122 1070.67 248.462C1070.97 249.152 1071.41 250.089 1072 251.272L1070.67 277.308C1070.97 276.913 1071.12 276.568 1071.12 276.272C1071.12 275.779 1070.67 275.533 1069.79 275.533C1069.1 275.533 1068.36 275.828 1067.57 276.42C1067.76 273.56 1067.86 270.848 1067.86 268.284C1067.86 265.819 1067.76 263.501 1067.57 261.331C1067.07 261.529 1066.58 262.022 1066.09 262.811C1066.09 262.219 1066.53 261.035 1067.42 259.26C1067.02 259.063 1066.33 258.57 1065.35 257.781C1064.66 259.852 1063.67 262.515 1062.39 265.769C1061.6 262.712 1061.21 261.134 1061.21 261.035C1061.21 260.542 1062.88 258.028 1066.24 253.491C1066.24 254.576 1065.74 255.611 1064.76 256.598C1065.35 256.696 1066.09 257.14 1066.97 257.929C1067.96 258.028 1068.45 257.436 1068.45 256.154V231.154C1067.67 231.45 1066.48 231.746 1064.9 232.041C1065.4 228.984 1065.64 227.456 1065.64 227.456L1064.16 225.976C1063.37 226.469 1062.68 226.716 1062.09 226.716V215.473C1063.97 213.6 1065.15 212.663 1065.64 212.663C1066.24 212.663 1066.63 212.811 1066.83 213.107L1067.12 214.438C1068.4 213.55 1069.05 211.627 1069.05 208.669C1069.05 208.077 1068.85 205.809 1068.45 201.864C1067.96 201.864 1067.37 201.815 1066.68 201.716C1068.45 197.968 1069.34 191.361 1069.34 181.893C1069.34 178.935 1069.1 176.913 1068.6 175.828C1069 174.448 1069.19 173.314 1069.19 172.426C1069.19 171.538 1069 170.848 1068.6 170.355C1069.49 168.777 1070.08 160.69 1070.38 146.095C1070.48 137.219 1070.57 128.343 1070.67 119.467C1071.27 127.456 1071.56 134.852 1071.56 141.657C1071.56 147.081 1071.36 152.16 1070.97 156.893C1070.87 156.992 1070.82 157.091 1070.82 157.189C1070.82 157.485 1071.36 157.633 1072.45 157.633C1073.83 157.633 1076.29 156.45 1079.85 154.083ZM1075.85 206.302H1074.37V201.272H1075.85V206.302ZM1053.36 200.089H1051.88V197.722H1053.36V200.089ZM1080.73 239.142C1079.75 239.043 1078.37 238.994 1076.59 238.994L1077.63 234.852C1078.32 235.444 1079.35 235.74 1080.73 235.74V239.142ZM1053.36 225.828H1051.88V214.586H1053.36V225.828ZM1053.96 227.012C1053.17 228.097 1052.77 228.886 1052.77 229.379L1050.41 227.012H1053.96ZM1065.05 244.024L1063.87 246.391L1062.68 245.799L1063.72 243.58L1065.05 244.024ZM1080.44 262.219H1078.81V259.704H1080.44V262.219ZM1080.44 282.633H1078.81V280.118H1080.44V282.633ZM1054.25 262.219H1052.77V255.414H1054.25V262.219ZM1081.32 296.391L1080.14 298.757L1078.81 298.166L1079.99 295.947L1081.32 296.391ZM1054.25 277.308H1052.77V274.793H1054.25V277.308ZM1071.71 304.231C1071.71 306.795 1071.36 309.951 1070.67 313.698C1070.67 312.022 1070.43 308.866 1069.93 304.231C1069.44 300.286 1069.19 297.13 1069.19 294.763V288.846C1069.19 283.126 1069.29 279.625 1069.49 278.343L1071.27 279.379L1071.41 282.929C1071.41 285.986 1071.17 291.065 1070.67 298.166C1071.36 299.645 1071.71 301.667 1071.71 304.231ZM1055.14 283.373H1053.81L1052.77 281.302L1053.96 280.858L1055.14 283.373ZM1054.25 302.012H1052.77V298.757H1054.25V302.012ZM1070.53 269.32V265.917H1068.9V269.32H1070.53Z" fill="#00FFFF"/>
<path d="M1258.11 71.5385H1256.93L1255.89 69.4675L1257.08 68.8757L1258.11 71.5385ZM1299.39 253.787C1299.39 300.335 1282.37 323.609 1248.35 323.609C1232.77 323.609 1220.09 318.037 1210.33 306.893C1201.06 296.243 1196.42 283.028 1196.42 267.249C1196.42 266.755 1196.82 242.84 1197.61 195.503C1197.9 195.897 1198.25 197.327 1198.64 199.793C1198.94 201.864 1200.07 203.59 1202.04 204.97C1203.23 203.491 1203.82 202.209 1203.82 201.124C1203.82 200.335 1203.33 199.3 1202.34 198.018C1201.45 196.637 1201.01 195.602 1201.01 194.911V194.615C1201.5 195.207 1202.14 196.045 1202.93 197.13C1204.02 196.045 1204.95 195.503 1205.74 195.503L1207.37 197.278L1207.67 197.13V195.799C1207.76 195.108 1207.12 194.024 1205.74 192.544C1204.07 190.671 1203.13 189.586 1202.93 189.29C1202.73 190.375 1202.19 191.854 1201.3 193.728C1199.23 193.728 1198 192.742 1197.61 190.769C1197.51 190.671 1197.46 188.797 1197.46 185.148C1199.13 185.937 1200.37 187.071 1201.16 188.55C1201.16 183.225 1201.9 179.872 1203.38 178.491C1201.6 176.321 1199.58 175.582 1197.31 176.272V146.538C1197.31 144.763 1197.9 141.114 1199.08 135.592C1200.27 129.97 1201.21 126.617 1201.9 125.533C1203.28 123.856 1205.2 121.341 1207.67 117.988C1206.97 117.002 1205.84 114.043 1204.26 109.112C1205.84 108.521 1207.86 107.633 1210.33 106.45C1209.84 105.464 1209.29 104.034 1208.7 102.16C1210.18 101.765 1211.71 100.533 1213.29 98.4615C1215.65 100.237 1218.86 102.85 1222.9 106.302C1226.75 104.428 1228.97 101.42 1229.56 97.2781C1232.42 95.9961 1233.85 93.6785 1233.85 90.3254C1233.85 89.3392 1233.75 87.9093 1233.55 86.0355C1233.36 84.0631 1233.26 82.5838 1233.26 81.5976C1233.26 80.4142 1233.65 78.5404 1234.44 75.9763C1235.33 73.4122 1235.68 71.4398 1235.48 70.0592C1238.04 70.0592 1241.15 69.4675 1244.8 68.284C1244.8 69.2702 1244.26 71.3412 1243.17 74.497C1245.04 76.1736 1246.72 77.0118 1248.2 77.0118C1248.1 79.4773 1249.73 81.7456 1253.08 83.8166C1253.67 83.5207 1254.41 82.9783 1255.3 82.1893C1255.4 81.7949 1254.91 81.0059 1253.82 79.8225C1252.74 78.5404 1252.1 77.6529 1251.9 77.1598C1252.69 76.3708 1253.67 75.9763 1254.86 75.9763C1255.45 75.9763 1257.32 77.5542 1260.48 80.7101C1259.1 83.8659 1258.11 85.4438 1257.52 85.4438C1255.94 85.4438 1254.91 85.641 1254.41 86.0355V89.2899C1255.2 89.4872 1256.19 89.783 1257.37 90.1775L1260.18 95.0592C1262.35 94.7633 1265.56 94.2209 1269.8 93.432C1269.31 96.785 1267.63 98.4615 1264.77 98.4615C1263.98 98.4615 1263.29 98.1657 1262.7 97.574L1260.48 99.7929L1261.07 100.828C1286.62 108.323 1299.39 126.124 1299.39 154.231V174.497H1289.18C1288.69 171.144 1284.74 168.037 1277.34 165.178C1277.25 165.079 1277.15 165.03 1277.05 165.03C1276.65 165.128 1276.31 165.325 1276.01 165.621C1276.8 167.002 1278.13 168.876 1280.01 171.243C1280.3 171.243 1281.24 170.996 1282.82 170.503V174.497H1279.71C1279.71 173.314 1279.76 172.475 1279.86 171.982C1279.37 172.179 1278.63 172.821 1277.64 173.905C1277.15 174.398 1275.62 174.645 1273.05 174.645C1269.21 174.645 1266.89 170.848 1266.1 163.254C1264.82 150.73 1263.93 143.629 1263.44 141.953C1260.97 134.359 1255.8 130.562 1247.9 130.562C1235.38 130.562 1229.12 141.607 1229.12 163.698V201.42C1229.22 199.546 1228.57 198.215 1227.19 197.426C1225.81 196.538 1224.14 196.144 1222.16 196.243L1221.13 197.722C1221.42 198.116 1221.87 198.314 1222.46 198.314C1222.36 198.412 1222.26 198.462 1222.16 198.462C1221.77 198.462 1221.42 198.314 1221.13 198.018L1219.8 199.349C1220.39 199.842 1221.13 201.124 1222.02 203.195C1222.41 202.801 1222.95 202.209 1223.64 201.42C1224.14 201.913 1224.88 202.702 1225.86 203.787C1223.69 204.379 1222.61 205.316 1222.61 206.598C1222.61 207.189 1222.76 207.83 1223.05 208.521C1224.04 208.521 1224.53 207.88 1224.53 206.598L1224.23 206.006C1227.59 208.57 1229.26 211.479 1229.26 214.734V240.325C1228.97 239.734 1228.28 238.895 1227.19 237.811L1223.94 241.213C1222.76 241.509 1220.98 242.396 1218.61 243.876C1216.84 243.678 1214.52 239.339 1211.66 230.858C1211.17 232.535 1210.92 234.211 1210.92 235.888C1210.92 237.663 1211.22 239.438 1211.81 241.213C1211.12 240.917 1209.88 240.079 1208.11 238.698L1206.78 240.03C1209.05 242.298 1210.48 244.566 1211.07 246.834C1210.57 247.032 1209.74 247.673 1208.55 248.757C1208.55 249.546 1209.54 249.941 1211.51 249.941C1212.2 249.941 1212.6 249.645 1212.7 249.053C1212.89 248.462 1213.24 248.166 1213.73 248.166C1214.32 248.166 1215.65 249.398 1217.73 251.864V252.604C1217.73 255.069 1218.56 258.817 1220.24 263.846C1221.03 263.156 1221.72 262.613 1222.31 262.219C1222.31 264.98 1222.21 266.953 1222.02 268.136C1222.31 267.347 1222.85 266.213 1223.64 264.734L1225.42 266.361C1225.91 266.065 1226.11 265.375 1226.01 264.29L1225.86 262.663L1224.53 261.183C1224.04 261.282 1223.79 261.578 1223.79 262.071C1224.09 258.915 1224.33 255.71 1224.53 252.456C1225.22 248.708 1226.7 246.144 1228.97 244.763C1229.17 245.158 1229.26 249.152 1229.26 256.746C1229.26 280.513 1235.48 292.396 1247.9 292.396C1253.63 292.396 1258.11 290.375 1261.37 286.331C1264.33 282.584 1265.81 277.801 1265.81 271.982V243.432H1298.35C1299.04 245.7 1299.39 249.152 1299.39 253.787ZM1214.03 245.503H1212.7L1211.66 243.432L1212.99 242.988L1214.03 245.503ZM1222.61 254.379L1220.68 260.444L1219.5 260L1221.42 254.379H1222.61ZM1250.86 91.3609V88.4024C1250.27 87.2189 1249.58 85.5424 1248.79 83.3728C1247.61 82.5838 1245.83 81.5483 1243.47 80.2663L1242.28 82.4852C1242.28 83.1755 1242.78 84.5069 1243.76 86.4793C1244.75 88.3531 1245.24 89.7337 1245.24 90.6213C1245.44 90.6213 1245.64 90.572 1245.83 90.4734C1246.33 90.4734 1247.12 90.6213 1248.2 90.9172C1249.38 91.213 1250.27 91.3609 1250.86 91.3609ZM1250.86 93.432C1249.48 93.8264 1247.51 94.5168 1244.95 95.503C1248 95.7002 1249.33 95.7988 1248.94 95.7988L1250.86 93.432ZM1243.91 92.2485C1242.92 90.2761 1241.3 88.0572 1239.03 85.5917L1238.14 94.0237C1241.1 92.5444 1243.02 91.9527 1243.91 92.2485ZM1242.14 100.089C1242.14 98.5108 1240.9 97.0809 1238.44 95.7988C1237.15 96.3905 1235.87 98.0671 1234.59 100.828C1237.25 100.335 1239.77 100.089 1242.14 100.089ZM1273.35 166.065H1269.21C1269.5 166.854 1269.9 167.988 1270.39 169.467C1270.88 168.58 1271.43 168.087 1272.02 167.988C1272.22 168.087 1272.51 168.235 1272.91 168.432C1273.2 167.84 1273.35 167.051 1273.35 166.065ZM1216.39 110.888C1215.6 110.493 1212.15 109.852 1206.04 108.964V113.107C1206.73 113.107 1207.62 113.649 1208.7 114.734C1209.79 115.819 1210.48 116.46 1210.77 116.657C1212.35 115.079 1214.22 113.156 1216.39 110.888ZM1213.14 196.095L1212.25 195.207L1210.03 197.278L1210.92 198.166L1213.14 196.095ZM1213.29 199.053H1211.81L1210.77 203.047H1212.25L1213.29 199.053ZM1203.67 216.065V213.698H1202.19V216.065H1203.67ZM1213.14 230.71V228.491H1211.66V230.71H1213.14Z" fill="#00FFFF"/>
<path d="M1385.64 76.568H1384.01V74.2012H1385.64V76.568ZM1387.41 80.858H1385.78V78.6391H1387.41V80.858ZM1384.75 83.2249L1383.57 85.4438L1382.23 85L1383.42 82.7811L1384.75 83.2249ZM1382.83 98.1657H1381.35V93.284H1382.83V98.1657ZM1382.83 103.491H1381.35V101.124H1382.83V103.491ZM1381.94 124.201H1380.46V113.254H1381.94V124.201ZM1381.94 128.491H1380.46V126.272H1381.94V128.491ZM1384.16 165.769C1383.37 165.769 1382.73 165.523 1382.23 165.03C1381.74 165.917 1381.4 167.643 1381.2 170.207V161.627C1382.18 162.712 1383.17 164.093 1384.16 165.769ZM1380.16 159.112L1379.28 174.349H1377.8L1378.68 159.112H1380.16ZM1465.97 252.012L1464.78 254.231L1463.45 253.787L1464.64 251.568L1465.97 252.012ZM1460.2 259.26L1455.91 258.373C1455.71 257.584 1455.37 256.844 1454.87 256.154C1455.37 256.154 1456.11 256.647 1457.09 257.633C1457.39 257.14 1457.83 256.4 1458.42 255.414C1458.23 254.921 1457.19 253.787 1455.32 252.012C1455.61 252.209 1455.96 252.357 1456.35 252.456C1456.84 252.456 1457.49 252.209 1458.27 251.716C1458.27 252.209 1458.92 253.146 1460.2 254.527V259.26ZM1379.28 177.899H1377.8V175.533H1379.28V177.899ZM1447.77 252.012C1445.9 254.28 1444.02 257.041 1442.15 260.296C1440.97 259.112 1440.03 258.521 1439.34 258.521C1438.85 258.521 1438.6 259.112 1438.6 260.296C1437.91 259.408 1437.56 258.471 1437.56 257.485C1437.56 256.992 1437.76 256.203 1438.16 255.118C1438.55 254.034 1438.75 253.195 1438.75 252.604C1438.75 251.617 1438.4 250.68 1437.71 249.793C1437.81 250.089 1438.01 250.385 1438.3 250.68C1440.08 248.018 1440.97 246.045 1440.97 244.763C1441.76 246.538 1442.99 249.103 1444.66 252.456C1445.06 251.864 1445.26 251.321 1445.26 250.828C1446.34 251.124 1447.18 251.519 1447.77 252.012ZM1458.27 267.988C1457.19 267.594 1455.46 266.262 1453.1 263.994C1455.27 263.994 1456.99 263.945 1458.27 263.846V267.988ZM1436.38 252.012C1436.38 253.195 1435.84 254.773 1434.75 256.746C1435.05 256.154 1435.2 255.562 1435.2 254.97C1435.2 254.379 1435.05 253.836 1434.75 253.343C1434.06 253.836 1433.22 254.576 1432.24 255.562C1431.25 269.467 1429.67 279.921 1427.5 286.923C1423.95 298.757 1418.04 307.091 1409.75 311.923C1407.78 312.811 1405.76 313.698 1403.69 314.586C1401.42 315.769 1400.28 317.446 1400.28 319.615C1400.28 320.01 1400.28 320.355 1400.28 320.651C1399 320.256 1398.16 320.059 1397.77 320.059L1393.48 322.426C1393.38 322.919 1393.33 323.314 1393.33 323.609C1393.33 324.004 1393.38 324.349 1393.48 324.645C1391.5 326.617 1390.17 328.245 1389.48 329.527C1388.4 328.639 1386.82 327.209 1384.75 325.237C1378.63 329.872 1375.53 332.189 1375.43 332.189C1375.03 332.189 1374.34 332.14 1373.36 332.041C1372.47 332.041 1371.73 332.041 1371.14 332.041C1371.14 330.365 1370.94 327.751 1370.55 324.201C1370.25 320.75 1370.1 318.185 1370.1 316.509C1370.1 310.592 1370.74 302.308 1372.03 291.657C1372.91 286.233 1373.85 278.343 1374.84 267.988C1374.34 268.087 1374.1 268.383 1374.1 268.876C1373.6 266.805 1373.36 262.613 1373.36 256.302C1373.36 252.751 1373.75 247.525 1374.54 240.621C1375.43 233.619 1375.87 228.343 1375.87 224.793C1376.27 227.554 1376.91 231.598 1377.8 236.923C1378.09 236.726 1378.63 235.74 1379.42 233.964C1380.01 232.485 1380.61 231.746 1381.2 231.746C1381.79 231.746 1382.28 231.893 1382.68 232.189L1382.83 232.633C1383.71 231.943 1384.11 230.759 1384.01 229.083C1384.01 228.294 1384.11 229.724 1384.31 233.373C1383.81 233.373 1383.07 233.915 1382.09 235C1381 236.381 1380.26 237.17 1379.87 237.367H1379.72L1380.01 237.663L1381.2 237.811C1382.09 237.219 1383.66 236.381 1385.93 235.296C1385.93 236.183 1385.09 237.416 1383.42 238.994C1383.91 239.487 1384.4 239.734 1384.9 239.734C1385.49 239.734 1386.13 239.389 1386.82 238.698C1386.43 239.389 1385.88 240.473 1385.19 241.953C1384.01 241.953 1382.97 241.114 1382.09 239.438C1380.01 242.495 1378.98 244.961 1378.98 246.834C1378.98 247.327 1379.18 247.771 1379.57 248.166C1381.64 247.771 1382.83 248.412 1383.12 250.089C1383.42 251.765 1383.71 253.442 1384.01 255.118C1385 254.329 1385.49 253.54 1385.49 252.751C1385.49 252.357 1385.34 251.963 1385.04 251.568C1387.41 256.203 1389.04 260 1389.93 262.959L1390.96 263.402C1390.86 263.797 1390.47 264.339 1389.78 265.03C1390.37 265.621 1390.96 265.917 1391.55 265.917C1390.37 265.72 1389.38 266.41 1388.6 267.988C1388.5 267.396 1387.86 266.558 1386.67 265.473L1385.19 266.805C1385.39 268.087 1385.88 269.961 1386.67 272.426C1387.17 271.933 1387.51 271.193 1387.71 270.207V273.462C1388.3 273.955 1389.83 274.201 1392.29 274.201V280.858C1391.6 280.464 1390.86 279.921 1390.07 279.231C1389.29 279.428 1388.45 280.168 1387.56 281.45C1387.56 280.562 1386.97 279.576 1385.78 278.491C1385.78 278.59 1385.69 279.329 1385.49 280.71C1385.39 281.499 1385 281.893 1384.31 281.893C1383.52 281.893 1382.92 281.844 1382.53 281.746L1387.56 285.444C1388.15 285.444 1388.45 285.592 1388.45 285.888C1388.35 286.381 1388.35 286.775 1388.45 287.071C1394.76 283.028 1397.92 271.884 1397.92 253.639V100.089L1399.1 100.976C1400.97 100.779 1403.39 100.68 1406.35 100.68C1411.87 100.68 1420.45 100.828 1432.09 101.124V251.864L1433.86 253.343C1435.05 252.258 1435.74 251.42 1435.94 250.828C1436.23 251.124 1436.38 251.519 1436.38 252.012ZM1436.53 247.722L1435.34 249.941L1434.01 249.497L1435.2 247.278L1436.53 247.722ZM1378.39 203.343L1377.35 206.598L1376.02 206.154L1377.06 203.343H1378.39ZM1477.51 310.74L1476.47 311.627L1474.4 309.408L1475.29 308.521L1477.51 310.74ZM1441.85 287.811H1440.52L1439.49 285.74L1440.67 285.296L1441.85 287.811ZM1392.74 248.462L1391.55 250.828L1390.37 250.237L1391.41 248.018L1392.74 248.462ZM1395.7 249.941L1394.96 259.26C1394.86 258.57 1394.41 257.485 1393.63 256.006C1392.74 256.499 1391.5 257.337 1389.93 258.521V255.266C1392.69 253.886 1394.61 252.11 1395.7 249.941ZM1447.77 308.373H1447.18H1446C1444.02 308.373 1442.25 308.126 1440.67 307.633L1442.15 304.379V307.189C1443.83 307.978 1445.7 308.373 1447.77 308.373ZM1370.1 287.959L1368.18 319.911C1361.57 319.221 1354.32 315.769 1346.43 309.556C1338.05 302.85 1332.62 295.552 1330.16 287.663C1328.29 281.252 1327.05 274.941 1326.46 268.728C1326.26 265.671 1325.43 263.649 1323.95 262.663C1323.85 261.874 1323.8 261.035 1323.8 260.148C1323.8 259.26 1323.85 258.323 1323.95 257.337C1322.57 256.055 1321.87 255.316 1321.87 255.118C1321.87 254.329 1322.61 252.456 1324.09 249.497C1325.67 246.44 1326.46 244.665 1326.46 244.172V100.237H1360.63V275.089H1367.29L1370.1 287.959ZM1437.86 303.047H1435.34V301.568H1437.86V303.047ZM1438.75 305.414C1438.16 306.105 1437.27 306.992 1436.08 308.077L1437.12 307.189C1436.63 306.696 1435.74 305.858 1434.46 304.675C1434.46 304.675 1435.89 304.921 1438.75 305.414ZM1395.4 267.101H1393.92V264.734H1395.4V267.101ZM1432.39 304.527V306.154C1432.39 309.408 1432.29 311.43 1432.09 312.219C1432.09 311.529 1431.89 310.888 1431.5 310.296C1431.1 309.606 1430.91 309.211 1430.91 309.112C1431 308.817 1431.25 308.521 1431.65 308.225C1429.97 306.548 1429.13 305.611 1429.13 305.414C1429.92 305.217 1431 304.921 1432.39 304.527ZM1369.96 269.615H1363C1364.68 268.531 1366.6 266.854 1368.77 264.586L1369.96 269.615ZM1371.29 344.911H1369.81V333.077H1371.29V344.911ZM1370.4 363.994H1368.77V356.45H1370.4V363.994ZM1370.4 367.544H1368.92V365.178H1370.4V367.544ZM1369.51 382.781L1368.33 385L1367.14 384.556L1368.18 382.337L1369.51 382.781ZM1440.67 255.118L1440.23 253.935L1438.16 254.97V256.154L1440.67 255.118ZM1378.39 243.728V241.361H1376.91V243.728H1378.39ZM1385.34 261.183L1384.9 260L1382.68 261.035V262.219L1385.34 261.183ZM1384.31 268.876C1384.31 268.284 1383.91 267.446 1383.12 266.361C1382.43 266.953 1382.09 268.235 1382.09 270.207C1382.09 269.32 1382.83 268.876 1384.31 268.876ZM1382.83 272.722L1381.64 272.278L1380.46 274.497L1381.79 275.089L1382.83 272.722ZM1375.72 282.633L1374.54 280.118L1373.36 280.562L1374.39 282.633H1375.72ZM1374.84 288.698V285.444H1373.36V288.698H1374.84Z" fill="#00FFFF"/>
<path d="M1609.91 104.231C1606.76 105.809 1604.24 106.598 1602.37 106.598C1601.87 106.598 1601.09 106.302 1600 105.71C1598.92 105.02 1598.03 104.773 1597.34 104.97C1599.51 104.28 1601.53 103.935 1603.4 103.935C1604 103.935 1605.03 104.034 1606.51 104.231C1607.99 104.329 1609.12 104.329 1609.91 104.231ZM1595.86 102.899L1592.6 105.118L1591.86 103.787L1594.97 101.716L1595.86 102.899ZM1570.71 98.4615L1570.12 99.7929L1566.12 97.7219L1566.57 96.3905L1570.71 98.4615ZM1564.5 96.6864L1563.76 98.0178L1560.5 95.7988L1561.39 94.6154L1564.5 96.6864ZM1508.57 96.2426C1506.8 96.2426 1505.91 96.5385 1505.91 97.1302V96.8343C1506.01 95.5523 1506.31 94.9112 1506.8 94.9112C1507.39 95.7988 1507.98 96.2426 1508.57 96.2426ZM1563.31 324.201H1527.95L1505.62 231.45H1491.41V324.201H1476.03V158.964C1476.03 156.696 1475.53 154.675 1474.55 152.899V323.314H1455.46V293.728C1454.38 292.643 1453.49 292.051 1452.8 291.953L1455.46 288.994V98.7574C1458.13 99.1519 1460.89 99.3491 1463.75 99.3491C1467 99.3491 1470.36 99.1026 1473.81 98.6095C1474.01 100.089 1474.1 102.209 1474.1 104.97C1474.3 105.464 1474.7 105.71 1475.29 105.71C1475.68 96.4398 1476.37 86.6272 1477.36 76.2722C1477.36 88.1065 1478 96.144 1479.28 100.385C1482.04 100.187 1485.3 100.089 1489.05 100.089C1496.34 100.089 1505.47 100.483 1516.42 101.272C1516.91 100.878 1517.15 100.434 1517.15 99.9408C1517.06 99.5463 1516.86 99.2012 1516.56 98.9053C1518.04 100.483 1519.08 101.272 1519.67 101.272C1520.66 101.272 1521.1 100.779 1521 99.7929L1522.92 102.16C1524.4 101.371 1525.49 100.976 1526.18 100.976C1526.77 100.976 1527.02 101.519 1526.92 102.604C1548.91 109.606 1559.91 130.562 1559.91 165.473C1559.91 178.787 1558.68 189.29 1556.21 196.982C1553.15 206.45 1547.24 215.473 1538.46 224.053L1563.31 324.201ZM1446.74 290.325H1445.26V287.959H1446.74V290.325ZM1476.32 117.988V107.633H1474.7V117.988H1476.32ZM1476.32 122.426V119.172H1474.7V122.426H1476.32ZM1525.88 165.917C1525.88 147.968 1521.79 137.416 1513.6 134.26C1513.6 135.641 1513.41 136.529 1513.01 136.923C1512.82 135.74 1511.98 134.26 1510.5 132.485H1507.24C1507.44 133.274 1507.54 133.964 1507.54 134.556C1507.54 135.542 1507.29 136.331 1506.8 136.923C1505.62 135.74 1505.02 134.704 1505.02 133.817C1505.02 136.183 1504.14 137.367 1502.36 137.367C1503.25 137.367 1503.69 137.564 1503.69 137.959C1503.5 138.452 1503.2 138.895 1502.8 139.29C1503.59 138.895 1504.33 138.698 1505.02 138.698C1506.5 138.698 1507.34 139.241 1507.54 140.325C1507.83 142.298 1508.03 143.383 1508.13 143.58C1507.93 143.876 1507.64 144.024 1507.24 144.024C1507.14 144.024 1506.9 143.925 1506.5 143.728C1506.11 143.531 1505.91 143.185 1505.91 142.692C1505.81 143.481 1505.27 144.27 1504.28 145.059L1502.8 143.58C1503.5 142.89 1503.99 142.199 1504.28 141.509L1501.33 146.686C1500.54 145.897 1499.3 145.059 1497.63 144.172C1497.04 147.13 1495.9 151.272 1494.22 156.598L1492.89 155.118C1493.68 153.836 1494.08 152.801 1494.08 152.012C1494.08 151.321 1493.78 150.779 1493.19 150.385C1493.19 150.976 1492.84 151.765 1492.15 152.751C1491.56 153.639 1491.27 154.379 1491.27 154.97V199.349H1508.43C1520.06 199.349 1525.88 188.205 1525.88 165.917Z" fill="#00FFFF"/>
<path d="M1673.53 117.84H1666.43V116.213H1673.53V117.84ZM1564.79 12.3669H1563.16V10H1564.79V12.3669ZM1565.83 22.574L1564.79 26.716H1563.16L1564.2 22.574H1565.83ZM1658.29 124.497H1656.66V122.13H1658.29V124.497ZM1666.43 131.006L1663.76 132.189V130.858L1665.83 129.675L1666.43 131.006ZM1667.61 133.373L1665.39 136.479L1664.06 135.74L1666.28 132.485L1667.61 133.373ZM1660.21 129.527L1658.88 130.266L1656.66 127.012L1657.99 126.272L1660.21 129.527ZM1601.04 72.7219L1600 77.8994H1598.37L1599.41 72.7219H1601.04ZM1662.73 137.219L1660.06 138.402V137.071L1662.14 136.036L1662.73 137.219ZM1647.64 124.497C1646.55 123.905 1645.71 123.609 1645.12 123.609V120.355C1645.81 121.341 1646.65 122.722 1647.64 124.497ZM1635.21 109.852L1634.03 112.219L1632.7 111.627L1633.88 109.408L1635.21 109.852ZM1566.12 39.4379C1566.12 41.6075 1565.33 43.3826 1563.76 44.7633V41.5089L1566.12 39.4379ZM1655.63 136.183H1654L1652.96 131.154H1654.59L1655.63 136.183ZM1601.78 81.1538L1600.59 83.5207L1599.41 82.929L1600.59 80.7101L1601.78 81.1538ZM1567.16 51.4201H1564.64V49.9408H1567.16V51.4201ZM1647.34 134.704L1646.16 138.846H1644.68L1645.71 134.704H1647.34ZM1634.91 116.213L1630.03 114.734C1629.93 116.903 1629.88 120.207 1629.88 124.645C1629.49 123.166 1628.8 120.799 1627.81 117.544C1627.22 117.84 1626.93 118.284 1626.93 118.876C1626.93 118.087 1627.22 116.903 1627.81 115.325C1628.5 113.748 1628.85 112.515 1628.85 111.627C1628.85 113.107 1629.44 113.846 1630.62 113.846C1631.22 113.846 1631.51 113.254 1631.51 112.071C1632.1 112.761 1633.19 113.107 1634.77 113.107V121.391C1634.77 131.252 1634.77 137.761 1634.77 140.917L1634.62 145.799C1634.62 145.897 1634.57 145.996 1634.47 146.095C1633.09 144.32 1631.36 141.213 1629.29 136.775C1629.98 135.888 1630.33 135.197 1630.33 134.704C1630.62 135.296 1631.36 136.134 1632.55 137.219L1634.03 135.592C1634.13 134.408 1633.19 133.373 1631.22 132.485V121.686C1631.22 120.799 1631.71 119.813 1632.7 118.728C1634.08 117.347 1634.82 116.509 1634.91 116.213ZM1627.67 132.041L1626.63 132.929L1624.41 130.71L1625.3 129.822L1627.67 132.041ZM1655.48 161.775L1654.29 164.142L1652.96 163.698L1654.15 161.331L1655.48 161.775ZM1628.7 136.775L1627.52 139.142L1626.19 138.55L1627.37 136.183L1628.7 136.775ZM1655.48 167.544H1654V165.178H1655.48V167.544ZM1578.85 97.574H1577.22L1576.18 93.432H1577.66L1578.85 97.574ZM1642.61 162.219H1640.98V159.704H1642.61V162.219ZM1647.19 173.757H1645.57V168.728H1647.19V173.757ZM1584.62 110.296C1583.63 110.197 1582.2 110.148 1580.33 110.148L1581.51 107.633C1582.2 108.225 1583.23 109.112 1584.62 110.296ZM1634.77 167.544C1633.39 167.544 1631.91 166.755 1630.33 165.178H1630.77C1631.36 165.178 1631.91 165.424 1632.4 165.917C1633.09 163.254 1633.44 160.099 1633.44 156.45C1634.32 159.112 1634.77 162.811 1634.77 167.544ZM1576.33 109.704H1573.96V108.225H1576.33V109.704ZM1635.21 171.391L1634.18 177.456H1632.55L1633.58 171.391H1635.21ZM1579.59 120.503L1578.4 123.018L1577.07 122.426L1578.25 120.059L1579.59 120.503ZM1632.4 184.556H1631.07L1629.88 181.598L1631.22 181.154L1632.4 184.556ZM1632.4 188.254H1630.77V185.74H1632.4V188.254ZM1682.55 242.988C1681.96 239.043 1680.23 236.529 1677.37 235.444L1681.66 231.45C1682.26 233.521 1682.55 237.367 1682.55 242.988ZM1581.06 146.982C1579.59 146.982 1577.42 146.686 1574.56 146.095C1573.87 148.166 1573.52 150.779 1573.52 153.935C1573.52 158.964 1574.21 162.465 1575.59 164.438V169.32C1574.51 169.813 1573.87 171.341 1573.67 173.905C1573.47 176.765 1572.98 178.59 1572.19 179.379C1572.19 175.237 1572.09 170.947 1571.89 166.509C1571.89 165.424 1571.6 163.748 1571 161.479C1570.31 159.112 1569.97 157.288 1569.97 156.006C1569.97 155.217 1570.02 154.527 1570.12 153.935C1569.13 153.54 1567.9 152.85 1566.42 151.864C1567.6 151.469 1568.19 150.533 1568.19 149.053C1568.19 148.166 1567.9 146.884 1567.31 145.207C1566.71 143.531 1566.42 142.298 1566.42 141.509C1566.42 141.213 1566.57 140.621 1566.86 139.734C1567.16 138.846 1567.31 138.156 1567.31 137.663C1567.31 136.677 1567.21 135.197 1567.01 133.225C1566.71 131.252 1566.57 129.773 1566.57 128.787C1566.57 126.42 1567.11 124.596 1568.19 123.314C1567.7 122.821 1567.16 122.426 1566.57 122.13C1566.76 121.144 1566.37 119.714 1565.38 117.84C1567.06 115.868 1567.9 113.55 1567.9 110.888C1566.52 108.619 1565.83 105.809 1565.83 102.456C1565.83 100.483 1566.17 97.5247 1566.86 93.5799C1567.45 89.5365 1567.7 86.4793 1567.6 84.4083V83.3728C1568.1 83.8659 1568.69 84.5069 1569.38 85.2959C1568.39 103.442 1570.17 118.826 1574.7 131.45C1573.91 132.83 1573.52 134.063 1573.52 135.148C1573.52 136.134 1573.77 136.972 1574.26 137.663C1573.57 139.536 1573.22 140.966 1573.22 141.953C1573.22 144.221 1575.1 145.355 1578.85 145.355C1578.75 145.355 1579.49 144.763 1581.06 143.58V146.982ZM1647.19 207.041H1645.86L1644.68 204.822L1646.01 204.379L1647.19 207.041ZM1635.21 195.651L1634.18 199.793H1632.55L1633.73 195.651H1635.21ZM1625.89 199.793H1624.26V183.964H1625.89V199.793ZM1586.54 151.568C1586.54 153.935 1586.14 155.316 1585.36 155.71C1583.38 156.598 1582.3 157.14 1582.1 157.337C1583.19 158.422 1583.73 159.458 1583.73 160.444L1580.33 157.485V154.379C1581.8 153.787 1583.88 152.85 1586.54 151.568ZM1585.36 169.024C1584.66 168.629 1583.63 168.432 1582.25 168.432C1582.74 167.742 1583.38 166.607 1584.17 165.03C1584.96 165.72 1585.36 167.051 1585.36 169.024ZM1635.8 223.018C1634.52 223.708 1632.99 224.053 1631.22 224.053C1631.31 222.574 1630.97 221.144 1630.18 219.763C1630.18 219.467 1631.02 218.629 1632.7 217.249C1633.29 213.797 1633.68 211.036 1633.88 208.964C1634.87 215.178 1635.51 219.862 1635.8 223.018ZM1578.7 164.438L1577.51 166.953L1576.18 166.361L1577.37 163.994L1578.7 164.438ZM1670.42 268.876H1668.79V265.621H1670.42V268.876ZM1634.32 237.515H1632.7V227.899H1634.32V237.515ZM1662.58 259.408C1660.71 258.915 1658.59 259.408 1656.22 260.888V257.485C1656.12 257.485 1657.89 257.189 1661.54 256.598C1661.54 258.471 1661.89 259.408 1662.58 259.408ZM1625.89 233.077H1624.26V227.899H1625.89V233.077ZM1624.71 120.651C1623.42 125.286 1622.78 133.323 1622.78 144.763V322.722H1602.52C1602.61 322.327 1602.66 321.982 1602.66 321.686C1602.66 320.7 1601.97 320.207 1600.59 320.207C1599.9 320.207 1598.92 320.651 1597.63 321.538C1596.45 322.327 1595.51 322.722 1594.82 322.722H1588.02V281.302C1587.62 281.006 1587.23 280.858 1586.83 280.858C1586.24 280.858 1585.65 281.055 1585.06 281.45C1585.75 280.464 1586.34 278.984 1586.83 277.012C1586.24 277.406 1585.31 277.949 1584.02 278.639C1585.11 277.258 1586.34 276.223 1587.72 275.533V250.828C1583.28 248.067 1580.33 246.686 1578.85 246.686C1578.25 246.686 1577.37 246.884 1576.18 247.278C1575.1 247.673 1574.31 247.87 1573.82 247.87C1573.72 247.87 1573.67 247.821 1573.67 247.722C1573.67 247.426 1574.31 246.637 1575.59 245.355C1574.01 243.974 1571.55 242.101 1568.19 239.734C1569.08 239.734 1570.22 239.043 1571.6 237.663C1571.6 238.156 1571.1 238.895 1570.12 239.882C1570.51 240.079 1571.2 240.523 1572.19 241.213C1572.68 239.438 1572.93 237.86 1572.93 236.479C1572.93 234.211 1572.29 232.436 1571 231.154V226.568C1572.39 223.412 1573.08 219.862 1573.08 215.917C1573.08 214.142 1572.93 211.578 1572.63 208.225C1572.24 204.773 1572.04 202.209 1572.04 200.533C1572.04 197.179 1572.44 193.136 1573.22 188.402C1573.32 190.079 1574.75 192.84 1577.51 196.686C1576.82 198.56 1576.48 201.174 1576.48 204.527H1578.7C1579.68 203.639 1580.03 202.998 1579.73 202.604C1580.23 202.209 1580.47 199.546 1580.47 194.615C1581.26 195.207 1582.25 196.391 1583.43 198.166C1583.83 197.673 1584.02 197.13 1584.02 196.538C1585.01 196.538 1586.05 197.081 1587.13 198.166C1588.12 197.278 1588.61 196.243 1588.61 195.059C1588.61 192.89 1587.43 191.509 1585.06 190.917L1584.76 191.213C1587.92 188.254 1589.5 185.641 1589.5 183.373C1589.5 182.682 1589.2 181.696 1588.61 180.414C1588.02 179.132 1587.72 178.097 1587.72 177.308C1587.03 176.617 1586.34 176.075 1585.65 175.68C1585.36 176.765 1584.47 178.442 1582.99 180.71C1583.28 180.907 1583.53 181.006 1583.73 181.006C1584.22 181.006 1584.81 180.759 1585.5 180.266C1585.5 180.957 1585.55 181.992 1585.65 183.373C1585.65 184.753 1585.65 185.789 1585.65 186.479C1585.36 186.282 1585.01 186.183 1584.62 186.183C1585.8 186.183 1584.42 186.578 1580.47 187.367C1580.37 186.874 1579.98 186.085 1579.29 185C1580.57 185 1581.8 184.408 1582.99 183.225C1582.79 182.535 1581.8 181.499 1580.03 180.118C1578.35 178.738 1577.51 177.751 1577.51 177.16C1577.51 176.371 1578.11 175.631 1579.29 174.941C1580.57 174.152 1581.26 173.56 1581.36 173.166C1582.25 173.166 1583.28 173.757 1584.47 174.941C1584.57 174.842 1584.62 174.694 1584.62 174.497C1584.62 173.807 1584.12 172.525 1583.14 170.651C1584.71 170.651 1586.05 171.144 1587.13 172.13C1587.72 171.637 1588.02 170.799 1588.02 169.615C1588.02 166.755 1586.98 164.832 1584.91 163.846C1584.91 162.663 1585.4 162.071 1586.39 162.071L1586.98 162.367C1587.48 160.099 1587.72 158.077 1587.72 156.302C1587.72 152.258 1586.49 149.645 1584.02 148.462C1584.91 147.87 1586.14 146.982 1587.72 145.799C1586.74 144.813 1586.24 144.024 1586.24 143.432C1586.24 142.939 1586.74 142.692 1587.72 142.692L1585.8 108.817C1586.98 108.225 1587.72 105.858 1588.02 101.716C1588.31 98.0671 1589.69 96.1933 1592.16 96.0947C1591.57 96.1933 1591.27 96.785 1591.27 97.8698H1598.97C1599.66 96.9822 1600 96.144 1600 95.355C1600 93.9744 1598.97 92.8895 1596.89 92.1006C1598.28 90.4241 1599.31 87.86 1600 84.4083C1601.09 85.0986 1601.63 86.3807 1601.63 88.2544C1601.63 88.9448 1601.53 90.0296 1601.33 91.5089C1601.14 92.8895 1601.04 93.925 1601.04 94.6154C1601.04 97.2781 1602.61 98.6095 1605.77 98.6095H1619.38C1619.68 98.3136 1620.02 98.1657 1620.42 98.1657C1621.11 98.1657 1621.8 98.7574 1622.49 99.9408C1622.09 102.604 1621.9 105.118 1621.9 107.485C1621.9 112.515 1622.83 116.903 1624.71 120.651ZM1662.58 272.426H1661.99C1660.31 272.426 1658.98 272.377 1657.99 272.278L1659.18 267.249C1659.87 267.544 1661 269.27 1662.58 272.426ZM1628.7 235.592L1626.48 238.698L1625.3 237.959L1627.37 234.704L1628.7 235.592ZM1582.1 190.621C1581.11 191.607 1580.33 192.495 1579.73 193.284C1579.73 193.383 1579.68 191.953 1579.59 188.994V188.402L1582.1 190.621ZM1651.78 260.444L1650.6 262.811L1649.26 262.219L1650.45 260L1651.78 260.444ZM1633.73 247.426C1632.65 247.229 1631.81 246.834 1631.22 246.243C1632.1 243.383 1632.5 241.41 1632.4 240.325C1633.29 241.706 1633.73 244.073 1633.73 247.426ZM1647.64 259.26C1647.64 260.148 1647.54 261.183 1647.34 262.367C1646.85 261.677 1646.11 260.838 1645.12 259.852V253.787C1646.8 254.675 1647.64 256.499 1647.64 259.26ZM1656.07 267.84C1655.38 268.037 1654.34 268.284 1652.96 268.58C1653.46 268.58 1654.39 267.249 1655.77 264.586C1655.77 265.966 1655.87 267.051 1656.07 267.84ZM1656.51 269.172L1655.33 272.722L1654 272.13L1655.03 269.172H1656.51ZM1625.89 242.84H1624.26V240.473H1625.89V242.84ZM1651.04 269.763H1649.41L1648.38 263.846H1650L1651.04 269.763ZM1662.14 273.905C1661.94 274.3 1660.61 276.568 1658.14 280.71V277.308C1660.21 276.321 1661.54 275.187 1662.14 273.905ZM1664.06 284.704C1664.06 283.817 1663.71 283.077 1663.02 282.485C1661.74 283.767 1660.11 284.901 1658.14 285.888C1659.23 284.901 1659.77 284.014 1659.77 283.225C1659.77 282.732 1659.52 282.288 1659.03 281.893C1660.71 281.893 1661.74 282.091 1662.14 282.485C1663.32 281.302 1663.91 279.231 1663.91 276.272C1664.01 278.343 1664.06 280.611 1664.06 283.077V284.704ZM1657.4 284.112H1656.07L1654.89 282.041L1656.22 281.45L1657.4 284.112ZM1636.1 263.55H1634.47V261.035H1636.1V263.55ZM1657.11 275.533C1655.13 277.505 1654.1 279.527 1654 281.598H1649.26C1648.97 281.499 1648.38 281.055 1647.49 280.266C1646.9 279.773 1646.16 279.576 1645.27 279.675H1644.24V276.272C1645.42 276.963 1647.05 278.146 1649.12 279.822C1649.51 279.527 1650.35 279.379 1651.63 279.379C1652.91 279.379 1653.9 277.751 1654.59 274.497C1655.68 275.187 1656.51 275.533 1657.11 275.533ZM1637.58 273.905C1635.61 274.596 1633.83 275.039 1632.25 275.237C1632.25 268.629 1631.61 260.641 1630.33 251.272C1631.12 251.075 1632.25 250.779 1633.73 250.385C1633.73 260.641 1633.48 267.84 1632.99 271.982C1634.77 272.87 1636.3 273.511 1637.58 273.905ZM1661.69 287.959C1661.69 289.536 1661.2 291.016 1660.21 292.396C1659.32 289.536 1658.88 288.156 1658.88 288.254C1658.88 286.874 1659.77 286.183 1661.54 286.183L1661.69 287.219V287.959ZM1628.7 254.822L1627.67 259.852H1626.19L1627.07 254.822H1628.7ZM1655.63 286.479C1655.23 286.085 1653.9 285.888 1651.63 285.888C1652.22 284.901 1652.52 284.112 1652.52 283.521L1655.63 286.479ZM1642.61 273.905L1641.42 276.272L1640.09 275.68L1641.28 273.462L1642.61 273.905ZM1648.67 287.515C1647.19 287.515 1646.45 287.761 1646.45 288.254C1646.45 285.296 1646.4 283.077 1646.31 281.598C1647 282.978 1647.79 284.951 1648.67 287.515ZM1629.74 267.692C1629.74 269.172 1629.39 270.207 1628.7 270.799C1628.41 269.813 1628.01 269.073 1627.52 268.58C1629 268.58 1629.74 268.284 1629.74 267.692ZM1628.26 273.757H1624.85V272.278H1628.26V273.757ZM1631.51 279.675H1629.88V277.308H1631.51V279.675ZM1568.19 219.172C1568.19 219.073 1568.14 219.024 1568.05 219.024C1567.65 219.024 1566.96 219.566 1565.97 220.651L1564.5 219.467C1565.09 219.961 1565.97 220.602 1567.16 221.391C1567.16 220.799 1567.5 220.059 1568.19 219.172ZM1633.88 290.178C1633.88 291.755 1633.78 288.6 1633.58 280.71C1633.09 281.992 1631.81 283.619 1629.74 285.592C1629.93 285.394 1630.13 285.296 1630.33 285.296C1630.82 285.296 1631.41 285.69 1632.1 286.479C1629.93 287.465 1628.85 288.698 1628.85 290.178C1628.85 289.191 1629.15 288.402 1629.74 287.811C1630.23 288.008 1631.02 288.452 1632.1 289.142C1631.51 289.734 1631.22 290.424 1631.22 291.213C1632.99 291.213 1633.88 290.868 1633.88 290.178ZM1569.97 224.349C1569.77 224.744 1569.67 226.617 1569.67 229.97C1569.67 228.393 1568.69 227.604 1566.71 227.604V223.757C1566.81 224.744 1567.16 225.483 1567.75 225.976L1569.97 224.349ZM1634.91 297.426H1631.22C1632.7 294.862 1633.44 293.481 1633.44 293.284C1633.14 295.947 1632.99 296.834 1632.99 295.947C1632.99 296.834 1633.63 297.327 1634.91 297.426ZM1568.49 231.154H1567.16L1565.97 229.083L1567.31 228.639L1568.49 231.154ZM1584.32 261.775H1582.69V258.373H1584.32V261.775ZM1572.78 250.533C1571.7 250.927 1570.91 251.42 1570.41 252.012C1570.41 250.533 1569.97 249.793 1569.08 249.793L1572.78 250.533ZM1557.39 293.58L1556.21 296.095L1554.88 295.503L1556.06 293.136L1557.39 293.58ZM1556.51 303.491L1555.32 305.858L1553.99 305.266L1555.18 303.047L1556.51 303.491ZM1614.5 185.148C1612.53 184.063 1610.21 182.436 1607.55 180.266C1607.55 180.266 1607.55 181.252 1607.55 183.225C1607.55 184.408 1606.76 185.345 1605.18 186.036C1606.76 187.022 1607.45 188.353 1607.25 190.03C1610.41 189.043 1612.82 187.416 1614.5 185.148ZM1615.24 206.893V202.899C1612.28 201.42 1610.8 199.842 1610.8 198.166C1610.8 197.574 1610.85 196.736 1610.95 195.651C1611.15 194.566 1611.24 193.777 1611.24 193.284C1610.55 193.678 1609.52 193.876 1608.14 193.876C1608.14 199.596 1608.09 203.935 1607.99 206.893H1615.24ZM1605.18 179.822L1601.04 178.491C1597.09 181.45 1595.12 184.704 1595.12 188.254C1595.12 190.03 1596.94 192.298 1600.59 195.059C1597.54 196.045 1596.01 197.377 1596.01 199.053C1596.01 200.039 1597.24 200.533 1599.71 200.533C1599.01 199.941 1598.67 199.349 1598.67 198.757C1598.67 198.264 1598.92 197.771 1599.41 197.278C1600.2 197.574 1600.94 198.067 1601.63 198.757V199.497C1601.73 201.371 1601.38 202.653 1600.59 203.343H1604.14V183.817C1602.76 185.099 1601.53 186.036 1600.44 186.627L1599.71 182.633C1600.99 182.041 1602.81 181.105 1605.18 179.822ZM1583.28 179.822L1581.36 175.976H1579.88L1582.1 180.266L1583.28 179.822ZM1587.57 202.308V199.201C1586.88 199.497 1586.24 199.645 1585.65 199.645C1584.47 199.645 1583.38 199.152 1582.4 198.166V206.302C1583.19 205.513 1584.47 204.379 1586.24 202.899C1587.03 202.209 1587.48 202.012 1587.57 202.308ZM1586.69 208.669C1585.8 207.781 1584.62 207.337 1583.14 207.337L1584.47 211.627C1584.47 209.655 1585.21 208.669 1586.69 208.669ZM1581.06 206.45H1576.63C1577.12 207.83 1578.25 209.556 1580.03 211.627C1580.03 211.923 1580.37 210.197 1581.06 206.45ZM1616.27 264.882C1614.4 263.008 1612.58 262.071 1610.8 262.071C1610.8 262.663 1610.8 263.205 1610.8 263.698V264.734C1610.8 265.819 1610.9 267.249 1611.1 269.024C1613.17 269.024 1614.89 267.643 1616.27 264.882ZM1602.52 272.574L1598.97 271.391V272.722L1602.07 273.757L1602.52 272.574ZM1595.41 276.124V271.834H1593.79V276.124H1595.41ZM1593.2 274.793C1592.01 274.3 1590.24 273.609 1587.87 272.722C1587.87 273.412 1588.17 274.448 1588.76 275.828C1589.45 277.209 1589.79 278.245 1589.79 278.935C1591.27 277.258 1592.41 275.878 1593.2 274.793Z" fill="#00FFFF"/>
<path d="M1713.62 141.213C1713.62 143.185 1713.17 144.615 1712.29 145.503C1711.7 141.854 1711.4 140.079 1711.4 140.178C1712.29 140.868 1713.03 141.213 1713.62 141.213ZM1713.17 155.118H1711.7V147.426H1713.17V155.118ZM1727.08 174.793H1725.6V169.763H1727.08V174.793ZM1727.97 179.231H1726.64L1725.6 177.16L1726.79 176.716L1727.97 179.231ZM1720.13 168.284L1717.02 176.568H1715.69L1718.94 167.692L1720.13 168.284ZM1774.72 251.568H1773.24V249.201H1774.72V251.568ZM1727.97 210.592H1726.49V201.864H1727.97V210.592ZM1769.98 254.822H1767.62V253.195H1769.98V254.822ZM1782.26 179.675C1778.51 177.11 1769.1 175.828 1754.01 175.828C1748.38 175.828 1741.83 177.258 1734.33 180.118C1726.93 182.88 1721.21 186.134 1717.17 189.882V190.178C1717.07 190.966 1717.37 191.41 1718.06 191.509H1717.47C1716.77 191.509 1715.84 191.854 1714.65 192.544C1715.25 194.911 1716.68 198.067 1718.94 202.012V206.006C1717.47 206.598 1716.82 208.422 1717.02 211.479C1716.23 210.789 1715.39 210.493 1714.51 210.592V210.888C1714.51 211.677 1714.36 212.416 1714.06 213.107C1714.36 219.221 1714.51 222.081 1714.51 221.686C1714.51 224.053 1714.06 225.631 1713.17 226.42C1713.47 227.801 1713.62 229.231 1713.62 230.71C1713.62 232.88 1713.22 235.148 1712.44 237.515C1712.34 234.852 1712.34 231.4 1712.44 227.16C1712.53 221.834 1712.58 218.383 1712.58 216.805C1712.58 207.535 1711.94 200.434 1710.66 195.503C1709.08 197.278 1708.29 199.004 1708.29 200.68C1708.29 202.258 1708.93 203.787 1710.22 205.266C1709.43 204.576 1708.54 204.28 1707.55 204.379C1705.98 207.83 1705.19 211.874 1705.19 216.509C1705.19 217.692 1706.62 220.454 1709.48 224.793C1708.39 224.694 1707.41 224.152 1706.52 223.166C1705.14 227.505 1704.45 232.732 1704.45 238.846C1704.45 245.158 1705.14 252.258 1706.52 260.148C1705.53 264.487 1705.04 271.045 1705.04 279.822V323.018H1673.23V218.432L1670.86 216.065C1670.27 216.755 1669.68 217.347 1669.09 217.84C1668.3 217.15 1667.91 215.819 1667.91 213.846C1667.91 212.959 1668.5 211.627 1669.68 209.852C1671.36 207.485 1672.24 206.203 1672.34 206.006C1671.16 206.006 1670.12 205.464 1669.24 204.379C1668.55 205.168 1668.25 206.105 1668.35 207.189C1667.66 205.611 1666.52 204.822 1664.95 204.822C1665.74 204.822 1666.43 204.527 1667.02 203.935C1666.72 203.245 1666.18 202.308 1665.39 201.124L1667.31 201.864L1667.17 201.42C1667.17 200.138 1668 198.264 1669.68 195.799C1668.89 195.207 1668 194.418 1667.02 193.432C1667.81 192.249 1668.74 190.572 1669.83 188.402L1669.68 188.55C1669.98 189.339 1670.62 190.178 1671.6 191.065C1671.41 185.74 1671.31 178.59 1671.31 169.615C1671.31 153.047 1672.2 141.114 1673.97 133.817C1673.38 131.351 1664.45 130.168 1647.19 130.266V126.864C1648.48 126.075 1650.5 124.99 1653.26 123.609C1648.33 118.58 1644.83 116.065 1642.76 116.065C1642.36 116.065 1640.98 116.312 1638.61 116.805V99.2012H1740.25V130.118C1738.28 130.71 1732.06 131.006 1721.61 131.006C1716.58 131.006 1713.57 131.992 1712.58 133.964C1711.89 132.978 1710.71 131.746 1709.03 130.266C1708.05 130.957 1706.71 132.091 1705.04 133.669V194.763C1705.83 194.961 1706.57 195.503 1707.26 196.391C1710.31 194.418 1711.84 190.424 1711.84 184.408C1711.84 177.209 1711.65 169.073 1711.25 160C1712.24 159.31 1713.27 158.373 1714.36 157.189C1714.36 159.162 1714.26 162.17 1714.06 166.213C1713.87 170.256 1713.77 173.314 1713.77 175.385V187.663C1714.65 187.564 1715.69 187.515 1716.87 187.515L1716.58 187.367C1717.17 186.282 1721.26 184.063 1728.86 180.71C1739.11 176.272 1749.12 174.053 1758.89 174.053C1765.2 174.053 1769.29 174.25 1771.17 174.645C1774.42 175.237 1778.12 176.913 1782.26 179.675ZM1720.13 229.231H1718.8L1717.76 226.272L1719.09 225.828L1720.13 229.231ZM1709.77 222.13H1708.29V217.988H1709.77V222.13ZM1662.88 175.089L1662.14 176.124L1659.92 173.905L1660.8 173.018L1662.88 175.089ZM1708 229.231H1706.52V225.976H1708V229.231ZM1665.24 186.036H1661.99V184.408H1665.24V186.036ZM1714.65 245.207C1713.87 245.207 1713.13 245.602 1712.44 246.391V240.621L1714.65 245.207ZM1659.62 190.917H1657.99V186.775H1659.62V190.917ZM1663.02 194.467H1661.54V191.213H1663.02V194.467ZM1708 240.917H1706.52V237.663H1708V240.917ZM1663.91 202.456H1662.43V200.089H1663.91V202.456ZM1715.84 256.154H1714.36V253.639H1715.84V256.154ZM1660.51 199.201L1659.47 206.893H1657.99L1658.88 199.201H1660.51ZM1665.83 213.402C1665.74 212.022 1665 211.331 1663.62 211.331L1665.83 208.964V213.402ZM1713.32 271.243H1711.7V248.314H1713.32V271.243ZM1710.51 258.669L1708.29 260.888L1707.55 260L1709.62 257.781L1710.51 258.669ZM1648.38 205.118H1646.75L1645.86 197.426H1647.49L1648.38 205.118ZM1662.28 219.172C1661.89 218.383 1661.35 217.643 1660.66 216.953C1660.56 218.432 1659.87 220.503 1658.59 223.166V220.799C1658.68 219.517 1658.34 217.692 1657.55 215.325C1659.32 215.325 1660.71 215.276 1661.69 215.178C1661.79 216.065 1661.99 217.396 1662.28 219.172ZM1713.32 272.426L1712.29 281.006H1710.81L1711.7 272.426H1713.32ZM1652.22 214.438C1650.45 216.903 1648.08 220.7 1645.12 225.828C1644.63 225.335 1644.09 225.089 1643.5 225.089C1642.9 225.089 1642.36 225.385 1641.87 225.976C1642.56 225.385 1644.04 223.215 1646.31 219.467C1648.08 216.607 1650.05 214.931 1652.22 214.438ZM1713.17 291.805H1711.7V283.225H1713.17V291.805ZM1713.32 304.231H1711.7V292.988H1713.32V304.231ZM1640.54 229.97L1638.47 233.225L1637.28 232.337L1639.35 229.231L1640.54 229.97ZM1713.17 319.467H1711.7V315.325H1713.17V319.467ZM1701.49 135.148V133.669H1698.38V135.148H1701.49ZM1683.44 121.982L1681.37 119.615C1679.4 120.01 1676.93 120.7 1673.97 121.686V123.609V126.716V127.604H1674.12H1678.11C1678.9 125.335 1680.68 123.462 1683.44 121.982ZM1714.06 166.805V164.438H1712.58V166.805H1714.06ZM1681.66 129.675H1678.41V133.964L1676.93 133.077C1675.94 133.077 1675.2 133.422 1674.71 134.112C1674.32 134.704 1674.12 135.493 1674.12 136.479C1674.71 136.479 1675.4 136.824 1676.19 137.515C1676.98 136.923 1678.8 134.31 1681.66 129.675ZM1672.05 201.272V199.793L1668.05 198.757V200.237L1672.05 201.272ZM1672.05 213.254C1672.05 211.775 1671.7 210.641 1671.01 209.852C1669.73 211.134 1669.09 212.318 1669.09 213.402C1669.78 213.304 1670.77 213.254 1672.05 213.254Z" fill="#00FFFF"/>
<path d="M1916 66.213H1906.38V64.7337H1916V66.213ZM1904.31 67.2485L1900.17 66.213V64.5858L1904.31 65.6213V67.2485ZM1898.69 67.2485C1897.01 67.2485 1894.55 67.7909 1891.29 68.8757C1888.04 69.8619 1885.57 70.355 1883.9 70.355C1882.81 70.355 1881.14 70.1578 1878.87 69.7633C1876.6 69.2702 1874.87 69.0237 1873.69 69.0237C1874.87 69.0237 1876.65 68.5306 1879.02 67.5444C1881.48 66.4596 1883.11 65.9172 1883.9 65.9172C1884.49 65.9172 1885.33 66.0651 1886.41 66.3609C1887.5 66.6568 1888.34 66.8047 1888.93 66.8047C1890.8 66.3116 1893.56 65.4241 1897.21 64.142C1897.21 66.213 1897.7 67.2485 1898.69 67.2485ZM1871.03 68.1361C1871.03 68.3333 1871.03 68.7278 1871.03 69.3195C1870.93 69.714 1870.88 70.0592 1870.88 70.355C1870.29 70.9467 1868.86 71.2426 1866.59 71.2426H1864.52C1862.64 71.2426 1861.56 71.0947 1861.26 70.7988C1861.56 71.0947 1862.59 71.2426 1864.37 71.2426C1864.96 71.2426 1865.45 70.7988 1865.85 69.9112C1866.24 69.0237 1866.79 68.5799 1867.48 68.5799C1868.56 68.5799 1869.4 68.8757 1869.99 69.4675C1870.68 69.1716 1871.03 68.7278 1871.03 68.1361ZM1858.01 70.9467L1855.49 72.8698C1856.28 72.0809 1856.68 70.503 1856.68 68.1361C1857.07 68.7278 1857.51 69.6647 1858.01 70.9467ZM1831.53 52.3077L1829.31 54.5266L1828.42 53.4911L1830.49 51.4201L1831.53 52.3077ZM1855.2 68.5799C1854.01 73.3136 1850.66 75.6805 1845.14 75.6805C1844.45 75.6805 1843.95 75.3846 1843.66 74.7929C1843.46 74.2012 1843.07 73.9053 1842.47 73.9053C1842.87 73.9053 1839.47 74.4477 1832.27 75.5325C1833.84 73.856 1835.77 73.0178 1838.04 73.0178C1839.12 73.0178 1839.66 72.7219 1839.66 72.1302L1841.59 73.9053C1843.36 72.1302 1844.99 71.2426 1846.47 71.2426C1846.86 71.2426 1847.21 71.3905 1847.5 71.6864C1847.9 71.9822 1848.29 72.1302 1848.69 72.1302C1849.08 72.1302 1849.28 71.6864 1849.28 70.7988C1849.38 70.503 1849.62 70.355 1850.02 70.355C1852.19 70.355 1853.91 69.7633 1855.2 68.5799ZM1805.34 53.787C1802.97 54.0828 1800.46 55.1677 1797.8 57.0414C1797.8 56.4497 1797.16 55.5128 1795.87 54.2308C1795.28 54.5266 1794.74 54.6746 1794.25 54.6746C1795.92 53.787 1796.66 53.3432 1796.46 53.3432C1796.76 53.3432 1797.2 53.9349 1797.8 55.1183C1798.09 54.6252 1798.63 53.787 1799.42 52.6035L1805.34 53.787ZM1792.77 54.3787L1791.73 58.6686C1791.34 58.4714 1790.84 58.3728 1790.25 58.3728C1789.07 58.3728 1787.49 58.7673 1785.52 59.5562C1785.62 58.2742 1786.6 57.2387 1788.48 56.4497C1787.69 55.7594 1787.1 55.069 1786.7 54.3787H1792.77ZM1734.77 46.6864C1734.48 47.0809 1733.84 47.4753 1732.85 47.8698C1731.77 48.1657 1731.03 48.5108 1730.63 48.9053C1730.63 48.215 1730.34 47.2288 1729.74 45.9467C1729.05 44.6647 1728.71 43.6785 1728.71 42.9882H1732.11C1730.93 43.1854 1730.34 43.7771 1730.34 44.7633C1731.22 45.0592 1732.7 45.7002 1734.77 46.6864ZM1862.45 102.16C1862.45 102.061 1857.42 118.185 1847.36 150.533C1840.75 171.834 1835.32 189.635 1831.08 203.935C1829.01 210.148 1826.45 219.073 1823.39 230.71C1823.29 231.203 1823.24 237.12 1823.24 248.462V323.018H1799.28V319.32C1797.99 318.629 1795.92 318.333 1793.06 318.432C1792.67 308.471 1792.27 298.462 1791.88 288.402C1790.99 273.314 1789.91 264.142 1788.62 260.888C1789.71 259.507 1790.25 258.619 1790.25 258.225V235.444C1789.46 236.035 1787.34 238.353 1783.89 242.396C1783.99 243.481 1785.52 245.503 1788.48 248.462C1787.79 249.152 1787.44 250.187 1787.44 251.568C1785.17 250.976 1784.14 250.68 1784.33 250.68C1781.87 250.68 1779.16 252.16 1776.2 255.118C1776.39 252.85 1774.96 251.223 1771.91 250.237C1769.44 249.744 1766.93 249.25 1764.36 248.757C1764.36 245.602 1764.95 243.925 1766.14 243.728C1766.14 241.953 1764.9 240.276 1762.44 238.698C1760.37 237.318 1758.3 236.479 1756.23 236.183C1756.92 235.394 1757.26 234.063 1757.26 232.189C1760.81 231.203 1762.73 230.661 1763.03 230.562C1764.9 229.773 1766.29 228.491 1767.17 226.716H1770.43V228.639C1770.43 229.329 1770.48 230.266 1770.58 231.45C1770.58 232.83 1770.58 233.767 1770.58 234.26C1771.36 235.049 1772.05 235.789 1772.65 236.479C1773.34 237.071 1773.48 238.304 1773.09 240.178C1773.78 240.178 1774.77 240.325 1776.05 240.621C1777.33 240.819 1778.32 240.917 1779.01 240.917C1782.85 240.917 1784.78 239.586 1784.78 236.923C1784.78 236.233 1781.62 233.323 1775.31 228.195C1774.91 224.645 1774.42 219.32 1773.83 212.219C1769.29 210.148 1767.02 207.682 1767.02 204.822C1767.02 203.738 1767.86 202.357 1769.54 200.68C1771.22 198.905 1772.6 198.018 1773.68 198.018C1774.87 198.018 1775.75 198.314 1776.35 198.905L1777.68 197.278L1741.28 95.503C1742.17 96.5878 1744.54 97.1302 1748.38 97.1302C1747 97.1302 1756.42 96.5878 1776.64 95.503C1782.36 109.112 1786.16 125.582 1788.03 144.911C1789.31 161.775 1790.6 178.639 1791.88 195.503C1791.98 195.799 1792.42 196.341 1793.21 197.13C1793.8 194.467 1794.1 191.262 1794.1 187.515C1794.1 182.584 1793.6 176.765 1792.62 170.059C1791.63 164.043 1791.14 161.331 1791.14 161.923L1793.36 61.4793C1793.46 64.931 1793.51 68.5799 1793.51 72.426C1793.51 77.357 1793.36 84.7041 1793.06 94.4675C1792.77 104.231 1792.62 111.529 1792.62 116.361C1792.62 136.874 1795.87 154.576 1802.38 169.467C1803.17 168.974 1804.06 168.185 1805.05 167.101C1805.24 166.114 1805.44 164.783 1805.64 163.107C1807.22 162.613 1809.43 161.824 1812.29 160.74C1817.52 142.89 1823.04 122.327 1828.86 99.0533H1862.45V102.16ZM1808 179.527H1804.6C1805.49 181.203 1805.83 182.88 1805.64 184.556L1808 179.527ZM1794.99 213.107V208.964H1793.36V213.107H1794.99Z" fill="#00FFFF"/>
</g>
</g>
<defs>
<filter id="filter0_d" x="221" y="-26" width="1735" height="455" filterUnits="userSpaceOnUse" color-interpolation-filters="sRGB">
<feFlood flood-opacity="0" result="BackgroundImageFix"/>
<feColorMatrix in="SourceAlpha" type="matrix" values="0 0 0 0 0 0 0 0 0 0 0 0 0 0 0 0 0 0 127 0" result="hardAlpha"/>
<feOffset dy="4"/>
<feGaussianBlur stdDeviation="20"/>
<feColorMatrix type="matrix" values="0 0 0 0 0 0 0 0 0 0 0 0 0 0 0 0 0 0 0.25 0"/>
<feBlend mode="normal" in2="BackgroundImageFix" result="effect1_dropShadow"/>
<feBlend mode="normal" in="SourceGraphic" in2="effect1_dropShadow" result="shape"/>
</filter>
</defs>
</svg>
